G04 #@! TF.GenerationSoftware,KiCad,Pcbnew,(5.0.0)*
G04 #@! TF.CreationDate,2019-01-31T02:05:06-08:00*
G04 #@! TF.ProjectId,Orbit,4F726269742E6B696361645F70636200,rev?*
G04 #@! TF.SameCoordinates,Original*
G04 #@! TF.FileFunction,Paste,Bot*
G04 #@! TF.FilePolarity,Positive*
%FSLAX46Y46*%
G04 Gerber Fmt 4.6, Leading zero omitted, Abs format (unit mm)*
G04 Created by KiCad (PCBNEW (5.0.0)) date 01/31/19 02:05:06*
%MOMM*%
%LPD*%
G01*
G04 APERTURE LIST*
%ADD10R,0.700000X1.300000*%
%ADD11R,0.700000X1.000000*%
%ADD12R,0.700000X0.600000*%
%ADD13R,0.800000X0.750000*%
%ADD14R,0.750000X0.800000*%
%ADD15R,1.200000X0.900000*%
%ADD16R,2.030000X1.140000*%
%ADD17R,1.300000X0.700000*%
%ADD18R,1.100000X1.800000*%
%ADD19R,0.700000X0.250000*%
%ADD20R,0.250000X0.700000*%
%ADD21R,0.772500X0.772500*%
%ADD22R,1.400000X1.200000*%
%ADD23R,0.300000X1.150000*%
%ADD24R,0.600000X1.150000*%
%ADD25R,0.900000X0.800000*%
%ADD26R,0.800000X0.900000*%
G04 APERTURE END LIST*
D10*
G04 #@! TO.C,R9*
X121287500Y-101600000D03*
X123187500Y-101600000D03*
G04 #@! TD*
D11*
G04 #@! TO.C,U2*
X43862500Y-52431250D03*
D12*
X41862500Y-52231250D03*
X43862500Y-54131250D03*
X41862500Y-54131250D03*
G04 #@! TD*
D13*
G04 #@! TO.C,C1*
X107906250Y-116681250D03*
X106406250Y-116681250D03*
G04 #@! TD*
D14*
G04 #@! TO.C,C2*
X110744000Y-112756250D03*
X110744000Y-114256250D03*
G04 #@! TD*
D13*
G04 #@! TO.C,C3*
X115050000Y-104775000D03*
X113550000Y-104775000D03*
G04 #@! TD*
G04 #@! TO.C,C4*
X115050000Y-111125000D03*
X113550000Y-111125000D03*
G04 #@! TD*
D14*
G04 #@! TO.C,C5*
X100457000Y-108827000D03*
X100457000Y-107327000D03*
G04 #@! TD*
D13*
G04 #@! TO.C,C6*
X103874000Y-98933000D03*
X102374000Y-98933000D03*
G04 #@! TD*
G04 #@! TO.C,C7*
X108978000Y-98933000D03*
X110478000Y-98933000D03*
G04 #@! TD*
G04 #@! TO.C,C8*
X210300000Y-116205000D03*
X208800000Y-116205000D03*
G04 #@! TD*
D14*
G04 #@! TO.C,C9*
X213233000Y-112153000D03*
X213233000Y-113653000D03*
G04 #@! TD*
G04 #@! TO.C,C10*
X215900000Y-103275000D03*
X215900000Y-104775000D03*
G04 #@! TD*
D13*
G04 #@! TO.C,C11*
X206331250Y-98425000D03*
X204831250Y-98425000D03*
G04 #@! TD*
D14*
G04 #@! TO.C,C12*
X203200000Y-108700000D03*
X203200000Y-107200000D03*
G04 #@! TD*
G04 #@! TO.C,C13*
X215900000Y-110287500D03*
X215900000Y-108787500D03*
G04 #@! TD*
D13*
G04 #@! TO.C,C14*
X211181250Y-98425000D03*
X212681250Y-98425000D03*
G04 #@! TD*
D15*
G04 #@! TO.C,D9*
X30162500Y-56418750D03*
X30162500Y-53118750D03*
G04 #@! TD*
G04 #@! TO.C,D10*
X49212500Y-56418750D03*
X49212500Y-53118750D03*
G04 #@! TD*
G04 #@! TO.C,D11*
X68262500Y-51656250D03*
X68262500Y-48356250D03*
G04 #@! TD*
G04 #@! TO.C,D12*
X87312500Y-49275000D03*
X87312500Y-45975000D03*
G04 #@! TD*
G04 #@! TO.C,D13*
X106362500Y-51656250D03*
X106362500Y-48356250D03*
G04 #@! TD*
G04 #@! TO.C,D14*
X125412500Y-54037500D03*
X125412500Y-50737500D03*
G04 #@! TD*
G04 #@! TO.C,D16*
X30162500Y-75468750D03*
X30162500Y-72168750D03*
G04 #@! TD*
G04 #@! TO.C,D17*
X49212500Y-75468750D03*
X49212500Y-72168750D03*
G04 #@! TD*
G04 #@! TO.C,D18*
X68262500Y-70706250D03*
X68262500Y-67406250D03*
G04 #@! TD*
G04 #@! TO.C,D19*
X87312500Y-68325000D03*
X87312500Y-65025000D03*
G04 #@! TD*
G04 #@! TO.C,D20*
X106362500Y-70706250D03*
X106362500Y-67406250D03*
G04 #@! TD*
G04 #@! TO.C,D21*
X125412500Y-73087500D03*
X125412500Y-69787500D03*
G04 #@! TD*
G04 #@! TO.C,D23*
X30162500Y-94518750D03*
X30162500Y-91218750D03*
G04 #@! TD*
G04 #@! TO.C,D24*
X49212500Y-94518750D03*
X49212500Y-91218750D03*
G04 #@! TD*
G04 #@! TO.C,D25*
X68262500Y-89756250D03*
X68262500Y-86456250D03*
G04 #@! TD*
G04 #@! TO.C,D26*
X87312500Y-87375000D03*
X87312500Y-84075000D03*
G04 #@! TD*
G04 #@! TO.C,D27*
X106362500Y-89756250D03*
X106362500Y-86456250D03*
G04 #@! TD*
G04 #@! TO.C,D28*
X125412500Y-92137500D03*
X125412500Y-88837500D03*
G04 #@! TD*
G04 #@! TO.C,D29*
X30162500Y-113568750D03*
X30162500Y-110268750D03*
G04 #@! TD*
G04 #@! TO.C,D30*
X49212500Y-113568750D03*
X49212500Y-110268750D03*
G04 #@! TD*
G04 #@! TO.C,D31*
X68262500Y-108806250D03*
X68262500Y-105506250D03*
G04 #@! TD*
G04 #@! TO.C,D32*
X87312500Y-106425000D03*
X87312500Y-103125000D03*
G04 #@! TD*
G04 #@! TO.C,D33*
X126206250Y-104837500D03*
X126206250Y-101537500D03*
G04 #@! TD*
G04 #@! TO.C,D34*
X130175000Y-104837500D03*
X130175000Y-101537500D03*
G04 #@! TD*
G04 #@! TO.C,D43*
X182562500Y-54037500D03*
X182562500Y-50737500D03*
G04 #@! TD*
G04 #@! TO.C,D44*
X201612500Y-51656250D03*
X201612500Y-48356250D03*
G04 #@! TD*
G04 #@! TO.C,D45*
X220662500Y-49275000D03*
X220662500Y-45975000D03*
G04 #@! TD*
G04 #@! TO.C,D46*
X239712500Y-51656250D03*
X239712500Y-48356250D03*
G04 #@! TD*
G04 #@! TO.C,D47*
X258762500Y-56418750D03*
X258762500Y-53118750D03*
G04 #@! TD*
G04 #@! TO.C,D48*
X277812500Y-56418750D03*
X277812500Y-53118750D03*
G04 #@! TD*
G04 #@! TO.C,D50*
X182562500Y-73087500D03*
X182562500Y-69787500D03*
G04 #@! TD*
G04 #@! TO.C,D51*
X201612500Y-70706250D03*
X201612500Y-67406250D03*
G04 #@! TD*
G04 #@! TO.C,D52*
X220662500Y-68325000D03*
X220662500Y-65025000D03*
G04 #@! TD*
G04 #@! TO.C,D53*
X239712500Y-70706250D03*
X239712500Y-67406250D03*
G04 #@! TD*
G04 #@! TO.C,D54*
X258762500Y-75468750D03*
X258762500Y-72168750D03*
G04 #@! TD*
G04 #@! TO.C,D55*
X277812500Y-75468750D03*
X277812500Y-72168750D03*
G04 #@! TD*
G04 #@! TO.C,D57*
X182562500Y-92137500D03*
X182562500Y-88837500D03*
G04 #@! TD*
G04 #@! TO.C,D58*
X201612500Y-89756250D03*
X201612500Y-86456250D03*
G04 #@! TD*
G04 #@! TO.C,D59*
X220662500Y-87375000D03*
X220662500Y-84075000D03*
G04 #@! TD*
G04 #@! TO.C,D60*
X239712500Y-89756250D03*
X239712500Y-86456250D03*
G04 #@! TD*
G04 #@! TO.C,D61*
X258762500Y-94518750D03*
X258762500Y-91218750D03*
G04 #@! TD*
G04 #@! TO.C,D62*
X277812500Y-94518750D03*
X277812500Y-91218750D03*
G04 #@! TD*
G04 #@! TO.C,D64*
X176212500Y-109600000D03*
X176212500Y-106300000D03*
G04 #@! TD*
G04 #@! TO.C,D65*
X180181250Y-109600000D03*
X180181250Y-106300000D03*
G04 #@! TD*
G04 #@! TO.C,D66*
X220662500Y-106425000D03*
X220662500Y-103125000D03*
G04 #@! TD*
G04 #@! TO.C,D67*
X239712500Y-108806250D03*
X239712500Y-105506250D03*
G04 #@! TD*
G04 #@! TO.C,D68*
X258762500Y-113568750D03*
X258762500Y-110268750D03*
G04 #@! TD*
G04 #@! TO.C,D69*
X277812500Y-113568750D03*
X277812500Y-110268750D03*
G04 #@! TD*
G04 #@! TO.C,D75*
X48418750Y-69118750D03*
X48418750Y-65818750D03*
G04 #@! TD*
G04 #@! TO.C,D76*
X272256250Y-73087500D03*
X272256250Y-69787500D03*
G04 #@! TD*
D16*
G04 #@! TO.C,F1*
X37306250Y-66287500D03*
X37306250Y-63887500D03*
G04 #@! TD*
G04 #@! TO.C,F2*
X277018750Y-66287500D03*
X277018750Y-63887500D03*
G04 #@! TD*
D10*
G04 #@! TO.C,R10*
X121287500Y-98552000D03*
X123187500Y-98552000D03*
G04 #@! TD*
D17*
G04 #@! TO.C,R25*
X97631250Y-113662500D03*
X97631250Y-111762500D03*
G04 #@! TD*
D10*
G04 #@! TO.C,R41*
X64450000Y-59531250D03*
X62550000Y-59531250D03*
G04 #@! TD*
G04 #@! TO.C,R42*
X64450000Y-62706250D03*
X62550000Y-62706250D03*
G04 #@! TD*
G04 #@! TO.C,R43*
X56200000Y-47625000D03*
X58100000Y-47625000D03*
G04 #@! TD*
D17*
G04 #@! TO.C,R44*
X29368750Y-48262500D03*
X29368750Y-50162500D03*
G04 #@! TD*
G04 #@! TO.C,R67*
X201612500Y-116043750D03*
X201612500Y-114143750D03*
G04 #@! TD*
D10*
G04 #@! TO.C,R83*
X253843750Y-66675000D03*
X255743750Y-66675000D03*
G04 #@! TD*
G04 #@! TO.C,R84*
X253843750Y-63500000D03*
X255743750Y-63500000D03*
G04 #@! TD*
G04 #@! TO.C,R85*
X284800000Y-47625000D03*
X286700000Y-47625000D03*
G04 #@! TD*
D17*
G04 #@! TO.C,R86*
X257175000Y-49368750D03*
X257175000Y-47468750D03*
G04 #@! TD*
G04 #@! TO.C,R87*
X100806250Y-113662500D03*
X100806250Y-111762500D03*
G04 #@! TD*
G04 #@! TO.C,R88*
X203993750Y-116043750D03*
X203993750Y-114143750D03*
G04 #@! TD*
D18*
G04 #@! TO.C,SW1*
X133881250Y-104700000D03*
X137581250Y-98500000D03*
X137581250Y-104700000D03*
X133881250Y-98500000D03*
G04 #@! TD*
G04 #@! TO.C,SW2*
X183887500Y-109462500D03*
X187587500Y-103262500D03*
X187587500Y-109462500D03*
X183887500Y-103262500D03*
G04 #@! TD*
D19*
G04 #@! TO.C,U1*
X109762500Y-102275000D03*
X109762500Y-102775000D03*
X109762500Y-103275000D03*
X109762500Y-103775000D03*
X109762500Y-104275000D03*
X109762500Y-104775000D03*
X109762500Y-105275000D03*
X109762500Y-105775000D03*
X109762500Y-106275000D03*
X109762500Y-106775000D03*
X109762500Y-107275000D03*
D20*
X108862500Y-108175000D03*
X108362500Y-108175000D03*
X107862500Y-108175000D03*
X107362500Y-108175000D03*
X106862500Y-108175000D03*
X106362500Y-108175000D03*
X105862500Y-108175000D03*
X105362500Y-108175000D03*
X104862500Y-108175000D03*
X104362500Y-108175000D03*
X103862500Y-108175000D03*
D19*
X102962500Y-107275000D03*
X102962500Y-106775000D03*
X102962500Y-106275000D03*
X102962500Y-105775000D03*
X102962500Y-105275000D03*
X102962500Y-104775000D03*
X102962500Y-104275000D03*
X102962500Y-103775000D03*
X102962500Y-103275000D03*
X102962500Y-102775000D03*
X102962500Y-102275000D03*
D20*
X103862500Y-101375000D03*
X104362500Y-101375000D03*
X104862500Y-101375000D03*
X105362500Y-101375000D03*
X105862500Y-101375000D03*
X106362500Y-101375000D03*
X106862500Y-101375000D03*
X107362500Y-101375000D03*
X107862500Y-101375000D03*
X108362500Y-101375000D03*
X108862500Y-101375000D03*
D21*
X104431250Y-106706250D03*
X104431250Y-105418750D03*
X104431250Y-104131250D03*
X104431250Y-102843750D03*
X105718750Y-106706250D03*
X105718750Y-105418750D03*
X105718750Y-104131250D03*
X105718750Y-102843750D03*
X107006250Y-106706250D03*
X107006250Y-105418750D03*
X107006250Y-104131250D03*
X107006250Y-102843750D03*
X108293750Y-106706250D03*
X108293750Y-105418750D03*
X108293750Y-104131250D03*
X108293750Y-102843750D03*
G04 #@! TD*
D19*
G04 #@! TO.C,U3*
X212252598Y-101993993D03*
X212252598Y-102493993D03*
X212252598Y-102993993D03*
X212252598Y-103493993D03*
X212252598Y-103993993D03*
X212252598Y-104493993D03*
X212252598Y-104993993D03*
X212252598Y-105493993D03*
X212252598Y-105993993D03*
X212252598Y-106493993D03*
X212252598Y-106993993D03*
D20*
X211352598Y-107893993D03*
X210852598Y-107893993D03*
X210352598Y-107893993D03*
X209852598Y-107893993D03*
X209352598Y-107893993D03*
X208852598Y-107893993D03*
X208352598Y-107893993D03*
X207852598Y-107893993D03*
X207352598Y-107893993D03*
X206852598Y-107893993D03*
X206352598Y-107893993D03*
D19*
X205452598Y-106993993D03*
X205452598Y-106493993D03*
X205452598Y-105993993D03*
X205452598Y-105493993D03*
X205452598Y-104993993D03*
X205452598Y-104493993D03*
X205452598Y-103993993D03*
X205452598Y-103493993D03*
X205452598Y-102993993D03*
X205452598Y-102493993D03*
X205452598Y-101993993D03*
D20*
X206352598Y-101093993D03*
X206852598Y-101093993D03*
X207352598Y-101093993D03*
X207852598Y-101093993D03*
X208352598Y-101093993D03*
X208852598Y-101093993D03*
X209352598Y-101093993D03*
X209852598Y-101093993D03*
X210352598Y-101093993D03*
X210852598Y-101093993D03*
X211352598Y-101093993D03*
D21*
X206921348Y-106425243D03*
X206921348Y-105137743D03*
X206921348Y-103850243D03*
X206921348Y-102562743D03*
X208208848Y-106425243D03*
X208208848Y-105137743D03*
X208208848Y-103850243D03*
X208208848Y-102562743D03*
X209496348Y-106425243D03*
X209496348Y-105137743D03*
X209496348Y-103850243D03*
X209496348Y-102562743D03*
X210783848Y-106425243D03*
X210783848Y-105137743D03*
X210783848Y-103850243D03*
X210783848Y-102562743D03*
G04 #@! TD*
D11*
G04 #@! TO.C,U4*
X272462500Y-52431250D03*
D12*
X270462500Y-52231250D03*
X272462500Y-54131250D03*
X270462500Y-54131250D03*
G04 #@! TD*
D22*
G04 #@! TO.C,Y1*
X106056250Y-112656250D03*
X108256250Y-112656250D03*
X108256250Y-114356250D03*
X106056250Y-114356250D03*
G04 #@! TD*
G04 #@! TO.C,Y2*
X208450000Y-112053000D03*
X210650000Y-112053000D03*
X210650000Y-113753000D03*
X208450000Y-113753000D03*
G04 #@! TD*
D23*
G04 #@! TO.C,USB1*
X42612500Y-47722500D03*
X43112500Y-47722500D03*
X43612500Y-47722500D03*
X42112500Y-47722500D03*
X44112500Y-47722500D03*
X41612500Y-47722500D03*
X44612500Y-47722500D03*
X41112500Y-47722500D03*
D24*
X40462500Y-47722500D03*
X45262500Y-47722500D03*
X39662500Y-47722500D03*
X46062500Y-47722500D03*
G04 #@! TD*
D23*
G04 #@! TO.C,USB2*
X271062500Y-47722500D03*
X271562500Y-47722500D03*
X272062500Y-47722500D03*
X270562500Y-47722500D03*
X272562500Y-47722500D03*
X270062500Y-47722500D03*
X273062500Y-47722500D03*
X269562500Y-47722500D03*
D24*
X268912500Y-47722500D03*
X273712500Y-47722500D03*
X268112500Y-47722500D03*
X274512500Y-47722500D03*
G04 #@! TD*
D23*
G04 #@! TO.C,USB3*
X118812500Y-43849000D03*
X119312500Y-43849000D03*
X119812500Y-43849000D03*
X118312500Y-43849000D03*
X120312500Y-43849000D03*
X117812500Y-43849000D03*
X120812500Y-43849000D03*
X117312500Y-43849000D03*
D24*
X116662500Y-43849000D03*
X121462500Y-43849000D03*
X115862500Y-43849000D03*
X122262500Y-43849000D03*
G04 #@! TD*
D23*
G04 #@! TO.C,USB4*
X194862500Y-43817250D03*
X195362500Y-43817250D03*
X195862500Y-43817250D03*
X194362500Y-43817250D03*
X196362500Y-43817250D03*
X193862500Y-43817250D03*
X196862500Y-43817250D03*
X193362500Y-43817250D03*
D24*
X192712500Y-43817250D03*
X197512500Y-43817250D03*
X191912500Y-43817250D03*
X198312500Y-43817250D03*
G04 #@! TD*
D25*
G04 #@! TO.C,Q1*
X132350000Y-109693750D03*
X132350000Y-107793750D03*
X134350000Y-108743750D03*
G04 #@! TD*
D26*
G04 #@! TO.C,Q2*
X235106250Y-103393750D03*
X233206250Y-103393750D03*
X234156250Y-101393750D03*
G04 #@! TD*
D17*
G04 #@! TO.C,R1*
X129381250Y-109693750D03*
X129381250Y-107793750D03*
G04 #@! TD*
G04 #@! TO.C,R2*
X38893750Y-58581250D03*
X38893750Y-60481250D03*
G04 #@! TD*
G04 #@! TO.C,R3*
X57943750Y-58581250D03*
X57943750Y-60481250D03*
G04 #@! TD*
G04 #@! TO.C,R4*
X76993750Y-53818750D03*
X76993750Y-55718750D03*
G04 #@! TD*
G04 #@! TO.C,R5*
X96043750Y-51437500D03*
X96043750Y-53337500D03*
G04 #@! TD*
G04 #@! TO.C,R6*
X115093750Y-53818750D03*
X115093750Y-55718750D03*
G04 #@! TD*
G04 #@! TO.C,R7*
X134143750Y-56200000D03*
X134143750Y-58100000D03*
G04 #@! TD*
G04 #@! TO.C,R8*
X38893750Y-77631250D03*
X38893750Y-79531250D03*
G04 #@! TD*
G04 #@! TO.C,R11*
X57943750Y-77631250D03*
X57943750Y-79531250D03*
G04 #@! TD*
G04 #@! TO.C,R12*
X76993750Y-72868750D03*
X76993750Y-74768750D03*
G04 #@! TD*
G04 #@! TO.C,R13*
X96043750Y-70487500D03*
X96043750Y-72387500D03*
G04 #@! TD*
G04 #@! TO.C,R14*
X115093750Y-72868750D03*
X115093750Y-74768750D03*
G04 #@! TD*
G04 #@! TO.C,R15*
X134143750Y-75250000D03*
X134143750Y-77150000D03*
G04 #@! TD*
G04 #@! TO.C,R16*
X38893750Y-96681250D03*
X38893750Y-98581250D03*
G04 #@! TD*
G04 #@! TO.C,R17*
X57943750Y-96681250D03*
X57943750Y-98581250D03*
G04 #@! TD*
G04 #@! TO.C,R18*
X76993750Y-91918750D03*
X76993750Y-93818750D03*
G04 #@! TD*
G04 #@! TO.C,R19*
X96043750Y-89537500D03*
X96043750Y-91437500D03*
G04 #@! TD*
G04 #@! TO.C,R20*
X115093750Y-91918750D03*
X115093750Y-93818750D03*
G04 #@! TD*
G04 #@! TO.C,R21*
X131762500Y-90331250D03*
X131762500Y-92231250D03*
G04 #@! TD*
G04 #@! TO.C,R22*
X38893750Y-115731250D03*
X38893750Y-117631250D03*
G04 #@! TD*
G04 #@! TO.C,R23*
X57943750Y-115731250D03*
X57943750Y-117631250D03*
G04 #@! TD*
G04 #@! TO.C,R24*
X76993750Y-110968750D03*
X76993750Y-112868750D03*
G04 #@! TD*
G04 #@! TO.C,R26*
X83343750Y-108587500D03*
X83343750Y-110487500D03*
G04 #@! TD*
G04 #@! TO.C,R27*
X122047000Y-119700000D03*
X122047000Y-121600000D03*
G04 #@! TD*
G04 #@! TO.C,R28*
X135731250Y-118906250D03*
X135731250Y-120806250D03*
G04 #@! TD*
D10*
G04 #@! TO.C,R29*
X235106250Y-106362500D03*
X233206250Y-106362500D03*
G04 #@! TD*
D17*
G04 #@! TO.C,R30*
X178593750Y-56200000D03*
X178593750Y-58100000D03*
G04 #@! TD*
G04 #@! TO.C,R31*
X210343750Y-53818750D03*
X210343750Y-55718750D03*
G04 #@! TD*
G04 #@! TO.C,R32*
X229393750Y-51437500D03*
X229393750Y-53337500D03*
G04 #@! TD*
G04 #@! TO.C,R33*
X248443750Y-53818750D03*
X248443750Y-55718750D03*
G04 #@! TD*
G04 #@! TO.C,R34*
X254000000Y-58581250D03*
X254000000Y-60481250D03*
G04 #@! TD*
G04 #@! TO.C,R35*
X286543750Y-58581250D03*
X286543750Y-60481250D03*
G04 #@! TD*
G04 #@! TO.C,R36*
X191293750Y-75250000D03*
X191293750Y-77150000D03*
G04 #@! TD*
G04 #@! TO.C,R37*
X210343750Y-72868750D03*
X210343750Y-74768750D03*
G04 #@! TD*
G04 #@! TO.C,R38*
X229393750Y-70487500D03*
X229393750Y-72387500D03*
G04 #@! TD*
G04 #@! TO.C,R39*
X248443750Y-72868750D03*
X248443750Y-74768750D03*
G04 #@! TD*
G04 #@! TO.C,R40*
X267493750Y-77631250D03*
X267493750Y-79531250D03*
G04 #@! TD*
G04 #@! TO.C,R45*
X286543750Y-77631250D03*
X286543750Y-79531250D03*
G04 #@! TD*
G04 #@! TO.C,R46*
X191293750Y-94300000D03*
X191293750Y-96200000D03*
G04 #@! TD*
G04 #@! TO.C,R47*
X210343750Y-91918750D03*
X210343750Y-93818750D03*
G04 #@! TD*
G04 #@! TO.C,R48*
X229393750Y-89537500D03*
X229393750Y-91437500D03*
G04 #@! TD*
G04 #@! TO.C,R49*
X248443750Y-91918750D03*
X248443750Y-93818750D03*
G04 #@! TD*
G04 #@! TO.C,R50*
X267493750Y-96681250D03*
X267493750Y-98581250D03*
G04 #@! TD*
G04 #@! TO.C,R51*
X286543750Y-96681250D03*
X286543750Y-98581250D03*
G04 #@! TD*
G04 #@! TO.C,R52*
X176212500Y-112556250D03*
X176212500Y-114456250D03*
G04 #@! TD*
G04 #@! TO.C,R53*
X184150000Y-112556250D03*
X184150000Y-114456250D03*
G04 #@! TD*
G04 #@! TO.C,R54*
X229393750Y-108587500D03*
X229393750Y-110487500D03*
G04 #@! TD*
G04 #@! TO.C,R55*
X248443750Y-110968750D03*
X248443750Y-112868750D03*
G04 #@! TD*
G04 #@! TO.C,R56*
X267493750Y-115731250D03*
X267493750Y-117631250D03*
G04 #@! TD*
G04 #@! TO.C,R57*
X286543750Y-115731250D03*
X286543750Y-117631250D03*
G04 #@! TD*
M02*
