M48
;DRILL file {KiCad (5.0.0)} date 01/31/19 01:52:37
;FORMAT={-:-/ absolute / inch / decimal}
FMAT,2
INCH,TZ
T1C0.0157
T2C0.0236
T3C0.0394
T4C0.0409
T5C0.0472
%
G90
G05
M72
T1
X1.155Y-1.85
X1.575Y-2.105
X1.575Y-2.26
X1.595Y-2.055
X1.6Y-2.295
X1.625Y-2.01
X1.665Y-1.96
X1.73Y-1.96
X1.765Y-1.985
X1.775Y-2.065
X1.795Y-1.95
X1.855Y-2.295
X1.88Y-2.26
X1.9375Y-2.7812
X2.165Y-1.875
X2.685Y-3.6
X2.685Y-4.35
X3.845Y-4.35
X3.865Y-4.01
X3.91Y-4.225
X3.95Y-2.075
X3.98Y-2.825
X3.98Y-3.895
X4.Y-3.575
X4.Y-3.67
X4.Y-3.71
X4.Y-3.75
X4.005Y-4.14
X4.025Y-4.475
X4.115Y-4.335
X4.155Y-4.335
X4.185Y-2.135
X4.185Y-2.85
X4.185Y-3.6
X4.36Y-3.845
X4.365Y-4.285
X4.375Y-4.005
X4.375Y-4.155
X4.405Y-2.5
X4.405Y-3.87
X4.41Y-4.03
X4.41Y-4.075
X4.425Y-4.375
X4.455Y-2.5
X4.485Y-3.96
X4.525Y-3.96
X4.525Y-4.
X4.59Y-2.075
X4.59Y-2.12
X4.59Y-3.815
X4.6Y-1.785
X4.6Y-1.835
X4.665Y-1.795
X4.7Y-2.7
X4.725Y-4.
X4.73Y-1.795
X4.745Y-2.7
X4.775Y-1.785
X4.775Y-2.08
X4.775Y-3.82
X4.845Y-4.065
X4.855Y-2.2
X4.89Y-4.13
X4.905Y-3.81
X4.92Y-3.35
X5.035Y-4.245
X5.04Y-4.18
X5.18Y-4.18
X5.185Y-4.01
X5.1875Y-3.5
X5.19Y-2.94
X5.235Y-3.745
X5.29Y-4.33
X5.375Y-3.805
X5.49Y-4.53
X7.01Y-4.465
X7.25Y-4.385
X7.315Y-4.38
X7.385Y-4.385
X7.435Y-3.715
X7.505Y-2.19
X7.51Y-4.735
X7.57Y-2.14
X7.595Y-1.785
X7.605Y-4.035
X7.64Y-1.795
X7.685Y-4.26
X7.7Y-1.795
X7.735Y-3.205
X7.735Y-3.575
X7.755Y-2.825
X7.765Y-1.785
X7.8Y-3.825
X7.8Y-3.865
X7.8Y-3.905
X7.8Y-3.945
X7.81Y-4.24
X7.84Y-2.07
X7.84Y-2.11
X7.89Y-2.275
X7.915Y-4.415
X8.Y-4.175
X8.015Y-3.875
X8.04Y-4.005
X8.04Y-4.44
X8.11Y-4.295
X8.155Y-3.765
X8.19Y-1.69
X8.325Y-2.47
X8.355Y-3.825
X8.36Y-2.415
X8.405Y-4.145
X8.41Y-4.025
X8.44Y-4.27
X8.445Y-3.985
X8.45Y-4.16
X8.485Y-3.985
X8.49Y-4.18
X8.5Y-2.32
X8.515Y-3.825
X8.525Y-4.205
X8.54Y-2.32
X8.55Y-4.305
X8.655Y-3.205
X8.68Y-2.755
X8.68Y-3.505
X8.68Y-4.25
X8.69Y-2.005
X9.115Y-4.21
X9.115Y-4.295
X9.13Y-1.65
X9.13Y-4.07
X9.42Y-3.995
X9.43Y-3.6
X9.43Y-4.35
X10.19Y-1.945
X10.52Y-2.37
X10.525Y-2.28
X10.6Y-2.01
X10.62Y-1.935
X10.64Y-1.975
X10.7Y-1.945
X10.76Y-1.945
X10.76Y-1.99
X10.84Y-2.28
X10.905Y-2.455
X10.945Y-2.775
X11.165Y-1.875
X11.34Y-3.055
X11.345Y-2.305
T3
X7.325Y-4.6187
X7.325Y-4.7188
X7.325Y-4.8187
X7.425Y-4.6187
X7.425Y-4.7188
X7.425Y-4.8187
X4.95Y-4.5562
X4.95Y-4.6562
X4.95Y-4.7562
X5.05Y-4.5562
X5.05Y-4.6562
X5.05Y-4.7562
T4
X2.7625Y-3.685
X2.8625Y-3.685
X1.2625Y-2.3725
X1.3625Y-2.3725
X10.2566Y-4.6225
X10.3566Y-4.6225
X5.0125Y-3.0288
X5.1125Y-3.0288
X8.0066Y-3.685
X8.1066Y-3.685
X7.2566Y-3.7788
X7.3566Y-3.7788
X4.5853Y-4.5268
X4.6804Y-4.5577
X3.5125Y-3.5913
X3.6125Y-3.5913
X1.2625Y-3.8725
X1.3625Y-3.8725
X2.0125Y-3.1225
X2.1125Y-3.1225
X5.6152Y-4.7912
X5.6652Y-4.7046
X11.0066Y-3.1225
X11.1066Y-3.1225
X4.2625Y-2.935
X4.3625Y-2.935
X10.2566Y-3.1225
X10.3566Y-3.1225
X11.0066Y-2.3725
X11.1066Y-2.3725
X2.0125Y-3.8725
X2.1125Y-3.8725
X3.5125Y-4.3413
X3.6125Y-4.3413
X3.5125Y-2.8413
X3.6125Y-2.8413
X9.5066Y-4.435
X9.6066Y-4.435
X9.5066Y-2.935
X9.6066Y-2.935
X1.2625Y-4.6225
X1.3625Y-4.6225
X5.0125Y-3.7788
X5.1125Y-3.7788
X5.0125Y-2.2788
X5.1125Y-2.2788
X8.7566Y-4.3413
X8.8566Y-4.3413
X3.5125Y-2.0913
X3.6125Y-2.0913
X8.7566Y-2.8413
X8.8566Y-2.8413
X7.2566Y-3.0288
X7.3566Y-3.0288
X8.0066Y-2.185
X8.1066Y-2.185
X4.2625Y-2.185
X4.3625Y-2.185
X1.2625Y-3.1225
X1.3625Y-3.1225
X10.2566Y-3.8725
X10.3566Y-3.8725
X2.0125Y-2.3725
X2.1125Y-2.3725
X8.0066Y-2.935
X8.1066Y-2.935
X2.7625Y-4.435
X2.8625Y-4.435
X2.0125Y-4.6225
X2.1125Y-4.6225
X2.7625Y-2.185
X2.8625Y-2.185
X11.0066Y-3.8725
X11.1066Y-3.8725
X8.7566Y-3.5913
X8.8566Y-3.5913
X8.7566Y-2.0913
X8.8566Y-2.0913
X10.2566Y-2.3725
X10.3566Y-2.3725
X4.2625Y-3.685
X4.3625Y-3.685
X2.7625Y-2.935
X2.8625Y-2.935
X11.0066Y-4.6225
X11.1066Y-4.6225
X6.7038Y-4.7046
X6.7538Y-4.7912
X9.5066Y-3.685
X9.6066Y-3.685
X7.6887Y-4.5577
X7.7838Y-4.5268
X7.2566Y-2.2788
X7.3566Y-2.2788
X9.5066Y-2.185
X9.6066Y-2.185
T5
X7.6073Y-4.1453
X7.8201Y-4.1631
X7.3066Y-1.8615
X7.5034Y-1.9441
X9.5566Y-1.7677
X9.7534Y-1.8504
X2.8125Y-3.2677
X3.0094Y-3.3504
X1.3125Y-1.9552
X1.5094Y-2.0379
X10.3066Y-4.2052
X10.5034Y-4.2879
X5.0625Y-2.6115
X5.2594Y-2.6941
X8.0566Y-3.2677
X8.2534Y-3.3504
X7.3066Y-3.3615
X7.5034Y-3.4441
X4.7618Y-4.1453
X4.9234Y-4.2848
X3.5625Y-3.174
X3.7594Y-3.2566
X1.3125Y-3.4552
X1.5094Y-3.5379
X2.0625Y-2.7052
X2.2594Y-2.7879
X5.2788Y-4.5393
X5.4489Y-4.4101
X11.0566Y-2.7052
X11.2534Y-2.7879
X4.3125Y-2.5177
X4.5094Y-2.6004
X10.3066Y-2.7052
X10.5034Y-2.7879
X11.0566Y-1.9552
X11.2534Y-2.0379
X2.0625Y-3.4552
X2.2594Y-3.5379
X3.5625Y-3.924
X3.7594Y-4.0066
X3.5625Y-2.424
X3.7594Y-2.5066
X9.5566Y-4.0177
X9.7534Y-4.1004
X9.5566Y-2.5177
X9.7534Y-2.6004
X1.3125Y-4.2052
X1.5094Y-4.2879
X5.0625Y-3.3615
X5.2594Y-3.4441
X5.0625Y-1.8615
X5.2594Y-1.9441
X8.8066Y-3.924
X9.0034Y-4.0066
X3.5625Y-1.674
X3.7594Y-1.7566
X8.8066Y-2.424
X9.0034Y-2.5066
X7.3066Y-2.6115
X7.5034Y-2.6941
X8.0566Y-1.7677
X8.2534Y-1.8504
X4.3125Y-1.7677
X4.5094Y-1.8504
X1.3125Y-2.7052
X1.5094Y-2.7879
X10.3066Y-3.4552
X10.5034Y-3.5379
X2.0625Y-1.9552
X2.2594Y-2.0379
X8.0566Y-2.5177
X8.2534Y-2.6004
X2.8125Y-4.0177
X3.0094Y-4.1004
X2.0625Y-4.2052
X2.2594Y-4.2879
X2.8125Y-1.7677
X3.0094Y-1.8504
X11.0566Y-3.4552
X11.2534Y-3.5379
X8.8066Y-3.174
X9.0034Y-3.2566
X8.8066Y-1.674
X9.0034Y-1.7566
X10.3066Y-1.9552
X10.5034Y-2.0379
X4.3125Y-3.2677
X4.5094Y-3.3504
X2.8125Y-2.5177
X3.0094Y-2.6004
X11.0566Y-4.2052
X11.2534Y-4.2879
X7.0903Y-4.5393
X7.1171Y-4.7511
X9.5566Y-3.2677
X9.7534Y-3.3504
T2
X4.4662Y-1.4941G85X4.4662Y-1.5413
G05
X4.4662Y-1.6594G85X4.4662Y-1.6909
G05
X4.9088Y-1.4941G85X4.9088Y-1.5413
G05
X4.9088Y-1.6594G85X4.9088Y-1.6909
G05
X1.4662Y-1.6466G85X1.4662Y-1.6938
G05
X1.4662Y-1.8119G85X1.4662Y-1.8434
G05
X1.9088Y-1.6466G85X1.9088Y-1.6938
G05
X1.9088Y-1.8119G85X1.9088Y-1.8434
G05
X10.4603Y-1.6466G85X10.4603Y-1.6938
G05
X10.4603Y-1.8119G85X10.4603Y-1.8434
G05
X10.9029Y-1.6466G85X10.9029Y-1.6938
G05
X10.9029Y-1.8119G85X10.9029Y-1.8434
G05
X7.4603Y-1.4928G85X7.4603Y-1.54
G05
X7.4603Y-1.6582G85X7.4603Y-1.6897
G05
X7.9029Y-1.4928G85X7.9029Y-1.54
G05
X7.9029Y-1.6582G85X7.9029Y-1.6897
G05
T0
M30
