G04 #@! TF.GenerationSoftware,KiCad,Pcbnew,(5.0.0)*
G04 #@! TF.CreationDate,2019-01-31T02:05:07-08:00*
G04 #@! TF.ProjectId,Orbit,4F726269742E6B696361645F70636200,rev?*
G04 #@! TF.SameCoordinates,Original*
G04 #@! TF.FileFunction,Soldermask,Bot*
G04 #@! TF.FilePolarity,Negative*
%FSLAX46Y46*%
G04 Gerber Fmt 4.6, Leading zero omitted, Abs format (unit mm)*
G04 Created by KiCad (PCBNEW (5.0.0)) date 01/31/19 02:05:07*
%MOMM*%
%LPD*%
G01*
G04 APERTURE LIST*
%ADD10C,0.300000*%
%ADD11C,0.010000*%
%ADD12R,1.100000X1.700000*%
%ADD13R,1.100000X1.400000*%
%ADD14R,1.100000X1.000000*%
%ADD15C,2.305000*%
%ADD16C,0.100000*%
%ADD17C,1.600000*%
%ADD18C,2.300000*%
%ADD19C,2.400000*%
%ADD20C,3.800000*%
%ADD21R,2.305000X2.305000*%
%ADD22R,1.200000X1.150000*%
%ADD23R,1.150000X1.200000*%
%ADD24R,1.600000X1.300000*%
%ADD25R,2.430000X1.540000*%
%ADD26C,2.540000*%
%ADD27R,2.100000X2.100000*%
%ADD28C,2.100000*%
%ADD29C,1.187400*%
%ADD30R,1.700000X1.100000*%
%ADD31R,1.500000X2.200000*%
%ADD32R,1.100000X0.650000*%
%ADD33R,0.650000X1.100000*%
%ADD34R,1.687500X1.687500*%
%ADD35R,1.800000X1.600000*%
%ADD36O,1.400000X2.600000*%
%ADD37O,1.400000X2.200000*%
%ADD38R,0.700000X1.550000*%
%ADD39R,1.000000X1.550000*%
%ADD40R,1.300000X1.200000*%
%ADD41R,1.200000X1.300000*%
G04 APERTURE END LIST*
D10*
X277212500Y-120534821D02*
X277212500Y-119034821D01*
X277069642Y-119963392D02*
X276641071Y-120534821D01*
X276641071Y-119534821D02*
X277212500Y-120106250D01*
X275998214Y-120534821D02*
X275998214Y-119034821D01*
X275998214Y-119606250D02*
X275855357Y-119534821D01*
X275569642Y-119534821D01*
X275426785Y-119606250D01*
X275355357Y-119677678D01*
X275283928Y-119820535D01*
X275283928Y-120249107D01*
X275355357Y-120391964D01*
X275426785Y-120463392D01*
X275569642Y-120534821D01*
X275855357Y-120534821D01*
X275998214Y-120463392D01*
X274641071Y-120391964D02*
X274569642Y-120463392D01*
X274641071Y-120534821D01*
X274712500Y-120463392D01*
X274641071Y-120391964D01*
X274641071Y-120534821D01*
X273283928Y-120534821D02*
X273283928Y-119749107D01*
X273355357Y-119606250D01*
X273498214Y-119534821D01*
X273783928Y-119534821D01*
X273926785Y-119606250D01*
X273283928Y-120463392D02*
X273426785Y-120534821D01*
X273783928Y-120534821D01*
X273926785Y-120463392D01*
X273998214Y-120320535D01*
X273998214Y-120177678D01*
X273926785Y-120034821D01*
X273783928Y-119963392D01*
X273426785Y-119963392D01*
X273283928Y-119891964D01*
X272569642Y-120534821D02*
X272569642Y-119534821D01*
X272569642Y-119034821D02*
X272641071Y-119106250D01*
X272569642Y-119177678D01*
X272498214Y-119106250D01*
X272569642Y-119034821D01*
X272569642Y-119177678D01*
X271569642Y-119034821D02*
X271426785Y-119034821D01*
X271283928Y-119106250D01*
X271212500Y-119177678D01*
X271141071Y-119320535D01*
X271069642Y-119606250D01*
X271069642Y-119963392D01*
X271141071Y-120249107D01*
X271212500Y-120391964D01*
X271283928Y-120463392D01*
X271426785Y-120534821D01*
X271569642Y-120534821D01*
X271712500Y-120463392D01*
X271783928Y-120391964D01*
X271855357Y-120249107D01*
X271926785Y-119963392D01*
X271926785Y-119606250D01*
X271855357Y-119320535D01*
X271783928Y-119177678D01*
X271712500Y-119106250D01*
X271569642Y-119034821D01*
X270569642Y-119034821D02*
X269641071Y-119034821D01*
X270141071Y-119606250D01*
X269926785Y-119606250D01*
X269783928Y-119677678D01*
X269712500Y-119749107D01*
X269641071Y-119891964D01*
X269641071Y-120249107D01*
X269712500Y-120391964D01*
X269783928Y-120463392D01*
X269926785Y-120534821D01*
X270355357Y-120534821D01*
X270498214Y-120463392D01*
X270569642Y-120391964D01*
X268998214Y-120391964D02*
X268926785Y-120463392D01*
X268998214Y-120534821D01*
X269069642Y-120463392D01*
X268998214Y-120391964D01*
X268998214Y-120534821D01*
X268283928Y-120534821D02*
X268283928Y-119534821D01*
X268283928Y-119677678D02*
X268212500Y-119606250D01*
X268069642Y-119534821D01*
X267855357Y-119534821D01*
X267712500Y-119606250D01*
X267641071Y-119749107D01*
X267641071Y-120534821D01*
X267641071Y-119749107D02*
X267569642Y-119606250D01*
X267426785Y-119534821D01*
X267212500Y-119534821D01*
X267069642Y-119606250D01*
X266998214Y-119749107D01*
X266998214Y-120534821D01*
X265712500Y-120463392D02*
X265855357Y-120534821D01*
X266141071Y-120534821D01*
X266283928Y-120463392D01*
X266355357Y-120320535D01*
X266355357Y-119749107D01*
X266283928Y-119606250D01*
X266141071Y-119534821D01*
X265855357Y-119534821D01*
X265712500Y-119606250D01*
X265641071Y-119749107D01*
X265641071Y-119891964D01*
X266355357Y-120034821D01*
X48612500Y-120534821D02*
X48612500Y-119034821D01*
X48469642Y-119963392D02*
X48041071Y-120534821D01*
X48041071Y-119534821D02*
X48612500Y-120106250D01*
X47398214Y-120534821D02*
X47398214Y-119034821D01*
X47398214Y-119606250D02*
X47255357Y-119534821D01*
X46969642Y-119534821D01*
X46826785Y-119606250D01*
X46755357Y-119677678D01*
X46683928Y-119820535D01*
X46683928Y-120249107D01*
X46755357Y-120391964D01*
X46826785Y-120463392D01*
X46969642Y-120534821D01*
X47255357Y-120534821D01*
X47398214Y-120463392D01*
X46041071Y-120391964D02*
X45969642Y-120463392D01*
X46041071Y-120534821D01*
X46112500Y-120463392D01*
X46041071Y-120391964D01*
X46041071Y-120534821D01*
X44683928Y-120534821D02*
X44683928Y-119749107D01*
X44755357Y-119606250D01*
X44898214Y-119534821D01*
X45183928Y-119534821D01*
X45326785Y-119606250D01*
X44683928Y-120463392D02*
X44826785Y-120534821D01*
X45183928Y-120534821D01*
X45326785Y-120463392D01*
X45398214Y-120320535D01*
X45398214Y-120177678D01*
X45326785Y-120034821D01*
X45183928Y-119963392D01*
X44826785Y-119963392D01*
X44683928Y-119891964D01*
X43969642Y-120534821D02*
X43969642Y-119534821D01*
X43969642Y-119034821D02*
X44041071Y-119106250D01*
X43969642Y-119177678D01*
X43898214Y-119106250D01*
X43969642Y-119034821D01*
X43969642Y-119177678D01*
X42969642Y-119034821D02*
X42826785Y-119034821D01*
X42683928Y-119106250D01*
X42612500Y-119177678D01*
X42541071Y-119320535D01*
X42469642Y-119606250D01*
X42469642Y-119963392D01*
X42541071Y-120249107D01*
X42612500Y-120391964D01*
X42683928Y-120463392D01*
X42826785Y-120534821D01*
X42969642Y-120534821D01*
X43112500Y-120463392D01*
X43183928Y-120391964D01*
X43255357Y-120249107D01*
X43326785Y-119963392D01*
X43326785Y-119606250D01*
X43255357Y-119320535D01*
X43183928Y-119177678D01*
X43112500Y-119106250D01*
X42969642Y-119034821D01*
X41969642Y-119034821D02*
X41041071Y-119034821D01*
X41541071Y-119606250D01*
X41326785Y-119606250D01*
X41183928Y-119677678D01*
X41112500Y-119749107D01*
X41041071Y-119891964D01*
X41041071Y-120249107D01*
X41112500Y-120391964D01*
X41183928Y-120463392D01*
X41326785Y-120534821D01*
X41755357Y-120534821D01*
X41898214Y-120463392D01*
X41969642Y-120391964D01*
X40398214Y-120391964D02*
X40326785Y-120463392D01*
X40398214Y-120534821D01*
X40469642Y-120463392D01*
X40398214Y-120391964D01*
X40398214Y-120534821D01*
X39683928Y-120534821D02*
X39683928Y-119534821D01*
X39683928Y-119677678D02*
X39612500Y-119606250D01*
X39469642Y-119534821D01*
X39255357Y-119534821D01*
X39112500Y-119606250D01*
X39041071Y-119749107D01*
X39041071Y-120534821D01*
X39041071Y-119749107D02*
X38969642Y-119606250D01*
X38826785Y-119534821D01*
X38612500Y-119534821D01*
X38469642Y-119606250D01*
X38398214Y-119749107D01*
X38398214Y-120534821D01*
X37112500Y-120463392D02*
X37255357Y-120534821D01*
X37541071Y-120534821D01*
X37683928Y-120463392D01*
X37755357Y-120320535D01*
X37755357Y-119749107D01*
X37683928Y-119606250D01*
X37541071Y-119534821D01*
X37255357Y-119534821D01*
X37112500Y-119606250D01*
X37041071Y-119749107D01*
X37041071Y-119891964D01*
X37755357Y-120034821D01*
X243041071Y-115859821D02*
X242755357Y-115859821D01*
X242612500Y-115931250D01*
X242469642Y-116074107D01*
X242398214Y-116359821D01*
X242398214Y-116859821D01*
X242469642Y-117145535D01*
X242612500Y-117288392D01*
X242755357Y-117359821D01*
X243041071Y-117359821D01*
X243183928Y-117288392D01*
X243326785Y-117145535D01*
X243398214Y-116859821D01*
X243398214Y-116359821D01*
X243326785Y-116074107D01*
X243183928Y-115931250D01*
X243041071Y-115859821D01*
X241755357Y-117359821D02*
X241755357Y-116359821D01*
X241755357Y-116645535D02*
X241683928Y-116502678D01*
X241612500Y-116431250D01*
X241469642Y-116359821D01*
X241326785Y-116359821D01*
X240826785Y-117359821D02*
X240826785Y-115859821D01*
X240826785Y-116431250D02*
X240683928Y-116359821D01*
X240398214Y-116359821D01*
X240255357Y-116431250D01*
X240183928Y-116502678D01*
X240112500Y-116645535D01*
X240112500Y-117074107D01*
X240183928Y-117216964D01*
X240255357Y-117288392D01*
X240398214Y-117359821D01*
X240683928Y-117359821D01*
X240826785Y-117288392D01*
X239469642Y-117359821D02*
X239469642Y-116359821D01*
X239469642Y-115859821D02*
X239541071Y-115931250D01*
X239469642Y-116002678D01*
X239398214Y-115931250D01*
X239469642Y-115859821D01*
X239469642Y-116002678D01*
X238969642Y-116359821D02*
X238398214Y-116359821D01*
X238755357Y-115859821D02*
X238755357Y-117145535D01*
X238683928Y-117288392D01*
X238541071Y-117359821D01*
X238398214Y-117359821D01*
X237898214Y-116788392D02*
X236755357Y-116788392D01*
X235183928Y-117216964D02*
X235255357Y-117288392D01*
X235469642Y-117359821D01*
X235612500Y-117359821D01*
X235826785Y-117288392D01*
X235969642Y-117145535D01*
X236041071Y-117002678D01*
X236112500Y-116716964D01*
X236112500Y-116502678D01*
X236041071Y-116216964D01*
X235969642Y-116074107D01*
X235826785Y-115931250D01*
X235612500Y-115859821D01*
X235469642Y-115859821D01*
X235255357Y-115931250D01*
X235183928Y-116002678D01*
X233398214Y-117359821D02*
X233398214Y-115859821D01*
X232826785Y-115859821D01*
X232683928Y-115931250D01*
X232612500Y-116002678D01*
X232541071Y-116145535D01*
X232541071Y-116359821D01*
X232612500Y-116502678D01*
X232683928Y-116574107D01*
X232826785Y-116645535D01*
X233398214Y-116645535D01*
X231041071Y-117216964D02*
X231112500Y-117288392D01*
X231326785Y-117359821D01*
X231469642Y-117359821D01*
X231683928Y-117288392D01*
X231826785Y-117145535D01*
X231898214Y-117002678D01*
X231969642Y-116716964D01*
X231969642Y-116502678D01*
X231898214Y-116216964D01*
X231826785Y-116074107D01*
X231683928Y-115931250D01*
X231469642Y-115859821D01*
X231326785Y-115859821D01*
X231112500Y-115931250D01*
X231041071Y-116002678D01*
X229898214Y-116574107D02*
X229683928Y-116645535D01*
X229612500Y-116716964D01*
X229541071Y-116859821D01*
X229541071Y-117074107D01*
X229612500Y-117216964D01*
X229683928Y-117288392D01*
X229826785Y-117359821D01*
X230398214Y-117359821D01*
X230398214Y-115859821D01*
X229898214Y-115859821D01*
X229755357Y-115931250D01*
X229683928Y-116002678D01*
X229612500Y-116145535D01*
X229612500Y-116288392D01*
X229683928Y-116431250D01*
X229755357Y-116502678D01*
X229898214Y-116574107D01*
X230398214Y-116574107D01*
X226898214Y-117359821D02*
X227398214Y-116645535D01*
X227755357Y-117359821D02*
X227755357Y-115859821D01*
X227183928Y-115859821D01*
X227041071Y-115931250D01*
X226969642Y-116002678D01*
X226898214Y-116145535D01*
X226898214Y-116359821D01*
X226969642Y-116502678D01*
X227041071Y-116574107D01*
X227183928Y-116645535D01*
X227755357Y-116645535D01*
X225469642Y-117359821D02*
X226326785Y-117359821D01*
X225898214Y-117359821D02*
X225898214Y-115859821D01*
X226041071Y-116074107D01*
X226183928Y-116216964D01*
X226326785Y-116288392D01*
X224826785Y-117216964D02*
X224755357Y-117288392D01*
X224826785Y-117359821D01*
X224898214Y-117288392D01*
X224826785Y-117216964D01*
X224826785Y-117359821D01*
X223826785Y-115859821D02*
X223683928Y-115859821D01*
X223541071Y-115931250D01*
X223469642Y-116002678D01*
X223398214Y-116145535D01*
X223326785Y-116431250D01*
X223326785Y-116788392D01*
X223398214Y-117074107D01*
X223469642Y-117216964D01*
X223541071Y-117288392D01*
X223683928Y-117359821D01*
X223826785Y-117359821D01*
X223969642Y-117288392D01*
X224041071Y-117216964D01*
X224112500Y-117074107D01*
X224183928Y-116788392D01*
X224183928Y-116431250D01*
X224112500Y-116145535D01*
X224041071Y-116002678D01*
X223969642Y-115931250D01*
X223826785Y-115859821D01*
X90641071Y-115859821D02*
X90355357Y-115859821D01*
X90212500Y-115931250D01*
X90069642Y-116074107D01*
X89998214Y-116359821D01*
X89998214Y-116859821D01*
X90069642Y-117145535D01*
X90212500Y-117288392D01*
X90355357Y-117359821D01*
X90641071Y-117359821D01*
X90783928Y-117288392D01*
X90926785Y-117145535D01*
X90998214Y-116859821D01*
X90998214Y-116359821D01*
X90926785Y-116074107D01*
X90783928Y-115931250D01*
X90641071Y-115859821D01*
X89355357Y-117359821D02*
X89355357Y-116359821D01*
X89355357Y-116645535D02*
X89283928Y-116502678D01*
X89212500Y-116431250D01*
X89069642Y-116359821D01*
X88926785Y-116359821D01*
X88426785Y-117359821D02*
X88426785Y-115859821D01*
X88426785Y-116431250D02*
X88283928Y-116359821D01*
X87998214Y-116359821D01*
X87855357Y-116431250D01*
X87783928Y-116502678D01*
X87712500Y-116645535D01*
X87712500Y-117074107D01*
X87783928Y-117216964D01*
X87855357Y-117288392D01*
X87998214Y-117359821D01*
X88283928Y-117359821D01*
X88426785Y-117288392D01*
X87069642Y-117359821D02*
X87069642Y-116359821D01*
X87069642Y-115859821D02*
X87141071Y-115931250D01*
X87069642Y-116002678D01*
X86998214Y-115931250D01*
X87069642Y-115859821D01*
X87069642Y-116002678D01*
X86569642Y-116359821D02*
X85998214Y-116359821D01*
X86355357Y-115859821D02*
X86355357Y-117145535D01*
X86283928Y-117288392D01*
X86141071Y-117359821D01*
X85998214Y-117359821D01*
X85498214Y-116788392D02*
X84355357Y-116788392D01*
X82783928Y-117216964D02*
X82855357Y-117288392D01*
X83069642Y-117359821D01*
X83212500Y-117359821D01*
X83426785Y-117288392D01*
X83569642Y-117145535D01*
X83641071Y-117002678D01*
X83712500Y-116716964D01*
X83712500Y-116502678D01*
X83641071Y-116216964D01*
X83569642Y-116074107D01*
X83426785Y-115931250D01*
X83212500Y-115859821D01*
X83069642Y-115859821D01*
X82855357Y-115931250D01*
X82783928Y-116002678D01*
X80998214Y-117359821D02*
X80998214Y-115859821D01*
X80426785Y-115859821D01*
X80283928Y-115931250D01*
X80212500Y-116002678D01*
X80141071Y-116145535D01*
X80141071Y-116359821D01*
X80212500Y-116502678D01*
X80283928Y-116574107D01*
X80426785Y-116645535D01*
X80998214Y-116645535D01*
X78641071Y-117216964D02*
X78712500Y-117288392D01*
X78926785Y-117359821D01*
X79069642Y-117359821D01*
X79283928Y-117288392D01*
X79426785Y-117145535D01*
X79498214Y-117002678D01*
X79569642Y-116716964D01*
X79569642Y-116502678D01*
X79498214Y-116216964D01*
X79426785Y-116074107D01*
X79283928Y-115931250D01*
X79069642Y-115859821D01*
X78926785Y-115859821D01*
X78712500Y-115931250D01*
X78641071Y-116002678D01*
X77498214Y-116574107D02*
X77283928Y-116645535D01*
X77212500Y-116716964D01*
X77141071Y-116859821D01*
X77141071Y-117074107D01*
X77212500Y-117216964D01*
X77283928Y-117288392D01*
X77426785Y-117359821D01*
X77998214Y-117359821D01*
X77998214Y-115859821D01*
X77498214Y-115859821D01*
X77355357Y-115931250D01*
X77283928Y-116002678D01*
X77212500Y-116145535D01*
X77212500Y-116288392D01*
X77283928Y-116431250D01*
X77355357Y-116502678D01*
X77498214Y-116574107D01*
X77998214Y-116574107D01*
X74498214Y-117359821D02*
X74998214Y-116645535D01*
X75355357Y-117359821D02*
X75355357Y-115859821D01*
X74783928Y-115859821D01*
X74641071Y-115931250D01*
X74569642Y-116002678D01*
X74498214Y-116145535D01*
X74498214Y-116359821D01*
X74569642Y-116502678D01*
X74641071Y-116574107D01*
X74783928Y-116645535D01*
X75355357Y-116645535D01*
X73069642Y-117359821D02*
X73926785Y-117359821D01*
X73498214Y-117359821D02*
X73498214Y-115859821D01*
X73641071Y-116074107D01*
X73783928Y-116216964D01*
X73926785Y-116288392D01*
X72426785Y-117216964D02*
X72355357Y-117288392D01*
X72426785Y-117359821D01*
X72498214Y-117288392D01*
X72426785Y-117216964D01*
X72426785Y-117359821D01*
X71426785Y-115859821D02*
X71283928Y-115859821D01*
X71141071Y-115931250D01*
X71069642Y-116002678D01*
X70998214Y-116145535D01*
X70926785Y-116431250D01*
X70926785Y-116788392D01*
X70998214Y-117074107D01*
X71069642Y-117216964D01*
X71141071Y-117288392D01*
X71283928Y-117359821D01*
X71426785Y-117359821D01*
X71569642Y-117288392D01*
X71641071Y-117216964D01*
X71712500Y-117074107D01*
X71783928Y-116788392D01*
X71783928Y-116431250D01*
X71712500Y-116145535D01*
X71641071Y-116002678D01*
X71569642Y-115931250D01*
X71426785Y-115859821D01*
D11*
G04 #@! TO.C,G\002A\002A\002A*
G36*
X175228250Y-128301750D02*
X175633062Y-128301750D01*
X175633062Y-127896938D01*
X175228250Y-127896938D01*
X175228250Y-128301750D01*
X175228250Y-128301750D01*
G37*
X175228250Y-128301750D02*
X175633062Y-128301750D01*
X175633062Y-127896938D01*
X175228250Y-127896938D01*
X175228250Y-128301750D01*
G36*
X174823437Y-129087563D02*
X175228250Y-129087563D01*
X175228250Y-128706563D01*
X174823437Y-128706563D01*
X174823437Y-129087563D01*
X174823437Y-129087563D01*
G37*
X174823437Y-129087563D02*
X175228250Y-129087563D01*
X175228250Y-128706563D01*
X174823437Y-128706563D01*
X174823437Y-129087563D01*
G36*
X175633062Y-129087563D02*
X176014062Y-129087563D01*
X176014062Y-128706563D01*
X175633062Y-128706563D01*
X175633062Y-129087563D01*
X175633062Y-129087563D01*
G37*
X175633062Y-129087563D02*
X176014062Y-129087563D01*
X176014062Y-128706563D01*
X175633062Y-128706563D01*
X175633062Y-129087563D01*
G36*
X174442437Y-129897188D02*
X174823437Y-129897188D01*
X174823437Y-129492375D01*
X174442437Y-129492375D01*
X174442437Y-129897188D01*
X174442437Y-129897188D01*
G37*
X174442437Y-129897188D02*
X174823437Y-129897188D01*
X174823437Y-129492375D01*
X174442437Y-129492375D01*
X174442437Y-129897188D01*
G36*
X175228250Y-129897188D02*
X175633062Y-129897188D01*
X175633062Y-129492375D01*
X175228250Y-129492375D01*
X175228250Y-129897188D01*
X175228250Y-129897188D01*
G37*
X175228250Y-129897188D02*
X175633062Y-129897188D01*
X175633062Y-129492375D01*
X175228250Y-129492375D01*
X175228250Y-129897188D01*
G36*
X176014062Y-129897188D02*
X176418875Y-129897188D01*
X176418875Y-129492375D01*
X176014062Y-129492375D01*
X176014062Y-129897188D01*
X176014062Y-129897188D01*
G37*
X176014062Y-129897188D02*
X176418875Y-129897188D01*
X176418875Y-129492375D01*
X176014062Y-129492375D01*
X176014062Y-129897188D01*
G36*
X174037625Y-130683000D02*
X174442437Y-130683000D01*
X174442437Y-130278188D01*
X174037625Y-130278188D01*
X174037625Y-130683000D01*
X174037625Y-130683000D01*
G37*
X174037625Y-130683000D02*
X174442437Y-130683000D01*
X174442437Y-130278188D01*
X174037625Y-130278188D01*
X174037625Y-130683000D01*
G36*
X176418875Y-130683000D02*
X176823687Y-130683000D01*
X176823687Y-130278188D01*
X176418875Y-130278188D01*
X176418875Y-130683000D01*
X176418875Y-130683000D01*
G37*
X176418875Y-130683000D02*
X176823687Y-130683000D01*
X176823687Y-130278188D01*
X176418875Y-130278188D01*
X176418875Y-130683000D01*
G36*
X175414781Y-126409295D02*
X175290663Y-126410665D01*
X175178951Y-126414822D01*
X175076358Y-126422169D01*
X174979594Y-126433110D01*
X174885372Y-126448048D01*
X174790403Y-126467387D01*
X174691399Y-126491531D01*
X174646120Y-126503668D01*
X174437573Y-126568906D01*
X174235485Y-126648242D01*
X174040622Y-126741278D01*
X173853751Y-126847618D01*
X173675636Y-126966866D01*
X173523490Y-127084867D01*
X173365822Y-127225592D01*
X173218485Y-127377037D01*
X173082164Y-127538135D01*
X172957542Y-127707817D01*
X172845303Y-127885016D01*
X172746130Y-128068666D01*
X172660708Y-128257697D01*
X172589720Y-128451043D01*
X172540966Y-128619053D01*
X172507895Y-128759039D01*
X172482535Y-128890975D01*
X172464143Y-129020247D01*
X172451975Y-129152243D01*
X172445289Y-129292350D01*
X172444636Y-129317750D01*
X172447355Y-129536047D01*
X172465550Y-129750830D01*
X172499215Y-129962071D01*
X172548344Y-130169739D01*
X172612931Y-130373805D01*
X172677128Y-130537737D01*
X172705211Y-130603002D01*
X172729273Y-130657160D01*
X172751142Y-130703863D01*
X172772643Y-130746763D01*
X172795604Y-130789513D01*
X172821850Y-130835765D01*
X172850975Y-130885406D01*
X172970194Y-131071677D01*
X173100298Y-131246403D01*
X173241421Y-131409715D01*
X173393695Y-131561746D01*
X173557253Y-131702630D01*
X173732226Y-131832498D01*
X173914594Y-131949025D01*
X173967423Y-131979994D01*
X174013336Y-132005971D01*
X174055985Y-132028781D01*
X174099022Y-132050251D01*
X174146099Y-132072207D01*
X174200869Y-132096475D01*
X174262263Y-132122872D01*
X174358496Y-132162419D01*
X174447214Y-132195458D01*
X174534328Y-132223945D01*
X174625752Y-132249839D01*
X174708344Y-132270572D01*
X174872860Y-132306126D01*
X175029955Y-132331803D01*
X175184183Y-132348143D01*
X175340101Y-132355686D01*
X175430656Y-132356263D01*
X175481875Y-132355748D01*
X175529996Y-132355043D01*
X175571876Y-132354210D01*
X175604372Y-132353313D01*
X175624340Y-132352415D01*
X175625125Y-132352359D01*
X175841299Y-132328407D01*
X176054056Y-132289420D01*
X176262537Y-132235717D01*
X176465882Y-132167613D01*
X176663234Y-132085426D01*
X176853732Y-131989475D01*
X177036518Y-131880076D01*
X177187474Y-131775046D01*
X177360401Y-131636699D01*
X177521085Y-131488338D01*
X177669299Y-131330289D01*
X177804821Y-131162882D01*
X177927426Y-130986444D01*
X178036889Y-130801302D01*
X178132987Y-130607785D01*
X178215494Y-130406221D01*
X178284187Y-130196938D01*
X178296332Y-130153880D01*
X178322698Y-130052085D01*
X178344083Y-129955761D01*
X178360891Y-129861617D01*
X178373525Y-129766367D01*
X178382390Y-129666720D01*
X178387888Y-129559390D01*
X178390424Y-129441086D01*
X178390705Y-129385219D01*
X178390030Y-129329858D01*
X177857956Y-129329858D01*
X177857853Y-129409996D01*
X177856187Y-129489660D01*
X177852991Y-129564787D01*
X177848294Y-129631310D01*
X177844574Y-129667000D01*
X177812700Y-129864298D01*
X177766049Y-130055913D01*
X177704799Y-130241472D01*
X177629131Y-130420599D01*
X177539223Y-130592919D01*
X177435256Y-130758059D01*
X177317409Y-130915643D01*
X177185862Y-131065297D01*
X177163526Y-131088510D01*
X177029292Y-131215584D01*
X176883590Y-131333520D01*
X176729119Y-131440340D01*
X176568581Y-131534066D01*
X176522792Y-131557754D01*
X176448384Y-131594403D01*
X176383143Y-131624622D01*
X176322646Y-131650190D01*
X176262472Y-131672884D01*
X176198199Y-131694483D01*
X176133125Y-131714477D01*
X175943912Y-131763890D01*
X175758161Y-131798341D01*
X175574423Y-131817964D01*
X175391247Y-131822892D01*
X175207186Y-131813261D01*
X175140644Y-131806281D01*
X174953312Y-131777337D01*
X174773731Y-131735528D01*
X174599393Y-131680104D01*
X174427791Y-131610314D01*
X174330834Y-131564116D01*
X174160202Y-131470697D01*
X174000786Y-131366962D01*
X173851828Y-131252224D01*
X173712571Y-131125800D01*
X173582256Y-130987004D01*
X173460126Y-130835153D01*
X173351858Y-130679509D01*
X173326732Y-130638318D01*
X173297409Y-130586190D01*
X173265709Y-130526746D01*
X173233451Y-130463606D01*
X173202457Y-130400390D01*
X173174544Y-130340717D01*
X173151535Y-130288207D01*
X173138097Y-130254375D01*
X173075230Y-130062834D01*
X173027834Y-129870095D01*
X172995950Y-129676700D01*
X172979620Y-129483190D01*
X172978882Y-129290107D01*
X172993778Y-129097992D01*
X173024348Y-128907386D01*
X173034151Y-128861344D01*
X173067800Y-128725051D01*
X173106108Y-128598868D01*
X173151046Y-128477257D01*
X173204587Y-128354682D01*
X173242246Y-128277208D01*
X173335951Y-128108360D01*
X173442776Y-127947923D01*
X173561952Y-127796618D01*
X173692713Y-127655164D01*
X173834290Y-127524281D01*
X173985916Y-127404690D01*
X174146823Y-127297110D01*
X174316243Y-127202261D01*
X174460425Y-127134730D01*
X174632053Y-127068335D01*
X174804607Y-127016337D01*
X174980094Y-126978328D01*
X175160524Y-126953901D01*
X175347905Y-126942647D01*
X175410812Y-126941757D01*
X175608907Y-126948127D01*
X175800535Y-126968772D01*
X175986469Y-127003923D01*
X176167485Y-127053817D01*
X176344356Y-127118685D01*
X176517856Y-127198763D01*
X176688759Y-127294285D01*
X176789456Y-127358494D01*
X176928889Y-127460022D01*
X177063087Y-127574528D01*
X177190409Y-127700089D01*
X177309215Y-127834781D01*
X177417864Y-127976681D01*
X177514715Y-128123865D01*
X177598128Y-128274411D01*
X177632924Y-128347330D01*
X177694327Y-128492189D01*
X177744558Y-128631428D01*
X177784815Y-128769376D01*
X177816294Y-128910364D01*
X177840194Y-129058721D01*
X177848595Y-129127250D01*
X177853358Y-129184420D01*
X177856468Y-129253311D01*
X177857956Y-129329858D01*
X178390030Y-129329858D01*
X178388960Y-129242223D01*
X178383086Y-129111356D01*
X178372512Y-128989275D01*
X178356665Y-128872635D01*
X178334973Y-128758094D01*
X178306863Y-128642309D01*
X178271764Y-128521937D01*
X178229103Y-128393634D01*
X178213409Y-128349375D01*
X178135024Y-128154656D01*
X178042184Y-127966322D01*
X177935078Y-127784635D01*
X177813898Y-127609858D01*
X177678833Y-127442253D01*
X177530076Y-127282083D01*
X177367817Y-127129610D01*
X177260979Y-127039429D01*
X177175150Y-126973936D01*
X177077611Y-126906610D01*
X176972002Y-126839662D01*
X176861964Y-126775305D01*
X176751137Y-126715750D01*
X176643161Y-126663208D01*
X176637156Y-126660465D01*
X176567196Y-126630592D01*
X176486015Y-126599206D01*
X176397983Y-126567786D01*
X176307471Y-126537812D01*
X176218849Y-126510761D01*
X176136486Y-126488114D01*
X176104600Y-126480221D01*
X176011375Y-126459453D01*
X175922401Y-126442793D01*
X175834397Y-126429902D01*
X175744081Y-126420445D01*
X175648172Y-126414082D01*
X175543390Y-126410478D01*
X175426455Y-126409294D01*
X175414781Y-126409295D01*
X175414781Y-126409295D01*
G37*
X175414781Y-126409295D02*
X175290663Y-126410665D01*
X175178951Y-126414822D01*
X175076358Y-126422169D01*
X174979594Y-126433110D01*
X174885372Y-126448048D01*
X174790403Y-126467387D01*
X174691399Y-126491531D01*
X174646120Y-126503668D01*
X174437573Y-126568906D01*
X174235485Y-126648242D01*
X174040622Y-126741278D01*
X173853751Y-126847618D01*
X173675636Y-126966866D01*
X173523490Y-127084867D01*
X173365822Y-127225592D01*
X173218485Y-127377037D01*
X173082164Y-127538135D01*
X172957542Y-127707817D01*
X172845303Y-127885016D01*
X172746130Y-128068666D01*
X172660708Y-128257697D01*
X172589720Y-128451043D01*
X172540966Y-128619053D01*
X172507895Y-128759039D01*
X172482535Y-128890975D01*
X172464143Y-129020247D01*
X172451975Y-129152243D01*
X172445289Y-129292350D01*
X172444636Y-129317750D01*
X172447355Y-129536047D01*
X172465550Y-129750830D01*
X172499215Y-129962071D01*
X172548344Y-130169739D01*
X172612931Y-130373805D01*
X172677128Y-130537737D01*
X172705211Y-130603002D01*
X172729273Y-130657160D01*
X172751142Y-130703863D01*
X172772643Y-130746763D01*
X172795604Y-130789513D01*
X172821850Y-130835765D01*
X172850975Y-130885406D01*
X172970194Y-131071677D01*
X173100298Y-131246403D01*
X173241421Y-131409715D01*
X173393695Y-131561746D01*
X173557253Y-131702630D01*
X173732226Y-131832498D01*
X173914594Y-131949025D01*
X173967423Y-131979994D01*
X174013336Y-132005971D01*
X174055985Y-132028781D01*
X174099022Y-132050251D01*
X174146099Y-132072207D01*
X174200869Y-132096475D01*
X174262263Y-132122872D01*
X174358496Y-132162419D01*
X174447214Y-132195458D01*
X174534328Y-132223945D01*
X174625752Y-132249839D01*
X174708344Y-132270572D01*
X174872860Y-132306126D01*
X175029955Y-132331803D01*
X175184183Y-132348143D01*
X175340101Y-132355686D01*
X175430656Y-132356263D01*
X175481875Y-132355748D01*
X175529996Y-132355043D01*
X175571876Y-132354210D01*
X175604372Y-132353313D01*
X175624340Y-132352415D01*
X175625125Y-132352359D01*
X175841299Y-132328407D01*
X176054056Y-132289420D01*
X176262537Y-132235717D01*
X176465882Y-132167613D01*
X176663234Y-132085426D01*
X176853732Y-131989475D01*
X177036518Y-131880076D01*
X177187474Y-131775046D01*
X177360401Y-131636699D01*
X177521085Y-131488338D01*
X177669299Y-131330289D01*
X177804821Y-131162882D01*
X177927426Y-130986444D01*
X178036889Y-130801302D01*
X178132987Y-130607785D01*
X178215494Y-130406221D01*
X178284187Y-130196938D01*
X178296332Y-130153880D01*
X178322698Y-130052085D01*
X178344083Y-129955761D01*
X178360891Y-129861617D01*
X178373525Y-129766367D01*
X178382390Y-129666720D01*
X178387888Y-129559390D01*
X178390424Y-129441086D01*
X178390705Y-129385219D01*
X178390030Y-129329858D01*
X177857956Y-129329858D01*
X177857853Y-129409996D01*
X177856187Y-129489660D01*
X177852991Y-129564787D01*
X177848294Y-129631310D01*
X177844574Y-129667000D01*
X177812700Y-129864298D01*
X177766049Y-130055913D01*
X177704799Y-130241472D01*
X177629131Y-130420599D01*
X177539223Y-130592919D01*
X177435256Y-130758059D01*
X177317409Y-130915643D01*
X177185862Y-131065297D01*
X177163526Y-131088510D01*
X177029292Y-131215584D01*
X176883590Y-131333520D01*
X176729119Y-131440340D01*
X176568581Y-131534066D01*
X176522792Y-131557754D01*
X176448384Y-131594403D01*
X176383143Y-131624622D01*
X176322646Y-131650190D01*
X176262472Y-131672884D01*
X176198199Y-131694483D01*
X176133125Y-131714477D01*
X175943912Y-131763890D01*
X175758161Y-131798341D01*
X175574423Y-131817964D01*
X175391247Y-131822892D01*
X175207186Y-131813261D01*
X175140644Y-131806281D01*
X174953312Y-131777337D01*
X174773731Y-131735528D01*
X174599393Y-131680104D01*
X174427791Y-131610314D01*
X174330834Y-131564116D01*
X174160202Y-131470697D01*
X174000786Y-131366962D01*
X173851828Y-131252224D01*
X173712571Y-131125800D01*
X173582256Y-130987004D01*
X173460126Y-130835153D01*
X173351858Y-130679509D01*
X173326732Y-130638318D01*
X173297409Y-130586190D01*
X173265709Y-130526746D01*
X173233451Y-130463606D01*
X173202457Y-130400390D01*
X173174544Y-130340717D01*
X173151535Y-130288207D01*
X173138097Y-130254375D01*
X173075230Y-130062834D01*
X173027834Y-129870095D01*
X172995950Y-129676700D01*
X172979620Y-129483190D01*
X172978882Y-129290107D01*
X172993778Y-129097992D01*
X173024348Y-128907386D01*
X173034151Y-128861344D01*
X173067800Y-128725051D01*
X173106108Y-128598868D01*
X173151046Y-128477257D01*
X173204587Y-128354682D01*
X173242246Y-128277208D01*
X173335951Y-128108360D01*
X173442776Y-127947923D01*
X173561952Y-127796618D01*
X173692713Y-127655164D01*
X173834290Y-127524281D01*
X173985916Y-127404690D01*
X174146823Y-127297110D01*
X174316243Y-127202261D01*
X174460425Y-127134730D01*
X174632053Y-127068335D01*
X174804607Y-127016337D01*
X174980094Y-126978328D01*
X175160524Y-126953901D01*
X175347905Y-126942647D01*
X175410812Y-126941757D01*
X175608907Y-126948127D01*
X175800535Y-126968772D01*
X175986469Y-127003923D01*
X176167485Y-127053817D01*
X176344356Y-127118685D01*
X176517856Y-127198763D01*
X176688759Y-127294285D01*
X176789456Y-127358494D01*
X176928889Y-127460022D01*
X177063087Y-127574528D01*
X177190409Y-127700089D01*
X177309215Y-127834781D01*
X177417864Y-127976681D01*
X177514715Y-128123865D01*
X177598128Y-128274411D01*
X177632924Y-128347330D01*
X177694327Y-128492189D01*
X177744558Y-128631428D01*
X177784815Y-128769376D01*
X177816294Y-128910364D01*
X177840194Y-129058721D01*
X177848595Y-129127250D01*
X177853358Y-129184420D01*
X177856468Y-129253311D01*
X177857956Y-129329858D01*
X178390030Y-129329858D01*
X178388960Y-129242223D01*
X178383086Y-129111356D01*
X178372512Y-128989275D01*
X178356665Y-128872635D01*
X178334973Y-128758094D01*
X178306863Y-128642309D01*
X178271764Y-128521937D01*
X178229103Y-128393634D01*
X178213409Y-128349375D01*
X178135024Y-128154656D01*
X178042184Y-127966322D01*
X177935078Y-127784635D01*
X177813898Y-127609858D01*
X177678833Y-127442253D01*
X177530076Y-127282083D01*
X177367817Y-127129610D01*
X177260979Y-127039429D01*
X177175150Y-126973936D01*
X177077611Y-126906610D01*
X176972002Y-126839662D01*
X176861964Y-126775305D01*
X176751137Y-126715750D01*
X176643161Y-126663208D01*
X176637156Y-126660465D01*
X176567196Y-126630592D01*
X176486015Y-126599206D01*
X176397983Y-126567786D01*
X176307471Y-126537812D01*
X176218849Y-126510761D01*
X176136486Y-126488114D01*
X176104600Y-126480221D01*
X176011375Y-126459453D01*
X175922401Y-126442793D01*
X175834397Y-126429902D01*
X175744081Y-126420445D01*
X175648172Y-126414082D01*
X175543390Y-126410478D01*
X175426455Y-126409294D01*
X175414781Y-126409295D01*
G36*
X138715750Y-129095500D02*
X139120562Y-129095500D01*
X139120562Y-128690688D01*
X138715750Y-128690688D01*
X138715750Y-129095500D01*
X138715750Y-129095500D01*
G37*
X138715750Y-129095500D02*
X139120562Y-129095500D01*
X139120562Y-128690688D01*
X138715750Y-128690688D01*
X138715750Y-129095500D01*
G36*
X138310937Y-129881313D02*
X138715750Y-129881313D01*
X138715750Y-129500313D01*
X138310937Y-129500313D01*
X138310937Y-129881313D01*
X138310937Y-129881313D01*
G37*
X138310937Y-129881313D02*
X138715750Y-129881313D01*
X138715750Y-129500313D01*
X138310937Y-129500313D01*
X138310937Y-129881313D01*
G36*
X139120562Y-129881313D02*
X139501562Y-129881313D01*
X139501562Y-129500313D01*
X139120562Y-129500313D01*
X139120562Y-129881313D01*
X139120562Y-129881313D01*
G37*
X139120562Y-129881313D02*
X139501562Y-129881313D01*
X139501562Y-129500313D01*
X139120562Y-129500313D01*
X139120562Y-129881313D01*
G36*
X137929937Y-130690938D02*
X138310937Y-130690938D01*
X138310937Y-130286125D01*
X137929937Y-130286125D01*
X137929937Y-130690938D01*
X137929937Y-130690938D01*
G37*
X137929937Y-130690938D02*
X138310937Y-130690938D01*
X138310937Y-130286125D01*
X137929937Y-130286125D01*
X137929937Y-130690938D01*
G36*
X138715750Y-130690938D02*
X139120562Y-130690938D01*
X139120562Y-130286125D01*
X138715750Y-130286125D01*
X138715750Y-130690938D01*
X138715750Y-130690938D01*
G37*
X138715750Y-130690938D02*
X139120562Y-130690938D01*
X139120562Y-130286125D01*
X138715750Y-130286125D01*
X138715750Y-130690938D01*
G36*
X139501562Y-130690938D02*
X139906375Y-130690938D01*
X139906375Y-130286125D01*
X139501562Y-130286125D01*
X139501562Y-130690938D01*
X139501562Y-130690938D01*
G37*
X139501562Y-130690938D02*
X139906375Y-130690938D01*
X139906375Y-130286125D01*
X139501562Y-130286125D01*
X139501562Y-130690938D01*
G36*
X137525125Y-131476750D02*
X137929937Y-131476750D01*
X137929937Y-131071938D01*
X137525125Y-131071938D01*
X137525125Y-131476750D01*
X137525125Y-131476750D01*
G37*
X137525125Y-131476750D02*
X137929937Y-131476750D01*
X137929937Y-131071938D01*
X137525125Y-131071938D01*
X137525125Y-131476750D01*
G36*
X139906375Y-131476750D02*
X140311187Y-131476750D01*
X140311187Y-131071938D01*
X139906375Y-131071938D01*
X139906375Y-131476750D01*
X139906375Y-131476750D01*
G37*
X139906375Y-131476750D02*
X140311187Y-131476750D01*
X140311187Y-131071938D01*
X139906375Y-131071938D01*
X139906375Y-131476750D01*
G36*
X138902281Y-127203045D02*
X138778163Y-127204415D01*
X138666451Y-127208572D01*
X138563858Y-127215919D01*
X138467094Y-127226860D01*
X138372872Y-127241798D01*
X138277903Y-127261137D01*
X138178899Y-127285281D01*
X138133620Y-127297418D01*
X137925073Y-127362656D01*
X137722985Y-127441992D01*
X137528122Y-127535028D01*
X137341251Y-127641368D01*
X137163136Y-127760616D01*
X137010990Y-127878617D01*
X136853322Y-128019342D01*
X136705985Y-128170787D01*
X136569664Y-128331885D01*
X136445042Y-128501567D01*
X136332803Y-128678766D01*
X136233630Y-128862416D01*
X136148208Y-129051447D01*
X136077220Y-129244793D01*
X136028466Y-129412803D01*
X135995395Y-129552789D01*
X135970035Y-129684725D01*
X135951643Y-129813997D01*
X135939475Y-129945993D01*
X135932789Y-130086100D01*
X135932136Y-130111500D01*
X135934855Y-130329797D01*
X135953050Y-130544580D01*
X135986715Y-130755821D01*
X136035844Y-130963489D01*
X136100431Y-131167555D01*
X136164628Y-131331487D01*
X136192711Y-131396752D01*
X136216773Y-131450910D01*
X136238642Y-131497613D01*
X136260143Y-131540513D01*
X136283104Y-131583263D01*
X136309350Y-131629515D01*
X136338475Y-131679156D01*
X136457694Y-131865427D01*
X136587798Y-132040153D01*
X136728921Y-132203465D01*
X136881195Y-132355496D01*
X137044753Y-132496380D01*
X137219726Y-132626248D01*
X137402094Y-132742775D01*
X137454923Y-132773744D01*
X137500836Y-132799721D01*
X137543485Y-132822531D01*
X137586522Y-132844001D01*
X137633599Y-132865957D01*
X137688369Y-132890225D01*
X137749763Y-132916622D01*
X137845996Y-132956169D01*
X137934714Y-132989208D01*
X138021828Y-133017695D01*
X138113252Y-133043589D01*
X138195844Y-133064322D01*
X138360360Y-133099876D01*
X138517455Y-133125553D01*
X138671683Y-133141893D01*
X138827601Y-133149436D01*
X138918156Y-133150013D01*
X138969375Y-133149498D01*
X139017496Y-133148793D01*
X139059376Y-133147960D01*
X139091872Y-133147063D01*
X139111840Y-133146165D01*
X139112625Y-133146109D01*
X139328799Y-133122157D01*
X139541556Y-133083170D01*
X139750037Y-133029467D01*
X139953382Y-132961363D01*
X140150734Y-132879176D01*
X140341232Y-132783225D01*
X140524018Y-132673826D01*
X140674974Y-132568796D01*
X140847901Y-132430449D01*
X141008585Y-132282088D01*
X141156799Y-132124039D01*
X141292321Y-131956632D01*
X141414926Y-131780194D01*
X141524389Y-131595052D01*
X141620487Y-131401535D01*
X141702994Y-131199971D01*
X141771687Y-130990688D01*
X141783832Y-130947630D01*
X141810198Y-130845835D01*
X141831583Y-130749511D01*
X141848391Y-130655367D01*
X141861025Y-130560117D01*
X141869890Y-130460470D01*
X141875388Y-130353140D01*
X141877924Y-130234836D01*
X141878205Y-130178969D01*
X141877530Y-130123608D01*
X141345456Y-130123608D01*
X141345353Y-130203746D01*
X141343687Y-130283410D01*
X141340491Y-130358537D01*
X141335794Y-130425060D01*
X141332074Y-130460750D01*
X141300200Y-130658048D01*
X141253549Y-130849663D01*
X141192299Y-131035222D01*
X141116631Y-131214349D01*
X141026723Y-131386669D01*
X140922756Y-131551809D01*
X140804909Y-131709393D01*
X140673362Y-131859047D01*
X140651026Y-131882260D01*
X140516792Y-132009334D01*
X140371090Y-132127270D01*
X140216619Y-132234090D01*
X140056081Y-132327816D01*
X140010292Y-132351504D01*
X139935884Y-132388153D01*
X139870643Y-132418372D01*
X139810146Y-132443940D01*
X139749972Y-132466634D01*
X139685699Y-132488233D01*
X139620625Y-132508227D01*
X139431412Y-132557640D01*
X139245661Y-132592091D01*
X139061923Y-132611714D01*
X138878747Y-132616642D01*
X138694686Y-132607011D01*
X138628144Y-132600031D01*
X138440812Y-132571087D01*
X138261231Y-132529278D01*
X138086893Y-132473854D01*
X137915291Y-132404064D01*
X137818334Y-132357866D01*
X137647702Y-132264447D01*
X137488286Y-132160712D01*
X137339328Y-132045974D01*
X137200071Y-131919550D01*
X137069756Y-131780754D01*
X136947626Y-131628903D01*
X136839358Y-131473259D01*
X136814232Y-131432068D01*
X136784909Y-131379940D01*
X136753209Y-131320496D01*
X136720951Y-131257356D01*
X136689957Y-131194140D01*
X136662044Y-131134467D01*
X136639035Y-131081957D01*
X136625597Y-131048125D01*
X136562730Y-130856584D01*
X136515334Y-130663845D01*
X136483450Y-130470450D01*
X136467120Y-130276940D01*
X136466382Y-130083857D01*
X136481278Y-129891742D01*
X136511848Y-129701136D01*
X136521651Y-129655094D01*
X136555300Y-129518801D01*
X136593608Y-129392618D01*
X136638546Y-129271007D01*
X136692087Y-129148432D01*
X136729746Y-129070958D01*
X136823451Y-128902110D01*
X136930276Y-128741673D01*
X137049452Y-128590368D01*
X137180213Y-128448914D01*
X137321790Y-128318031D01*
X137473416Y-128198440D01*
X137634323Y-128090860D01*
X137803743Y-127996011D01*
X137947925Y-127928480D01*
X138119553Y-127862085D01*
X138292107Y-127810087D01*
X138467594Y-127772078D01*
X138648024Y-127747651D01*
X138835405Y-127736397D01*
X138898312Y-127735507D01*
X139096407Y-127741877D01*
X139288035Y-127762522D01*
X139473969Y-127797673D01*
X139654985Y-127847567D01*
X139831856Y-127912435D01*
X140005356Y-127992513D01*
X140176259Y-128088035D01*
X140276956Y-128152244D01*
X140416389Y-128253772D01*
X140550587Y-128368278D01*
X140677909Y-128493839D01*
X140796715Y-128628531D01*
X140905364Y-128770431D01*
X141002215Y-128917615D01*
X141085628Y-129068161D01*
X141120424Y-129141080D01*
X141181827Y-129285939D01*
X141232058Y-129425178D01*
X141272315Y-129563126D01*
X141303794Y-129704114D01*
X141327694Y-129852471D01*
X141336095Y-129921000D01*
X141340858Y-129978170D01*
X141343968Y-130047061D01*
X141345456Y-130123608D01*
X141877530Y-130123608D01*
X141876460Y-130035973D01*
X141870586Y-129905106D01*
X141860012Y-129783025D01*
X141844165Y-129666385D01*
X141822473Y-129551844D01*
X141794363Y-129436059D01*
X141759264Y-129315687D01*
X141716603Y-129187384D01*
X141700909Y-129143125D01*
X141622524Y-128948406D01*
X141529684Y-128760072D01*
X141422578Y-128578385D01*
X141301398Y-128403608D01*
X141166333Y-128236003D01*
X141017576Y-128075833D01*
X140855317Y-127923360D01*
X140748479Y-127833179D01*
X140662650Y-127767686D01*
X140565111Y-127700360D01*
X140459502Y-127633412D01*
X140349464Y-127569055D01*
X140238637Y-127509500D01*
X140130661Y-127456958D01*
X140124656Y-127454215D01*
X140054696Y-127424342D01*
X139973515Y-127392956D01*
X139885483Y-127361536D01*
X139794971Y-127331562D01*
X139706349Y-127304511D01*
X139623986Y-127281864D01*
X139592100Y-127273971D01*
X139498875Y-127253203D01*
X139409901Y-127236543D01*
X139321897Y-127223652D01*
X139231581Y-127214195D01*
X139135672Y-127207832D01*
X139030890Y-127204228D01*
X138913955Y-127203044D01*
X138902281Y-127203045D01*
X138902281Y-127203045D01*
G37*
X138902281Y-127203045D02*
X138778163Y-127204415D01*
X138666451Y-127208572D01*
X138563858Y-127215919D01*
X138467094Y-127226860D01*
X138372872Y-127241798D01*
X138277903Y-127261137D01*
X138178899Y-127285281D01*
X138133620Y-127297418D01*
X137925073Y-127362656D01*
X137722985Y-127441992D01*
X137528122Y-127535028D01*
X137341251Y-127641368D01*
X137163136Y-127760616D01*
X137010990Y-127878617D01*
X136853322Y-128019342D01*
X136705985Y-128170787D01*
X136569664Y-128331885D01*
X136445042Y-128501567D01*
X136332803Y-128678766D01*
X136233630Y-128862416D01*
X136148208Y-129051447D01*
X136077220Y-129244793D01*
X136028466Y-129412803D01*
X135995395Y-129552789D01*
X135970035Y-129684725D01*
X135951643Y-129813997D01*
X135939475Y-129945993D01*
X135932789Y-130086100D01*
X135932136Y-130111500D01*
X135934855Y-130329797D01*
X135953050Y-130544580D01*
X135986715Y-130755821D01*
X136035844Y-130963489D01*
X136100431Y-131167555D01*
X136164628Y-131331487D01*
X136192711Y-131396752D01*
X136216773Y-131450910D01*
X136238642Y-131497613D01*
X136260143Y-131540513D01*
X136283104Y-131583263D01*
X136309350Y-131629515D01*
X136338475Y-131679156D01*
X136457694Y-131865427D01*
X136587798Y-132040153D01*
X136728921Y-132203465D01*
X136881195Y-132355496D01*
X137044753Y-132496380D01*
X137219726Y-132626248D01*
X137402094Y-132742775D01*
X137454923Y-132773744D01*
X137500836Y-132799721D01*
X137543485Y-132822531D01*
X137586522Y-132844001D01*
X137633599Y-132865957D01*
X137688369Y-132890225D01*
X137749763Y-132916622D01*
X137845996Y-132956169D01*
X137934714Y-132989208D01*
X138021828Y-133017695D01*
X138113252Y-133043589D01*
X138195844Y-133064322D01*
X138360360Y-133099876D01*
X138517455Y-133125553D01*
X138671683Y-133141893D01*
X138827601Y-133149436D01*
X138918156Y-133150013D01*
X138969375Y-133149498D01*
X139017496Y-133148793D01*
X139059376Y-133147960D01*
X139091872Y-133147063D01*
X139111840Y-133146165D01*
X139112625Y-133146109D01*
X139328799Y-133122157D01*
X139541556Y-133083170D01*
X139750037Y-133029467D01*
X139953382Y-132961363D01*
X140150734Y-132879176D01*
X140341232Y-132783225D01*
X140524018Y-132673826D01*
X140674974Y-132568796D01*
X140847901Y-132430449D01*
X141008585Y-132282088D01*
X141156799Y-132124039D01*
X141292321Y-131956632D01*
X141414926Y-131780194D01*
X141524389Y-131595052D01*
X141620487Y-131401535D01*
X141702994Y-131199971D01*
X141771687Y-130990688D01*
X141783832Y-130947630D01*
X141810198Y-130845835D01*
X141831583Y-130749511D01*
X141848391Y-130655367D01*
X141861025Y-130560117D01*
X141869890Y-130460470D01*
X141875388Y-130353140D01*
X141877924Y-130234836D01*
X141878205Y-130178969D01*
X141877530Y-130123608D01*
X141345456Y-130123608D01*
X141345353Y-130203746D01*
X141343687Y-130283410D01*
X141340491Y-130358537D01*
X141335794Y-130425060D01*
X141332074Y-130460750D01*
X141300200Y-130658048D01*
X141253549Y-130849663D01*
X141192299Y-131035222D01*
X141116631Y-131214349D01*
X141026723Y-131386669D01*
X140922756Y-131551809D01*
X140804909Y-131709393D01*
X140673362Y-131859047D01*
X140651026Y-131882260D01*
X140516792Y-132009334D01*
X140371090Y-132127270D01*
X140216619Y-132234090D01*
X140056081Y-132327816D01*
X140010292Y-132351504D01*
X139935884Y-132388153D01*
X139870643Y-132418372D01*
X139810146Y-132443940D01*
X139749972Y-132466634D01*
X139685699Y-132488233D01*
X139620625Y-132508227D01*
X139431412Y-132557640D01*
X139245661Y-132592091D01*
X139061923Y-132611714D01*
X138878747Y-132616642D01*
X138694686Y-132607011D01*
X138628144Y-132600031D01*
X138440812Y-132571087D01*
X138261231Y-132529278D01*
X138086893Y-132473854D01*
X137915291Y-132404064D01*
X137818334Y-132357866D01*
X137647702Y-132264447D01*
X137488286Y-132160712D01*
X137339328Y-132045974D01*
X137200071Y-131919550D01*
X137069756Y-131780754D01*
X136947626Y-131628903D01*
X136839358Y-131473259D01*
X136814232Y-131432068D01*
X136784909Y-131379940D01*
X136753209Y-131320496D01*
X136720951Y-131257356D01*
X136689957Y-131194140D01*
X136662044Y-131134467D01*
X136639035Y-131081957D01*
X136625597Y-131048125D01*
X136562730Y-130856584D01*
X136515334Y-130663845D01*
X136483450Y-130470450D01*
X136467120Y-130276940D01*
X136466382Y-130083857D01*
X136481278Y-129891742D01*
X136511848Y-129701136D01*
X136521651Y-129655094D01*
X136555300Y-129518801D01*
X136593608Y-129392618D01*
X136638546Y-129271007D01*
X136692087Y-129148432D01*
X136729746Y-129070958D01*
X136823451Y-128902110D01*
X136930276Y-128741673D01*
X137049452Y-128590368D01*
X137180213Y-128448914D01*
X137321790Y-128318031D01*
X137473416Y-128198440D01*
X137634323Y-128090860D01*
X137803743Y-127996011D01*
X137947925Y-127928480D01*
X138119553Y-127862085D01*
X138292107Y-127810087D01*
X138467594Y-127772078D01*
X138648024Y-127747651D01*
X138835405Y-127736397D01*
X138898312Y-127735507D01*
X139096407Y-127741877D01*
X139288035Y-127762522D01*
X139473969Y-127797673D01*
X139654985Y-127847567D01*
X139831856Y-127912435D01*
X140005356Y-127992513D01*
X140176259Y-128088035D01*
X140276956Y-128152244D01*
X140416389Y-128253772D01*
X140550587Y-128368278D01*
X140677909Y-128493839D01*
X140796715Y-128628531D01*
X140905364Y-128770431D01*
X141002215Y-128917615D01*
X141085628Y-129068161D01*
X141120424Y-129141080D01*
X141181827Y-129285939D01*
X141232058Y-129425178D01*
X141272315Y-129563126D01*
X141303794Y-129704114D01*
X141327694Y-129852471D01*
X141336095Y-129921000D01*
X141340858Y-129978170D01*
X141343968Y-130047061D01*
X141345456Y-130123608D01*
X141877530Y-130123608D01*
X141876460Y-130035973D01*
X141870586Y-129905106D01*
X141860012Y-129783025D01*
X141844165Y-129666385D01*
X141822473Y-129551844D01*
X141794363Y-129436059D01*
X141759264Y-129315687D01*
X141716603Y-129187384D01*
X141700909Y-129143125D01*
X141622524Y-128948406D01*
X141529684Y-128760072D01*
X141422578Y-128578385D01*
X141301398Y-128403608D01*
X141166333Y-128236003D01*
X141017576Y-128075833D01*
X140855317Y-127923360D01*
X140748479Y-127833179D01*
X140662650Y-127767686D01*
X140565111Y-127700360D01*
X140459502Y-127633412D01*
X140349464Y-127569055D01*
X140238637Y-127509500D01*
X140130661Y-127456958D01*
X140124656Y-127454215D01*
X140054696Y-127424342D01*
X139973515Y-127392956D01*
X139885483Y-127361536D01*
X139794971Y-127331562D01*
X139706349Y-127304511D01*
X139623986Y-127281864D01*
X139592100Y-127273971D01*
X139498875Y-127253203D01*
X139409901Y-127236543D01*
X139321897Y-127223652D01*
X139231581Y-127214195D01*
X139135672Y-127207832D01*
X139030890Y-127204228D01*
X138913955Y-127203044D01*
X138902281Y-127203045D01*
G04 #@! TD*
D12*
G04 #@! TO.C,R9*
X121287500Y-101600000D03*
X123187500Y-101600000D03*
G04 #@! TD*
D13*
G04 #@! TO.C,U2*
X43862500Y-52431250D03*
D14*
X41862500Y-52231250D03*
X43862500Y-54131250D03*
X41862500Y-54131250D03*
G04 #@! TD*
D15*
G04 #@! TO.C,MX34*
X143897319Y-119497898D03*
D16*
G36*
X144319163Y-121072242D02*
X142322975Y-119919742D01*
X143475475Y-117923554D01*
X145471663Y-119076054D01*
X144319163Y-121072242D01*
X144319163Y-121072242D01*
G37*
D15*
X142627319Y-121697602D03*
D17*
X140219307Y-124868403D03*
D18*
X141942000Y-113484610D03*
X136442000Y-123010890D03*
D19*
X138401103Y-112017623D03*
D20*
X139192000Y-118247750D03*
D19*
X134082450Y-115297750D03*
G04 #@! TD*
D15*
G04 #@! TO.C,MX63*
X171547681Y-121697602D03*
D16*
G36*
X169973337Y-121275758D02*
X171969525Y-120123258D01*
X173122025Y-122119446D01*
X171125837Y-123271946D01*
X169973337Y-121275758D01*
X169973337Y-121275758D01*
G37*
D15*
X170277681Y-119497898D03*
D17*
X168735693Y-115827097D03*
D18*
X177733000Y-123010890D03*
X172233000Y-113484610D03*
D19*
X180773897Y-120677877D03*
D20*
X174983000Y-118247750D03*
D19*
X180092550Y-115297750D03*
G04 #@! TD*
D21*
G04 #@! TO.C,MX9*
X34607500Y-60262500D03*
D15*
X32067500Y-60262500D03*
D17*
X28117500Y-59762500D03*
D18*
X38837500Y-55562500D03*
X27837500Y-55562500D03*
D19*
X38337500Y-51762500D03*
D20*
X33337500Y-55562500D03*
D19*
X33337500Y-49662500D03*
G04 #@! TD*
D21*
G04 #@! TO.C,MX10*
X53657500Y-60262500D03*
D15*
X51117500Y-60262500D03*
D17*
X47167500Y-59762500D03*
D18*
X57887500Y-55562500D03*
X46887500Y-55562500D03*
D19*
X57387500Y-51762500D03*
D20*
X52387500Y-55562500D03*
D19*
X52387500Y-49662500D03*
G04 #@! TD*
D21*
G04 #@! TO.C,MX11*
X72707500Y-55500000D03*
D15*
X70167500Y-55500000D03*
D17*
X66217500Y-55000000D03*
D18*
X76937500Y-50800000D03*
X65937500Y-50800000D03*
D19*
X76437500Y-47000000D03*
D20*
X71437500Y-50800000D03*
D19*
X71437500Y-44900000D03*
G04 #@! TD*
D21*
G04 #@! TO.C,MX12*
X91757500Y-53118750D03*
D15*
X89217500Y-53118750D03*
D17*
X85267500Y-52618750D03*
D18*
X95987500Y-48418750D03*
X84987500Y-48418750D03*
D19*
X95487500Y-44618750D03*
D20*
X90487500Y-48418750D03*
D19*
X90487500Y-42518750D03*
G04 #@! TD*
D21*
G04 #@! TO.C,MX13*
X110807500Y-55500000D03*
D15*
X108267500Y-55500000D03*
D17*
X104317500Y-55000000D03*
D18*
X115037500Y-50800000D03*
X104037500Y-50800000D03*
D19*
X114537500Y-47000000D03*
D20*
X109537500Y-50800000D03*
D19*
X109537500Y-44900000D03*
G04 #@! TD*
D21*
G04 #@! TO.C,MX14*
X129857500Y-57881250D03*
D15*
X127317500Y-57881250D03*
D17*
X123367500Y-57381250D03*
D18*
X134087500Y-53181250D03*
X123087500Y-53181250D03*
D19*
X133587500Y-49381250D03*
D20*
X128587500Y-53181250D03*
D19*
X128587500Y-47281250D03*
G04 #@! TD*
D21*
G04 #@! TO.C,MX16*
X34607500Y-79312500D03*
D15*
X32067500Y-79312500D03*
D17*
X28117500Y-78812500D03*
D18*
X38837500Y-74612500D03*
X27837500Y-74612500D03*
D19*
X38337500Y-70812500D03*
D20*
X33337500Y-74612500D03*
D19*
X33337500Y-68712500D03*
G04 #@! TD*
D21*
G04 #@! TO.C,MX17*
X53657500Y-79312500D03*
D15*
X51117500Y-79312500D03*
D17*
X47167500Y-78812500D03*
D18*
X57887500Y-74612500D03*
X46887500Y-74612500D03*
D19*
X57387500Y-70812500D03*
D20*
X52387500Y-74612500D03*
D19*
X52387500Y-68712500D03*
G04 #@! TD*
D21*
G04 #@! TO.C,MX18*
X72707500Y-74550000D03*
D15*
X70167500Y-74550000D03*
D17*
X66217500Y-74050000D03*
D18*
X76937500Y-69850000D03*
X65937500Y-69850000D03*
D19*
X76437500Y-66050000D03*
D20*
X71437500Y-69850000D03*
D19*
X71437500Y-63950000D03*
G04 #@! TD*
D21*
G04 #@! TO.C,MX19*
X91757500Y-72168750D03*
D15*
X89217500Y-72168750D03*
D17*
X85267500Y-71668750D03*
D18*
X95987500Y-67468750D03*
X84987500Y-67468750D03*
D19*
X95487500Y-63668750D03*
D20*
X90487500Y-67468750D03*
D19*
X90487500Y-61568750D03*
G04 #@! TD*
D21*
G04 #@! TO.C,MX20*
X110807500Y-74550000D03*
D15*
X108267500Y-74550000D03*
D17*
X104317500Y-74050000D03*
D18*
X115037500Y-69850000D03*
X104037500Y-69850000D03*
D19*
X114537500Y-66050000D03*
D20*
X109537500Y-69850000D03*
D19*
X109537500Y-63950000D03*
G04 #@! TD*
D21*
G04 #@! TO.C,MX21*
X129857500Y-76931250D03*
D15*
X127317500Y-76931250D03*
D17*
X123367500Y-76431250D03*
D18*
X134087500Y-72231250D03*
X123087500Y-72231250D03*
D19*
X133587500Y-68431250D03*
D20*
X128587500Y-72231250D03*
D19*
X128587500Y-66331250D03*
G04 #@! TD*
D21*
G04 #@! TO.C,MX23*
X34607500Y-98362500D03*
D15*
X32067500Y-98362500D03*
D17*
X28117500Y-97862500D03*
D18*
X38837500Y-93662500D03*
X27837500Y-93662500D03*
D19*
X38337500Y-89862500D03*
D20*
X33337500Y-93662500D03*
D19*
X33337500Y-87762500D03*
G04 #@! TD*
D21*
G04 #@! TO.C,MX24*
X53657500Y-98362500D03*
D15*
X51117500Y-98362500D03*
D17*
X47167500Y-97862500D03*
D18*
X57887500Y-93662500D03*
X46887500Y-93662500D03*
D19*
X57387500Y-89862500D03*
D20*
X52387500Y-93662500D03*
D19*
X52387500Y-87762500D03*
G04 #@! TD*
D21*
G04 #@! TO.C,MX25*
X72707500Y-93600000D03*
D15*
X70167500Y-93600000D03*
D17*
X66217500Y-93100000D03*
D18*
X76937500Y-88900000D03*
X65937500Y-88900000D03*
D19*
X76437500Y-85100000D03*
D20*
X71437500Y-88900000D03*
D19*
X71437500Y-83000000D03*
G04 #@! TD*
D21*
G04 #@! TO.C,MX26*
X91757500Y-91218750D03*
D15*
X89217500Y-91218750D03*
D17*
X85267500Y-90718750D03*
D18*
X95987500Y-86518750D03*
X84987500Y-86518750D03*
D19*
X95487500Y-82718750D03*
D20*
X90487500Y-86518750D03*
D19*
X90487500Y-80618750D03*
G04 #@! TD*
D21*
G04 #@! TO.C,MX27*
X110807500Y-93600000D03*
D15*
X108267500Y-93600000D03*
D17*
X104317500Y-93100000D03*
D18*
X115037500Y-88900000D03*
X104037500Y-88900000D03*
D19*
X114537500Y-85100000D03*
D20*
X109537500Y-88900000D03*
D19*
X109537500Y-83000000D03*
G04 #@! TD*
D21*
G04 #@! TO.C,MX28*
X129857500Y-95981250D03*
D15*
X127317500Y-95981250D03*
D17*
X123367500Y-95481250D03*
D18*
X134087500Y-91281250D03*
X123087500Y-91281250D03*
D19*
X133587500Y-87481250D03*
D20*
X128587500Y-91281250D03*
D19*
X128587500Y-85381250D03*
G04 #@! TD*
D21*
G04 #@! TO.C,MX29*
X34607500Y-117412500D03*
D15*
X32067500Y-117412500D03*
D17*
X28117500Y-116912500D03*
D18*
X38837500Y-112712500D03*
X27837500Y-112712500D03*
D19*
X38337500Y-108912500D03*
D20*
X33337500Y-112712500D03*
D19*
X33337500Y-106812500D03*
G04 #@! TD*
D21*
G04 #@! TO.C,MX30*
X53657500Y-117412500D03*
D15*
X51117500Y-117412500D03*
D17*
X47167500Y-116912500D03*
D18*
X57887500Y-112712500D03*
X46887500Y-112712500D03*
D19*
X57387500Y-108912500D03*
D20*
X52387500Y-112712500D03*
D19*
X52387500Y-106812500D03*
G04 #@! TD*
D21*
G04 #@! TO.C,MX31*
X72707500Y-112650000D03*
D15*
X70167500Y-112650000D03*
D17*
X66217500Y-112150000D03*
D18*
X76937500Y-107950000D03*
X65937500Y-107950000D03*
D19*
X76437500Y-104150000D03*
D20*
X71437500Y-107950000D03*
D19*
X71437500Y-102050000D03*
G04 #@! TD*
D21*
G04 #@! TO.C,MX32*
X91757500Y-110268750D03*
D15*
X89217500Y-110268750D03*
D17*
X85267500Y-109768750D03*
D18*
X95987500Y-105568750D03*
X84987500Y-105568750D03*
D19*
X95487500Y-101768750D03*
D20*
X90487500Y-105568750D03*
D19*
X90487500Y-99668750D03*
G04 #@! TD*
D15*
G04 #@! TO.C,MX33*
X118881462Y-115765167D03*
D16*
G36*
X117429227Y-116505118D02*
X118141511Y-114312932D01*
X120333697Y-115025216D01*
X119621413Y-117217402D01*
X117429227Y-116505118D01*
X117429227Y-116505118D01*
G37*
D15*
X116465778Y-114980264D03*
D17*
X112863614Y-113284119D03*
D18*
X124356811Y-112602343D03*
X113895189Y-109203157D03*
D19*
X125055547Y-108833820D03*
D20*
X119126000Y-110902750D03*
D19*
X120949200Y-105291518D03*
G04 #@! TD*
D21*
G04 #@! TO.C,MX42*
X186857500Y-57881250D03*
D15*
X184317500Y-57881250D03*
D17*
X180367500Y-57381250D03*
D18*
X191087500Y-53181250D03*
X180087500Y-53181250D03*
D19*
X190587500Y-49381250D03*
D20*
X185587500Y-53181250D03*
D19*
X185587500Y-47281250D03*
G04 #@! TD*
D21*
G04 #@! TO.C,MX43*
X205907500Y-55500000D03*
D15*
X203367500Y-55500000D03*
D17*
X199417500Y-55000000D03*
D18*
X210137500Y-50800000D03*
X199137500Y-50800000D03*
D19*
X209637500Y-47000000D03*
D20*
X204637500Y-50800000D03*
D19*
X204637500Y-44900000D03*
G04 #@! TD*
D21*
G04 #@! TO.C,MX44*
X224957500Y-53118750D03*
D15*
X222417500Y-53118750D03*
D17*
X218467500Y-52618750D03*
D18*
X229187500Y-48418750D03*
X218187500Y-48418750D03*
D19*
X228687500Y-44618750D03*
D20*
X223687500Y-48418750D03*
D19*
X223687500Y-42518750D03*
G04 #@! TD*
D21*
G04 #@! TO.C,MX45*
X244007500Y-55500000D03*
D15*
X241467500Y-55500000D03*
D17*
X237517500Y-55000000D03*
D18*
X248237500Y-50800000D03*
X237237500Y-50800000D03*
D19*
X247737500Y-47000000D03*
D20*
X242737500Y-50800000D03*
D19*
X242737500Y-44900000D03*
G04 #@! TD*
D21*
G04 #@! TO.C,MX46*
X263057500Y-60262500D03*
D15*
X260517500Y-60262500D03*
D17*
X256567500Y-59762500D03*
D18*
X267287500Y-55562500D03*
X256287500Y-55562500D03*
D19*
X266787500Y-51762500D03*
D20*
X261787500Y-55562500D03*
D19*
X261787500Y-49662500D03*
G04 #@! TD*
D21*
G04 #@! TO.C,MX47*
X282107500Y-60262500D03*
D15*
X279567500Y-60262500D03*
D17*
X275617500Y-59762500D03*
D18*
X286337500Y-55562500D03*
X275337500Y-55562500D03*
D19*
X285837500Y-51762500D03*
D20*
X280837500Y-55562500D03*
D19*
X280837500Y-49662500D03*
G04 #@! TD*
D21*
G04 #@! TO.C,MX49*
X186857500Y-76931250D03*
D15*
X184317500Y-76931250D03*
D17*
X180367500Y-76431250D03*
D18*
X191087500Y-72231250D03*
X180087500Y-72231250D03*
D19*
X190587500Y-68431250D03*
D20*
X185587500Y-72231250D03*
D19*
X185587500Y-66331250D03*
G04 #@! TD*
D21*
G04 #@! TO.C,MX50*
X205907500Y-74550000D03*
D15*
X203367500Y-74550000D03*
D17*
X199417500Y-74050000D03*
D18*
X210137500Y-69850000D03*
X199137500Y-69850000D03*
D19*
X209637500Y-66050000D03*
D20*
X204637500Y-69850000D03*
D19*
X204637500Y-63950000D03*
G04 #@! TD*
D21*
G04 #@! TO.C,MX51*
X224957500Y-72168750D03*
D15*
X222417500Y-72168750D03*
D17*
X218467500Y-71668750D03*
D18*
X229187500Y-67468750D03*
X218187500Y-67468750D03*
D19*
X228687500Y-63668750D03*
D20*
X223687500Y-67468750D03*
D19*
X223687500Y-61568750D03*
G04 #@! TD*
D21*
G04 #@! TO.C,MX52*
X244007500Y-74550000D03*
D15*
X241467500Y-74550000D03*
D17*
X237517500Y-74050000D03*
D18*
X248237500Y-69850000D03*
X237237500Y-69850000D03*
D19*
X247737500Y-66050000D03*
D20*
X242737500Y-69850000D03*
D19*
X242737500Y-63950000D03*
G04 #@! TD*
D21*
G04 #@! TO.C,MX53*
X263057500Y-79312500D03*
D15*
X260517500Y-79312500D03*
D17*
X256567500Y-78812500D03*
D18*
X267287500Y-74612500D03*
X256287500Y-74612500D03*
D19*
X266787500Y-70812500D03*
D20*
X261787500Y-74612500D03*
D19*
X261787500Y-68712500D03*
G04 #@! TD*
D21*
G04 #@! TO.C,MX54*
X282107500Y-79312500D03*
D15*
X279567500Y-79312500D03*
D17*
X275617500Y-78812500D03*
D18*
X286337500Y-74612500D03*
X275337500Y-74612500D03*
D19*
X285837500Y-70812500D03*
D20*
X280837500Y-74612500D03*
D19*
X280837500Y-68712500D03*
G04 #@! TD*
D21*
G04 #@! TO.C,MX56*
X186857500Y-95981250D03*
D15*
X184317500Y-95981250D03*
D17*
X180367500Y-95481250D03*
D18*
X191087500Y-91281250D03*
X180087500Y-91281250D03*
D19*
X190587500Y-87481250D03*
D20*
X185587500Y-91281250D03*
D19*
X185587500Y-85381250D03*
G04 #@! TD*
D21*
G04 #@! TO.C,MX57*
X205907500Y-93600000D03*
D15*
X203367500Y-93600000D03*
D17*
X199417500Y-93100000D03*
D18*
X210137500Y-88900000D03*
X199137500Y-88900000D03*
D19*
X209637500Y-85100000D03*
D20*
X204637500Y-88900000D03*
D19*
X204637500Y-83000000D03*
G04 #@! TD*
D21*
G04 #@! TO.C,MX58*
X224957500Y-91218750D03*
D15*
X222417500Y-91218750D03*
D17*
X218467500Y-90718750D03*
D18*
X229187500Y-86518750D03*
X218187500Y-86518750D03*
D19*
X228687500Y-82718750D03*
D20*
X223687500Y-86518750D03*
D19*
X223687500Y-80618750D03*
G04 #@! TD*
D21*
G04 #@! TO.C,MX59*
X244007500Y-93600000D03*
D15*
X241467500Y-93600000D03*
D17*
X237517500Y-93100000D03*
D18*
X248237500Y-88900000D03*
X237237500Y-88900000D03*
D19*
X247737500Y-85100000D03*
D20*
X242737500Y-88900000D03*
D19*
X242737500Y-83000000D03*
G04 #@! TD*
D21*
G04 #@! TO.C,MX60*
X263057500Y-98362500D03*
D15*
X260517500Y-98362500D03*
D17*
X256567500Y-97862500D03*
D18*
X267287500Y-93662500D03*
X256287500Y-93662500D03*
D19*
X266787500Y-89862500D03*
D20*
X261787500Y-93662500D03*
D19*
X261787500Y-87762500D03*
G04 #@! TD*
D21*
G04 #@! TO.C,MX61*
X282107500Y-98362500D03*
D15*
X279567500Y-98362500D03*
D17*
X275617500Y-97862500D03*
D18*
X286337500Y-93662500D03*
X275337500Y-93662500D03*
D19*
X285837500Y-89862500D03*
D20*
X280837500Y-93662500D03*
D19*
X280837500Y-87762500D03*
G04 #@! TD*
D15*
G04 #@! TO.C,MX64*
X197709222Y-114980264D03*
D16*
G36*
X196969271Y-116432499D02*
X196256987Y-114240313D01*
X198449173Y-113528029D01*
X199161457Y-115720215D01*
X196969271Y-116432499D01*
X196969271Y-116432499D01*
G37*
D15*
X195293538Y-115765167D03*
D17*
X191382356Y-116510256D03*
D18*
X200279811Y-109203157D03*
X189818189Y-112602343D03*
D19*
X198630018Y-105743650D03*
D20*
X195049000Y-110902750D03*
D19*
X193225800Y-105291518D03*
G04 #@! TD*
D21*
G04 #@! TO.C,MX65*
X224957500Y-110268750D03*
D15*
X222417500Y-110268750D03*
D17*
X218467500Y-109768750D03*
D18*
X229187500Y-105568750D03*
X218187500Y-105568750D03*
D19*
X228687500Y-101768750D03*
D20*
X223687500Y-105568750D03*
D19*
X223687500Y-99668750D03*
G04 #@! TD*
D21*
G04 #@! TO.C,MX66*
X244007500Y-112650000D03*
D15*
X241467500Y-112650000D03*
D17*
X237517500Y-112150000D03*
D18*
X248237500Y-107950000D03*
X237237500Y-107950000D03*
D19*
X247737500Y-104150000D03*
D20*
X242737500Y-107950000D03*
D19*
X242737500Y-102050000D03*
G04 #@! TD*
D21*
G04 #@! TO.C,MX67*
X263057500Y-117412500D03*
D15*
X260517500Y-117412500D03*
D17*
X256567500Y-116912500D03*
D18*
X267287500Y-112712500D03*
X256287500Y-112712500D03*
D19*
X266787500Y-108912500D03*
D20*
X261787500Y-112712500D03*
D19*
X261787500Y-106812500D03*
G04 #@! TD*
D21*
G04 #@! TO.C,MX68*
X282107500Y-117412500D03*
D15*
X279567500Y-117412500D03*
D17*
X275617500Y-116912500D03*
D18*
X286337500Y-112712500D03*
X275337500Y-112712500D03*
D19*
X285837500Y-108912500D03*
D20*
X280837500Y-112712500D03*
D19*
X280837500Y-106812500D03*
G04 #@! TD*
D22*
G04 #@! TO.C,C1*
X107906250Y-116681250D03*
X106406250Y-116681250D03*
G04 #@! TD*
D23*
G04 #@! TO.C,C2*
X110744000Y-112756250D03*
X110744000Y-114256250D03*
G04 #@! TD*
D22*
G04 #@! TO.C,C3*
X115050000Y-104775000D03*
X113550000Y-104775000D03*
G04 #@! TD*
G04 #@! TO.C,C4*
X115050000Y-111125000D03*
X113550000Y-111125000D03*
G04 #@! TD*
D23*
G04 #@! TO.C,C5*
X100457000Y-108827000D03*
X100457000Y-107327000D03*
G04 #@! TD*
D22*
G04 #@! TO.C,C6*
X103874000Y-98933000D03*
X102374000Y-98933000D03*
G04 #@! TD*
G04 #@! TO.C,C7*
X108978000Y-98933000D03*
X110478000Y-98933000D03*
G04 #@! TD*
G04 #@! TO.C,C8*
X210300000Y-116205000D03*
X208800000Y-116205000D03*
G04 #@! TD*
D23*
G04 #@! TO.C,C9*
X213233000Y-112153000D03*
X213233000Y-113653000D03*
G04 #@! TD*
G04 #@! TO.C,C10*
X215900000Y-103275000D03*
X215900000Y-104775000D03*
G04 #@! TD*
D22*
G04 #@! TO.C,C11*
X206331250Y-98425000D03*
X204831250Y-98425000D03*
G04 #@! TD*
D23*
G04 #@! TO.C,C12*
X203200000Y-108700000D03*
X203200000Y-107200000D03*
G04 #@! TD*
G04 #@! TO.C,C13*
X215900000Y-110287500D03*
X215900000Y-108787500D03*
G04 #@! TD*
D22*
G04 #@! TO.C,C14*
X211181250Y-98425000D03*
X212681250Y-98425000D03*
G04 #@! TD*
D24*
G04 #@! TO.C,D9*
X30162500Y-56418750D03*
X30162500Y-53118750D03*
G04 #@! TD*
G04 #@! TO.C,D10*
X49212500Y-56418750D03*
X49212500Y-53118750D03*
G04 #@! TD*
G04 #@! TO.C,D11*
X68262500Y-51656250D03*
X68262500Y-48356250D03*
G04 #@! TD*
G04 #@! TO.C,D12*
X87312500Y-49275000D03*
X87312500Y-45975000D03*
G04 #@! TD*
G04 #@! TO.C,D13*
X106362500Y-51656250D03*
X106362500Y-48356250D03*
G04 #@! TD*
G04 #@! TO.C,D14*
X125412500Y-54037500D03*
X125412500Y-50737500D03*
G04 #@! TD*
G04 #@! TO.C,D16*
X30162500Y-75468750D03*
X30162500Y-72168750D03*
G04 #@! TD*
G04 #@! TO.C,D17*
X49212500Y-75468750D03*
X49212500Y-72168750D03*
G04 #@! TD*
G04 #@! TO.C,D18*
X68262500Y-70706250D03*
X68262500Y-67406250D03*
G04 #@! TD*
G04 #@! TO.C,D19*
X87312500Y-68325000D03*
X87312500Y-65025000D03*
G04 #@! TD*
G04 #@! TO.C,D20*
X106362500Y-70706250D03*
X106362500Y-67406250D03*
G04 #@! TD*
G04 #@! TO.C,D21*
X125412500Y-73087500D03*
X125412500Y-69787500D03*
G04 #@! TD*
G04 #@! TO.C,D23*
X30162500Y-94518750D03*
X30162500Y-91218750D03*
G04 #@! TD*
G04 #@! TO.C,D24*
X49212500Y-94518750D03*
X49212500Y-91218750D03*
G04 #@! TD*
G04 #@! TO.C,D25*
X68262500Y-89756250D03*
X68262500Y-86456250D03*
G04 #@! TD*
G04 #@! TO.C,D26*
X87312500Y-87375000D03*
X87312500Y-84075000D03*
G04 #@! TD*
G04 #@! TO.C,D27*
X106362500Y-89756250D03*
X106362500Y-86456250D03*
G04 #@! TD*
G04 #@! TO.C,D28*
X125412500Y-92137500D03*
X125412500Y-88837500D03*
G04 #@! TD*
G04 #@! TO.C,D29*
X30162500Y-113568750D03*
X30162500Y-110268750D03*
G04 #@! TD*
G04 #@! TO.C,D30*
X49212500Y-113568750D03*
X49212500Y-110268750D03*
G04 #@! TD*
G04 #@! TO.C,D31*
X68262500Y-108806250D03*
X68262500Y-105506250D03*
G04 #@! TD*
G04 #@! TO.C,D32*
X87312500Y-106425000D03*
X87312500Y-103125000D03*
G04 #@! TD*
G04 #@! TO.C,D33*
X126206250Y-104837500D03*
X126206250Y-101537500D03*
G04 #@! TD*
G04 #@! TO.C,D34*
X130175000Y-104837500D03*
X130175000Y-101537500D03*
G04 #@! TD*
G04 #@! TO.C,D43*
X182562500Y-54037500D03*
X182562500Y-50737500D03*
G04 #@! TD*
G04 #@! TO.C,D44*
X201612500Y-51656250D03*
X201612500Y-48356250D03*
G04 #@! TD*
G04 #@! TO.C,D45*
X220662500Y-49275000D03*
X220662500Y-45975000D03*
G04 #@! TD*
G04 #@! TO.C,D46*
X239712500Y-51656250D03*
X239712500Y-48356250D03*
G04 #@! TD*
G04 #@! TO.C,D47*
X258762500Y-56418750D03*
X258762500Y-53118750D03*
G04 #@! TD*
G04 #@! TO.C,D48*
X277812500Y-56418750D03*
X277812500Y-53118750D03*
G04 #@! TD*
G04 #@! TO.C,D50*
X182562500Y-73087500D03*
X182562500Y-69787500D03*
G04 #@! TD*
G04 #@! TO.C,D51*
X201612500Y-70706250D03*
X201612500Y-67406250D03*
G04 #@! TD*
G04 #@! TO.C,D52*
X220662500Y-68325000D03*
X220662500Y-65025000D03*
G04 #@! TD*
G04 #@! TO.C,D53*
X239712500Y-70706250D03*
X239712500Y-67406250D03*
G04 #@! TD*
G04 #@! TO.C,D54*
X258762500Y-75468750D03*
X258762500Y-72168750D03*
G04 #@! TD*
G04 #@! TO.C,D55*
X277812500Y-75468750D03*
X277812500Y-72168750D03*
G04 #@! TD*
G04 #@! TO.C,D57*
X182562500Y-92137500D03*
X182562500Y-88837500D03*
G04 #@! TD*
G04 #@! TO.C,D58*
X201612500Y-89756250D03*
X201612500Y-86456250D03*
G04 #@! TD*
G04 #@! TO.C,D59*
X220662500Y-87375000D03*
X220662500Y-84075000D03*
G04 #@! TD*
G04 #@! TO.C,D60*
X239712500Y-89756250D03*
X239712500Y-86456250D03*
G04 #@! TD*
G04 #@! TO.C,D61*
X258762500Y-94518750D03*
X258762500Y-91218750D03*
G04 #@! TD*
G04 #@! TO.C,D62*
X277812500Y-94518750D03*
X277812500Y-91218750D03*
G04 #@! TD*
G04 #@! TO.C,D64*
X176212500Y-109600000D03*
X176212500Y-106300000D03*
G04 #@! TD*
G04 #@! TO.C,D65*
X180181250Y-109600000D03*
X180181250Y-106300000D03*
G04 #@! TD*
G04 #@! TO.C,D66*
X220662500Y-106425000D03*
X220662500Y-103125000D03*
G04 #@! TD*
G04 #@! TO.C,D67*
X239712500Y-108806250D03*
X239712500Y-105506250D03*
G04 #@! TD*
G04 #@! TO.C,D68*
X258762500Y-113568750D03*
X258762500Y-110268750D03*
G04 #@! TD*
G04 #@! TO.C,D69*
X277812500Y-113568750D03*
X277812500Y-110268750D03*
G04 #@! TD*
G04 #@! TO.C,D75*
X48418750Y-69118750D03*
X48418750Y-65818750D03*
G04 #@! TD*
G04 #@! TO.C,D76*
X272256250Y-73087500D03*
X272256250Y-69787500D03*
G04 #@! TD*
D25*
G04 #@! TO.C,F1*
X37306250Y-66287500D03*
X37306250Y-63887500D03*
G04 #@! TD*
G04 #@! TO.C,F2*
X277018750Y-66287500D03*
X277018750Y-63887500D03*
G04 #@! TD*
D26*
G04 #@! TO.C,FID1*
X25400000Y-27781250D03*
G04 #@! TD*
G04 #@! TO.C,FID2*
X288925000Y-27781250D03*
G04 #@! TD*
G04 #@! TO.C,FID3*
X288925000Y-146843750D03*
G04 #@! TD*
D27*
G04 #@! TO.C,J2*
X125730000Y-120808750D03*
D28*
X128270000Y-120808750D03*
X125730000Y-118268750D03*
X128270000Y-118268750D03*
X125730000Y-115728750D03*
X128270000Y-115728750D03*
G04 #@! TD*
D29*
G04 #@! TO.C,J3*
X273852500Y-122428000D03*
X272582500Y-122428000D03*
X268772500Y-122428000D03*
X270042500Y-122428000D03*
X271312500Y-122428000D03*
G04 #@! TD*
G04 #@! TO.C,J5*
X235752500Y-118808500D03*
X234482500Y-118808500D03*
X230672500Y-118808500D03*
X231942500Y-118808500D03*
X233212500Y-118808500D03*
G04 #@! TD*
G04 #@! TO.C,J7*
X240197500Y-39941500D03*
X241467500Y-39941500D03*
X245277500Y-39941500D03*
X244007500Y-39941500D03*
X242737500Y-39941500D03*
G04 #@! TD*
G04 #@! TO.C,J9*
X235752500Y-122428000D03*
X234482500Y-122428000D03*
X230672500Y-122428000D03*
X231942500Y-122428000D03*
X233212500Y-122428000D03*
G04 #@! TD*
G04 #@! TO.C,J13*
X68897500Y-39941500D03*
X70167500Y-39941500D03*
X73977500Y-39941500D03*
X72707500Y-39941500D03*
X71437500Y-39941500D03*
G04 #@! TD*
G04 #@! TO.C,J14*
X83502500Y-118808500D03*
X82232500Y-118808500D03*
X78422500Y-118808500D03*
X79692500Y-118808500D03*
X80962500Y-118808500D03*
G04 #@! TD*
G04 #@! TO.C,J17*
X45402500Y-122428000D03*
X44132500Y-122428000D03*
X40322500Y-122428000D03*
X41592500Y-122428000D03*
X42862500Y-122428000D03*
G04 #@! TD*
G04 #@! TO.C,J18*
X83502500Y-122428000D03*
X82232500Y-122428000D03*
X78422500Y-122428000D03*
X79692500Y-122428000D03*
X80962500Y-122428000D03*
G04 #@! TD*
D12*
G04 #@! TO.C,R10*
X121287500Y-98552000D03*
X123187500Y-98552000D03*
G04 #@! TD*
D30*
G04 #@! TO.C,R25*
X97631250Y-113662500D03*
X97631250Y-111762500D03*
G04 #@! TD*
D12*
G04 #@! TO.C,R41*
X64450000Y-59531250D03*
X62550000Y-59531250D03*
G04 #@! TD*
G04 #@! TO.C,R42*
X64450000Y-62706250D03*
X62550000Y-62706250D03*
G04 #@! TD*
G04 #@! TO.C,R43*
X56200000Y-47625000D03*
X58100000Y-47625000D03*
G04 #@! TD*
D30*
G04 #@! TO.C,R44*
X29368750Y-48262500D03*
X29368750Y-50162500D03*
G04 #@! TD*
G04 #@! TO.C,R67*
X201612500Y-116043750D03*
X201612500Y-114143750D03*
G04 #@! TD*
D12*
G04 #@! TO.C,R83*
X253843750Y-66675000D03*
X255743750Y-66675000D03*
G04 #@! TD*
G04 #@! TO.C,R84*
X253843750Y-63500000D03*
X255743750Y-63500000D03*
G04 #@! TD*
G04 #@! TO.C,R85*
X284800000Y-47625000D03*
X286700000Y-47625000D03*
G04 #@! TD*
D30*
G04 #@! TO.C,R86*
X257175000Y-49368750D03*
X257175000Y-47468750D03*
G04 #@! TD*
G04 #@! TO.C,R87*
X100806250Y-113662500D03*
X100806250Y-111762500D03*
G04 #@! TD*
G04 #@! TO.C,R88*
X203993750Y-116043750D03*
X203993750Y-114143750D03*
G04 #@! TD*
D31*
G04 #@! TO.C,SW1*
X133881250Y-104700000D03*
X137581250Y-98500000D03*
X137581250Y-104700000D03*
X133881250Y-98500000D03*
G04 #@! TD*
G04 #@! TO.C,SW2*
X183887500Y-109462500D03*
X187587500Y-103262500D03*
X187587500Y-109462500D03*
X183887500Y-103262500D03*
G04 #@! TD*
D32*
G04 #@! TO.C,U1*
X109762500Y-102275000D03*
X109762500Y-102775000D03*
X109762500Y-103275000D03*
X109762500Y-103775000D03*
X109762500Y-104275000D03*
X109762500Y-104775000D03*
X109762500Y-105275000D03*
X109762500Y-105775000D03*
X109762500Y-106275000D03*
X109762500Y-106775000D03*
X109762500Y-107275000D03*
D33*
X108862500Y-108175000D03*
X108362500Y-108175000D03*
X107862500Y-108175000D03*
X107362500Y-108175000D03*
X106862500Y-108175000D03*
X106362500Y-108175000D03*
X105862500Y-108175000D03*
X105362500Y-108175000D03*
X104862500Y-108175000D03*
X104362500Y-108175000D03*
X103862500Y-108175000D03*
D32*
X102962500Y-107275000D03*
X102962500Y-106775000D03*
X102962500Y-106275000D03*
X102962500Y-105775000D03*
X102962500Y-105275000D03*
X102962500Y-104775000D03*
X102962500Y-104275000D03*
X102962500Y-103775000D03*
X102962500Y-103275000D03*
X102962500Y-102775000D03*
X102962500Y-102275000D03*
D33*
X103862500Y-101375000D03*
X104362500Y-101375000D03*
X104862500Y-101375000D03*
X105362500Y-101375000D03*
X105862500Y-101375000D03*
X106362500Y-101375000D03*
X106862500Y-101375000D03*
X107362500Y-101375000D03*
X107862500Y-101375000D03*
X108362500Y-101375000D03*
X108862500Y-101375000D03*
D34*
X104431250Y-106706250D03*
X104431250Y-105418750D03*
X104431250Y-104131250D03*
X104431250Y-102843750D03*
X105718750Y-106706250D03*
X105718750Y-105418750D03*
X105718750Y-104131250D03*
X105718750Y-102843750D03*
X107006250Y-106706250D03*
X107006250Y-105418750D03*
X107006250Y-104131250D03*
X107006250Y-102843750D03*
X108293750Y-106706250D03*
X108293750Y-105418750D03*
X108293750Y-104131250D03*
X108293750Y-102843750D03*
G04 #@! TD*
D32*
G04 #@! TO.C,U3*
X212252598Y-101993993D03*
X212252598Y-102493993D03*
X212252598Y-102993993D03*
X212252598Y-103493993D03*
X212252598Y-103993993D03*
X212252598Y-104493993D03*
X212252598Y-104993993D03*
X212252598Y-105493993D03*
X212252598Y-105993993D03*
X212252598Y-106493993D03*
X212252598Y-106993993D03*
D33*
X211352598Y-107893993D03*
X210852598Y-107893993D03*
X210352598Y-107893993D03*
X209852598Y-107893993D03*
X209352598Y-107893993D03*
X208852598Y-107893993D03*
X208352598Y-107893993D03*
X207852598Y-107893993D03*
X207352598Y-107893993D03*
X206852598Y-107893993D03*
X206352598Y-107893993D03*
D32*
X205452598Y-106993993D03*
X205452598Y-106493993D03*
X205452598Y-105993993D03*
X205452598Y-105493993D03*
X205452598Y-104993993D03*
X205452598Y-104493993D03*
X205452598Y-103993993D03*
X205452598Y-103493993D03*
X205452598Y-102993993D03*
X205452598Y-102493993D03*
X205452598Y-101993993D03*
D33*
X206352598Y-101093993D03*
X206852598Y-101093993D03*
X207352598Y-101093993D03*
X207852598Y-101093993D03*
X208352598Y-101093993D03*
X208852598Y-101093993D03*
X209352598Y-101093993D03*
X209852598Y-101093993D03*
X210352598Y-101093993D03*
X210852598Y-101093993D03*
X211352598Y-101093993D03*
D34*
X206921348Y-106425243D03*
X206921348Y-105137743D03*
X206921348Y-103850243D03*
X206921348Y-102562743D03*
X208208848Y-106425243D03*
X208208848Y-105137743D03*
X208208848Y-103850243D03*
X208208848Y-102562743D03*
X209496348Y-106425243D03*
X209496348Y-105137743D03*
X209496348Y-103850243D03*
X209496348Y-102562743D03*
X210783848Y-106425243D03*
X210783848Y-105137743D03*
X210783848Y-103850243D03*
X210783848Y-102562743D03*
G04 #@! TD*
D13*
G04 #@! TO.C,U4*
X272462500Y-52431250D03*
D14*
X270462500Y-52231250D03*
X272462500Y-54131250D03*
X270462500Y-54131250D03*
G04 #@! TD*
D35*
G04 #@! TO.C,Y1*
X106056250Y-112656250D03*
X108256250Y-112656250D03*
X108256250Y-114356250D03*
X106056250Y-114356250D03*
G04 #@! TD*
G04 #@! TO.C,Y2*
X208450000Y-112053000D03*
X210650000Y-112053000D03*
X210650000Y-113753000D03*
X208450000Y-113753000D03*
G04 #@! TD*
D36*
G04 #@! TO.C,USB1*
X48482500Y-42422500D03*
X37242500Y-42422500D03*
D37*
X48482500Y-46422500D03*
X37242500Y-46422500D03*
D38*
X42612500Y-47722500D03*
X43112500Y-47722500D03*
X43612500Y-47722500D03*
X42112500Y-47722500D03*
X44112500Y-47722500D03*
X41612500Y-47722500D03*
X44612500Y-47722500D03*
X41112500Y-47722500D03*
D39*
X40462500Y-47722500D03*
X45262500Y-47722500D03*
X39662500Y-47722500D03*
X46062500Y-47722500D03*
G04 #@! TD*
D36*
G04 #@! TO.C,USB2*
X276932500Y-42422500D03*
X265692500Y-42422500D03*
D37*
X276932500Y-46422500D03*
X265692500Y-46422500D03*
D38*
X271062500Y-47722500D03*
X271562500Y-47722500D03*
X272062500Y-47722500D03*
X270562500Y-47722500D03*
X272562500Y-47722500D03*
X270062500Y-47722500D03*
X273062500Y-47722500D03*
X269562500Y-47722500D03*
D39*
X268912500Y-47722500D03*
X273712500Y-47722500D03*
X268112500Y-47722500D03*
X274512500Y-47722500D03*
G04 #@! TD*
D36*
G04 #@! TO.C,USB3*
X124682500Y-38549000D03*
X113442500Y-38549000D03*
D37*
X124682500Y-42549000D03*
X113442500Y-42549000D03*
D38*
X118812500Y-43849000D03*
X119312500Y-43849000D03*
X119812500Y-43849000D03*
X118312500Y-43849000D03*
X120312500Y-43849000D03*
X117812500Y-43849000D03*
X120812500Y-43849000D03*
X117312500Y-43849000D03*
D39*
X116662500Y-43849000D03*
X121462500Y-43849000D03*
X115862500Y-43849000D03*
X122262500Y-43849000D03*
G04 #@! TD*
D36*
G04 #@! TO.C,USB4*
X200732500Y-38517250D03*
X189492500Y-38517250D03*
D37*
X200732500Y-42517250D03*
X189492500Y-42517250D03*
D38*
X194862500Y-43817250D03*
X195362500Y-43817250D03*
X195862500Y-43817250D03*
X194362500Y-43817250D03*
X196362500Y-43817250D03*
X193862500Y-43817250D03*
X196862500Y-43817250D03*
X193362500Y-43817250D03*
D39*
X192712500Y-43817250D03*
X197512500Y-43817250D03*
X191912500Y-43817250D03*
X198312500Y-43817250D03*
G04 #@! TD*
D40*
G04 #@! TO.C,Q1*
X132350000Y-109693750D03*
X132350000Y-107793750D03*
X134350000Y-108743750D03*
G04 #@! TD*
D41*
G04 #@! TO.C,Q2*
X235106250Y-103393750D03*
X233206250Y-103393750D03*
X234156250Y-101393750D03*
G04 #@! TD*
D30*
G04 #@! TO.C,R1*
X129381250Y-109693750D03*
X129381250Y-107793750D03*
G04 #@! TD*
G04 #@! TO.C,R2*
X38893750Y-58581250D03*
X38893750Y-60481250D03*
G04 #@! TD*
G04 #@! TO.C,R3*
X57943750Y-58581250D03*
X57943750Y-60481250D03*
G04 #@! TD*
G04 #@! TO.C,R4*
X76993750Y-53818750D03*
X76993750Y-55718750D03*
G04 #@! TD*
G04 #@! TO.C,R5*
X96043750Y-51437500D03*
X96043750Y-53337500D03*
G04 #@! TD*
G04 #@! TO.C,R6*
X115093750Y-53818750D03*
X115093750Y-55718750D03*
G04 #@! TD*
G04 #@! TO.C,R7*
X134143750Y-56200000D03*
X134143750Y-58100000D03*
G04 #@! TD*
G04 #@! TO.C,R8*
X38893750Y-77631250D03*
X38893750Y-79531250D03*
G04 #@! TD*
G04 #@! TO.C,R11*
X57943750Y-77631250D03*
X57943750Y-79531250D03*
G04 #@! TD*
G04 #@! TO.C,R12*
X76993750Y-72868750D03*
X76993750Y-74768750D03*
G04 #@! TD*
G04 #@! TO.C,R13*
X96043750Y-70487500D03*
X96043750Y-72387500D03*
G04 #@! TD*
G04 #@! TO.C,R14*
X115093750Y-72868750D03*
X115093750Y-74768750D03*
G04 #@! TD*
G04 #@! TO.C,R15*
X134143750Y-75250000D03*
X134143750Y-77150000D03*
G04 #@! TD*
G04 #@! TO.C,R16*
X38893750Y-96681250D03*
X38893750Y-98581250D03*
G04 #@! TD*
G04 #@! TO.C,R17*
X57943750Y-96681250D03*
X57943750Y-98581250D03*
G04 #@! TD*
G04 #@! TO.C,R18*
X76993750Y-91918750D03*
X76993750Y-93818750D03*
G04 #@! TD*
G04 #@! TO.C,R19*
X96043750Y-89537500D03*
X96043750Y-91437500D03*
G04 #@! TD*
G04 #@! TO.C,R20*
X115093750Y-91918750D03*
X115093750Y-93818750D03*
G04 #@! TD*
G04 #@! TO.C,R21*
X131762500Y-90331250D03*
X131762500Y-92231250D03*
G04 #@! TD*
G04 #@! TO.C,R22*
X38893750Y-115731250D03*
X38893750Y-117631250D03*
G04 #@! TD*
G04 #@! TO.C,R23*
X57943750Y-115731250D03*
X57943750Y-117631250D03*
G04 #@! TD*
G04 #@! TO.C,R24*
X76993750Y-110968750D03*
X76993750Y-112868750D03*
G04 #@! TD*
G04 #@! TO.C,R26*
X83343750Y-108587500D03*
X83343750Y-110487500D03*
G04 #@! TD*
G04 #@! TO.C,R27*
X122047000Y-119700000D03*
X122047000Y-121600000D03*
G04 #@! TD*
G04 #@! TO.C,R28*
X135731250Y-118906250D03*
X135731250Y-120806250D03*
G04 #@! TD*
D12*
G04 #@! TO.C,R29*
X235106250Y-106362500D03*
X233206250Y-106362500D03*
G04 #@! TD*
D30*
G04 #@! TO.C,R30*
X178593750Y-56200000D03*
X178593750Y-58100000D03*
G04 #@! TD*
G04 #@! TO.C,R31*
X210343750Y-53818750D03*
X210343750Y-55718750D03*
G04 #@! TD*
G04 #@! TO.C,R32*
X229393750Y-51437500D03*
X229393750Y-53337500D03*
G04 #@! TD*
G04 #@! TO.C,R33*
X248443750Y-53818750D03*
X248443750Y-55718750D03*
G04 #@! TD*
G04 #@! TO.C,R34*
X254000000Y-58581250D03*
X254000000Y-60481250D03*
G04 #@! TD*
G04 #@! TO.C,R35*
X286543750Y-58581250D03*
X286543750Y-60481250D03*
G04 #@! TD*
G04 #@! TO.C,R36*
X191293750Y-75250000D03*
X191293750Y-77150000D03*
G04 #@! TD*
G04 #@! TO.C,R37*
X210343750Y-72868750D03*
X210343750Y-74768750D03*
G04 #@! TD*
G04 #@! TO.C,R38*
X229393750Y-70487500D03*
X229393750Y-72387500D03*
G04 #@! TD*
G04 #@! TO.C,R39*
X248443750Y-72868750D03*
X248443750Y-74768750D03*
G04 #@! TD*
G04 #@! TO.C,R40*
X267493750Y-77631250D03*
X267493750Y-79531250D03*
G04 #@! TD*
G04 #@! TO.C,R45*
X286543750Y-77631250D03*
X286543750Y-79531250D03*
G04 #@! TD*
G04 #@! TO.C,R46*
X191293750Y-94300000D03*
X191293750Y-96200000D03*
G04 #@! TD*
G04 #@! TO.C,R47*
X210343750Y-91918750D03*
X210343750Y-93818750D03*
G04 #@! TD*
G04 #@! TO.C,R48*
X229393750Y-89537500D03*
X229393750Y-91437500D03*
G04 #@! TD*
G04 #@! TO.C,R49*
X248443750Y-91918750D03*
X248443750Y-93818750D03*
G04 #@! TD*
G04 #@! TO.C,R50*
X267493750Y-96681250D03*
X267493750Y-98581250D03*
G04 #@! TD*
G04 #@! TO.C,R51*
X286543750Y-96681250D03*
X286543750Y-98581250D03*
G04 #@! TD*
G04 #@! TO.C,R52*
X176212500Y-112556250D03*
X176212500Y-114456250D03*
G04 #@! TD*
G04 #@! TO.C,R53*
X184150000Y-112556250D03*
X184150000Y-114456250D03*
G04 #@! TD*
G04 #@! TO.C,R54*
X229393750Y-108587500D03*
X229393750Y-110487500D03*
G04 #@! TD*
G04 #@! TO.C,R55*
X248443750Y-110968750D03*
X248443750Y-112868750D03*
G04 #@! TD*
G04 #@! TO.C,R56*
X267493750Y-115731250D03*
X267493750Y-117631250D03*
G04 #@! TD*
G04 #@! TO.C,R57*
X286543750Y-115731250D03*
X286543750Y-117631250D03*
G04 #@! TD*
D28*
G04 #@! TO.C,J12*
X188595000Y-117316250D03*
X186055000Y-117316250D03*
X188595000Y-119856250D03*
X186055000Y-119856250D03*
X188595000Y-122396250D03*
D27*
X186055000Y-122396250D03*
G04 #@! TD*
M02*
