M48
;DRILL file {KiCad (5.0.0)} date 01/31/19 02:05:08
;FORMAT={-:-/ absolute / inch / decimal}
FMAT,2
INCH,TZ
T1C0.0310
T2C0.0472
T3C0.0748
T4C0.1339
%
G90
G05
M72
T1
X9.0816Y-4.82
X9.1316Y-4.82
X9.1816Y-4.82
X9.2316Y-4.82
X9.2816Y-4.82
X1.5875Y-4.82
X1.6375Y-4.82
X1.6875Y-4.82
X1.7375Y-4.82
X1.7875Y-4.82
X3.0875Y-4.82
X3.1375Y-4.82
X3.1875Y-4.82
X3.2375Y-4.82
X3.2875Y-4.82
X9.4566Y-1.5725
X9.5066Y-1.5725
X9.5566Y-1.5725
X9.6066Y-1.5725
X9.6566Y-1.5725
X3.0875Y-4.6775
X3.1375Y-4.6775
X3.1875Y-4.6775
X3.2375Y-4.6775
X3.2875Y-4.6775
X2.7125Y-1.5725
X2.7625Y-1.5725
X2.8125Y-1.5725
X2.8625Y-1.5725
X2.9125Y-1.5725
X10.5816Y-4.82
X10.6316Y-4.82
X10.6816Y-4.82
X10.7316Y-4.82
X10.7816Y-4.82
X9.0816Y-4.6775
X9.1316Y-4.6775
X9.1816Y-4.6775
X9.2316Y-4.6775
X9.2816Y-4.6775
T2
X10.1011Y-3.8529
X7.8511Y-2.9154
X1.857Y-3.1029
X1.107Y-2.3529
X4.857Y-3.0091
X3.357Y-2.8216
X9.3511Y-3.6654
X9.3511Y-4.4154
X8.6011Y-3.5716
X7.1011Y-3.0091
X1.107Y-3.8529
X5.5204Y-4.9161
X7.8511Y-3.6654
X7.1011Y-3.7591
X10.8511Y-2.3529
X1.107Y-3.1029
X4.857Y-3.7591
X1.107Y-4.6029
X2.607Y-2.1654
X8.6011Y-4.3216
X10.8511Y-4.6029
X10.8511Y-3.1029
X10.1011Y-2.3529
X4.107Y-2.9154
X4.107Y-2.1654
X3.357Y-2.0716
X1.857Y-2.3529
X10.1011Y-4.6029
X9.3511Y-2.9154
X7.8511Y-2.1654
X2.607Y-3.6654
X6.6431Y-4.5601
X10.1011Y-3.1029
X8.6011Y-2.0716
X7.5347Y-4.587
X9.3511Y-2.1654
X3.357Y-4.3216
X2.607Y-2.9154
X1.857Y-3.8529
X3.357Y-3.5716
X7.1011Y-2.2591
X10.8511Y-3.8529
X8.6011Y-2.8216
X4.107Y-3.6654
X4.857Y-2.2591
X4.4434Y-4.46
X1.857Y-4.6029
X2.607Y-4.4154
T3
X7.4732Y-4.4332
X7.885Y-4.2993
X9.3401Y-2.
X9.7731Y-2.
X3.346Y-4.1562
X3.779Y-4.1562
X2.596Y-2.75
X3.029Y-2.75
X1.846Y-3.6875
X2.279Y-3.6875
X3.346Y-3.4062
X3.779Y-3.4062
X7.0901Y-2.0938
X7.5231Y-2.0938
X10.8401Y-3.6875
X11.2731Y-3.6875
X8.5901Y-2.6562
X9.0231Y-2.6562
X4.096Y-3.5
X4.529Y-3.5
X4.846Y-2.0938
X5.279Y-2.0938
X4.4841Y-4.2993
X4.8959Y-4.4332
X1.846Y-4.4375
X2.279Y-4.4375
X2.596Y-4.25
X3.029Y-4.25
X10.0901Y-3.6875
X10.5231Y-3.6875
X7.8401Y-2.75
X8.2731Y-2.75
X1.846Y-2.9375
X2.279Y-2.9375
X1.096Y-2.1875
X1.529Y-2.1875
X4.846Y-2.8438
X5.279Y-2.8438
X3.346Y-2.6562
X3.779Y-2.6562
X9.3401Y-3.5
X9.7731Y-3.5
X9.3401Y-4.25
X9.7731Y-4.25
X8.5901Y-3.4062
X9.0231Y-3.4062
X7.0901Y-2.8438
X7.5231Y-2.8438
X1.096Y-3.6875
X1.529Y-3.6875
X5.3717Y-4.8429
X5.5883Y-4.4679
X7.8401Y-3.5
X8.2731Y-3.5
X7.0901Y-3.5938
X7.5231Y-3.5938
X10.8401Y-2.1875
X11.2731Y-2.1875
X1.096Y-2.9375
X1.529Y-2.9375
X4.846Y-3.5938
X5.279Y-3.5938
X1.096Y-4.4375
X1.529Y-4.4375
X2.596Y-2.
X3.029Y-2.
X8.5901Y-4.1562
X9.0231Y-4.1562
X10.8401Y-4.4375
X11.2731Y-4.4375
X10.8401Y-2.9375
X11.2731Y-2.9375
X10.0901Y-2.1875
X10.5231Y-2.1875
X4.096Y-2.75
X4.529Y-2.75
X4.096Y-2.
X4.529Y-2.
X3.346Y-1.9062
X3.779Y-1.9062
X1.846Y-2.1875
X2.279Y-2.1875
X10.0901Y-4.4375
X10.5231Y-4.4375
X9.3401Y-2.75
X9.7731Y-2.75
X7.8401Y-2.
X8.2731Y-2.
X2.596Y-3.5
X3.029Y-3.5
X6.7808Y-4.4679
X6.9974Y-4.8429
X10.0901Y-2.9375
X10.5231Y-2.9375
X8.5901Y-1.9062
X9.0231Y-1.9062
T4
X10.3066Y-3.6875
X8.0566Y-2.75
X2.0625Y-2.9375
X1.3125Y-2.1875
X5.0625Y-2.8438
X3.5625Y-2.6562
X9.5566Y-3.5
X9.5566Y-4.25
X8.8066Y-3.4062
X7.3066Y-2.8438
X1.3125Y-3.6875
X5.48Y-4.6554
X8.0566Y-3.5
X7.3066Y-3.5938
X11.0566Y-2.1875
X1.3125Y-2.9375
X5.0625Y-3.5938
X1.3125Y-4.4375
X2.8125Y-2.
X8.8066Y-4.1562
X11.0566Y-4.4375
X11.0566Y-2.9375
X10.3066Y-2.1875
X4.3125Y-2.75
X4.3125Y-2.
X3.5625Y-1.9062
X2.0625Y-2.1875
X10.3066Y-4.4375
X9.5566Y-2.75
X8.0566Y-2.
X2.8125Y-3.5
X6.8891Y-4.6554
X10.3066Y-2.9375
X8.8066Y-1.9062
X7.6791Y-4.3662
X9.5566Y-2.
X3.5625Y-4.1562
X2.8125Y-2.75
X2.0625Y-3.6875
X3.5625Y-3.4062
X7.3066Y-2.0938
X11.0566Y-3.6875
X8.8066Y-2.6562
X4.3125Y-3.5
X5.0625Y-2.0938
X4.69Y-4.3662
X2.0625Y-4.4375
X2.8125Y-4.25
T0
M30
