G04 #@! TF.GenerationSoftware,KiCad,Pcbnew,(5.0.0)*
G04 #@! TF.CreationDate,2019-01-31T01:52:36-08:00*
G04 #@! TF.ProjectId,Orbit,4F726269742E6B696361645F70636200,rev?*
G04 #@! TF.SameCoordinates,Original*
G04 #@! TF.FileFunction,Soldermask,Top*
G04 #@! TF.FilePolarity,Negative*
%FSLAX46Y46*%
G04 Gerber Fmt 4.6, Leading zero omitted, Abs format (unit mm)*
G04 Created by KiCad (PCBNEW (5.0.0)) date 01/31/19 01:52:36*
%MOMM*%
%LPD*%
G01*
G04 APERTURE LIST*
%ADD10C,1.600000*%
%ADD11C,2.300000*%
%ADD12C,3.800000*%
%ADD13C,2.540000*%
%ADD14C,1.187400*%
%ADD15O,1.400000X2.600000*%
%ADD16O,1.400000X2.200000*%
G04 APERTURE END LIST*
D10*
G04 #@! TO.C,MX34*
X140219307Y-124868403D03*
D11*
X141942000Y-113484610D03*
X136442000Y-123010890D03*
D12*
X139192000Y-118247750D03*
G04 #@! TD*
D10*
G04 #@! TO.C,MX63*
X168735693Y-115827097D03*
D11*
X177733000Y-123010890D03*
X172233000Y-113484610D03*
D12*
X174983000Y-118247750D03*
G04 #@! TD*
D10*
G04 #@! TO.C,MX9*
X28117500Y-59762500D03*
D11*
X38837500Y-55562500D03*
X27837500Y-55562500D03*
D12*
X33337500Y-55562500D03*
G04 #@! TD*
D10*
G04 #@! TO.C,MX10*
X47167500Y-59762500D03*
D11*
X57887500Y-55562500D03*
X46887500Y-55562500D03*
D12*
X52387500Y-55562500D03*
G04 #@! TD*
D10*
G04 #@! TO.C,MX11*
X66217500Y-55000000D03*
D11*
X76937500Y-50800000D03*
X65937500Y-50800000D03*
D12*
X71437500Y-50800000D03*
G04 #@! TD*
D10*
G04 #@! TO.C,MX12*
X85267500Y-52618750D03*
D11*
X95987500Y-48418750D03*
X84987500Y-48418750D03*
D12*
X90487500Y-48418750D03*
G04 #@! TD*
D10*
G04 #@! TO.C,MX13*
X104317500Y-55000000D03*
D11*
X115037500Y-50800000D03*
X104037500Y-50800000D03*
D12*
X109537500Y-50800000D03*
G04 #@! TD*
D10*
G04 #@! TO.C,MX14*
X123367500Y-57381250D03*
D11*
X134087500Y-53181250D03*
X123087500Y-53181250D03*
D12*
X128587500Y-53181250D03*
G04 #@! TD*
D10*
G04 #@! TO.C,MX16*
X28117500Y-78812500D03*
D11*
X38837500Y-74612500D03*
X27837500Y-74612500D03*
D12*
X33337500Y-74612500D03*
G04 #@! TD*
D10*
G04 #@! TO.C,MX17*
X47167500Y-78812500D03*
D11*
X57887500Y-74612500D03*
X46887500Y-74612500D03*
D12*
X52387500Y-74612500D03*
G04 #@! TD*
D10*
G04 #@! TO.C,MX18*
X66217500Y-74050000D03*
D11*
X76937500Y-69850000D03*
X65937500Y-69850000D03*
D12*
X71437500Y-69850000D03*
G04 #@! TD*
D10*
G04 #@! TO.C,MX19*
X85267500Y-71668750D03*
D11*
X95987500Y-67468750D03*
X84987500Y-67468750D03*
D12*
X90487500Y-67468750D03*
G04 #@! TD*
D10*
G04 #@! TO.C,MX20*
X104317500Y-74050000D03*
D11*
X115037500Y-69850000D03*
X104037500Y-69850000D03*
D12*
X109537500Y-69850000D03*
G04 #@! TD*
D10*
G04 #@! TO.C,MX21*
X123367500Y-76431250D03*
D11*
X134087500Y-72231250D03*
X123087500Y-72231250D03*
D12*
X128587500Y-72231250D03*
G04 #@! TD*
D10*
G04 #@! TO.C,MX23*
X28117500Y-97862500D03*
D11*
X38837500Y-93662500D03*
X27837500Y-93662500D03*
D12*
X33337500Y-93662500D03*
G04 #@! TD*
D10*
G04 #@! TO.C,MX24*
X47167500Y-97862500D03*
D11*
X57887500Y-93662500D03*
X46887500Y-93662500D03*
D12*
X52387500Y-93662500D03*
G04 #@! TD*
D10*
G04 #@! TO.C,MX25*
X66217500Y-93100000D03*
D11*
X76937500Y-88900000D03*
X65937500Y-88900000D03*
D12*
X71437500Y-88900000D03*
G04 #@! TD*
D10*
G04 #@! TO.C,MX26*
X85267500Y-90718750D03*
D11*
X95987500Y-86518750D03*
X84987500Y-86518750D03*
D12*
X90487500Y-86518750D03*
G04 #@! TD*
D10*
G04 #@! TO.C,MX27*
X104317500Y-93100000D03*
D11*
X115037500Y-88900000D03*
X104037500Y-88900000D03*
D12*
X109537500Y-88900000D03*
G04 #@! TD*
D10*
G04 #@! TO.C,MX28*
X123367500Y-95481250D03*
D11*
X134087500Y-91281250D03*
X123087500Y-91281250D03*
D12*
X128587500Y-91281250D03*
G04 #@! TD*
D10*
G04 #@! TO.C,MX29*
X28117500Y-116912500D03*
D11*
X38837500Y-112712500D03*
X27837500Y-112712500D03*
D12*
X33337500Y-112712500D03*
G04 #@! TD*
D10*
G04 #@! TO.C,MX30*
X47167500Y-116912500D03*
D11*
X57887500Y-112712500D03*
X46887500Y-112712500D03*
D12*
X52387500Y-112712500D03*
G04 #@! TD*
D10*
G04 #@! TO.C,MX31*
X66217500Y-112150000D03*
D11*
X76937500Y-107950000D03*
X65937500Y-107950000D03*
D12*
X71437500Y-107950000D03*
G04 #@! TD*
D10*
G04 #@! TO.C,MX32*
X85267500Y-109768750D03*
D11*
X95987500Y-105568750D03*
X84987500Y-105568750D03*
D12*
X90487500Y-105568750D03*
G04 #@! TD*
D10*
G04 #@! TO.C,MX33*
X112863614Y-113284119D03*
D11*
X124356811Y-112602343D03*
X113895189Y-109203157D03*
D12*
X119126000Y-110902750D03*
G04 #@! TD*
D10*
G04 #@! TO.C,MX42*
X180367500Y-57381250D03*
D11*
X191087500Y-53181250D03*
X180087500Y-53181250D03*
D12*
X185587500Y-53181250D03*
G04 #@! TD*
D10*
G04 #@! TO.C,MX43*
X199417500Y-55000000D03*
D11*
X210137500Y-50800000D03*
X199137500Y-50800000D03*
D12*
X204637500Y-50800000D03*
G04 #@! TD*
D10*
G04 #@! TO.C,MX44*
X218467500Y-52618750D03*
D11*
X229187500Y-48418750D03*
X218187500Y-48418750D03*
D12*
X223687500Y-48418750D03*
G04 #@! TD*
D10*
G04 #@! TO.C,MX45*
X237517500Y-55000000D03*
D11*
X248237500Y-50800000D03*
X237237500Y-50800000D03*
D12*
X242737500Y-50800000D03*
G04 #@! TD*
D10*
G04 #@! TO.C,MX46*
X256567500Y-59762500D03*
D11*
X267287500Y-55562500D03*
X256287500Y-55562500D03*
D12*
X261787500Y-55562500D03*
G04 #@! TD*
D10*
G04 #@! TO.C,MX47*
X275617500Y-59762500D03*
D11*
X286337500Y-55562500D03*
X275337500Y-55562500D03*
D12*
X280837500Y-55562500D03*
G04 #@! TD*
D10*
G04 #@! TO.C,MX49*
X180367500Y-76431250D03*
D11*
X191087500Y-72231250D03*
X180087500Y-72231250D03*
D12*
X185587500Y-72231250D03*
G04 #@! TD*
D10*
G04 #@! TO.C,MX50*
X199417500Y-74050000D03*
D11*
X210137500Y-69850000D03*
X199137500Y-69850000D03*
D12*
X204637500Y-69850000D03*
G04 #@! TD*
D10*
G04 #@! TO.C,MX51*
X218467500Y-71668750D03*
D11*
X229187500Y-67468750D03*
X218187500Y-67468750D03*
D12*
X223687500Y-67468750D03*
G04 #@! TD*
D10*
G04 #@! TO.C,MX52*
X237517500Y-74050000D03*
D11*
X248237500Y-69850000D03*
X237237500Y-69850000D03*
D12*
X242737500Y-69850000D03*
G04 #@! TD*
D10*
G04 #@! TO.C,MX53*
X256567500Y-78812500D03*
D11*
X267287500Y-74612500D03*
X256287500Y-74612500D03*
D12*
X261787500Y-74612500D03*
G04 #@! TD*
D10*
G04 #@! TO.C,MX54*
X275617500Y-78812500D03*
D11*
X286337500Y-74612500D03*
X275337500Y-74612500D03*
D12*
X280837500Y-74612500D03*
G04 #@! TD*
D10*
G04 #@! TO.C,MX56*
X180367500Y-95481250D03*
D11*
X191087500Y-91281250D03*
X180087500Y-91281250D03*
D12*
X185587500Y-91281250D03*
G04 #@! TD*
D10*
G04 #@! TO.C,MX57*
X199417500Y-93100000D03*
D11*
X210137500Y-88900000D03*
X199137500Y-88900000D03*
D12*
X204637500Y-88900000D03*
G04 #@! TD*
D10*
G04 #@! TO.C,MX58*
X218467500Y-90718750D03*
D11*
X229187500Y-86518750D03*
X218187500Y-86518750D03*
D12*
X223687500Y-86518750D03*
G04 #@! TD*
D10*
G04 #@! TO.C,MX59*
X237517500Y-93100000D03*
D11*
X248237500Y-88900000D03*
X237237500Y-88900000D03*
D12*
X242737500Y-88900000D03*
G04 #@! TD*
D10*
G04 #@! TO.C,MX60*
X256567500Y-97862500D03*
D11*
X267287500Y-93662500D03*
X256287500Y-93662500D03*
D12*
X261787500Y-93662500D03*
G04 #@! TD*
D10*
G04 #@! TO.C,MX61*
X275617500Y-97862500D03*
D11*
X286337500Y-93662500D03*
X275337500Y-93662500D03*
D12*
X280837500Y-93662500D03*
G04 #@! TD*
D10*
G04 #@! TO.C,MX64*
X191382356Y-116510256D03*
D11*
X200279811Y-109203157D03*
X189818189Y-112602343D03*
D12*
X195049000Y-110902750D03*
G04 #@! TD*
D10*
G04 #@! TO.C,MX65*
X218467500Y-109768750D03*
D11*
X229187500Y-105568750D03*
X218187500Y-105568750D03*
D12*
X223687500Y-105568750D03*
G04 #@! TD*
D10*
G04 #@! TO.C,MX66*
X237517500Y-112150000D03*
D11*
X248237500Y-107950000D03*
X237237500Y-107950000D03*
D12*
X242737500Y-107950000D03*
G04 #@! TD*
D10*
G04 #@! TO.C,MX67*
X256567500Y-116912500D03*
D11*
X267287500Y-112712500D03*
X256287500Y-112712500D03*
D12*
X261787500Y-112712500D03*
G04 #@! TD*
D10*
G04 #@! TO.C,MX68*
X275617500Y-116912500D03*
D11*
X286337500Y-112712500D03*
X275337500Y-112712500D03*
D12*
X280837500Y-112712500D03*
G04 #@! TD*
D13*
G04 #@! TO.C,FID4*
X25400000Y-27781250D03*
G04 #@! TD*
G04 #@! TO.C,FID5*
X288925000Y-27781250D03*
G04 #@! TD*
G04 #@! TO.C,FID6*
X288925000Y-146843750D03*
G04 #@! TD*
D14*
G04 #@! TO.C,J3*
X273852500Y-122428000D03*
X272582500Y-122428000D03*
X268772500Y-122428000D03*
X270042500Y-122428000D03*
X271312500Y-122428000D03*
G04 #@! TD*
G04 #@! TO.C,J5*
X235752500Y-118808500D03*
X234482500Y-118808500D03*
X230672500Y-118808500D03*
X231942500Y-118808500D03*
X233212500Y-118808500D03*
G04 #@! TD*
G04 #@! TO.C,J7*
X240197500Y-39941500D03*
X241467500Y-39941500D03*
X245277500Y-39941500D03*
X244007500Y-39941500D03*
X242737500Y-39941500D03*
G04 #@! TD*
G04 #@! TO.C,J9*
X235752500Y-122428000D03*
X234482500Y-122428000D03*
X230672500Y-122428000D03*
X231942500Y-122428000D03*
X233212500Y-122428000D03*
G04 #@! TD*
G04 #@! TO.C,J13*
X68897500Y-39941500D03*
X70167500Y-39941500D03*
X73977500Y-39941500D03*
X72707500Y-39941500D03*
X71437500Y-39941500D03*
G04 #@! TD*
G04 #@! TO.C,J14*
X83502500Y-118808500D03*
X82232500Y-118808500D03*
X78422500Y-118808500D03*
X79692500Y-118808500D03*
X80962500Y-118808500D03*
G04 #@! TD*
G04 #@! TO.C,J17*
X45402500Y-122428000D03*
X44132500Y-122428000D03*
X40322500Y-122428000D03*
X41592500Y-122428000D03*
X42862500Y-122428000D03*
G04 #@! TD*
G04 #@! TO.C,J18*
X83502500Y-122428000D03*
X82232500Y-122428000D03*
X78422500Y-122428000D03*
X79692500Y-122428000D03*
X80962500Y-122428000D03*
G04 #@! TD*
D15*
G04 #@! TO.C,USB1*
X48482500Y-42422500D03*
X37242500Y-42422500D03*
D16*
X48482500Y-46422500D03*
X37242500Y-46422500D03*
G04 #@! TD*
D15*
G04 #@! TO.C,USB2*
X276932500Y-42422500D03*
X265692500Y-42422500D03*
D16*
X276932500Y-46422500D03*
X265692500Y-46422500D03*
G04 #@! TD*
D15*
G04 #@! TO.C,USB3*
X124682500Y-38549000D03*
X113442500Y-38549000D03*
D16*
X124682500Y-42549000D03*
X113442500Y-42549000D03*
G04 #@! TD*
D15*
G04 #@! TO.C,USB4*
X200732500Y-38517250D03*
X189492500Y-38517250D03*
D16*
X200732500Y-42517250D03*
X189492500Y-42517250D03*
G04 #@! TD*
M02*
