G04 #@! TF.GenerationSoftware,KiCad,Pcbnew,(5.0.0)*
G04 #@! TF.CreationDate,2019-01-31T02:05:06-08:00*
G04 #@! TF.ProjectId,Orbit,4F726269742E6B696361645F70636200,rev?*
G04 #@! TF.SameCoordinates,Original*
G04 #@! TF.FileFunction,Legend,Top*
G04 #@! TF.FilePolarity,Positive*
%FSLAX46Y46*%
G04 Gerber Fmt 4.6, Leading zero omitted, Abs format (unit mm)*
G04 Created by KiCad (PCBNEW (5.0.0)) date 01/31/19 02:05:06*
%MOMM*%
%LPD*%
G01*
G04 APERTURE LIST*
%ADD10C,0.300000*%
%ADD11C,0.010000*%
%ADD12C,1.600000*%
%ADD13C,2.300000*%
%ADD14C,3.800000*%
%ADD15C,2.540000*%
%ADD16C,1.187400*%
%ADD17O,1.400000X2.600000*%
%ADD18O,1.400000X2.200000*%
G04 APERTURE END LIST*
D10*
X25841964Y-143159821D02*
X26127678Y-143159821D01*
X26270535Y-143231250D01*
X26413392Y-143374107D01*
X26484821Y-143659821D01*
X26484821Y-144159821D01*
X26413392Y-144445535D01*
X26270535Y-144588392D01*
X26127678Y-144659821D01*
X25841964Y-144659821D01*
X25699107Y-144588392D01*
X25556250Y-144445535D01*
X25484821Y-144159821D01*
X25484821Y-143659821D01*
X25556250Y-143374107D01*
X25699107Y-143231250D01*
X25841964Y-143159821D01*
X27127678Y-144659821D02*
X27127678Y-143659821D01*
X27127678Y-143945535D02*
X27199107Y-143802678D01*
X27270535Y-143731250D01*
X27413392Y-143659821D01*
X27556250Y-143659821D01*
X28056250Y-144659821D02*
X28056250Y-143159821D01*
X28056250Y-143731250D02*
X28199107Y-143659821D01*
X28484821Y-143659821D01*
X28627678Y-143731250D01*
X28699107Y-143802678D01*
X28770535Y-143945535D01*
X28770535Y-144374107D01*
X28699107Y-144516964D01*
X28627678Y-144588392D01*
X28484821Y-144659821D01*
X28199107Y-144659821D01*
X28056250Y-144588392D01*
X29413392Y-144659821D02*
X29413392Y-143659821D01*
X29413392Y-143159821D02*
X29341964Y-143231250D01*
X29413392Y-143302678D01*
X29484821Y-143231250D01*
X29413392Y-143159821D01*
X29413392Y-143302678D01*
X29913392Y-143659821D02*
X30484821Y-143659821D01*
X30127678Y-143159821D02*
X30127678Y-144445535D01*
X30199107Y-144588392D01*
X30341964Y-144659821D01*
X30484821Y-144659821D01*
X30984821Y-144088392D02*
X32127678Y-144088392D01*
X33699107Y-144516964D02*
X33627678Y-144588392D01*
X33413392Y-144659821D01*
X33270535Y-144659821D01*
X33056250Y-144588392D01*
X32913392Y-144445535D01*
X32841964Y-144302678D01*
X32770535Y-144016964D01*
X32770535Y-143802678D01*
X32841964Y-143516964D01*
X32913392Y-143374107D01*
X33056250Y-143231250D01*
X33270535Y-143159821D01*
X33413392Y-143159821D01*
X33627678Y-143231250D01*
X33699107Y-143302678D01*
X35484821Y-144659821D02*
X35484821Y-143159821D01*
X36056250Y-143159821D01*
X36199107Y-143231250D01*
X36270535Y-143302678D01*
X36341964Y-143445535D01*
X36341964Y-143659821D01*
X36270535Y-143802678D01*
X36199107Y-143874107D01*
X36056250Y-143945535D01*
X35484821Y-143945535D01*
X37841964Y-144516964D02*
X37770535Y-144588392D01*
X37556250Y-144659821D01*
X37413392Y-144659821D01*
X37199107Y-144588392D01*
X37056250Y-144445535D01*
X36984821Y-144302678D01*
X36913392Y-144016964D01*
X36913392Y-143802678D01*
X36984821Y-143516964D01*
X37056250Y-143374107D01*
X37199107Y-143231250D01*
X37413392Y-143159821D01*
X37556250Y-143159821D01*
X37770535Y-143231250D01*
X37841964Y-143302678D01*
X38984821Y-143874107D02*
X39199107Y-143945535D01*
X39270535Y-144016964D01*
X39341964Y-144159821D01*
X39341964Y-144374107D01*
X39270535Y-144516964D01*
X39199107Y-144588392D01*
X39056250Y-144659821D01*
X38484821Y-144659821D01*
X38484821Y-143159821D01*
X38984821Y-143159821D01*
X39127678Y-143231250D01*
X39199107Y-143302678D01*
X39270535Y-143445535D01*
X39270535Y-143588392D01*
X39199107Y-143731250D01*
X39127678Y-143802678D01*
X38984821Y-143874107D01*
X38484821Y-143874107D01*
X41984821Y-144659821D02*
X41484821Y-143945535D01*
X41127678Y-144659821D02*
X41127678Y-143159821D01*
X41699107Y-143159821D01*
X41841964Y-143231250D01*
X41913392Y-143302678D01*
X41984821Y-143445535D01*
X41984821Y-143659821D01*
X41913392Y-143802678D01*
X41841964Y-143874107D01*
X41699107Y-143945535D01*
X41127678Y-143945535D01*
X43199107Y-144588392D02*
X43056250Y-144659821D01*
X42770535Y-144659821D01*
X42627678Y-144588392D01*
X42556250Y-144445535D01*
X42556250Y-143874107D01*
X42627678Y-143731250D01*
X42770535Y-143659821D01*
X43056250Y-143659821D01*
X43199107Y-143731250D01*
X43270535Y-143874107D01*
X43270535Y-144016964D01*
X42556250Y-144159821D01*
X43770535Y-143659821D02*
X44127678Y-144659821D01*
X44484821Y-143659821D01*
X46984821Y-144659821D02*
X46127678Y-144659821D01*
X46556250Y-144659821D02*
X46556250Y-143159821D01*
X46413392Y-143374107D01*
X46270535Y-143516964D01*
X46127678Y-143588392D01*
X47627678Y-144516964D02*
X47699107Y-144588392D01*
X47627678Y-144659821D01*
X47556250Y-144588392D01*
X47627678Y-144516964D01*
X47627678Y-144659821D01*
X48627678Y-143159821D02*
X48770535Y-143159821D01*
X48913392Y-143231250D01*
X48984821Y-143302678D01*
X49056250Y-143445535D01*
X49127678Y-143731250D01*
X49127678Y-144088392D01*
X49056250Y-144374107D01*
X48984821Y-144516964D01*
X48913392Y-144588392D01*
X48770535Y-144659821D01*
X48627678Y-144659821D01*
X48484821Y-144588392D01*
X48413392Y-144516964D01*
X48341964Y-144374107D01*
X48270535Y-144088392D01*
X48270535Y-143731250D01*
X48341964Y-143445535D01*
X48413392Y-143302678D01*
X48484821Y-143231250D01*
X48627678Y-143159821D01*
X31877678Y-145852678D02*
X31949107Y-145781250D01*
X32091964Y-145709821D01*
X32449107Y-145709821D01*
X32591964Y-145781250D01*
X32663392Y-145852678D01*
X32734821Y-145995535D01*
X32734821Y-146138392D01*
X32663392Y-146352678D01*
X31806249Y-147209821D01*
X32734821Y-147209821D01*
X33663392Y-145709821D02*
X33806250Y-145709821D01*
X33949107Y-145781250D01*
X34020535Y-145852678D01*
X34091964Y-145995535D01*
X34163392Y-146281250D01*
X34163392Y-146638392D01*
X34091964Y-146924107D01*
X34020535Y-147066964D01*
X33949107Y-147138392D01*
X33806250Y-147209821D01*
X33663392Y-147209821D01*
X33520535Y-147138392D01*
X33449107Y-147066964D01*
X33377678Y-146924107D01*
X33306249Y-146638392D01*
X33306249Y-146281250D01*
X33377678Y-145995535D01*
X33449107Y-145852678D01*
X33520535Y-145781250D01*
X33663392Y-145709821D01*
X35591964Y-147209821D02*
X34734821Y-147209821D01*
X35163392Y-147209821D02*
X35163392Y-145709821D01*
X35020535Y-145924107D01*
X34877678Y-146066964D01*
X34734821Y-146138392D01*
X36306250Y-147209821D02*
X36591964Y-147209821D01*
X36734821Y-147138392D01*
X36806250Y-147066964D01*
X36949107Y-146852678D01*
X37020535Y-146566964D01*
X37020535Y-145995535D01*
X36949107Y-145852678D01*
X36877678Y-145781250D01*
X36734821Y-145709821D01*
X36449107Y-145709821D01*
X36306250Y-145781250D01*
X36234821Y-145852678D01*
X36163392Y-145995535D01*
X36163392Y-146352678D01*
X36234821Y-146495535D01*
X36306250Y-146566964D01*
X36449107Y-146638392D01*
X36734821Y-146638392D01*
X36877678Y-146566964D01*
X36949107Y-146495535D01*
X37020535Y-146352678D01*
X37949107Y-145709821D02*
X38091964Y-145709821D01*
X38234821Y-145781250D01*
X38306250Y-145852678D01*
X38377678Y-145995535D01*
X38449107Y-146281250D01*
X38449107Y-146638392D01*
X38377678Y-146924107D01*
X38306250Y-147066964D01*
X38234821Y-147138392D01*
X38091964Y-147209821D01*
X37949107Y-147209821D01*
X37806250Y-147138392D01*
X37734821Y-147066964D01*
X37663392Y-146924107D01*
X37591964Y-146638392D01*
X37591964Y-146281250D01*
X37663392Y-145995535D01*
X37734821Y-145852678D01*
X37806250Y-145781250D01*
X37949107Y-145709821D01*
X39877678Y-147209821D02*
X39020535Y-147209821D01*
X39449107Y-147209821D02*
X39449107Y-145709821D01*
X39306250Y-145924107D01*
X39163392Y-146066964D01*
X39020535Y-146138392D01*
X40377678Y-145709821D02*
X41306250Y-145709821D01*
X40806250Y-146281250D01*
X41020535Y-146281250D01*
X41163392Y-146352678D01*
X41234821Y-146424107D01*
X41306250Y-146566964D01*
X41306250Y-146924107D01*
X41234821Y-147066964D01*
X41163392Y-147138392D01*
X41020535Y-147209821D01*
X40591964Y-147209821D01*
X40449107Y-147138392D01*
X40377678Y-147066964D01*
X42234821Y-145709821D02*
X42377678Y-145709821D01*
X42520535Y-145781250D01*
X42591964Y-145852678D01*
X42663392Y-145995535D01*
X42734821Y-146281250D01*
X42734821Y-146638392D01*
X42663392Y-146924107D01*
X42591964Y-147066964D01*
X42520535Y-147138392D01*
X42377678Y-147209821D01*
X42234821Y-147209821D01*
X42091964Y-147138392D01*
X42020535Y-147066964D01*
X41949107Y-146924107D01*
X41877678Y-146638392D01*
X41877678Y-146281250D01*
X41949107Y-145995535D01*
X42020535Y-145852678D01*
X42091964Y-145781250D01*
X42234821Y-145709821D01*
D11*
G04 #@! TO.C,G\002A\002A\002A*
G36*
X37496750Y-137826750D02*
X37091938Y-137826750D01*
X37091938Y-137421938D01*
X37496750Y-137421938D01*
X37496750Y-137826750D01*
X37496750Y-137826750D01*
G37*
X37496750Y-137826750D02*
X37091938Y-137826750D01*
X37091938Y-137421938D01*
X37496750Y-137421938D01*
X37496750Y-137826750D01*
G36*
X37901563Y-138612563D02*
X37496750Y-138612563D01*
X37496750Y-138231563D01*
X37901563Y-138231563D01*
X37901563Y-138612563D01*
X37901563Y-138612563D01*
G37*
X37901563Y-138612563D02*
X37496750Y-138612563D01*
X37496750Y-138231563D01*
X37901563Y-138231563D01*
X37901563Y-138612563D01*
G36*
X37091938Y-138612563D02*
X36710938Y-138612563D01*
X36710938Y-138231563D01*
X37091938Y-138231563D01*
X37091938Y-138612563D01*
X37091938Y-138612563D01*
G37*
X37091938Y-138612563D02*
X36710938Y-138612563D01*
X36710938Y-138231563D01*
X37091938Y-138231563D01*
X37091938Y-138612563D01*
G36*
X38282563Y-139422188D02*
X37901563Y-139422188D01*
X37901563Y-139017375D01*
X38282563Y-139017375D01*
X38282563Y-139422188D01*
X38282563Y-139422188D01*
G37*
X38282563Y-139422188D02*
X37901563Y-139422188D01*
X37901563Y-139017375D01*
X38282563Y-139017375D01*
X38282563Y-139422188D01*
G36*
X37496750Y-139422188D02*
X37091938Y-139422188D01*
X37091938Y-139017375D01*
X37496750Y-139017375D01*
X37496750Y-139422188D01*
X37496750Y-139422188D01*
G37*
X37496750Y-139422188D02*
X37091938Y-139422188D01*
X37091938Y-139017375D01*
X37496750Y-139017375D01*
X37496750Y-139422188D01*
G36*
X36710938Y-139422188D02*
X36306125Y-139422188D01*
X36306125Y-139017375D01*
X36710938Y-139017375D01*
X36710938Y-139422188D01*
X36710938Y-139422188D01*
G37*
X36710938Y-139422188D02*
X36306125Y-139422188D01*
X36306125Y-139017375D01*
X36710938Y-139017375D01*
X36710938Y-139422188D01*
G36*
X38687375Y-140208000D02*
X38282563Y-140208000D01*
X38282563Y-139803188D01*
X38687375Y-139803188D01*
X38687375Y-140208000D01*
X38687375Y-140208000D01*
G37*
X38687375Y-140208000D02*
X38282563Y-140208000D01*
X38282563Y-139803188D01*
X38687375Y-139803188D01*
X38687375Y-140208000D01*
G36*
X36306125Y-140208000D02*
X35901313Y-140208000D01*
X35901313Y-139803188D01*
X36306125Y-139803188D01*
X36306125Y-140208000D01*
X36306125Y-140208000D01*
G37*
X36306125Y-140208000D02*
X35901313Y-140208000D01*
X35901313Y-139803188D01*
X36306125Y-139803188D01*
X36306125Y-140208000D01*
G36*
X37310219Y-135934295D02*
X37434337Y-135935665D01*
X37546049Y-135939822D01*
X37648642Y-135947169D01*
X37745406Y-135958110D01*
X37839628Y-135973048D01*
X37934597Y-135992387D01*
X38033601Y-136016531D01*
X38078880Y-136028668D01*
X38287427Y-136093906D01*
X38489515Y-136173242D01*
X38684378Y-136266278D01*
X38871249Y-136372618D01*
X39049364Y-136491866D01*
X39201510Y-136609867D01*
X39359178Y-136750592D01*
X39506515Y-136902037D01*
X39642836Y-137063135D01*
X39767458Y-137232817D01*
X39879697Y-137410016D01*
X39978870Y-137593666D01*
X40064292Y-137782697D01*
X40135280Y-137976043D01*
X40184034Y-138144053D01*
X40217105Y-138284039D01*
X40242465Y-138415975D01*
X40260857Y-138545247D01*
X40273025Y-138677243D01*
X40279711Y-138817350D01*
X40280364Y-138842750D01*
X40277645Y-139061047D01*
X40259450Y-139275830D01*
X40225785Y-139487071D01*
X40176656Y-139694739D01*
X40112069Y-139898805D01*
X40047872Y-140062737D01*
X40019789Y-140128002D01*
X39995727Y-140182160D01*
X39973858Y-140228863D01*
X39952357Y-140271763D01*
X39929396Y-140314513D01*
X39903150Y-140360765D01*
X39874025Y-140410406D01*
X39754806Y-140596677D01*
X39624702Y-140771403D01*
X39483579Y-140934715D01*
X39331305Y-141086746D01*
X39167747Y-141227630D01*
X38992774Y-141357498D01*
X38810406Y-141474025D01*
X38757577Y-141504994D01*
X38711664Y-141530971D01*
X38669015Y-141553781D01*
X38625978Y-141575251D01*
X38578901Y-141597207D01*
X38524131Y-141621475D01*
X38462737Y-141647872D01*
X38366504Y-141687419D01*
X38277786Y-141720458D01*
X38190672Y-141748945D01*
X38099248Y-141774839D01*
X38016656Y-141795572D01*
X37852140Y-141831126D01*
X37695045Y-141856803D01*
X37540817Y-141873143D01*
X37384899Y-141880686D01*
X37294344Y-141881263D01*
X37243125Y-141880748D01*
X37195004Y-141880043D01*
X37153124Y-141879210D01*
X37120628Y-141878313D01*
X37100660Y-141877415D01*
X37099875Y-141877359D01*
X36883701Y-141853407D01*
X36670944Y-141814420D01*
X36462463Y-141760717D01*
X36259118Y-141692613D01*
X36061766Y-141610426D01*
X35871268Y-141514475D01*
X35688482Y-141405076D01*
X35537526Y-141300046D01*
X35364599Y-141161699D01*
X35203915Y-141013338D01*
X35055701Y-140855289D01*
X34920179Y-140687882D01*
X34797574Y-140511444D01*
X34688111Y-140326302D01*
X34592013Y-140132785D01*
X34509506Y-139931221D01*
X34440813Y-139721938D01*
X34428668Y-139678880D01*
X34402302Y-139577085D01*
X34380917Y-139480761D01*
X34364109Y-139386617D01*
X34351475Y-139291367D01*
X34342610Y-139191720D01*
X34337112Y-139084390D01*
X34334576Y-138966086D01*
X34334295Y-138910219D01*
X34334970Y-138854858D01*
X34867044Y-138854858D01*
X34867147Y-138934996D01*
X34868813Y-139014660D01*
X34872009Y-139089787D01*
X34876706Y-139156310D01*
X34880426Y-139192000D01*
X34912300Y-139389298D01*
X34958951Y-139580913D01*
X35020201Y-139766472D01*
X35095869Y-139945599D01*
X35185777Y-140117919D01*
X35289744Y-140283059D01*
X35407591Y-140440643D01*
X35539138Y-140590297D01*
X35561474Y-140613510D01*
X35695708Y-140740584D01*
X35841410Y-140858520D01*
X35995881Y-140965340D01*
X36156419Y-141059066D01*
X36202208Y-141082754D01*
X36276616Y-141119403D01*
X36341857Y-141149622D01*
X36402354Y-141175190D01*
X36462528Y-141197884D01*
X36526801Y-141219483D01*
X36591875Y-141239477D01*
X36781088Y-141288890D01*
X36966839Y-141323341D01*
X37150577Y-141342964D01*
X37333753Y-141347892D01*
X37517814Y-141338261D01*
X37584356Y-141331281D01*
X37771688Y-141302337D01*
X37951269Y-141260528D01*
X38125607Y-141205104D01*
X38297209Y-141135314D01*
X38394166Y-141089116D01*
X38564798Y-140995697D01*
X38724214Y-140891962D01*
X38873172Y-140777224D01*
X39012429Y-140650800D01*
X39142744Y-140512004D01*
X39264874Y-140360153D01*
X39373142Y-140204509D01*
X39398268Y-140163318D01*
X39427591Y-140111190D01*
X39459291Y-140051746D01*
X39491549Y-139988606D01*
X39522543Y-139925390D01*
X39550456Y-139865717D01*
X39573465Y-139813207D01*
X39586903Y-139779375D01*
X39649770Y-139587834D01*
X39697166Y-139395095D01*
X39729050Y-139201700D01*
X39745380Y-139008190D01*
X39746118Y-138815107D01*
X39731222Y-138622992D01*
X39700652Y-138432386D01*
X39690849Y-138386344D01*
X39657200Y-138250051D01*
X39618892Y-138123868D01*
X39573954Y-138002257D01*
X39520413Y-137879682D01*
X39482754Y-137802208D01*
X39389049Y-137633360D01*
X39282224Y-137472923D01*
X39163048Y-137321618D01*
X39032287Y-137180164D01*
X38890710Y-137049281D01*
X38739084Y-136929690D01*
X38578177Y-136822110D01*
X38408757Y-136727261D01*
X38264575Y-136659730D01*
X38092947Y-136593335D01*
X37920393Y-136541337D01*
X37744906Y-136503328D01*
X37564476Y-136478901D01*
X37377095Y-136467647D01*
X37314188Y-136466757D01*
X37116093Y-136473127D01*
X36924465Y-136493772D01*
X36738531Y-136528923D01*
X36557515Y-136578817D01*
X36380644Y-136643685D01*
X36207144Y-136723763D01*
X36036241Y-136819285D01*
X35935544Y-136883494D01*
X35796111Y-136985022D01*
X35661913Y-137099528D01*
X35534591Y-137225089D01*
X35415785Y-137359781D01*
X35307136Y-137501681D01*
X35210285Y-137648865D01*
X35126872Y-137799411D01*
X35092076Y-137872330D01*
X35030673Y-138017189D01*
X34980442Y-138156428D01*
X34940185Y-138294376D01*
X34908706Y-138435364D01*
X34884806Y-138583721D01*
X34876405Y-138652250D01*
X34871642Y-138709420D01*
X34868532Y-138778311D01*
X34867044Y-138854858D01*
X34334970Y-138854858D01*
X34336040Y-138767223D01*
X34341914Y-138636356D01*
X34352488Y-138514275D01*
X34368335Y-138397635D01*
X34390027Y-138283094D01*
X34418137Y-138167309D01*
X34453236Y-138046937D01*
X34495897Y-137918634D01*
X34511591Y-137874375D01*
X34589976Y-137679656D01*
X34682816Y-137491322D01*
X34789922Y-137309635D01*
X34911102Y-137134858D01*
X35046167Y-136967253D01*
X35194924Y-136807083D01*
X35357183Y-136654610D01*
X35464021Y-136564429D01*
X35549850Y-136498936D01*
X35647389Y-136431610D01*
X35752998Y-136364662D01*
X35863036Y-136300305D01*
X35973863Y-136240750D01*
X36081839Y-136188208D01*
X36087844Y-136185465D01*
X36157804Y-136155592D01*
X36238985Y-136124206D01*
X36327017Y-136092786D01*
X36417529Y-136062812D01*
X36506151Y-136035761D01*
X36588514Y-136013114D01*
X36620400Y-136005221D01*
X36713625Y-135984453D01*
X36802599Y-135967793D01*
X36890603Y-135954902D01*
X36980919Y-135945445D01*
X37076828Y-135939082D01*
X37181610Y-135935478D01*
X37298545Y-135934294D01*
X37310219Y-135934295D01*
X37310219Y-135934295D01*
G37*
X37310219Y-135934295D02*
X37434337Y-135935665D01*
X37546049Y-135939822D01*
X37648642Y-135947169D01*
X37745406Y-135958110D01*
X37839628Y-135973048D01*
X37934597Y-135992387D01*
X38033601Y-136016531D01*
X38078880Y-136028668D01*
X38287427Y-136093906D01*
X38489515Y-136173242D01*
X38684378Y-136266278D01*
X38871249Y-136372618D01*
X39049364Y-136491866D01*
X39201510Y-136609867D01*
X39359178Y-136750592D01*
X39506515Y-136902037D01*
X39642836Y-137063135D01*
X39767458Y-137232817D01*
X39879697Y-137410016D01*
X39978870Y-137593666D01*
X40064292Y-137782697D01*
X40135280Y-137976043D01*
X40184034Y-138144053D01*
X40217105Y-138284039D01*
X40242465Y-138415975D01*
X40260857Y-138545247D01*
X40273025Y-138677243D01*
X40279711Y-138817350D01*
X40280364Y-138842750D01*
X40277645Y-139061047D01*
X40259450Y-139275830D01*
X40225785Y-139487071D01*
X40176656Y-139694739D01*
X40112069Y-139898805D01*
X40047872Y-140062737D01*
X40019789Y-140128002D01*
X39995727Y-140182160D01*
X39973858Y-140228863D01*
X39952357Y-140271763D01*
X39929396Y-140314513D01*
X39903150Y-140360765D01*
X39874025Y-140410406D01*
X39754806Y-140596677D01*
X39624702Y-140771403D01*
X39483579Y-140934715D01*
X39331305Y-141086746D01*
X39167747Y-141227630D01*
X38992774Y-141357498D01*
X38810406Y-141474025D01*
X38757577Y-141504994D01*
X38711664Y-141530971D01*
X38669015Y-141553781D01*
X38625978Y-141575251D01*
X38578901Y-141597207D01*
X38524131Y-141621475D01*
X38462737Y-141647872D01*
X38366504Y-141687419D01*
X38277786Y-141720458D01*
X38190672Y-141748945D01*
X38099248Y-141774839D01*
X38016656Y-141795572D01*
X37852140Y-141831126D01*
X37695045Y-141856803D01*
X37540817Y-141873143D01*
X37384899Y-141880686D01*
X37294344Y-141881263D01*
X37243125Y-141880748D01*
X37195004Y-141880043D01*
X37153124Y-141879210D01*
X37120628Y-141878313D01*
X37100660Y-141877415D01*
X37099875Y-141877359D01*
X36883701Y-141853407D01*
X36670944Y-141814420D01*
X36462463Y-141760717D01*
X36259118Y-141692613D01*
X36061766Y-141610426D01*
X35871268Y-141514475D01*
X35688482Y-141405076D01*
X35537526Y-141300046D01*
X35364599Y-141161699D01*
X35203915Y-141013338D01*
X35055701Y-140855289D01*
X34920179Y-140687882D01*
X34797574Y-140511444D01*
X34688111Y-140326302D01*
X34592013Y-140132785D01*
X34509506Y-139931221D01*
X34440813Y-139721938D01*
X34428668Y-139678880D01*
X34402302Y-139577085D01*
X34380917Y-139480761D01*
X34364109Y-139386617D01*
X34351475Y-139291367D01*
X34342610Y-139191720D01*
X34337112Y-139084390D01*
X34334576Y-138966086D01*
X34334295Y-138910219D01*
X34334970Y-138854858D01*
X34867044Y-138854858D01*
X34867147Y-138934996D01*
X34868813Y-139014660D01*
X34872009Y-139089787D01*
X34876706Y-139156310D01*
X34880426Y-139192000D01*
X34912300Y-139389298D01*
X34958951Y-139580913D01*
X35020201Y-139766472D01*
X35095869Y-139945599D01*
X35185777Y-140117919D01*
X35289744Y-140283059D01*
X35407591Y-140440643D01*
X35539138Y-140590297D01*
X35561474Y-140613510D01*
X35695708Y-140740584D01*
X35841410Y-140858520D01*
X35995881Y-140965340D01*
X36156419Y-141059066D01*
X36202208Y-141082754D01*
X36276616Y-141119403D01*
X36341857Y-141149622D01*
X36402354Y-141175190D01*
X36462528Y-141197884D01*
X36526801Y-141219483D01*
X36591875Y-141239477D01*
X36781088Y-141288890D01*
X36966839Y-141323341D01*
X37150577Y-141342964D01*
X37333753Y-141347892D01*
X37517814Y-141338261D01*
X37584356Y-141331281D01*
X37771688Y-141302337D01*
X37951269Y-141260528D01*
X38125607Y-141205104D01*
X38297209Y-141135314D01*
X38394166Y-141089116D01*
X38564798Y-140995697D01*
X38724214Y-140891962D01*
X38873172Y-140777224D01*
X39012429Y-140650800D01*
X39142744Y-140512004D01*
X39264874Y-140360153D01*
X39373142Y-140204509D01*
X39398268Y-140163318D01*
X39427591Y-140111190D01*
X39459291Y-140051746D01*
X39491549Y-139988606D01*
X39522543Y-139925390D01*
X39550456Y-139865717D01*
X39573465Y-139813207D01*
X39586903Y-139779375D01*
X39649770Y-139587834D01*
X39697166Y-139395095D01*
X39729050Y-139201700D01*
X39745380Y-139008190D01*
X39746118Y-138815107D01*
X39731222Y-138622992D01*
X39700652Y-138432386D01*
X39690849Y-138386344D01*
X39657200Y-138250051D01*
X39618892Y-138123868D01*
X39573954Y-138002257D01*
X39520413Y-137879682D01*
X39482754Y-137802208D01*
X39389049Y-137633360D01*
X39282224Y-137472923D01*
X39163048Y-137321618D01*
X39032287Y-137180164D01*
X38890710Y-137049281D01*
X38739084Y-136929690D01*
X38578177Y-136822110D01*
X38408757Y-136727261D01*
X38264575Y-136659730D01*
X38092947Y-136593335D01*
X37920393Y-136541337D01*
X37744906Y-136503328D01*
X37564476Y-136478901D01*
X37377095Y-136467647D01*
X37314188Y-136466757D01*
X37116093Y-136473127D01*
X36924465Y-136493772D01*
X36738531Y-136528923D01*
X36557515Y-136578817D01*
X36380644Y-136643685D01*
X36207144Y-136723763D01*
X36036241Y-136819285D01*
X35935544Y-136883494D01*
X35796111Y-136985022D01*
X35661913Y-137099528D01*
X35534591Y-137225089D01*
X35415785Y-137359781D01*
X35307136Y-137501681D01*
X35210285Y-137648865D01*
X35126872Y-137799411D01*
X35092076Y-137872330D01*
X35030673Y-138017189D01*
X34980442Y-138156428D01*
X34940185Y-138294376D01*
X34908706Y-138435364D01*
X34884806Y-138583721D01*
X34876405Y-138652250D01*
X34871642Y-138709420D01*
X34868532Y-138778311D01*
X34867044Y-138854858D01*
X34334970Y-138854858D01*
X34336040Y-138767223D01*
X34341914Y-138636356D01*
X34352488Y-138514275D01*
X34368335Y-138397635D01*
X34390027Y-138283094D01*
X34418137Y-138167309D01*
X34453236Y-138046937D01*
X34495897Y-137918634D01*
X34511591Y-137874375D01*
X34589976Y-137679656D01*
X34682816Y-137491322D01*
X34789922Y-137309635D01*
X34911102Y-137134858D01*
X35046167Y-136967253D01*
X35194924Y-136807083D01*
X35357183Y-136654610D01*
X35464021Y-136564429D01*
X35549850Y-136498936D01*
X35647389Y-136431610D01*
X35752998Y-136364662D01*
X35863036Y-136300305D01*
X35973863Y-136240750D01*
X36081839Y-136188208D01*
X36087844Y-136185465D01*
X36157804Y-136155592D01*
X36238985Y-136124206D01*
X36327017Y-136092786D01*
X36417529Y-136062812D01*
X36506151Y-136035761D01*
X36588514Y-136013114D01*
X36620400Y-136005221D01*
X36713625Y-135984453D01*
X36802599Y-135967793D01*
X36890603Y-135954902D01*
X36980919Y-135945445D01*
X37076828Y-135939082D01*
X37181610Y-135935478D01*
X37298545Y-135934294D01*
X37310219Y-135934295D01*
G04 #@! TD*
%LPC*%
D12*
G04 #@! TO.C,MX34*
X140219307Y-124868403D03*
D13*
X141942000Y-113484610D03*
X136442000Y-123010890D03*
D14*
X139192000Y-118247750D03*
G04 #@! TD*
D12*
G04 #@! TO.C,MX63*
X168735693Y-115827097D03*
D13*
X177733000Y-123010890D03*
X172233000Y-113484610D03*
D14*
X174983000Y-118247750D03*
G04 #@! TD*
D12*
G04 #@! TO.C,MX9*
X28117500Y-59762500D03*
D13*
X38837500Y-55562500D03*
X27837500Y-55562500D03*
D14*
X33337500Y-55562500D03*
G04 #@! TD*
D12*
G04 #@! TO.C,MX10*
X47167500Y-59762500D03*
D13*
X57887500Y-55562500D03*
X46887500Y-55562500D03*
D14*
X52387500Y-55562500D03*
G04 #@! TD*
D12*
G04 #@! TO.C,MX11*
X66217500Y-55000000D03*
D13*
X76937500Y-50800000D03*
X65937500Y-50800000D03*
D14*
X71437500Y-50800000D03*
G04 #@! TD*
D12*
G04 #@! TO.C,MX12*
X85267500Y-52618750D03*
D13*
X95987500Y-48418750D03*
X84987500Y-48418750D03*
D14*
X90487500Y-48418750D03*
G04 #@! TD*
D12*
G04 #@! TO.C,MX13*
X104317500Y-55000000D03*
D13*
X115037500Y-50800000D03*
X104037500Y-50800000D03*
D14*
X109537500Y-50800000D03*
G04 #@! TD*
D12*
G04 #@! TO.C,MX14*
X123367500Y-57381250D03*
D13*
X134087500Y-53181250D03*
X123087500Y-53181250D03*
D14*
X128587500Y-53181250D03*
G04 #@! TD*
D12*
G04 #@! TO.C,MX16*
X28117500Y-78812500D03*
D13*
X38837500Y-74612500D03*
X27837500Y-74612500D03*
D14*
X33337500Y-74612500D03*
G04 #@! TD*
D12*
G04 #@! TO.C,MX17*
X47167500Y-78812500D03*
D13*
X57887500Y-74612500D03*
X46887500Y-74612500D03*
D14*
X52387500Y-74612500D03*
G04 #@! TD*
D12*
G04 #@! TO.C,MX18*
X66217500Y-74050000D03*
D13*
X76937500Y-69850000D03*
X65937500Y-69850000D03*
D14*
X71437500Y-69850000D03*
G04 #@! TD*
D12*
G04 #@! TO.C,MX19*
X85267500Y-71668750D03*
D13*
X95987500Y-67468750D03*
X84987500Y-67468750D03*
D14*
X90487500Y-67468750D03*
G04 #@! TD*
D12*
G04 #@! TO.C,MX20*
X104317500Y-74050000D03*
D13*
X115037500Y-69850000D03*
X104037500Y-69850000D03*
D14*
X109537500Y-69850000D03*
G04 #@! TD*
D12*
G04 #@! TO.C,MX21*
X123367500Y-76431250D03*
D13*
X134087500Y-72231250D03*
X123087500Y-72231250D03*
D14*
X128587500Y-72231250D03*
G04 #@! TD*
D12*
G04 #@! TO.C,MX23*
X28117500Y-97862500D03*
D13*
X38837500Y-93662500D03*
X27837500Y-93662500D03*
D14*
X33337500Y-93662500D03*
G04 #@! TD*
D12*
G04 #@! TO.C,MX24*
X47167500Y-97862500D03*
D13*
X57887500Y-93662500D03*
X46887500Y-93662500D03*
D14*
X52387500Y-93662500D03*
G04 #@! TD*
D12*
G04 #@! TO.C,MX25*
X66217500Y-93100000D03*
D13*
X76937500Y-88900000D03*
X65937500Y-88900000D03*
D14*
X71437500Y-88900000D03*
G04 #@! TD*
D12*
G04 #@! TO.C,MX26*
X85267500Y-90718750D03*
D13*
X95987500Y-86518750D03*
X84987500Y-86518750D03*
D14*
X90487500Y-86518750D03*
G04 #@! TD*
D12*
G04 #@! TO.C,MX27*
X104317500Y-93100000D03*
D13*
X115037500Y-88900000D03*
X104037500Y-88900000D03*
D14*
X109537500Y-88900000D03*
G04 #@! TD*
D12*
G04 #@! TO.C,MX28*
X123367500Y-95481250D03*
D13*
X134087500Y-91281250D03*
X123087500Y-91281250D03*
D14*
X128587500Y-91281250D03*
G04 #@! TD*
D12*
G04 #@! TO.C,MX29*
X28117500Y-116912500D03*
D13*
X38837500Y-112712500D03*
X27837500Y-112712500D03*
D14*
X33337500Y-112712500D03*
G04 #@! TD*
D12*
G04 #@! TO.C,MX30*
X47167500Y-116912500D03*
D13*
X57887500Y-112712500D03*
X46887500Y-112712500D03*
D14*
X52387500Y-112712500D03*
G04 #@! TD*
D12*
G04 #@! TO.C,MX31*
X66217500Y-112150000D03*
D13*
X76937500Y-107950000D03*
X65937500Y-107950000D03*
D14*
X71437500Y-107950000D03*
G04 #@! TD*
D12*
G04 #@! TO.C,MX32*
X85267500Y-109768750D03*
D13*
X95987500Y-105568750D03*
X84987500Y-105568750D03*
D14*
X90487500Y-105568750D03*
G04 #@! TD*
D12*
G04 #@! TO.C,MX33*
X112863614Y-113284119D03*
D13*
X124356811Y-112602343D03*
X113895189Y-109203157D03*
D14*
X119126000Y-110902750D03*
G04 #@! TD*
D12*
G04 #@! TO.C,MX42*
X180367500Y-57381250D03*
D13*
X191087500Y-53181250D03*
X180087500Y-53181250D03*
D14*
X185587500Y-53181250D03*
G04 #@! TD*
D12*
G04 #@! TO.C,MX43*
X199417500Y-55000000D03*
D13*
X210137500Y-50800000D03*
X199137500Y-50800000D03*
D14*
X204637500Y-50800000D03*
G04 #@! TD*
D12*
G04 #@! TO.C,MX44*
X218467500Y-52618750D03*
D13*
X229187500Y-48418750D03*
X218187500Y-48418750D03*
D14*
X223687500Y-48418750D03*
G04 #@! TD*
D12*
G04 #@! TO.C,MX45*
X237517500Y-55000000D03*
D13*
X248237500Y-50800000D03*
X237237500Y-50800000D03*
D14*
X242737500Y-50800000D03*
G04 #@! TD*
D12*
G04 #@! TO.C,MX46*
X256567500Y-59762500D03*
D13*
X267287500Y-55562500D03*
X256287500Y-55562500D03*
D14*
X261787500Y-55562500D03*
G04 #@! TD*
D12*
G04 #@! TO.C,MX47*
X275617500Y-59762500D03*
D13*
X286337500Y-55562500D03*
X275337500Y-55562500D03*
D14*
X280837500Y-55562500D03*
G04 #@! TD*
D12*
G04 #@! TO.C,MX49*
X180367500Y-76431250D03*
D13*
X191087500Y-72231250D03*
X180087500Y-72231250D03*
D14*
X185587500Y-72231250D03*
G04 #@! TD*
D12*
G04 #@! TO.C,MX50*
X199417500Y-74050000D03*
D13*
X210137500Y-69850000D03*
X199137500Y-69850000D03*
D14*
X204637500Y-69850000D03*
G04 #@! TD*
D12*
G04 #@! TO.C,MX51*
X218467500Y-71668750D03*
D13*
X229187500Y-67468750D03*
X218187500Y-67468750D03*
D14*
X223687500Y-67468750D03*
G04 #@! TD*
D12*
G04 #@! TO.C,MX52*
X237517500Y-74050000D03*
D13*
X248237500Y-69850000D03*
X237237500Y-69850000D03*
D14*
X242737500Y-69850000D03*
G04 #@! TD*
D12*
G04 #@! TO.C,MX53*
X256567500Y-78812500D03*
D13*
X267287500Y-74612500D03*
X256287500Y-74612500D03*
D14*
X261787500Y-74612500D03*
G04 #@! TD*
D12*
G04 #@! TO.C,MX54*
X275617500Y-78812500D03*
D13*
X286337500Y-74612500D03*
X275337500Y-74612500D03*
D14*
X280837500Y-74612500D03*
G04 #@! TD*
D12*
G04 #@! TO.C,MX56*
X180367500Y-95481250D03*
D13*
X191087500Y-91281250D03*
X180087500Y-91281250D03*
D14*
X185587500Y-91281250D03*
G04 #@! TD*
D12*
G04 #@! TO.C,MX57*
X199417500Y-93100000D03*
D13*
X210137500Y-88900000D03*
X199137500Y-88900000D03*
D14*
X204637500Y-88900000D03*
G04 #@! TD*
D12*
G04 #@! TO.C,MX58*
X218467500Y-90718750D03*
D13*
X229187500Y-86518750D03*
X218187500Y-86518750D03*
D14*
X223687500Y-86518750D03*
G04 #@! TD*
D12*
G04 #@! TO.C,MX59*
X237517500Y-93100000D03*
D13*
X248237500Y-88900000D03*
X237237500Y-88900000D03*
D14*
X242737500Y-88900000D03*
G04 #@! TD*
D12*
G04 #@! TO.C,MX60*
X256567500Y-97862500D03*
D13*
X267287500Y-93662500D03*
X256287500Y-93662500D03*
D14*
X261787500Y-93662500D03*
G04 #@! TD*
D12*
G04 #@! TO.C,MX61*
X275617500Y-97862500D03*
D13*
X286337500Y-93662500D03*
X275337500Y-93662500D03*
D14*
X280837500Y-93662500D03*
G04 #@! TD*
D12*
G04 #@! TO.C,MX64*
X191382356Y-116510256D03*
D13*
X200279811Y-109203157D03*
X189818189Y-112602343D03*
D14*
X195049000Y-110902750D03*
G04 #@! TD*
D12*
G04 #@! TO.C,MX65*
X218467500Y-109768750D03*
D13*
X229187500Y-105568750D03*
X218187500Y-105568750D03*
D14*
X223687500Y-105568750D03*
G04 #@! TD*
D12*
G04 #@! TO.C,MX66*
X237517500Y-112150000D03*
D13*
X248237500Y-107950000D03*
X237237500Y-107950000D03*
D14*
X242737500Y-107950000D03*
G04 #@! TD*
D12*
G04 #@! TO.C,MX67*
X256567500Y-116912500D03*
D13*
X267287500Y-112712500D03*
X256287500Y-112712500D03*
D14*
X261787500Y-112712500D03*
G04 #@! TD*
D12*
G04 #@! TO.C,MX68*
X275617500Y-116912500D03*
D13*
X286337500Y-112712500D03*
X275337500Y-112712500D03*
D14*
X280837500Y-112712500D03*
G04 #@! TD*
D15*
G04 #@! TO.C,FID4*
X25400000Y-27781250D03*
G04 #@! TD*
G04 #@! TO.C,FID5*
X288925000Y-27781250D03*
G04 #@! TD*
G04 #@! TO.C,FID6*
X288925000Y-146843750D03*
G04 #@! TD*
D16*
G04 #@! TO.C,J3*
X273852500Y-122428000D03*
X272582500Y-122428000D03*
X268772500Y-122428000D03*
X270042500Y-122428000D03*
X271312500Y-122428000D03*
G04 #@! TD*
G04 #@! TO.C,J5*
X235752500Y-118808500D03*
X234482500Y-118808500D03*
X230672500Y-118808500D03*
X231942500Y-118808500D03*
X233212500Y-118808500D03*
G04 #@! TD*
G04 #@! TO.C,J7*
X240197500Y-39941500D03*
X241467500Y-39941500D03*
X245277500Y-39941500D03*
X244007500Y-39941500D03*
X242737500Y-39941500D03*
G04 #@! TD*
G04 #@! TO.C,J9*
X235752500Y-122428000D03*
X234482500Y-122428000D03*
X230672500Y-122428000D03*
X231942500Y-122428000D03*
X233212500Y-122428000D03*
G04 #@! TD*
G04 #@! TO.C,J13*
X68897500Y-39941500D03*
X70167500Y-39941500D03*
X73977500Y-39941500D03*
X72707500Y-39941500D03*
X71437500Y-39941500D03*
G04 #@! TD*
G04 #@! TO.C,J14*
X83502500Y-118808500D03*
X82232500Y-118808500D03*
X78422500Y-118808500D03*
X79692500Y-118808500D03*
X80962500Y-118808500D03*
G04 #@! TD*
G04 #@! TO.C,J17*
X45402500Y-122428000D03*
X44132500Y-122428000D03*
X40322500Y-122428000D03*
X41592500Y-122428000D03*
X42862500Y-122428000D03*
G04 #@! TD*
G04 #@! TO.C,J18*
X83502500Y-122428000D03*
X82232500Y-122428000D03*
X78422500Y-122428000D03*
X79692500Y-122428000D03*
X80962500Y-122428000D03*
G04 #@! TD*
D17*
G04 #@! TO.C,USB1*
X48482500Y-42422500D03*
X37242500Y-42422500D03*
D18*
X48482500Y-46422500D03*
X37242500Y-46422500D03*
G04 #@! TD*
D17*
G04 #@! TO.C,USB2*
X276932500Y-42422500D03*
X265692500Y-42422500D03*
D18*
X276932500Y-46422500D03*
X265692500Y-46422500D03*
G04 #@! TD*
D17*
G04 #@! TO.C,USB3*
X124682500Y-38549000D03*
X113442500Y-38549000D03*
D18*
X124682500Y-42549000D03*
X113442500Y-42549000D03*
G04 #@! TD*
D17*
G04 #@! TO.C,USB4*
X200732500Y-38517250D03*
X189492500Y-38517250D03*
D18*
X200732500Y-42517250D03*
X189492500Y-42517250D03*
G04 #@! TD*
M02*
