G04 #@! TF.GenerationSoftware,KiCad,Pcbnew,(5.0.0)*
G04 #@! TF.CreationDate,2019-01-31T02:05:07-08:00*
G04 #@! TF.ProjectId,Orbit,4F726269742E6B696361645F70636200,rev?*
G04 #@! TF.SameCoordinates,Original*
G04 #@! TF.FileFunction,Profile,NP*
%FSLAX46Y46*%
G04 Gerber Fmt 4.6, Leading zero omitted, Abs format (unit mm)*
G04 Created by KiCad (PCBNEW (5.0.0)) date 01/31/19 02:05:07*
%MOMM*%
%LPD*%
G01*
G04 APERTURE LIST*
G04 #@! TA.AperFunction,NonConductor*
%ADD10C,0.200000*%
G04 #@! TD*
G04 APERTURE END LIST*
D10*
G04 #@! TO.C,REF\002A\002A*
X38713500Y-47103998D02*
X47013500Y-47103998D01*
X38213500Y-41003998D02*
X38213500Y-46603998D01*
X37713500Y-40503998D02*
G75*
G02X38213500Y-41003998I0J-500000D01*
G01*
X23338500Y-149726775D02*
G75*
G02X22338500Y-148726775I0J1000000D01*
G01*
X23338500Y-122700800D02*
G75*
G02X22338500Y-121700800I0J1000000D01*
G01*
X36863500Y-40503998D02*
X37713500Y-40503998D01*
X36363500Y-43550800D02*
G75*
G02X35363500Y-44550800I-1000000J0D01*
G01*
X23338500Y-44550800D02*
X35363500Y-44550800D01*
X22338500Y-121700800D02*
X22338500Y-45550800D01*
X22338500Y-128726775D02*
G75*
G02X23338500Y-127726775I1000000J0D01*
G01*
X36363500Y-41003998D02*
G75*
G02X36863500Y-40503998I500000J0D01*
G01*
X22338500Y-45550800D02*
G75*
G02X23338500Y-44550800I1000000J0D01*
G01*
X22338500Y-148726775D02*
X22338500Y-128726775D01*
X38938500Y-122700800D02*
X23338500Y-122700800D01*
X39688500Y-126976775D02*
X39688500Y-123450800D01*
X47513500Y-46603998D02*
X47513500Y-41003998D01*
X38713500Y-47103998D02*
G75*
G02X38213500Y-46603998I0J500000D01*
G01*
X290838500Y-149726775D02*
X23338500Y-149726775D01*
X36363500Y-43550800D02*
X36363500Y-41003998D01*
X38938500Y-122700800D02*
G75*
G02X39688500Y-123450800I0J-750000D01*
G01*
X39688500Y-126976775D02*
G75*
G02X38938500Y-127726775I-750000J0D01*
G01*
X23338500Y-127726775D02*
X38938500Y-127726775D01*
X47513500Y-46603998D02*
G75*
G02X47013500Y-47103998I-500000J0D01*
G01*
X253738500Y-40788300D02*
X253738500Y-42550800D01*
X245913500Y-35157050D02*
G75*
G02X246663500Y-34407050I750000J0D01*
G01*
X265313500Y-40503998D02*
X266163500Y-40503998D01*
X255738500Y-44550800D02*
G75*
G02X253738500Y-42550800I0J2000000D01*
G01*
X22338500Y-25407050D02*
G75*
G02X23338500Y-24407050I1000000J0D01*
G01*
X264813500Y-41003998D02*
G75*
G02X265313500Y-40503998I500000J0D01*
G01*
X264813500Y-43550800D02*
X264813500Y-41003998D01*
X264813500Y-43550800D02*
G75*
G02X263813500Y-44550800I-1000000J0D01*
G01*
X122088500Y-60313300D02*
G75*
G03X122088500Y-60313300I-3500000J0D01*
G01*
X153987566Y-111363288D02*
G75*
G03X153987566Y-111363288I-3500000J0D01*
G01*
X246663500Y-39788300D02*
X252738500Y-39788300D01*
X290838500Y-24407050D02*
G75*
G02X291838500Y-25407050I0J-1000000D01*
G01*
X199088500Y-60313300D02*
G75*
G03X199088500Y-60313300I-3500000J0D01*
G01*
X46363500Y-103175800D02*
G75*
G03X46363500Y-103175800I-3500000J0D01*
G01*
X291838500Y-25407050D02*
X291838500Y-33407050D01*
X255738500Y-44550800D02*
X263813500Y-44550800D01*
X246663500Y-39788300D02*
G75*
G02X245913500Y-39038300I0J750000D01*
G01*
X245913500Y-35157050D02*
X245913500Y-39038300D01*
X46363500Y-65075800D02*
G75*
G03X46363500Y-65075800I-3500000J0D01*
G01*
X252738500Y-39788300D02*
G75*
G02X253738500Y-40788300I0J-1000000D01*
G01*
X290838500Y-34407050D02*
X246663500Y-34407050D01*
X291838500Y-33407050D02*
G75*
G02X290838500Y-34407050I-1000000J0D01*
G01*
X23338500Y-24407050D02*
X290838500Y-24407050D01*
X277813500Y-41003998D02*
X277813500Y-43550800D01*
X291838500Y-148726775D02*
G75*
G02X290838500Y-149726775I-1000000J0D01*
G01*
X275238500Y-127726775D02*
G75*
G02X274488500Y-126976775I0J750000D01*
G01*
X275963500Y-46603998D02*
X275963500Y-41003998D01*
X274488500Y-123450800D02*
G75*
G02X275238500Y-122700800I750000J0D01*
G01*
X290838500Y-122700800D02*
X275238500Y-122700800D01*
X275963500Y-46603998D02*
G75*
G02X275463500Y-47103998I-500000J0D01*
G01*
X267163500Y-47103998D02*
G75*
G02X266663500Y-46603998I0J500000D01*
G01*
X267163500Y-47103998D02*
X275463500Y-47103998D01*
X291838500Y-128726775D02*
X291838500Y-148726775D01*
X291838500Y-121700800D02*
G75*
G02X290838500Y-122700800I-1000000J0D01*
G01*
X276463500Y-40503998D02*
X277313500Y-40503998D01*
X275963500Y-41003998D02*
G75*
G02X276463500Y-40503998I500000J0D01*
G01*
X290838500Y-44550800D02*
G75*
G02X291838500Y-45550800I0J-1000000D01*
G01*
X290838500Y-127726775D02*
G75*
G02X291838500Y-128726775I0J-1000000D01*
G01*
X291838500Y-45550800D02*
X291838500Y-121700800D01*
X275238500Y-127726775D02*
X290838500Y-127726775D01*
X278813500Y-44550800D02*
G75*
G02X277813500Y-43550800I0J1000000D01*
G01*
X274488500Y-123450800D02*
X274488500Y-126976775D01*
X277313500Y-40503998D02*
G75*
G02X277813500Y-41003998I0J-500000D01*
G01*
X266163500Y-40503998D02*
G75*
G02X266663500Y-41003998I0J-500000D01*
G01*
X266663500Y-41003998D02*
X266663500Y-46603998D01*
X278813500Y-44550800D02*
X290838500Y-44550800D01*
X104663500Y-39788300D02*
X111563500Y-39788300D01*
X74613500Y-35157050D02*
X74613500Y-39038300D01*
X211470499Y-38200800D02*
G75*
G02X212448998Y-37407050I978499J-206250D01*
G01*
X75363500Y-39788300D02*
X77553002Y-39788300D01*
X238813500Y-34407050D02*
G75*
G02X239563500Y-35157050I0J-750000D01*
G01*
X239563500Y-39038300D02*
G75*
G02X238813500Y-39788300I-750000J0D01*
G01*
X233688500Y-37407050D02*
G75*
G02X234666999Y-38200800I0J-1000000D01*
G01*
X202613500Y-39788300D02*
X209513500Y-39788300D01*
X202613500Y-39788300D02*
G75*
G02X201613500Y-38788300I0J1000000D01*
G01*
X101728002Y-37407050D02*
G75*
G02X102706501Y-38200800I0J-1000000D01*
G01*
X80488500Y-37407050D02*
X101728002Y-37407050D01*
X79510001Y-38200800D02*
G75*
G02X77553002Y-39788300I-1956999J412500D01*
G01*
X75363500Y-39788300D02*
G75*
G02X74613500Y-39038300I0J750000D01*
G01*
X236623998Y-39788300D02*
G75*
G02X234666999Y-38200800I0J2000000D01*
G01*
X104663500Y-39788300D02*
G75*
G02X102706501Y-38200800I0J2000000D01*
G01*
X236623998Y-39788300D02*
X238813500Y-39788300D01*
X238813500Y-34407050D02*
X75363500Y-34407050D01*
X212448998Y-37407050D02*
X233688500Y-37407050D01*
X74613500Y-35157050D02*
G75*
G02X75363500Y-34407050I750000J0D01*
G01*
X79510001Y-38200800D02*
G75*
G02X80488500Y-37407050I978499J-206250D01*
G01*
X239563500Y-39038300D02*
X239563500Y-35157050D01*
X211470499Y-38200800D02*
G75*
G02X209513500Y-39788300I-1956999J412500D01*
G01*
X112563500Y-38788300D02*
G75*
G02X111563500Y-39788300I-1000000J0D01*
G01*
X201613500Y-37135307D02*
X201613500Y-38788300D01*
X158442496Y-109225324D02*
X173588500Y-100480775D01*
X190963500Y-43235307D02*
G75*
G02X190463500Y-42735307I0J500000D01*
G01*
X172838971Y-136160750D02*
X158076471Y-110591350D01*
X189963500Y-36635307D02*
G75*
G02X190463500Y-37135307I0J-500000D01*
G01*
X190463500Y-37135307D02*
X190463500Y-42735307D01*
X201113500Y-36635307D02*
G75*
G02X201613500Y-37135307I0J-500000D01*
G01*
X174588500Y-98748724D02*
X174588500Y-43169550D01*
X200263500Y-36635307D02*
X201113500Y-36635307D01*
X199763500Y-42735307D02*
X199763500Y-37135307D01*
X158076470Y-110591350D02*
G75*
G02X158442496Y-109225324I866026J500000D01*
G01*
X175588500Y-42169550D02*
X187613500Y-42169550D01*
X174588500Y-98748724D02*
G75*
G02X173588500Y-100480775I-2000000J0D01*
G01*
X199763500Y-42735307D02*
G75*
G02X199263500Y-43235307I-500000J0D01*
G01*
X204205027Y-119206249D02*
X174204996Y-136526775D01*
X174204996Y-136526775D02*
G75*
G02X172838971Y-136160750I-500000J866025D01*
G01*
X174588500Y-43169550D02*
G75*
G02X175588500Y-42169550I1000000J0D01*
G01*
X189113500Y-36635307D02*
X189963500Y-36635307D01*
X188613500Y-41169550D02*
X188613500Y-37135307D01*
X188613500Y-37135307D02*
G75*
G02X189113500Y-36635307I500000J0D01*
G01*
X188613500Y-41169550D02*
G75*
G02X187613500Y-42169550I-1000000J0D01*
G01*
X199763500Y-37135307D02*
G75*
G02X200263500Y-36635307I500000J0D01*
G01*
X190963500Y-43235307D02*
X199263500Y-43235307D01*
X114913500Y-43235307D02*
G75*
G02X114413500Y-42735307I0J500000D01*
G01*
X114413500Y-37135307D02*
X114413500Y-42735307D01*
X155734504Y-109225325D02*
G75*
G02X156100529Y-110591350I-500000J-866025D01*
G01*
X126563500Y-42169550D02*
G75*
G02X125563500Y-41169550I0J1000000D01*
G01*
X112563500Y-38788300D02*
X112563500Y-37135307D01*
X113063500Y-36635307D02*
X113913500Y-36635307D01*
X140588500Y-100480775D02*
X155734504Y-109225324D01*
X139588500Y-43169550D02*
X139588500Y-98748724D01*
X140588500Y-100480775D02*
G75*
G02X139588500Y-98748724I1000000J1732051D01*
G01*
X114913500Y-43235307D02*
X123213500Y-43235307D01*
X141338029Y-136160750D02*
G75*
G02X139972004Y-136526775I-866025J500000D01*
G01*
X156100529Y-110591350D02*
X141338029Y-136160750D01*
X125563500Y-37135307D02*
X125563500Y-41169550D01*
X123713500Y-42735307D02*
X123713500Y-37135307D01*
X125063500Y-36635307D02*
G75*
G02X125563500Y-37135307I0J-500000D01*
G01*
X113913500Y-36635307D02*
G75*
G02X114413500Y-37135307I0J-500000D01*
G01*
X124213500Y-36635307D02*
X125063500Y-36635307D01*
X123713500Y-37135307D02*
G75*
G02X124213500Y-36635307I500000J0D01*
G01*
X123713500Y-42735307D02*
G75*
G02X123213500Y-43235307I-500000J0D01*
G01*
X112563500Y-37135307D02*
G75*
G02X113063500Y-36635307I500000J0D01*
G01*
X126563500Y-42169550D02*
X138588500Y-42169550D01*
X138588500Y-42169550D02*
G75*
G02X139588500Y-43169550I0J-1000000D01*
G01*
X139972004Y-136526775D02*
X109971973Y-119206249D01*
X230038500Y-126976775D02*
G75*
G02X229288500Y-127726775I-750000J0D01*
G01*
X68263500Y-39038300D02*
G75*
G02X67513500Y-39788300I-750000J0D01*
G01*
X49363500Y-41003998D02*
X49363500Y-43550800D01*
X50363500Y-44550800D02*
X58438500Y-44550800D01*
X229288500Y-118938300D02*
G75*
G02X230038500Y-119688300I0J-750000D01*
G01*
X207838500Y-127726775D02*
X229288500Y-127726775D01*
X206838500Y-128726775D02*
G75*
G02X207838500Y-127726775I1000000J0D01*
G01*
X61438500Y-39788300D02*
X67513500Y-39788300D01*
X23338500Y-34407050D02*
G75*
G02X22338500Y-33407050I0J1000000D01*
G01*
X67513500Y-34407050D02*
X23338500Y-34407050D01*
X47513500Y-41003998D02*
G75*
G02X48013500Y-40503998I500000J0D01*
G01*
X67513500Y-34407050D02*
G75*
G02X68263500Y-35157050I0J-750000D01*
G01*
X60438500Y-40788300D02*
G75*
G02X61438500Y-39788300I1000000J0D01*
G01*
X50363500Y-44550800D02*
G75*
G02X49363500Y-43550800I0J1000000D01*
G01*
X48863500Y-40503998D02*
G75*
G02X49363500Y-41003998I0J-500000D01*
G01*
X68263500Y-39038300D02*
X68263500Y-35157050D01*
X60438500Y-42550800D02*
G75*
G02X58438500Y-44550800I-2000000J0D01*
G01*
X229288500Y-118938300D02*
X205205027Y-118938300D01*
X22338500Y-33407050D02*
X22338500Y-25407050D01*
X48013500Y-40503998D02*
X48863500Y-40503998D01*
X204205027Y-119206249D02*
G75*
G02X205205027Y-118938300I1000000J-1732051D01*
G01*
X230038500Y-126976775D02*
X230038500Y-119688300D01*
X60438500Y-42550800D02*
X60438500Y-40788300D01*
X250788500Y-121700800D02*
X250788500Y-120938300D01*
X77788500Y-126976775D02*
X77788500Y-119688300D01*
X46788500Y-127726775D02*
X77038500Y-127726775D01*
X107338500Y-128726775D02*
X107338500Y-138726775D01*
X46788500Y-127726775D02*
G75*
G02X46038500Y-126976775I0J750000D01*
G01*
X267388500Y-122700800D02*
G75*
G02X268138500Y-123450800I0J-750000D01*
G01*
X248788500Y-118938300D02*
X237138500Y-118938300D01*
X77038500Y-118938300D02*
X65388500Y-118938300D01*
X206838500Y-138726775D02*
G75*
G02X205838500Y-139726775I-1000000J0D01*
G01*
X206838500Y-138726775D02*
X206838500Y-128726775D01*
X268138500Y-126976775D02*
G75*
G02X267388500Y-127726775I-750000J0D01*
G01*
X237138500Y-127726775D02*
X267388500Y-127726775D01*
X237138500Y-127726775D02*
G75*
G02X236388500Y-126976775I0J750000D01*
G01*
X77788500Y-126976775D02*
G75*
G02X77038500Y-127726775I-750000J0D01*
G01*
X63388500Y-120938300D02*
X63388500Y-121700800D01*
X236388500Y-119688300D02*
G75*
G02X237138500Y-118938300I750000J0D01*
G01*
X248788500Y-118938300D02*
G75*
G02X250788500Y-120938300I0J-2000000D01*
G01*
X77038500Y-118938300D02*
G75*
G02X77788500Y-119688300I0J-750000D01*
G01*
X84138500Y-119688300D02*
G75*
G02X84888500Y-118938300I750000J0D01*
G01*
X251788500Y-122700800D02*
G75*
G02X250788500Y-121700800I0J1000000D01*
G01*
X267388500Y-122700800D02*
X251788500Y-122700800D01*
X46038500Y-123450800D02*
X46038500Y-126976775D01*
X84888500Y-127726775D02*
X106338500Y-127726775D01*
X46038500Y-123450800D02*
G75*
G02X46788500Y-122700800I750000J0D01*
G01*
X62388500Y-122700800D02*
X46788500Y-122700800D01*
X63388500Y-120938300D02*
G75*
G02X65388500Y-118938300I2000000J0D01*
G01*
X84888500Y-127726775D02*
G75*
G02X84138500Y-126976775I0J750000D01*
G01*
X106338500Y-127726775D02*
G75*
G02X107338500Y-128726775I0J-1000000D01*
G01*
X108971973Y-118938300D02*
X84888500Y-118938300D01*
X84138500Y-119688300D02*
X84138500Y-126976775D01*
X63388500Y-121700800D02*
G75*
G02X62388500Y-122700800I-1000000J0D01*
G01*
X108971973Y-118938300D02*
G75*
G02X109971973Y-119206249I0J-2000000D01*
G01*
X108338500Y-139726775D02*
G75*
G02X107338500Y-138726775I0J1000000D01*
G01*
X236388500Y-119688300D02*
X236388500Y-126976775D01*
X108338500Y-139726775D02*
X205838500Y-139726775D01*
X268138500Y-126976775D02*
X268138500Y-123450800D01*
X167189434Y-111363288D02*
G75*
G03X167189434Y-111363288I-3500000J0D01*
G01*
X274813500Y-65075800D02*
G75*
G03X274813500Y-65075800I-3500000J0D01*
G01*
X274813500Y-103175800D02*
G75*
G03X274813500Y-103175800I-3500000J0D01*
G01*
G04 #@! TD*
M02*
