M48
;DRILL file {KiCad (5.0.0)} date 11/17/18 17:59:44
;FORMAT={-:-/ absolute / inch / decimal}
FMAT,2
INCH,TZ
T1C0.0157
T2C0.0236
T3C0.0354
T4C0.0394
T5C0.0409
T6C0.0579
%
G90
G05
M72
T1
X1.76Y-3.995
X1.815Y-4.465
X1.96Y-4.225
X2.Y-4.96
X2.125Y-4.27
X2.165Y-4.27
X2.865Y-4.405
X2.905Y-4.26
X2.905Y-4.305
X3.06Y-4.39
X3.235Y-4.265
X3.665Y-4.215
X4.13Y-2.525
X4.16Y-3.275
X4.16Y-4.105
X4.165Y-1.77
X4.17Y-3.955
X4.185Y-4.62
X4.32Y-4.68
X4.415Y-4.105
X4.575Y-4.06
X4.675Y-4.145
X4.715Y-4.145
X4.725Y-3.45
X4.735Y-4.59
X4.745Y-4.06
X4.745Y-4.385
X4.745Y-4.43
X4.77Y-3.675
X4.875Y-4.145
X4.94Y-4.075
X4.955Y-1.655
X4.96Y-4.62
X4.98Y-4.075
X5.Y-4.62
X5.02Y-4.115
X5.035Y-2.465
X5.05Y-4.145
X5.07Y-1.38
X5.085Y-4.24
X5.105Y-3.175
X5.11Y-3.925
X5.22Y-4.29
X5.22Y-4.335
X5.22Y-4.455
X5.23Y-1.91
X5.275Y-4.49
X5.28Y-4.22
X5.32Y-4.49
X5.33Y-4.71
X5.34Y-4.56
X5.35Y-4.67
X5.375Y-4.385
X5.38Y-4.55
X5.39Y-4.605
X5.42Y-4.235
X5.44Y-4.53
X5.49Y-3.57
X5.51Y-1.78
X5.51Y-1.825
X5.515Y-2.53
X5.515Y-2.575
X5.515Y-3.28
X5.515Y-3.325
X5.52Y-4.415
X5.525Y-4.235
X5.54Y-1.41
X5.57Y-2.8
X5.585Y-1.41
X5.585Y-4.195
X5.59Y-2.055
X5.595Y-3.57
X5.595Y-4.03
X5.595Y-4.075
X5.635Y-1.37
X5.745Y-1.37
X5.78Y-1.4
X5.86Y-1.78
X5.86Y-1.825
X5.86Y-2.525
X5.86Y-2.575
X5.86Y-2.8
X5.865Y-3.28
X5.865Y-3.325
X5.865Y-4.03
X5.865Y-4.075
X5.905Y-1.42
X5.915Y-4.375
X5.95Y-4.9
X5.995Y-2.8
X5.995Y-5.005
X6.02Y-4.33
X6.04Y-1.44
X6.05Y-4.58
X6.055Y-4.785
X6.085Y-4.72
X6.115Y-5.065
X6.21Y-4.305
X6.22Y-4.76
X6.25Y-4.085
X6.615Y-4.78
X6.97Y-4.785
X7.56Y-4.9
X7.995Y-2.13
X8.09Y-1.375
X8.095Y-4.005
X8.095Y-4.065
X8.095Y-4.76
X8.17Y-2.105
X8.19Y-4.245
X8.215Y-4.965
X8.25Y-4.735
X8.28Y-1.37
X8.425Y-1.985
X8.44Y-4.145
X8.45Y-1.78
X8.45Y-1.825
X8.45Y-2.525
X8.45Y-2.57
X8.45Y-3.275
X8.45Y-3.32
X8.45Y-4.015
X8.465Y-4.49
X8.48Y-4.32
X8.49Y-4.18
X8.51Y-4.35
X8.515Y-4.96
X8.52Y-1.405
X8.525Y-2.065
X8.535Y-4.14
X8.575Y-1.37
X8.685Y-1.37
X8.7Y-4.18
X8.7Y-4.225
X8.7Y-4.27
X8.715Y-3.69
X8.72Y-1.4
X8.72Y-3.96
X8.755Y-3.54
X8.785Y-1.985
X8.785Y-2.065
X8.79Y-4.025
X8.8Y-1.78
X8.8Y-1.825
X8.8Y-2.525
X8.8Y-2.57
X8.8Y-3.275
X8.8Y-3.32
X8.855Y-3.54
X8.89Y-4.145
X8.92Y-3.54
X8.995Y-4.8
X9.Y-1.37
X9.035Y-4.71
X9.08Y-4.13
X9.085Y-4.615
X9.12Y-4.665
X9.13Y-4.71
X9.13Y-4.8
X9.135Y-4.13
X9.14Y-3.93
X9.155Y-3.99
X9.175Y-4.71
X9.22Y-3.775
X9.22Y-4.71
X9.225Y-4.66
X9.25Y-4.79
X9.265Y-4.66
X9.28Y-4.115
X9.32Y-4.095
X9.335Y-4.72
X9.375Y-4.675
X9.385Y-1.345
X9.4Y-4.62
X9.405Y-4.2
X9.485Y-2.065
X9.535Y-4.655
X9.58Y-4.58
X9.58Y-4.67
X9.615Y-4.06
X9.945Y-4.23
X9.96Y-2.32
X9.96Y-3.82
X9.965Y-3.07
X9.99Y-4.23
X10.035Y-4.23
X10.08Y-4.23
X10.095Y-2.43
X10.095Y-3.18
X10.095Y-3.93
X10.105Y-4.68
X10.11Y-1.58
X10.115Y-1.665
X10.355Y-4.17
X10.715Y-4.775
X10.76Y-3.97
X11.045Y-4.28
X11.855Y-4.37
X11.92Y-2.265
X12.2Y-4.525
X12.22Y-4.96
X12.235Y-4.31
X12.25Y-3.8
X12.32Y-4.165
X12.5Y-4.46
X12.555Y-4.535
X12.685Y-4.595
X12.88Y-4.595
T3
X12.5915Y-4.7199
X12.5915Y-4.8199
X1.5241Y-4.7199
X1.5241Y-4.8199
X1.3273Y-4.7199
X1.3273Y-4.8199
X12.7884Y-4.7199
X12.7884Y-4.8199
X1.721Y-4.7199
X1.721Y-4.8199
X12.9852Y-4.7199
X12.9852Y-4.8199
T4
X4.8875Y-3.525
X4.8875Y-3.625
X4.8875Y-3.725
X4.9875Y-3.525
X4.9875Y-3.625
X4.9875Y-3.725
X9.325Y-3.525
X9.325Y-3.625
X9.325Y-3.725
X9.425Y-3.525
X9.425Y-3.625
X9.425Y-3.725
T5
X2.6375Y-4.9813
X2.7375Y-4.9813
X3.0125Y-1.9812
X3.1125Y-1.9812
X12.95Y-2.2937
X12.95Y-2.3937
X5.2625Y-4.0438
X5.3625Y-4.0438
X9.7Y-3.95
X9.8Y-3.95
X3.0125Y-2.7312
X3.1125Y-2.7312
X9.7Y-2.45
X9.8Y-2.45
X2.2625Y-2.7312
X2.3625Y-2.7312
X8.2Y-2.6375
X8.3Y-2.6375
X4.5125Y-3.95
X4.6125Y-3.95
X3.7625Y-4.0438
X3.8625Y-4.0438
X1.5125Y-2.1687
X1.6125Y-2.1687
X8.95Y-1.7937
X9.05Y-1.7937
X12.7Y-3.6687
X12.8Y-3.6687
X8.2Y-4.1375
X8.3Y-4.1375
X5.2625Y-1.7937
X5.3625Y-1.7937
X12.7Y-2.1687
X12.8Y-2.1687
X3.7625Y-2.5437
X3.8625Y-2.5437
X8.95Y-4.0438
X9.05Y-4.0438
X2.2625Y-1.9812
X2.3625Y-1.9812
X11.575Y-4.9813
X11.675Y-4.9813
X5.2625Y-3.2937
X5.3625Y-3.2937
X10.45Y-3.2937
X10.55Y-3.2937
X8.6368Y-4.9157
X8.7319Y-4.8848
X1.5125Y-2.9187
X1.6125Y-2.9187
X8.2Y-1.8875
X8.3Y-1.8875
X4.5125Y-1.7
X4.6125Y-1.7
X8.95Y-3.2937
X9.05Y-3.2937
X4.5125Y-4.7
X4.6125Y-4.7
X7.8892Y-5.1832
X7.9758Y-5.1332
X11.95Y-4.9813
X12.05Y-4.9813
X11.2Y-4.9813
X11.3Y-4.9813
X9.7Y-4.7
X9.8Y-4.7
X11.95Y-2.7312
X12.05Y-2.7312
X2.2625Y-3.4812
X2.3625Y-3.4812
X10.45Y-1.7937
X10.55Y-1.7937
X4.5125Y-3.2
X4.6125Y-3.2
X9.7Y-1.7
X9.8Y-1.7
X6.0125Y-3.3875
X6.1125Y-3.3875
X11.95Y-3.4812
X12.05Y-3.4812
X6.0125Y-1.8875
X6.1125Y-1.8875
X6.3367Y-5.1332
X6.4233Y-5.1832
X10.45Y-4.7938
X10.55Y-4.7938
X11.2Y-1.9812
X11.3Y-1.9812
X11.2Y-2.7312
X11.3Y-2.7312
X3.7625Y-3.2937
X3.8625Y-3.2937
X9.7Y-3.2
X9.8Y-3.2
X2.2625Y-4.2313
X2.3625Y-4.2313
X3.0125Y-3.4812
X3.1125Y-3.4812
X5.5806Y-4.8848
X5.6757Y-4.9157
X11.95Y-1.9812
X12.05Y-1.9812
X3.7625Y-1.7937
X3.8625Y-1.7937
X11.2Y-4.2313
X11.3Y-4.2313
X11.95Y-4.2313
X12.05Y-4.2313
X10.45Y-2.5437
X10.55Y-2.5437
X4.5125Y-2.45
X4.6125Y-2.45
X12.7Y-2.9187
X12.8Y-2.9187
X1.5125Y-4.4188
X1.6125Y-4.4188
X3.0125Y-4.2313
X3.1125Y-4.2313
X6.0125Y-2.6375
X6.1125Y-2.6375
X11.2Y-3.4812
X11.3Y-3.4812
X2.2625Y-4.9813
X2.3625Y-4.9813
X3.7625Y-4.7938
X3.8625Y-4.7938
X1.7625Y-3.7937
X1.7625Y-3.8937
X1.7625Y-2.2937
X1.7625Y-2.3937
X12.95Y-3.7937
X12.95Y-3.8937
X12.7Y-4.4188
X12.8Y-4.4188
X1.5125Y-3.6687
X1.6125Y-3.6687
X8.95Y-2.5437
X9.05Y-2.5437
X5.2625Y-2.5437
X5.3625Y-2.5437
X10.45Y-4.0438
X10.55Y-4.0438
X3.0125Y-4.9813
X3.1125Y-4.9813
X8.2Y-3.3875
X8.3Y-3.3875
X6.0125Y-4.1375
X6.1125Y-4.1375
T6
X8.1Y-3.0875
X8.1516Y-3.03
X8.3484Y-3.0103
X8.35Y-2.9875
X5.9125Y-3.8375
X5.9641Y-3.78
X6.1609Y-3.7603
X6.1625Y-3.7375
X6.5842Y-5.1588
X6.6656Y-4.9785
X2.5375Y-4.6812
X2.5891Y-4.6238
X2.7859Y-4.6041
X2.7875Y-4.5812
X2.9125Y-1.6812
X2.9641Y-1.6238
X3.1609Y-1.6041
X3.1625Y-1.5813
X12.55Y-2.2437
X12.5728Y-2.2453
X12.5925Y-2.4422
X12.65Y-2.4937
X5.1625Y-3.7437
X5.2141Y-3.6863
X5.4109Y-3.6666
X5.4125Y-3.6437
X9.6Y-3.65
X9.6516Y-3.5925
X9.8484Y-3.5728
X9.85Y-3.55
X2.9125Y-2.4312
X2.9641Y-2.3738
X3.1609Y-2.3541
X3.1625Y-2.3312
X9.6Y-2.15
X9.6516Y-2.0925
X9.8484Y-2.0728
X9.85Y-2.05
X2.1625Y-2.4312
X2.2141Y-2.3738
X2.4109Y-2.3541
X2.4125Y-2.3312
X8.1Y-2.3375
X8.1516Y-2.28
X8.3484Y-2.2603
X8.35Y-2.2375
X4.4125Y-3.65
X4.4641Y-3.5925
X4.6609Y-3.5728
X4.6625Y-3.55
X3.6625Y-3.7437
X3.7141Y-3.6863
X3.9109Y-3.6666
X3.9125Y-3.6437
X1.4125Y-1.8687
X1.4641Y-1.8113
X1.6609Y-1.7916
X1.6625Y-1.7688
X8.85Y-1.4937
X8.9016Y-1.4363
X9.0984Y-1.4166
X9.1Y-1.3938
X12.6Y-3.3687
X12.6516Y-3.3113
X12.8484Y-3.2916
X12.85Y-3.2687
X8.1Y-3.8375
X8.1516Y-3.78
X8.3484Y-3.7603
X8.35Y-3.7375
X5.1625Y-1.4937
X5.2141Y-1.4363
X5.4109Y-1.4166
X5.4125Y-1.3938
X12.6Y-1.8687
X12.6516Y-1.8113
X12.8484Y-1.7916
X12.85Y-1.7688
X3.6625Y-2.2437
X3.7141Y-2.1863
X3.9109Y-2.1666
X3.9125Y-2.1437
X8.85Y-3.7437
X8.9016Y-3.6863
X9.0984Y-3.6666
X9.1Y-3.6437
X2.1625Y-1.6812
X2.2141Y-1.6238
X2.4109Y-1.6041
X2.4125Y-1.5813
X11.475Y-4.6812
X11.5266Y-4.6238
X11.7234Y-4.6041
X11.725Y-4.5812
X5.1625Y-2.9937
X5.2141Y-2.9363
X5.4109Y-2.9166
X5.4125Y-2.8937
X10.35Y-2.9937
X10.4016Y-2.9363
X10.5984Y-2.9166
X10.6Y-2.8937
X8.4489Y-4.6612
X8.4802Y-4.5906
X8.6558Y-4.4889
X8.6614Y-4.5111
X1.4125Y-2.6187
X1.4641Y-2.5613
X1.6609Y-2.5416
X1.6625Y-2.5187
X8.1Y-1.5875
X8.1516Y-1.53
X8.3484Y-1.5103
X8.35Y-1.4875
X4.4125Y-1.4
X4.4641Y-1.3425
X4.6609Y-1.3228
X4.6625Y-1.3
X8.85Y-2.9937
X8.9016Y-2.9363
X9.0984Y-2.9166
X9.1Y-2.8937
X4.4125Y-4.4
X4.4641Y-4.3425
X4.6609Y-4.3228
X4.6625Y-4.3
X7.6526Y-4.9734
X7.8191Y-4.7618
X11.85Y-4.6812
X11.9016Y-4.6238
X12.0984Y-4.6041
X12.1Y-4.5812
X11.1Y-4.6812
X11.1516Y-4.6238
X11.3484Y-4.6041
X11.35Y-4.5812
X9.6Y-4.4
X9.6516Y-4.3425
X9.8484Y-4.3228
X9.85Y-4.3
X11.85Y-2.4312
X11.9016Y-2.3738
X12.0984Y-2.3541
X12.1Y-2.3312
X2.1625Y-3.1812
X2.2141Y-3.1238
X2.4109Y-3.1041
X2.4125Y-3.0812
X10.35Y-1.4937
X10.4016Y-1.4363
X10.5984Y-1.4166
X10.6Y-1.3938
X4.4125Y-2.9
X4.4641Y-2.8425
X4.6609Y-2.8228
X4.6625Y-2.8
X9.6Y-1.4
X9.6516Y-1.3425
X9.8484Y-1.3228
X9.85Y-1.3
X5.9125Y-3.0875
X5.9641Y-3.03
X6.1609Y-3.0103
X6.1625Y-2.9875
X11.85Y-3.1812
X11.9016Y-3.1238
X12.0984Y-3.1041
X12.1Y-3.0812
X5.9125Y-1.5875
X5.9641Y-1.53
X6.1609Y-1.5103
X6.1625Y-1.4875
X6.4001Y-4.8234
X6.6666Y-4.8618
X10.35Y-4.4937
X10.4016Y-4.4363
X10.5984Y-4.4166
X10.6Y-4.3937
X11.1Y-1.6812
X11.1516Y-1.6238
X11.3484Y-1.6041
X11.35Y-1.5813
X11.1Y-2.4312
X11.1516Y-2.3738
X11.3484Y-2.3541
X11.35Y-2.3312
X3.6625Y-2.9937
X3.7141Y-2.9363
X3.9109Y-2.9166
X3.9125Y-2.8937
X9.6Y-2.9
X9.6516Y-2.8425
X9.8484Y-2.8228
X9.85Y-2.8
X2.1625Y-3.9312
X2.2141Y-3.8738
X2.4109Y-3.8541
X2.4125Y-3.8312
X2.9125Y-3.1812
X2.9641Y-3.1238
X3.1609Y-3.1041
X3.1625Y-3.0812
X5.5782Y-4.5685
X5.6451Y-4.5298
X5.8384Y-4.5719
X5.8469Y-4.5507
X11.85Y-1.6812
X11.9016Y-1.6238
X12.0984Y-1.6041
X12.1Y-1.5813
X3.6625Y-1.4937
X3.7141Y-1.4363
X3.9109Y-1.4166
X3.9125Y-1.3938
X7.6299Y-4.9883
X7.7453Y-5.149
X11.1Y-3.9312
X11.1516Y-3.8738
X11.3484Y-3.8541
X11.35Y-3.8312
X11.85Y-3.9312
X11.9016Y-3.8738
X12.0984Y-3.8541
X12.1Y-3.8312
X10.35Y-2.2437
X10.4016Y-2.1863
X10.5984Y-2.1666
X10.6Y-2.1437
X4.4125Y-2.15
X4.4641Y-2.0925
X4.6609Y-2.0728
X4.6625Y-2.05
X12.6Y-2.6187
X12.6516Y-2.5613
X12.8484Y-2.5416
X12.85Y-2.5187
X1.4125Y-4.1187
X1.4641Y-4.0613
X1.6609Y-4.0416
X1.6625Y-4.0187
X2.9125Y-3.9312
X2.9641Y-3.8738
X3.1609Y-3.8541
X3.1625Y-3.8312
X5.9125Y-2.3375
X5.9641Y-2.28
X6.1609Y-2.2603
X6.1625Y-2.2375
X11.1Y-3.1812
X11.1516Y-3.1238
X11.3484Y-3.1041
X11.35Y-3.0812
X2.1625Y-4.6812
X2.2141Y-4.6238
X2.4109Y-4.6041
X2.4125Y-4.5812
X3.6625Y-4.4937
X3.7141Y-4.4363
X3.9109Y-4.4166
X3.9125Y-4.3937
X1.3625Y-3.7437
X1.3853Y-3.7453
X1.405Y-3.9422
X1.4625Y-3.9937
X1.3625Y-2.2437
X1.3853Y-2.2453
X1.405Y-2.4422
X1.4625Y-2.4937
X12.55Y-3.7437
X12.5728Y-3.7453
X12.5925Y-3.9422
X12.65Y-3.9937
X12.6Y-4.1187
X12.6516Y-4.0613
X12.8484Y-4.0416
X12.85Y-4.0187
X1.4125Y-3.3687
X1.4641Y-3.3113
X1.6609Y-3.2916
X1.6625Y-3.2687
X8.85Y-2.2437
X8.9016Y-2.1863
X9.0984Y-2.1666
X9.1Y-2.1437
X5.1625Y-2.2437
X5.2141Y-2.1863
X5.4109Y-2.1666
X5.4125Y-2.1437
X10.35Y-3.7437
X10.4016Y-3.6863
X10.5984Y-3.6666
X10.6Y-3.6437
X2.9125Y-4.6812
X2.9641Y-4.6238
X3.1609Y-4.6041
X3.1625Y-4.5812
T2
X7.6832Y-4.3438G85X7.6999Y-4.3605
G05
X7.7667Y-4.4273G85X7.7834Y-4.444
G05
X7.8781Y-4.5386G85X7.8948Y-4.5554
G05
X8.0368Y-4.4412G85X8.0535Y-4.4579
G05
X6.3064Y-4.4106G85X6.2896Y-4.4273
G05
X6.4038Y-4.5693G85X6.3871Y-4.586
G05
X6.4177Y-4.2992G85X6.401Y-4.3159
G05
X6.5012Y-4.2157G85X6.4845Y-4.2324
G05
X5.5174Y-1.0906G85X5.5174Y-1.1142
G05
X5.5174Y-1.2453G85X5.5174Y-1.2886
G05
X5.8576Y-1.0906G85X5.8576Y-1.1142
G05
X5.8576Y-1.2453G85X5.8576Y-1.2886
G05
X8.4549Y-1.0906G85X8.4549Y-1.1142
G05
X8.4549Y-1.2453G85X8.4549Y-1.2886
G05
X8.7951Y-1.0906G85X8.7951Y-1.1142
G05
X8.7951Y-1.2453G85X8.7951Y-1.2886
G05
T0
M30
