G04 #@! TF.GenerationSoftware,KiCad,Pcbnew,(5.0.0)*
G04 #@! TF.CreationDate,2018-10-08T21:37:04-07:00*
G04 #@! TF.ProjectId,Orbit,4F726269742E6B696361645F70636200,rev?*
G04 #@! TF.SameCoordinates,Original*
G04 #@! TF.FileFunction,Paste,Bot*
G04 #@! TF.FilePolarity,Positive*
%FSLAX46Y46*%
G04 Gerber Fmt 4.6, Leading zero omitted, Abs format (unit mm)*
G04 Created by KiCad (PCBNEW (5.0.0)) date 10/08/18 21:37:04*
%MOMM*%
%LPD*%
G01*
G04 APERTURE LIST*
%ADD10R,0.600000X1.450000*%
%ADD11R,0.300000X1.450000*%
%ADD12R,1.200000X0.900000*%
%ADD13R,0.700000X0.600000*%
%ADD14R,0.700000X1.000000*%
%ADD15R,2.030000X1.140000*%
%ADD16R,0.700000X1.300000*%
%ADD17R,1.300000X0.700000*%
%ADD18R,0.800000X0.900000*%
%ADD19R,0.772500X0.772500*%
%ADD20R,0.250000X0.700000*%
%ADD21R,0.700000X0.250000*%
%ADD22R,0.750000X0.800000*%
%ADD23R,0.800000X0.750000*%
%ADD24R,1.150000X1.000000*%
%ADD25C,1.100000*%
%ADD26C,0.100000*%
G04 APERTURE END LIST*
D10*
G04 #@! TO.C,USB1*
X147687500Y-33095000D03*
X141237500Y-33095000D03*
X146912500Y-33095000D03*
X142012500Y-33095000D03*
D11*
X142712500Y-33095000D03*
X146212500Y-33095000D03*
X143212500Y-33095000D03*
X145712500Y-33095000D03*
X143712500Y-33095000D03*
X145212500Y-33095000D03*
X144712500Y-33095000D03*
X144212500Y-33095000D03*
G04 #@! TD*
D10*
G04 #@! TO.C,USB2*
X222300000Y-33095000D03*
X215850000Y-33095000D03*
X221525000Y-33095000D03*
X216625000Y-33095000D03*
D11*
X217325000Y-33095000D03*
X220825000Y-33095000D03*
X217825000Y-33095000D03*
X220325000Y-33095000D03*
X218325000Y-33095000D03*
X219825000Y-33095000D03*
X219325000Y-33095000D03*
X218825000Y-33095000D03*
G04 #@! TD*
D12*
G04 #@! TO.C,D49*
X315531500Y-65943750D03*
X315531500Y-62643750D03*
G04 #@! TD*
D13*
G04 #@! TO.C,U4*
X218138500Y-39843750D03*
X220138500Y-39843750D03*
X218138500Y-37943750D03*
D14*
X220138500Y-38143750D03*
G04 #@! TD*
D12*
G04 #@! TO.C,D1*
X47625000Y-54831250D03*
X47625000Y-51531250D03*
G04 #@! TD*
G04 #@! TO.C,D2*
X65881250Y-46893750D03*
X65881250Y-43593750D03*
G04 #@! TD*
G04 #@! TO.C,D3*
X84931250Y-46893750D03*
X84931250Y-43593750D03*
G04 #@! TD*
G04 #@! TO.C,D4*
X103981250Y-42131250D03*
X103981250Y-38831250D03*
G04 #@! TD*
G04 #@! TO.C,D5*
X123031250Y-39750000D03*
X123031250Y-36450000D03*
G04 #@! TD*
G04 #@! TO.C,D6*
X127000000Y-38831250D03*
X127000000Y-42131250D03*
G04 #@! TD*
G04 #@! TO.C,D7*
X161131250Y-41212500D03*
X161131250Y-44512500D03*
G04 #@! TD*
G04 #@! TO.C,D8*
X47625000Y-64231250D03*
X47625000Y-67531250D03*
G04 #@! TD*
G04 #@! TO.C,D9*
X65881250Y-65943750D03*
X65881250Y-62643750D03*
G04 #@! TD*
G04 #@! TO.C,D10*
X84931250Y-65943750D03*
X84931250Y-62643750D03*
G04 #@! TD*
G04 #@! TO.C,D11*
X103981250Y-61181250D03*
X103981250Y-57881250D03*
G04 #@! TD*
G04 #@! TO.C,D12*
X123031250Y-58800000D03*
X123031250Y-55500000D03*
G04 #@! TD*
G04 #@! TO.C,D13*
X142081250Y-61181250D03*
X142081250Y-57881250D03*
G04 #@! TD*
G04 #@! TO.C,D14*
X161131250Y-60262500D03*
X161131250Y-63562500D03*
G04 #@! TD*
G04 #@! TO.C,D15*
X47625000Y-78518750D03*
X47625000Y-81818750D03*
G04 #@! TD*
G04 #@! TO.C,D16*
X65881250Y-84993750D03*
X65881250Y-81693750D03*
G04 #@! TD*
G04 #@! TO.C,D17*
X84931250Y-84993750D03*
X84931250Y-81693750D03*
G04 #@! TD*
G04 #@! TO.C,D18*
X103981250Y-76931250D03*
X103981250Y-80231250D03*
G04 #@! TD*
G04 #@! TO.C,D19*
X123031250Y-74550000D03*
X123031250Y-77850000D03*
G04 #@! TD*
G04 #@! TO.C,D20*
X142081250Y-76931250D03*
X142081250Y-80231250D03*
G04 #@! TD*
G04 #@! TO.C,D21*
X161131250Y-82612500D03*
X161131250Y-79312500D03*
G04 #@! TD*
G04 #@! TO.C,D22*
X47625000Y-105631250D03*
X47625000Y-102331250D03*
G04 #@! TD*
G04 #@! TO.C,D23*
X65881250Y-100743750D03*
X65881250Y-104043750D03*
G04 #@! TD*
G04 #@! TO.C,D24*
X84931250Y-104043750D03*
X84931250Y-100743750D03*
G04 #@! TD*
G04 #@! TO.C,D25*
X103981250Y-95981250D03*
X103981250Y-99281250D03*
G04 #@! TD*
G04 #@! TO.C,D26*
X107950000Y-93600000D03*
X107950000Y-96900000D03*
G04 #@! TD*
G04 #@! TO.C,D27*
X142081250Y-95981250D03*
X142081250Y-99281250D03*
G04 #@! TD*
G04 #@! TO.C,D28*
X161131250Y-101662500D03*
X161131250Y-98362500D03*
G04 #@! TD*
G04 #@! TO.C,D29*
X51593750Y-119793750D03*
X51593750Y-123093750D03*
G04 #@! TD*
G04 #@! TO.C,D30*
X84931250Y-119793750D03*
X84931250Y-123093750D03*
G04 #@! TD*
G04 #@! TO.C,D31*
X103981250Y-115031250D03*
X103981250Y-118331250D03*
G04 #@! TD*
G04 #@! TO.C,D32*
X107950000Y-112650000D03*
X107950000Y-115950000D03*
G04 #@! TD*
G04 #@! TO.C,D33*
X151606250Y-123093750D03*
X151606250Y-119793750D03*
G04 #@! TD*
G04 #@! TO.C,D34*
X157988000Y-122429000D03*
X157988000Y-125729000D03*
G04 #@! TD*
D15*
G04 #@! TO.C,F1*
X141287500Y-48012500D03*
X141287500Y-50412500D03*
G04 #@! TD*
D16*
G04 #@! TO.C,R1*
X135575000Y-120015000D03*
X137475000Y-120015000D03*
G04 #@! TD*
D17*
G04 #@! TO.C,R2*
X51308000Y-53025000D03*
X51308000Y-54925000D03*
G04 #@! TD*
G04 #@! TO.C,R3*
X65881250Y-49850000D03*
X65881250Y-51750000D03*
G04 #@! TD*
G04 #@! TO.C,R4*
X84931250Y-51750000D03*
X84931250Y-49850000D03*
G04 #@! TD*
G04 #@! TO.C,R5*
X103981250Y-45087500D03*
X103981250Y-46987500D03*
G04 #@! TD*
G04 #@! TO.C,R6*
X123031250Y-44606250D03*
X123031250Y-42706250D03*
G04 #@! TD*
G04 #@! TO.C,R7*
X127000000Y-45087500D03*
X127000000Y-46987500D03*
G04 #@! TD*
G04 #@! TO.C,R8*
X161131250Y-49368750D03*
X161131250Y-47468750D03*
G04 #@! TD*
G04 #@! TO.C,R9*
X151638000Y-110932000D03*
X151638000Y-109032000D03*
G04 #@! TD*
G04 #@! TO.C,R10*
X154940000Y-110932000D03*
X154940000Y-109032000D03*
G04 #@! TD*
G04 #@! TO.C,R11*
X50800000Y-75250000D03*
X50800000Y-77150000D03*
G04 #@! TD*
G04 #@! TO.C,R12*
X65881250Y-70800000D03*
X65881250Y-68900000D03*
G04 #@! TD*
G04 #@! TO.C,R13*
X84931250Y-68900000D03*
X84931250Y-70800000D03*
G04 #@! TD*
G04 #@! TO.C,R14*
X103187500Y-66037500D03*
X103187500Y-64137500D03*
G04 #@! TD*
G04 #@! TO.C,R15*
X123031250Y-63656250D03*
X123031250Y-61756250D03*
G04 #@! TD*
G04 #@! TO.C,R16*
X142081250Y-66037500D03*
X142081250Y-64137500D03*
G04 #@! TD*
G04 #@! TO.C,R17*
X161131250Y-66518750D03*
X161131250Y-68418750D03*
G04 #@! TD*
G04 #@! TO.C,R18*
X47625000Y-91437500D03*
X47625000Y-89537500D03*
G04 #@! TD*
G04 #@! TO.C,R19*
X65881250Y-87950000D03*
X65881250Y-89850000D03*
G04 #@! TD*
G04 #@! TO.C,R20*
X84931250Y-89850000D03*
X84931250Y-87950000D03*
G04 #@! TD*
G04 #@! TO.C,R21*
X103981250Y-83187500D03*
X103981250Y-85087500D03*
G04 #@! TD*
G04 #@! TO.C,R22*
X123031250Y-80806250D03*
X123031250Y-82706250D03*
G04 #@! TD*
G04 #@! TO.C,R23*
X142081250Y-85087500D03*
X142081250Y-83187500D03*
G04 #@! TD*
G04 #@! TO.C,R24*
X161131250Y-85568750D03*
X161131250Y-87468750D03*
G04 #@! TD*
D16*
G04 #@! TO.C,R25*
X125537000Y-102870000D03*
X123637000Y-102870000D03*
G04 #@! TD*
D17*
G04 #@! TO.C,R26*
X47625000Y-115250000D03*
X47625000Y-113350000D03*
G04 #@! TD*
G04 #@! TO.C,R27*
X65881250Y-107000000D03*
X65881250Y-108900000D03*
G04 #@! TD*
G04 #@! TO.C,R28*
X84931250Y-108900000D03*
X84931250Y-107000000D03*
G04 #@! TD*
G04 #@! TO.C,R29*
X103981250Y-102237500D03*
X103981250Y-104137500D03*
G04 #@! TD*
G04 #@! TO.C,R30*
X107950000Y-101756250D03*
X107950000Y-99856250D03*
G04 #@! TD*
G04 #@! TO.C,R31*
X142081250Y-104137500D03*
X142081250Y-102237500D03*
G04 #@! TD*
G04 #@! TO.C,R32*
X161131250Y-106518750D03*
X161131250Y-104618750D03*
G04 #@! TD*
G04 #@! TO.C,R34*
X52387500Y-127950000D03*
X52387500Y-126050000D03*
G04 #@! TD*
G04 #@! TO.C,R35*
X84931250Y-126050000D03*
X84931250Y-127950000D03*
G04 #@! TD*
G04 #@! TO.C,R36*
X103981250Y-123187500D03*
X103981250Y-121287500D03*
G04 #@! TD*
G04 #@! TO.C,R37*
X107950000Y-118906250D03*
X107950000Y-120806250D03*
G04 #@! TD*
G04 #@! TO.C,R38*
X151606250Y-126050000D03*
X151606250Y-127950000D03*
G04 #@! TD*
G04 #@! TO.C,R39*
X156083000Y-128431250D03*
X156083000Y-130331250D03*
G04 #@! TD*
G04 #@! TO.C,R40*
X151606250Y-130622000D03*
X151606250Y-132522000D03*
G04 #@! TD*
G04 #@! TO.C,R41*
X146050000Y-44606250D03*
X146050000Y-42706250D03*
G04 #@! TD*
G04 #@! TO.C,R42*
X142875000Y-42706250D03*
X142875000Y-44606250D03*
G04 #@! TD*
D16*
G04 #@! TO.C,R43*
X153350000Y-34925000D03*
X151450000Y-34925000D03*
G04 #@! TD*
D17*
G04 #@! TO.C,R44*
X127000000Y-33181250D03*
X127000000Y-35081250D03*
G04 #@! TD*
D13*
G04 #@! TO.C,U2*
X143399000Y-39843750D03*
X145399000Y-39843750D03*
X143399000Y-37943750D03*
D14*
X145399000Y-38143750D03*
G04 #@! TD*
D18*
G04 #@! TO.C,Q1*
X148587500Y-130381250D03*
X146687500Y-130381250D03*
X147637500Y-128381250D03*
G04 #@! TD*
D19*
G04 #@! TO.C,U1*
X129693250Y-110463750D03*
X129693250Y-111751250D03*
X129693250Y-113038750D03*
X129693250Y-114326250D03*
X128405750Y-110463750D03*
X128405750Y-111751250D03*
X128405750Y-113038750D03*
X128405750Y-114326250D03*
X127118250Y-110463750D03*
X127118250Y-111751250D03*
X127118250Y-113038750D03*
X127118250Y-114326250D03*
X125830750Y-110463750D03*
X125830750Y-111751250D03*
X125830750Y-113038750D03*
X125830750Y-114326250D03*
D20*
X130262000Y-108995000D03*
X129762000Y-108995000D03*
X129262000Y-108995000D03*
X128762000Y-108995000D03*
X128262000Y-108995000D03*
X127762000Y-108995000D03*
X127262000Y-108995000D03*
X126762000Y-108995000D03*
X126262000Y-108995000D03*
X125762000Y-108995000D03*
X125262000Y-108995000D03*
D21*
X124362000Y-109895000D03*
X124362000Y-110395000D03*
X124362000Y-110895000D03*
X124362000Y-111395000D03*
X124362000Y-111895000D03*
X124362000Y-112395000D03*
X124362000Y-112895000D03*
X124362000Y-113395000D03*
X124362000Y-113895000D03*
X124362000Y-114395000D03*
X124362000Y-114895000D03*
D20*
X125262000Y-115795000D03*
X125762000Y-115795000D03*
X126262000Y-115795000D03*
X126762000Y-115795000D03*
X127262000Y-115795000D03*
X127762000Y-115795000D03*
X128262000Y-115795000D03*
X128762000Y-115795000D03*
X129262000Y-115795000D03*
X129762000Y-115795000D03*
X130262000Y-115795000D03*
D21*
X131162000Y-114895000D03*
X131162000Y-114395000D03*
X131162000Y-113895000D03*
X131162000Y-113395000D03*
X131162000Y-112895000D03*
X131162000Y-112395000D03*
X131162000Y-111895000D03*
X131162000Y-111395000D03*
X131162000Y-110895000D03*
X131162000Y-110395000D03*
X131162000Y-109895000D03*
G04 #@! TD*
D22*
G04 #@! TO.C,C2*
X131445000Y-121273000D03*
X131445000Y-119773000D03*
G04 #@! TD*
D23*
G04 #@! TO.C,C3*
X138418000Y-109474000D03*
X136918000Y-109474000D03*
G04 #@! TD*
D22*
G04 #@! TO.C,C4*
X133604000Y-116217000D03*
X133604000Y-117717000D03*
G04 #@! TD*
G04 #@! TO.C,C5*
X120904000Y-118225000D03*
X120904000Y-116725000D03*
G04 #@! TD*
D23*
G04 #@! TO.C,C6*
X123837000Y-106172000D03*
X125337000Y-106172000D03*
G04 #@! TD*
G04 #@! TO.C,C7*
X131203000Y-106680000D03*
X132703000Y-106680000D03*
G04 #@! TD*
D16*
G04 #@! TO.C,R33*
X39685000Y-116681250D03*
X37785000Y-116681250D03*
G04 #@! TD*
D22*
G04 #@! TO.C,C8*
X237172500Y-107200000D03*
X237172500Y-108700000D03*
G04 #@! TD*
G04 #@! TO.C,C9*
X230314500Y-107200000D03*
X230314500Y-108700000D03*
G04 #@! TD*
D23*
G04 #@! TO.C,C10*
X225564000Y-114808000D03*
X227064000Y-114808000D03*
G04 #@! TD*
G04 #@! TO.C,C11*
X238240000Y-122301000D03*
X236740000Y-122301000D03*
G04 #@! TD*
D22*
G04 #@! TO.C,C12*
X227838000Y-109803500D03*
X227838000Y-111303500D03*
G04 #@! TD*
G04 #@! TO.C,C13*
X240125250Y-112891000D03*
X240125250Y-111391000D03*
G04 #@! TD*
D23*
G04 #@! TO.C,C14*
X229286500Y-120650000D03*
X227786500Y-120650000D03*
G04 #@! TD*
D12*
G04 #@! TO.C,D36*
X202406250Y-41212500D03*
X202406250Y-44512500D03*
G04 #@! TD*
G04 #@! TO.C,D37*
X235743750Y-42131250D03*
X235743750Y-38831250D03*
G04 #@! TD*
G04 #@! TO.C,D38*
X254793750Y-36450000D03*
X254793750Y-39750000D03*
G04 #@! TD*
G04 #@! TO.C,D39*
X273843750Y-42131250D03*
X273843750Y-38831250D03*
G04 #@! TD*
G04 #@! TO.C,D40*
X292893750Y-46893750D03*
X292893750Y-43593750D03*
G04 #@! TD*
G04 #@! TO.C,D41*
X311943750Y-41212500D03*
X311943750Y-44512500D03*
G04 #@! TD*
G04 #@! TO.C,D42*
X315531500Y-54831250D03*
X315531500Y-51531250D03*
G04 #@! TD*
G04 #@! TO.C,D43*
X216693750Y-60262500D03*
X216693750Y-63562500D03*
G04 #@! TD*
G04 #@! TO.C,D44*
X235743750Y-61181250D03*
X235743750Y-57881250D03*
G04 #@! TD*
G04 #@! TO.C,D45*
X254793750Y-55500000D03*
X254793750Y-58800000D03*
G04 #@! TD*
G04 #@! TO.C,D46*
X273843750Y-61181250D03*
X273843750Y-57881250D03*
G04 #@! TD*
G04 #@! TO.C,D47*
X292893750Y-65943750D03*
X292893750Y-62643750D03*
G04 #@! TD*
G04 #@! TO.C,D48*
X311943750Y-62643750D03*
X311943750Y-65943750D03*
G04 #@! TD*
G04 #@! TO.C,D50*
X216693750Y-79312500D03*
X216693750Y-82612500D03*
G04 #@! TD*
G04 #@! TO.C,D51*
X235743750Y-80231250D03*
X235743750Y-76931250D03*
G04 #@! TD*
G04 #@! TO.C,D52*
X254793750Y-74550000D03*
X254793750Y-77850000D03*
G04 #@! TD*
G04 #@! TO.C,D53*
X273843750Y-80231250D03*
X273843750Y-76931250D03*
G04 #@! TD*
G04 #@! TO.C,D54*
X292893750Y-81693750D03*
X292893750Y-84993750D03*
G04 #@! TD*
G04 #@! TO.C,D55*
X311943750Y-78518750D03*
X311943750Y-81818750D03*
G04 #@! TD*
G04 #@! TO.C,D56*
X315531500Y-78487000D03*
X315531500Y-81787000D03*
G04 #@! TD*
G04 #@! TO.C,D57*
X216693750Y-101662500D03*
X216693750Y-98362500D03*
G04 #@! TD*
G04 #@! TO.C,D58*
X235870750Y-99281250D03*
X235870750Y-95981250D03*
G04 #@! TD*
G04 #@! TO.C,D59*
X254793750Y-96900000D03*
X254793750Y-93600000D03*
G04 #@! TD*
G04 #@! TO.C,D60*
X273843750Y-95981250D03*
X273843750Y-99281250D03*
G04 #@! TD*
G04 #@! TO.C,D61*
X292893750Y-100743750D03*
X292893750Y-104043750D03*
G04 #@! TD*
G04 #@! TO.C,D62*
X311943750Y-104043750D03*
X311943750Y-100743750D03*
G04 #@! TD*
G04 #@! TO.C,D63*
X314325000Y-94393750D03*
X314325000Y-97693750D03*
G04 #@! TD*
G04 #@! TO.C,D64*
X205549500Y-125729000D03*
X205549500Y-122429000D03*
G04 #@! TD*
G04 #@! TO.C,D65*
X211899500Y-122429000D03*
X211899500Y-125729000D03*
G04 #@! TD*
G04 #@! TO.C,D66*
X254793750Y-112650000D03*
X254793750Y-115950000D03*
G04 #@! TD*
G04 #@! TO.C,D67*
X273843750Y-118331250D03*
X273843750Y-115031250D03*
G04 #@! TD*
G04 #@! TO.C,D68*
X278606250Y-119793750D03*
X278606250Y-123093750D03*
G04 #@! TD*
G04 #@! TO.C,D69*
X311943750Y-123093750D03*
X311943750Y-119793750D03*
G04 #@! TD*
D15*
G04 #@! TO.C,F2*
X215900000Y-48012500D03*
X215900000Y-50412500D03*
G04 #@! TD*
D18*
G04 #@! TO.C,Q2*
X207962500Y-109109000D03*
X207012500Y-111109000D03*
X208912500Y-111109000D03*
G04 #@! TD*
D17*
G04 #@! TO.C,R45*
X224250250Y-109603500D03*
X224250250Y-111503500D03*
G04 #@! TD*
G04 #@! TO.C,R46*
X202406250Y-49368750D03*
X202406250Y-47468750D03*
G04 #@! TD*
G04 #@! TO.C,R47*
X235743750Y-46987500D03*
X235743750Y-45087500D03*
G04 #@! TD*
G04 #@! TO.C,R48*
X254793750Y-42706250D03*
X254793750Y-44606250D03*
G04 #@! TD*
G04 #@! TO.C,R49*
X273843750Y-46987500D03*
X273843750Y-45087500D03*
G04 #@! TD*
G04 #@! TO.C,R50*
X292893750Y-49850000D03*
X292893750Y-51750000D03*
G04 #@! TD*
G04 #@! TO.C,R51*
X310324500Y-51374000D03*
X310324500Y-53274000D03*
G04 #@! TD*
G04 #@! TO.C,R52*
X311943750Y-57787500D03*
X311943750Y-59687500D03*
G04 #@! TD*
G04 #@! TO.C,R53*
X216693750Y-68418750D03*
X216693750Y-66518750D03*
G04 #@! TD*
G04 #@! TO.C,R54*
X235743750Y-64137500D03*
X235743750Y-66037500D03*
G04 #@! TD*
G04 #@! TO.C,R55*
X254793750Y-63656250D03*
X254793750Y-61756250D03*
G04 #@! TD*
G04 #@! TO.C,R56*
X273843750Y-64137500D03*
X273843750Y-66037500D03*
G04 #@! TD*
G04 #@! TO.C,R57*
X292893750Y-70800000D03*
X292893750Y-68900000D03*
G04 #@! TD*
G04 #@! TO.C,R58*
X304006250Y-74768750D03*
X304006250Y-72868750D03*
G04 #@! TD*
G04 #@! TO.C,R59*
X310073000Y-72868750D03*
X310073000Y-74768750D03*
G04 #@! TD*
G04 #@! TO.C,R60*
X216693750Y-85568750D03*
X216693750Y-87468750D03*
G04 #@! TD*
G04 #@! TO.C,R61*
X235743750Y-85087500D03*
X235743750Y-83187500D03*
G04 #@! TD*
G04 #@! TO.C,R62*
X254793750Y-80806250D03*
X254793750Y-82706250D03*
G04 #@! TD*
G04 #@! TO.C,R63*
X273843750Y-85087500D03*
X273843750Y-83187500D03*
G04 #@! TD*
G04 #@! TO.C,R64*
X292893750Y-87950000D03*
X292893750Y-89850000D03*
G04 #@! TD*
G04 #@! TO.C,R65*
X311943750Y-91437500D03*
X311943750Y-89537500D03*
G04 #@! TD*
G04 #@! TO.C,R66*
X315118750Y-89537500D03*
X315118750Y-91437500D03*
G04 #@! TD*
G04 #@! TO.C,R67*
X240919000Y-122235000D03*
X240919000Y-120335000D03*
G04 #@! TD*
G04 #@! TO.C,R68*
X216693750Y-104618750D03*
X216693750Y-106518750D03*
G04 #@! TD*
G04 #@! TO.C,R69*
X235870750Y-104137500D03*
X235870750Y-102237500D03*
G04 #@! TD*
G04 #@! TO.C,R70*
X254793750Y-99856250D03*
X254793750Y-101756250D03*
G04 #@! TD*
G04 #@! TO.C,R71*
X273843750Y-104137500D03*
X273843750Y-102237500D03*
G04 #@! TD*
G04 #@! TO.C,R72*
X292893750Y-107000000D03*
X292893750Y-108900000D03*
G04 #@! TD*
G04 #@! TO.C,R73*
X315118750Y-105725000D03*
X315118750Y-103825000D03*
G04 #@! TD*
G04 #@! TO.C,R74*
X315912500Y-113350000D03*
X315912500Y-115250000D03*
G04 #@! TD*
G04 #@! TO.C,R75*
X207168750Y-130331250D03*
X207168750Y-128431250D03*
G04 #@! TD*
G04 #@! TO.C,R76*
X211931250Y-130331250D03*
X211931250Y-128431250D03*
G04 #@! TD*
G04 #@! TO.C,R77*
X254793750Y-120806250D03*
X254793750Y-118906250D03*
G04 #@! TD*
G04 #@! TO.C,R78*
X273843750Y-121287500D03*
X273843750Y-123187500D03*
G04 #@! TD*
G04 #@! TO.C,R79*
X278606250Y-127950000D03*
X278606250Y-126050000D03*
G04 #@! TD*
G04 #@! TO.C,R80*
X311943750Y-126050000D03*
X311943750Y-127950000D03*
G04 #@! TD*
G04 #@! TO.C,R81*
X212026500Y-111059000D03*
X212026500Y-109159000D03*
G04 #@! TD*
D16*
G04 #@! TO.C,R82*
X323916000Y-116713000D03*
X325816000Y-116713000D03*
G04 #@! TD*
D17*
G04 #@! TO.C,R83*
X220662500Y-44606250D03*
X220662500Y-42706250D03*
G04 #@! TD*
G04 #@! TO.C,R84*
X217487500Y-42706250D03*
X217487500Y-44606250D03*
G04 #@! TD*
G04 #@! TO.C,R85*
X235743750Y-33975000D03*
X235743750Y-35875000D03*
G04 #@! TD*
D16*
G04 #@! TO.C,R86*
X207012500Y-34925000D03*
X208912500Y-34925000D03*
G04 #@! TD*
D21*
G04 #@! TO.C,U3*
X230557000Y-118459750D03*
X230557000Y-117959750D03*
X230557000Y-117459750D03*
X230557000Y-116959750D03*
X230557000Y-116459750D03*
X230557000Y-115959750D03*
X230557000Y-115459750D03*
X230557000Y-114959750D03*
X230557000Y-114459750D03*
X230557000Y-113959750D03*
X230557000Y-113459750D03*
D20*
X231457000Y-112559750D03*
X231957000Y-112559750D03*
X232457000Y-112559750D03*
X232957000Y-112559750D03*
X233457000Y-112559750D03*
X233957000Y-112559750D03*
X234457000Y-112559750D03*
X234957000Y-112559750D03*
X235457000Y-112559750D03*
X235957000Y-112559750D03*
X236457000Y-112559750D03*
D21*
X237357000Y-113459750D03*
X237357000Y-113959750D03*
X237357000Y-114459750D03*
X237357000Y-114959750D03*
X237357000Y-115459750D03*
X237357000Y-115959750D03*
X237357000Y-116459750D03*
X237357000Y-116959750D03*
X237357000Y-117459750D03*
X237357000Y-117959750D03*
X237357000Y-118459750D03*
D20*
X236457000Y-119359750D03*
X235957000Y-119359750D03*
X235457000Y-119359750D03*
X234957000Y-119359750D03*
X234457000Y-119359750D03*
X233957000Y-119359750D03*
X233457000Y-119359750D03*
X232957000Y-119359750D03*
X232457000Y-119359750D03*
X231957000Y-119359750D03*
X231457000Y-119359750D03*
D19*
X235888250Y-114028500D03*
X235888250Y-115316000D03*
X235888250Y-116603500D03*
X235888250Y-117891000D03*
X234600750Y-114028500D03*
X234600750Y-115316000D03*
X234600750Y-116603500D03*
X234600750Y-117891000D03*
X233313250Y-114028500D03*
X233313250Y-115316000D03*
X233313250Y-116603500D03*
X233313250Y-117891000D03*
X232025750Y-114028500D03*
X232025750Y-115316000D03*
X232025750Y-116603500D03*
X232025750Y-117891000D03*
G04 #@! TD*
D24*
G04 #@! TO.C,Y1*
X127141000Y-121223000D03*
X128891000Y-121223000D03*
X128891000Y-119823000D03*
X127141000Y-119823000D03*
G04 #@! TD*
G04 #@! TO.C,Y2*
X234586750Y-107250000D03*
X232836750Y-107250000D03*
X232836750Y-108650000D03*
X234586750Y-108650000D03*
G04 #@! TD*
D22*
G04 #@! TO.C,C1*
X124587000Y-119773000D03*
X124587000Y-121273000D03*
G04 #@! TD*
D17*
G04 #@! TO.C,R87*
X120904000Y-120462000D03*
X120904000Y-122362000D03*
G04 #@! TD*
D16*
G04 #@! TO.C,R88*
X243266000Y-106426000D03*
X241366000Y-106426000D03*
G04 #@! TD*
G04 #@! TO.C,R89*
X42738000Y-116681250D03*
X44638000Y-116681250D03*
G04 #@! TD*
G04 #@! TO.C,R90*
X34732000Y-116681250D03*
X32832000Y-116681250D03*
G04 #@! TD*
G04 #@! TO.C,R91*
X318931250Y-116713000D03*
X320831250Y-116713000D03*
G04 #@! TD*
G04 #@! TO.C,R92*
X330769000Y-116713000D03*
X328869000Y-116713000D03*
G04 #@! TD*
D25*
G04 #@! TO.C,SW1*
X175241679Y-122786147D03*
D26*
G36*
X176296102Y-122759833D02*
X175746102Y-123712461D01*
X174187256Y-122812461D01*
X174737256Y-121859833D01*
X176296102Y-122759833D01*
X176296102Y-122759833D01*
G37*
D25*
X171722321Y-116481853D03*
D26*
G36*
X172776744Y-116455539D02*
X172226744Y-117408167D01*
X170667898Y-116508167D01*
X171217898Y-115555539D01*
X172776744Y-116455539D01*
X172776744Y-116455539D01*
G37*
D25*
X177091679Y-119581853D03*
D26*
G36*
X178146102Y-119555539D02*
X177596102Y-120508167D01*
X176037256Y-119608167D01*
X176587256Y-118655539D01*
X178146102Y-119555539D01*
X178146102Y-119555539D01*
G37*
D25*
X169872321Y-119686147D03*
D26*
G36*
X170926744Y-119659833D02*
X170376744Y-120612461D01*
X168817898Y-119712461D01*
X169367898Y-118759833D01*
X170926744Y-119659833D01*
X170926744Y-119659833D01*
G37*
G04 #@! TD*
D25*
G04 #@! TO.C,SW2*
X192259679Y-116608853D03*
D26*
G36*
X191755256Y-117535167D02*
X191205256Y-116582539D01*
X192764102Y-115682539D01*
X193314102Y-116635167D01*
X191755256Y-117535167D01*
X191755256Y-117535167D01*
G37*
D25*
X188740321Y-122913147D03*
D26*
G36*
X188235898Y-123839461D02*
X187685898Y-122886833D01*
X189244744Y-121986833D01*
X189794744Y-122939461D01*
X188235898Y-123839461D01*
X188235898Y-123839461D01*
G37*
D25*
X194109679Y-119813147D03*
D26*
G36*
X193605256Y-120739461D02*
X193055256Y-119786833D01*
X194614102Y-118886833D01*
X195164102Y-119839461D01*
X193605256Y-120739461D01*
X193605256Y-120739461D01*
G37*
D25*
X186890321Y-119708853D03*
D26*
G36*
X186385898Y-120635167D02*
X185835898Y-119682539D01*
X187394744Y-118782539D01*
X187944744Y-119735167D01*
X186385898Y-120635167D01*
X186385898Y-120635167D01*
G37*
G04 #@! TD*
M02*
