G04 #@! TF.GenerationSoftware,KiCad,Pcbnew,(5.0.0)*
G04 #@! TF.CreationDate,2018-09-10T21:13:58+09:00*
G04 #@! TF.ProjectId,Orbit,4F726269742E6B696361645F70636200,rev?*
G04 #@! TF.SameCoordinates,Original*
G04 #@! TF.FileFunction,Soldermask,Bot*
G04 #@! TF.FilePolarity,Negative*
%FSLAX46Y46*%
G04 Gerber Fmt 4.6, Leading zero omitted, Abs format (unit mm)*
G04 Created by KiCad (PCBNEW (5.0.0)) date 09/10/18 21:13:58*
%MOMM*%
%LPD*%
G01*
G04 APERTURE LIST*
%ADD10C,2.200000*%
%ADD11R,2.200000X2.200000*%
%ADD12R,1.600000X1.300000*%
%ADD13C,2.150000*%
%ADD14R,2.305000X2.305000*%
%ADD15C,2.305000*%
%ADD16C,2.650000*%
%ADD17C,4.387800*%
%ADD18C,2.650000*%
%ADD19R,1.100000X1.000000*%
%ADD20R,1.100000X1.400000*%
%ADD21C,1.600000*%
%ADD22C,1.600000*%
%ADD23C,1.900000*%
%ADD24R,2.430000X1.540000*%
%ADD25C,0.100000*%
%ADD26R,1.100000X1.700000*%
%ADD27R,1.700000X1.100000*%
%ADD28O,1.400000X2.000000*%
%ADD29O,1.400000X2.500000*%
%ADD30C,1.050000*%
%ADD31R,0.700000X1.850000*%
%ADD32R,1.000000X1.850000*%
%ADD33C,2.100000*%
%ADD34R,1.200000X1.300000*%
%ADD35R,1.687500X1.687500*%
%ADD36R,0.650000X1.100000*%
%ADD37R,1.100000X0.650000*%
%ADD38R,1.150000X1.200000*%
%ADD39R,1.200000X1.150000*%
%ADD40C,1.187400*%
%ADD41R,1.550000X1.400000*%
%ADD42C,5.400000*%
%ADD43C,3.448000*%
%ADD44C,1.500000*%
G04 APERTURE END LIST*
D10*
G04 #@! TO.C,D35*
X38712500Y-119886250D03*
D11*
X38712500Y-122426250D03*
G04 #@! TD*
D10*
G04 #@! TO.C,D70*
X324825000Y-119886250D03*
D11*
X324825000Y-122426250D03*
G04 #@! TD*
D10*
G04 #@! TO.C,D71*
X43712500Y-119886250D03*
D11*
X43712500Y-122426250D03*
G04 #@! TD*
D10*
G04 #@! TO.C,D72*
X33712500Y-119886250D03*
D11*
X33712500Y-122426250D03*
G04 #@! TD*
D10*
G04 #@! TO.C,D73*
X319825000Y-119886250D03*
D11*
X319825000Y-122426250D03*
G04 #@! TD*
D10*
G04 #@! TO.C,D74*
X329825000Y-119886250D03*
D11*
X329825000Y-122426250D03*
G04 #@! TD*
D12*
G04 #@! TO.C,D49*
X315531500Y-65943750D03*
X315531500Y-62643750D03*
G04 #@! TD*
D13*
G04 #@! TO.C,MX7*
X159067500Y-42862500D03*
X148907500Y-42862500D03*
D14*
X155257500Y-47942500D03*
D15*
X152717500Y-47942500D03*
D16*
X151487500Y-38862500D03*
D17*
X153987500Y-42862500D03*
D16*
X150832501Y-39592500D03*
D18*
X150177500Y-40322500D02*
X151487502Y-38862500D01*
D16*
X156527500Y-37782500D03*
X156507500Y-38072500D03*
D18*
X156487500Y-38362500D02*
X156527500Y-37782500D01*
G04 #@! TD*
D19*
G04 #@! TO.C,U4*
X218138500Y-39843750D03*
X220138500Y-39843750D03*
X218138500Y-37943750D03*
D20*
X220138500Y-38143750D03*
G04 #@! TD*
D16*
G04 #@! TO.C,MX36*
X231120000Y-35691250D03*
D18*
X231100000Y-35981250D02*
X231140000Y-35401250D01*
D16*
X231140000Y-35401250D03*
X225445001Y-37211250D03*
D18*
X224790000Y-37941250D02*
X226100002Y-36481250D01*
D17*
X228600000Y-40481250D03*
D16*
X226100000Y-36481250D03*
D15*
X227330000Y-45561250D03*
D14*
X229870000Y-45561250D03*
D13*
X223520000Y-40481250D03*
X233680000Y-40481250D03*
G04 #@! TD*
D21*
G04 #@! TO.C,J1*
X164918913Y-107291396D03*
D22*
X165131045Y-107079264D02*
X164706781Y-107503528D01*
D21*
X162797593Y-109412717D03*
D22*
X163009725Y-109200585D02*
X162585461Y-109624849D01*
D21*
X159969165Y-112241144D03*
D22*
X160181297Y-112029012D02*
X159757033Y-112453276D01*
D21*
X162444039Y-116271652D03*
D22*
X162656171Y-116059520D02*
X162231907Y-116483784D01*
D23*
X167676629Y-107786371D03*
X162726882Y-112736118D03*
G04 #@! TD*
D12*
G04 #@! TO.C,D1*
X47625000Y-54831250D03*
X47625000Y-51531250D03*
G04 #@! TD*
G04 #@! TO.C,D2*
X65881250Y-46893750D03*
X65881250Y-43593750D03*
G04 #@! TD*
G04 #@! TO.C,D3*
X84931250Y-46893750D03*
X84931250Y-43593750D03*
G04 #@! TD*
G04 #@! TO.C,D4*
X103981250Y-42131250D03*
X103981250Y-38831250D03*
G04 #@! TD*
G04 #@! TO.C,D5*
X123031250Y-39750000D03*
X123031250Y-36450000D03*
G04 #@! TD*
G04 #@! TO.C,D6*
X127000000Y-38831250D03*
X127000000Y-42131250D03*
G04 #@! TD*
G04 #@! TO.C,D7*
X161131250Y-41212500D03*
X161131250Y-44512500D03*
G04 #@! TD*
G04 #@! TO.C,D8*
X47625000Y-64231250D03*
X47625000Y-67531250D03*
G04 #@! TD*
G04 #@! TO.C,D9*
X65881250Y-65943750D03*
X65881250Y-62643750D03*
G04 #@! TD*
G04 #@! TO.C,D10*
X84931250Y-65943750D03*
X84931250Y-62643750D03*
G04 #@! TD*
G04 #@! TO.C,D11*
X103981250Y-61181250D03*
X103981250Y-57881250D03*
G04 #@! TD*
G04 #@! TO.C,D12*
X123031250Y-58800000D03*
X123031250Y-55500000D03*
G04 #@! TD*
G04 #@! TO.C,D13*
X142081250Y-61181250D03*
X142081250Y-57881250D03*
G04 #@! TD*
G04 #@! TO.C,D14*
X161131250Y-60262500D03*
X161131250Y-63562500D03*
G04 #@! TD*
G04 #@! TO.C,D15*
X47625000Y-78518750D03*
X47625000Y-81818750D03*
G04 #@! TD*
G04 #@! TO.C,D16*
X65881250Y-84993750D03*
X65881250Y-81693750D03*
G04 #@! TD*
G04 #@! TO.C,D17*
X84931250Y-84993750D03*
X84931250Y-81693750D03*
G04 #@! TD*
G04 #@! TO.C,D18*
X103981250Y-76931250D03*
X103981250Y-80231250D03*
G04 #@! TD*
G04 #@! TO.C,D19*
X123031250Y-74550000D03*
X123031250Y-77850000D03*
G04 #@! TD*
G04 #@! TO.C,D20*
X142081250Y-76931250D03*
X142081250Y-80231250D03*
G04 #@! TD*
G04 #@! TO.C,D21*
X161131250Y-82612500D03*
X161131250Y-79312500D03*
G04 #@! TD*
G04 #@! TO.C,D22*
X47625000Y-105631250D03*
X47625000Y-102331250D03*
G04 #@! TD*
G04 #@! TO.C,D23*
X65881250Y-100743750D03*
X65881250Y-104043750D03*
G04 #@! TD*
G04 #@! TO.C,D24*
X84931250Y-104043750D03*
X84931250Y-100743750D03*
G04 #@! TD*
G04 #@! TO.C,D25*
X103981250Y-95981250D03*
X103981250Y-99281250D03*
G04 #@! TD*
G04 #@! TO.C,D26*
X107950000Y-93600000D03*
X107950000Y-96900000D03*
G04 #@! TD*
G04 #@! TO.C,D27*
X142081250Y-95981250D03*
X142081250Y-99281250D03*
G04 #@! TD*
G04 #@! TO.C,D28*
X161131250Y-101662500D03*
X161131250Y-98362500D03*
G04 #@! TD*
G04 #@! TO.C,D29*
X51593750Y-119793750D03*
X51593750Y-123093750D03*
G04 #@! TD*
G04 #@! TO.C,D30*
X84931250Y-119793750D03*
X84931250Y-123093750D03*
G04 #@! TD*
G04 #@! TO.C,D31*
X103981250Y-115031250D03*
X103981250Y-118331250D03*
G04 #@! TD*
G04 #@! TO.C,D32*
X107950000Y-112650000D03*
X107950000Y-115950000D03*
G04 #@! TD*
G04 #@! TO.C,D33*
X151606250Y-123093750D03*
X151606250Y-119793750D03*
G04 #@! TD*
G04 #@! TO.C,D34*
X157988000Y-122429000D03*
X157988000Y-125729000D03*
G04 #@! TD*
D24*
G04 #@! TO.C,F1*
X141287500Y-48012500D03*
X141287500Y-50412500D03*
G04 #@! TD*
D16*
G04 #@! TO.C,MX1*
X42207500Y-45216250D03*
D18*
X42187500Y-45506250D02*
X42227500Y-44926250D01*
D16*
X42227500Y-44926250D03*
X36532501Y-46736250D03*
D18*
X35877500Y-47466250D02*
X37187502Y-46006250D01*
D17*
X39687500Y-50006250D03*
D16*
X37187500Y-46006250D03*
D15*
X38417500Y-55086250D03*
D14*
X40957500Y-55086250D03*
D13*
X34607500Y-50006250D03*
X44767500Y-50006250D03*
G04 #@! TD*
G04 #@! TO.C,MX2*
X63817500Y-45243750D03*
X53657500Y-45243750D03*
D14*
X60007500Y-50323750D03*
D15*
X57467500Y-50323750D03*
D16*
X56237500Y-41243750D03*
D17*
X58737500Y-45243750D03*
D16*
X55582501Y-41973750D03*
D18*
X54927500Y-42703750D02*
X56237502Y-41243750D01*
D16*
X61277500Y-40163750D03*
X61257500Y-40453750D03*
D18*
X61237500Y-40743750D02*
X61277500Y-40163750D01*
G04 #@! TD*
D16*
G04 #@! TO.C,MX3*
X80307500Y-40453750D03*
D18*
X80287500Y-40743750D02*
X80327500Y-40163750D01*
D16*
X80327500Y-40163750D03*
X74632501Y-41973750D03*
D18*
X73977500Y-42703750D02*
X75287502Y-41243750D01*
D17*
X77787500Y-45243750D03*
D16*
X75287500Y-41243750D03*
D15*
X76517500Y-50323750D03*
D14*
X79057500Y-50323750D03*
D13*
X72707500Y-45243750D03*
X82867500Y-45243750D03*
G04 #@! TD*
D16*
G04 #@! TO.C,MX4*
X99357500Y-35691250D03*
D18*
X99337500Y-35981250D02*
X99377500Y-35401250D01*
D16*
X99377500Y-35401250D03*
X93682501Y-37211250D03*
D18*
X93027500Y-37941250D02*
X94337502Y-36481250D01*
D17*
X96837500Y-40481250D03*
D16*
X94337500Y-36481250D03*
D15*
X95567500Y-45561250D03*
D14*
X98107500Y-45561250D03*
D13*
X91757500Y-40481250D03*
X101917500Y-40481250D03*
G04 #@! TD*
G04 #@! TO.C,MX5*
X120967500Y-38100000D03*
X110807500Y-38100000D03*
D14*
X117157500Y-43180000D03*
D15*
X114617500Y-43180000D03*
D16*
X113387500Y-34100000D03*
D17*
X115887500Y-38100000D03*
D16*
X112732501Y-34830000D03*
D18*
X112077500Y-35560000D02*
X113387502Y-34100000D01*
D16*
X118427500Y-33020000D03*
X118407500Y-33310000D03*
D18*
X118387500Y-33600000D02*
X118427500Y-33020000D01*
G04 #@! TD*
D13*
G04 #@! TO.C,MX6*
X140017500Y-40481250D03*
X129857500Y-40481250D03*
D14*
X136207500Y-45561250D03*
D15*
X133667500Y-45561250D03*
D16*
X132437500Y-36481250D03*
D17*
X134937500Y-40481250D03*
D16*
X131782501Y-37211250D03*
D18*
X131127500Y-37941250D02*
X132437502Y-36481250D01*
D16*
X137477500Y-35401250D03*
X137457500Y-35691250D03*
D18*
X137437500Y-35981250D02*
X137477500Y-35401250D01*
G04 #@! TD*
D16*
G04 #@! TO.C,MX8*
X42207500Y-64266250D03*
D18*
X42187500Y-64556250D02*
X42227500Y-63976250D01*
D16*
X42227500Y-63976250D03*
X36532501Y-65786250D03*
D18*
X35877500Y-66516250D02*
X37187502Y-65056250D01*
D17*
X39687500Y-69056250D03*
D16*
X37187500Y-65056250D03*
D15*
X38417500Y-74136250D03*
D14*
X40957500Y-74136250D03*
D13*
X34607500Y-69056250D03*
X44767500Y-69056250D03*
G04 #@! TD*
G04 #@! TO.C,MX9*
X63817500Y-64293750D03*
X53657500Y-64293750D03*
D14*
X60007500Y-69373750D03*
D15*
X57467500Y-69373750D03*
D16*
X56237500Y-60293750D03*
D17*
X58737500Y-64293750D03*
D16*
X55582501Y-61023750D03*
D18*
X54927500Y-61753750D02*
X56237502Y-60293750D01*
D16*
X61277500Y-59213750D03*
X61257500Y-59503750D03*
D18*
X61237500Y-59793750D02*
X61277500Y-59213750D01*
G04 #@! TD*
D16*
G04 #@! TO.C,MX10*
X80307500Y-59503750D03*
D18*
X80287500Y-59793750D02*
X80327500Y-59213750D01*
D16*
X80327500Y-59213750D03*
X74632501Y-61023750D03*
D18*
X73977500Y-61753750D02*
X75287502Y-60293750D01*
D17*
X77787500Y-64293750D03*
D16*
X75287500Y-60293750D03*
D15*
X76517500Y-69373750D03*
D14*
X79057500Y-69373750D03*
D13*
X72707500Y-64293750D03*
X82867500Y-64293750D03*
G04 #@! TD*
G04 #@! TO.C,MX11*
X101917500Y-59531250D03*
X91757500Y-59531250D03*
D14*
X98107500Y-64611250D03*
D15*
X95567500Y-64611250D03*
D16*
X94337500Y-55531250D03*
D17*
X96837500Y-59531250D03*
D16*
X93682501Y-56261250D03*
D18*
X93027500Y-56991250D02*
X94337502Y-55531250D01*
D16*
X99377500Y-54451250D03*
X99357500Y-54741250D03*
D18*
X99337500Y-55031250D02*
X99377500Y-54451250D01*
G04 #@! TD*
D16*
G04 #@! TO.C,MX12*
X118407500Y-52360000D03*
D18*
X118387500Y-52650000D02*
X118427500Y-52070000D01*
D16*
X118427500Y-52070000D03*
X112732501Y-53880000D03*
D18*
X112077500Y-54610000D02*
X113387502Y-53150000D01*
D17*
X115887500Y-57150000D03*
D16*
X113387500Y-53150000D03*
D15*
X114617500Y-62230000D03*
D14*
X117157500Y-62230000D03*
D13*
X110807500Y-57150000D03*
X120967500Y-57150000D03*
G04 #@! TD*
D16*
G04 #@! TO.C,MX13*
X137457500Y-54741250D03*
D18*
X137437500Y-55031250D02*
X137477500Y-54451250D01*
D16*
X137477500Y-54451250D03*
X131782501Y-56261250D03*
D18*
X131127500Y-56991250D02*
X132437502Y-55531250D01*
D17*
X134937500Y-59531250D03*
D16*
X132437500Y-55531250D03*
D15*
X133667500Y-64611250D03*
D14*
X136207500Y-64611250D03*
D13*
X129857500Y-59531250D03*
X140017500Y-59531250D03*
G04 #@! TD*
G04 #@! TO.C,MX14*
X159067500Y-61912500D03*
X148907500Y-61912500D03*
D14*
X155257500Y-66992500D03*
D15*
X152717500Y-66992500D03*
D16*
X151487500Y-57912500D03*
D17*
X153987500Y-61912500D03*
D16*
X150832501Y-58642500D03*
D18*
X150177500Y-59372500D02*
X151487502Y-57912500D01*
D16*
X156527500Y-56832500D03*
X156507500Y-57122500D03*
D18*
X156487500Y-57412500D02*
X156527500Y-56832500D01*
G04 #@! TD*
D13*
G04 #@! TO.C,MX15*
X44767500Y-88106250D03*
X34607500Y-88106250D03*
D14*
X40957500Y-93186250D03*
D15*
X38417500Y-93186250D03*
D16*
X37187500Y-84106250D03*
D17*
X39687500Y-88106250D03*
D16*
X36532501Y-84836250D03*
D18*
X35877500Y-85566250D02*
X37187502Y-84106250D01*
D16*
X42227500Y-83026250D03*
X42207500Y-83316250D03*
D18*
X42187500Y-83606250D02*
X42227500Y-83026250D01*
G04 #@! TD*
D16*
G04 #@! TO.C,MX16*
X61257500Y-78553750D03*
D18*
X61237500Y-78843750D02*
X61277500Y-78263750D01*
D16*
X61277500Y-78263750D03*
X55582501Y-80073750D03*
D18*
X54927500Y-80803750D02*
X56237502Y-79343750D01*
D17*
X58737500Y-83343750D03*
D16*
X56237500Y-79343750D03*
D15*
X57467500Y-88423750D03*
D14*
X60007500Y-88423750D03*
D13*
X53657500Y-83343750D03*
X63817500Y-83343750D03*
G04 #@! TD*
D16*
G04 #@! TO.C,MX17*
X80307500Y-78553750D03*
D18*
X80287500Y-78843750D02*
X80327500Y-78263750D01*
D16*
X80327500Y-78263750D03*
X74632501Y-80073750D03*
D18*
X73977500Y-80803750D02*
X75287502Y-79343750D01*
D17*
X77787500Y-83343750D03*
D16*
X75287500Y-79343750D03*
D15*
X76517500Y-88423750D03*
D14*
X79057500Y-88423750D03*
D13*
X72707500Y-83343750D03*
X82867500Y-83343750D03*
G04 #@! TD*
D16*
G04 #@! TO.C,MX18*
X99357500Y-73791250D03*
D18*
X99337500Y-74081250D02*
X99377500Y-73501250D01*
D16*
X99377500Y-73501250D03*
X93682501Y-75311250D03*
D18*
X93027500Y-76041250D02*
X94337502Y-74581250D01*
D17*
X96837500Y-78581250D03*
D16*
X94337500Y-74581250D03*
D15*
X95567500Y-83661250D03*
D14*
X98107500Y-83661250D03*
D13*
X91757500Y-78581250D03*
X101917500Y-78581250D03*
G04 #@! TD*
G04 #@! TO.C,MX19*
X120967500Y-76200000D03*
X110807500Y-76200000D03*
D14*
X117157500Y-81280000D03*
D15*
X114617500Y-81280000D03*
D16*
X113387500Y-72200000D03*
D17*
X115887500Y-76200000D03*
D16*
X112732501Y-72930000D03*
D18*
X112077500Y-73660000D02*
X113387502Y-72200000D01*
D16*
X118427500Y-71120000D03*
X118407500Y-71410000D03*
D18*
X118387500Y-71700000D02*
X118427500Y-71120000D01*
G04 #@! TD*
D13*
G04 #@! TO.C,MX20*
X140017500Y-78581250D03*
X129857500Y-78581250D03*
D14*
X136207500Y-83661250D03*
D15*
X133667500Y-83661250D03*
D16*
X132437500Y-74581250D03*
D17*
X134937500Y-78581250D03*
D16*
X131782501Y-75311250D03*
D18*
X131127500Y-76041250D02*
X132437502Y-74581250D01*
D16*
X137477500Y-73501250D03*
X137457500Y-73791250D03*
D18*
X137437500Y-74081250D02*
X137477500Y-73501250D01*
G04 #@! TD*
D16*
G04 #@! TO.C,MX21*
X156507500Y-76172500D03*
D18*
X156487500Y-76462500D02*
X156527500Y-75882500D01*
D16*
X156527500Y-75882500D03*
X150832501Y-77692500D03*
D18*
X150177500Y-78422500D02*
X151487502Y-76962500D01*
D17*
X153987500Y-80962500D03*
D16*
X151487500Y-76962500D03*
D15*
X152717500Y-86042500D03*
D14*
X155257500Y-86042500D03*
D13*
X148907500Y-80962500D03*
X159067500Y-80962500D03*
G04 #@! TD*
D16*
G04 #@! TO.C,MX22*
X42207500Y-102366250D03*
D18*
X42187500Y-102656250D02*
X42227500Y-102076250D01*
D16*
X42227500Y-102076250D03*
X36532501Y-103886250D03*
D18*
X35877500Y-104616250D02*
X37187502Y-103156250D01*
D17*
X39687500Y-107156250D03*
D16*
X37187500Y-103156250D03*
D15*
X38417500Y-112236250D03*
D14*
X40957500Y-112236250D03*
D13*
X34607500Y-107156250D03*
X44767500Y-107156250D03*
G04 #@! TD*
D16*
G04 #@! TO.C,MX23*
X61257500Y-97603750D03*
D18*
X61237500Y-97893750D02*
X61277500Y-97313750D01*
D16*
X61277500Y-97313750D03*
X55582501Y-99123750D03*
D18*
X54927500Y-99853750D02*
X56237502Y-98393750D01*
D17*
X58737500Y-102393750D03*
D16*
X56237500Y-98393750D03*
D15*
X57467500Y-107473750D03*
D14*
X60007500Y-107473750D03*
D13*
X53657500Y-102393750D03*
X63817500Y-102393750D03*
G04 #@! TD*
D16*
G04 #@! TO.C,MX24*
X80307500Y-97603750D03*
D18*
X80287500Y-97893750D02*
X80327500Y-97313750D01*
D16*
X80327500Y-97313750D03*
X74632501Y-99123750D03*
D18*
X73977500Y-99853750D02*
X75287502Y-98393750D01*
D17*
X77787500Y-102393750D03*
D16*
X75287500Y-98393750D03*
D15*
X76517500Y-107473750D03*
D14*
X79057500Y-107473750D03*
D13*
X72707500Y-102393750D03*
X82867500Y-102393750D03*
G04 #@! TD*
G04 #@! TO.C,MX25*
X101917500Y-97631250D03*
X91757500Y-97631250D03*
D14*
X98107500Y-102711250D03*
D15*
X95567500Y-102711250D03*
D16*
X94337500Y-93631250D03*
D17*
X96837500Y-97631250D03*
D16*
X93682501Y-94361250D03*
D18*
X93027500Y-95091250D02*
X94337502Y-93631250D01*
D16*
X99377500Y-92551250D03*
X99357500Y-92841250D03*
D18*
X99337500Y-93131250D02*
X99377500Y-92551250D01*
G04 #@! TD*
D16*
G04 #@! TO.C,MX26*
X118407500Y-90460000D03*
D18*
X118387500Y-90750000D02*
X118427500Y-90170000D01*
D16*
X118427500Y-90170000D03*
X112732501Y-91980000D03*
D18*
X112077500Y-92710000D02*
X113387502Y-91250000D01*
D17*
X115887500Y-95250000D03*
D16*
X113387500Y-91250000D03*
D15*
X114617500Y-100330000D03*
D14*
X117157500Y-100330000D03*
D13*
X110807500Y-95250000D03*
X120967500Y-95250000D03*
G04 #@! TD*
G04 #@! TO.C,MX27*
X140017500Y-97631250D03*
X129857500Y-97631250D03*
D14*
X136207500Y-102711250D03*
D15*
X133667500Y-102711250D03*
D16*
X132437500Y-93631250D03*
D17*
X134937500Y-97631250D03*
D16*
X131782501Y-94361250D03*
D18*
X131127500Y-95091250D02*
X132437502Y-93631250D01*
D16*
X137477500Y-92551250D03*
X137457500Y-92841250D03*
D18*
X137437500Y-93131250D02*
X137477500Y-92551250D01*
G04 #@! TD*
D13*
G04 #@! TO.C,MX28*
X159067500Y-100012500D03*
X148907500Y-100012500D03*
D14*
X155257500Y-105092500D03*
D15*
X152717500Y-105092500D03*
D16*
X151487500Y-96012500D03*
D17*
X153987500Y-100012500D03*
D16*
X150832501Y-96742500D03*
D18*
X150177500Y-97472500D02*
X151487502Y-96012500D01*
D16*
X156527500Y-94932500D03*
X156507500Y-95222500D03*
D18*
X156487500Y-95512500D02*
X156527500Y-94932500D01*
G04 #@! TD*
D16*
G04 #@! TO.C,MX29*
X61257500Y-116653750D03*
D18*
X61237500Y-116943750D02*
X61277500Y-116363750D01*
D16*
X61277500Y-116363750D03*
X55582501Y-118173750D03*
D18*
X54927500Y-118903750D02*
X56237502Y-117443750D01*
D17*
X58737500Y-121443750D03*
D16*
X56237500Y-117443750D03*
D15*
X57467500Y-126523750D03*
D14*
X60007500Y-126523750D03*
D13*
X53657500Y-121443750D03*
X63817500Y-121443750D03*
G04 #@! TD*
G04 #@! TO.C,MX30*
X82867500Y-121443750D03*
X72707500Y-121443750D03*
D14*
X79057500Y-126523750D03*
D15*
X76517500Y-126523750D03*
D16*
X75287500Y-117443750D03*
D17*
X77787500Y-121443750D03*
D16*
X74632501Y-118173750D03*
D18*
X73977500Y-118903750D02*
X75287502Y-117443750D01*
D16*
X80327500Y-116363750D03*
X80307500Y-116653750D03*
D18*
X80287500Y-116943750D02*
X80327500Y-116363750D01*
G04 #@! TD*
D16*
G04 #@! TO.C,MX31*
X99357500Y-111891250D03*
D18*
X99337500Y-112181250D02*
X99377500Y-111601250D01*
D16*
X99377500Y-111601250D03*
X93682501Y-113411250D03*
D18*
X93027500Y-114141250D02*
X94337502Y-112681250D01*
D17*
X96837500Y-116681250D03*
D16*
X94337500Y-112681250D03*
D15*
X95567500Y-121761250D03*
D14*
X98107500Y-121761250D03*
D13*
X91757500Y-116681250D03*
X101917500Y-116681250D03*
G04 #@! TD*
G04 #@! TO.C,MX32*
X120967500Y-114300000D03*
X110807500Y-114300000D03*
D14*
X117157500Y-119380000D03*
D15*
X114617500Y-119380000D03*
D16*
X113387500Y-110300000D03*
D17*
X115887500Y-114300000D03*
D16*
X112732501Y-111030000D03*
D18*
X112077500Y-111760000D02*
X113387502Y-110300000D01*
D16*
X118427500Y-109220000D03*
X118407500Y-109510000D03*
D18*
X118387500Y-109800000D02*
X118427500Y-109220000D01*
G04 #@! TD*
D13*
G04 #@! TO.C,MX33*
X149357367Y-121203806D03*
X139694633Y-118064194D03*
D15*
X144164035Y-124857819D03*
D25*
G36*
X142711800Y-125597770D02*
X143424084Y-123405584D01*
X145616270Y-124117868D01*
X144903986Y-126310054D01*
X142711800Y-125597770D01*
X142711800Y-125597770D01*
G37*
D15*
X141748352Y-124072916D03*
D16*
X143384427Y-115057230D03*
D17*
X144526000Y-119634000D03*
D16*
X142535903Y-115549097D03*
D18*
X141687378Y-116040962D02*
X143384428Y-115057232D01*
D16*
X148511490Y-115587536D03*
X148402854Y-115857162D03*
D18*
X148294218Y-116126788D02*
X148511490Y-115587536D01*
G04 #@! TD*
D26*
G04 #@! TO.C,R1*
X135575000Y-120015000D03*
X137475000Y-120015000D03*
G04 #@! TD*
D27*
G04 #@! TO.C,R2*
X51308000Y-53025000D03*
X51308000Y-54925000D03*
G04 #@! TD*
G04 #@! TO.C,R3*
X65881250Y-49850000D03*
X65881250Y-51750000D03*
G04 #@! TD*
G04 #@! TO.C,R4*
X84931250Y-51750000D03*
X84931250Y-49850000D03*
G04 #@! TD*
G04 #@! TO.C,R5*
X103981250Y-45087500D03*
X103981250Y-46987500D03*
G04 #@! TD*
G04 #@! TO.C,R6*
X123031250Y-44606250D03*
X123031250Y-42706250D03*
G04 #@! TD*
G04 #@! TO.C,R7*
X127000000Y-45087500D03*
X127000000Y-46987500D03*
G04 #@! TD*
G04 #@! TO.C,R8*
X161131250Y-49368750D03*
X161131250Y-47468750D03*
G04 #@! TD*
G04 #@! TO.C,R9*
X151638000Y-110932000D03*
X151638000Y-109032000D03*
G04 #@! TD*
G04 #@! TO.C,R10*
X154940000Y-110932000D03*
X154940000Y-109032000D03*
G04 #@! TD*
G04 #@! TO.C,R11*
X50800000Y-75250000D03*
X50800000Y-77150000D03*
G04 #@! TD*
G04 #@! TO.C,R12*
X65881250Y-70800000D03*
X65881250Y-68900000D03*
G04 #@! TD*
G04 #@! TO.C,R13*
X84931250Y-68900000D03*
X84931250Y-70800000D03*
G04 #@! TD*
G04 #@! TO.C,R14*
X103187500Y-66037500D03*
X103187500Y-64137500D03*
G04 #@! TD*
G04 #@! TO.C,R15*
X123031250Y-63656250D03*
X123031250Y-61756250D03*
G04 #@! TD*
G04 #@! TO.C,R16*
X142081250Y-66037500D03*
X142081250Y-64137500D03*
G04 #@! TD*
G04 #@! TO.C,R17*
X161131250Y-66518750D03*
X161131250Y-68418750D03*
G04 #@! TD*
G04 #@! TO.C,R18*
X47625000Y-91437500D03*
X47625000Y-89537500D03*
G04 #@! TD*
G04 #@! TO.C,R19*
X65881250Y-87950000D03*
X65881250Y-89850000D03*
G04 #@! TD*
G04 #@! TO.C,R20*
X84931250Y-89850000D03*
X84931250Y-87950000D03*
G04 #@! TD*
G04 #@! TO.C,R21*
X103981250Y-83187500D03*
X103981250Y-85087500D03*
G04 #@! TD*
G04 #@! TO.C,R22*
X123031250Y-80806250D03*
X123031250Y-82706250D03*
G04 #@! TD*
G04 #@! TO.C,R23*
X142081250Y-85087500D03*
X142081250Y-83187500D03*
G04 #@! TD*
G04 #@! TO.C,R24*
X161131250Y-85568750D03*
X161131250Y-87468750D03*
G04 #@! TD*
D26*
G04 #@! TO.C,R25*
X125537000Y-102870000D03*
X123637000Y-102870000D03*
G04 #@! TD*
D27*
G04 #@! TO.C,R26*
X47625000Y-115250000D03*
X47625000Y-113350000D03*
G04 #@! TD*
G04 #@! TO.C,R27*
X65881250Y-107000000D03*
X65881250Y-108900000D03*
G04 #@! TD*
G04 #@! TO.C,R28*
X84931250Y-108900000D03*
X84931250Y-107000000D03*
G04 #@! TD*
G04 #@! TO.C,R29*
X103981250Y-102237500D03*
X103981250Y-104137500D03*
G04 #@! TD*
G04 #@! TO.C,R30*
X107950000Y-101756250D03*
X107950000Y-99856250D03*
G04 #@! TD*
G04 #@! TO.C,R31*
X142081250Y-104137500D03*
X142081250Y-102237500D03*
G04 #@! TD*
G04 #@! TO.C,R32*
X161131250Y-106518750D03*
X161131250Y-104618750D03*
G04 #@! TD*
G04 #@! TO.C,R34*
X52387500Y-127950000D03*
X52387500Y-126050000D03*
G04 #@! TD*
G04 #@! TO.C,R35*
X84931250Y-126050000D03*
X84931250Y-127950000D03*
G04 #@! TD*
G04 #@! TO.C,R36*
X103981250Y-123187500D03*
X103981250Y-121287500D03*
G04 #@! TD*
G04 #@! TO.C,R37*
X107950000Y-118906250D03*
X107950000Y-120806250D03*
G04 #@! TD*
G04 #@! TO.C,R38*
X151606250Y-126050000D03*
X151606250Y-127950000D03*
G04 #@! TD*
G04 #@! TO.C,R39*
X156083000Y-128431250D03*
X156083000Y-130331250D03*
G04 #@! TD*
G04 #@! TO.C,R40*
X151606250Y-130622000D03*
X151606250Y-132522000D03*
G04 #@! TD*
G04 #@! TO.C,R41*
X146050000Y-44606250D03*
X146050000Y-42706250D03*
G04 #@! TD*
G04 #@! TO.C,R42*
X142875000Y-42706250D03*
X142875000Y-44606250D03*
G04 #@! TD*
D26*
G04 #@! TO.C,R43*
X153350000Y-34925000D03*
X151450000Y-34925000D03*
G04 #@! TD*
D27*
G04 #@! TO.C,R44*
X127000000Y-33181250D03*
X127000000Y-35081250D03*
G04 #@! TD*
D19*
G04 #@! TO.C,U2*
X143399000Y-39843750D03*
X145399000Y-39843750D03*
X143399000Y-37943750D03*
D20*
X145399000Y-38143750D03*
G04 #@! TD*
D28*
G04 #@! TO.C,USB1*
X148782500Y-29587500D03*
X140142500Y-29587500D03*
D29*
X148782500Y-33767500D03*
X140142500Y-33767500D03*
D30*
X141572500Y-33237500D03*
X147352500Y-33237500D03*
D31*
X144212500Y-34682499D03*
X144712499Y-34682500D03*
X145212500Y-34682500D03*
X143712500Y-34682500D03*
X145712500Y-34682499D03*
X143212500Y-34682500D03*
X146212499Y-34682500D03*
X142712500Y-34682499D03*
D32*
X142012500Y-34682499D03*
X146912500Y-34682500D03*
X141237500Y-34682500D03*
X147687500Y-34682500D03*
G04 #@! TD*
D33*
G04 #@! TO.C,J2*
X167596852Y-136865295D03*
X165397148Y-135595295D03*
X166326852Y-139065000D03*
X164127148Y-137795000D03*
X165056852Y-141264705D03*
X162857148Y-139994705D03*
D25*
G36*
X164291475Y-139610378D02*
X163241475Y-141429032D01*
X161422821Y-140379032D01*
X162472821Y-138560378D01*
X164291475Y-139610378D01*
X164291475Y-139610378D01*
G37*
G04 #@! TD*
D34*
G04 #@! TO.C,Q1*
X148587500Y-130381250D03*
X146687500Y-130381250D03*
X147637500Y-128381250D03*
G04 #@! TD*
D35*
G04 #@! TO.C,U1*
X129693250Y-110463750D03*
X129693250Y-111751250D03*
X129693250Y-113038750D03*
X129693250Y-114326250D03*
X128405750Y-110463750D03*
X128405750Y-111751250D03*
X128405750Y-113038750D03*
X128405750Y-114326250D03*
X127118250Y-110463750D03*
X127118250Y-111751250D03*
X127118250Y-113038750D03*
X127118250Y-114326250D03*
X125830750Y-110463750D03*
X125830750Y-111751250D03*
X125830750Y-113038750D03*
X125830750Y-114326250D03*
D36*
X130262000Y-108995000D03*
X129762000Y-108995000D03*
X129262000Y-108995000D03*
X128762000Y-108995000D03*
X128262000Y-108995000D03*
X127762000Y-108995000D03*
X127262000Y-108995000D03*
X126762000Y-108995000D03*
X126262000Y-108995000D03*
X125762000Y-108995000D03*
X125262000Y-108995000D03*
D37*
X124362000Y-109895000D03*
X124362000Y-110395000D03*
X124362000Y-110895000D03*
X124362000Y-111395000D03*
X124362000Y-111895000D03*
X124362000Y-112395000D03*
X124362000Y-112895000D03*
X124362000Y-113395000D03*
X124362000Y-113895000D03*
X124362000Y-114395000D03*
X124362000Y-114895000D03*
D36*
X125262000Y-115795000D03*
X125762000Y-115795000D03*
X126262000Y-115795000D03*
X126762000Y-115795000D03*
X127262000Y-115795000D03*
X127762000Y-115795000D03*
X128262000Y-115795000D03*
X128762000Y-115795000D03*
X129262000Y-115795000D03*
X129762000Y-115795000D03*
X130262000Y-115795000D03*
D37*
X131162000Y-114895000D03*
X131162000Y-114395000D03*
X131162000Y-113895000D03*
X131162000Y-113395000D03*
X131162000Y-112895000D03*
X131162000Y-112395000D03*
X131162000Y-111895000D03*
X131162000Y-111395000D03*
X131162000Y-110895000D03*
X131162000Y-110395000D03*
X131162000Y-109895000D03*
G04 #@! TD*
D38*
G04 #@! TO.C,C2*
X131445000Y-121273000D03*
X131445000Y-119773000D03*
G04 #@! TD*
D39*
G04 #@! TO.C,C3*
X138418000Y-109474000D03*
X136918000Y-109474000D03*
G04 #@! TD*
D38*
G04 #@! TO.C,C4*
X133604000Y-116217000D03*
X133604000Y-117717000D03*
G04 #@! TD*
G04 #@! TO.C,C5*
X120904000Y-118225000D03*
X120904000Y-116725000D03*
G04 #@! TD*
D39*
G04 #@! TO.C,C6*
X123837000Y-106172000D03*
X125337000Y-106172000D03*
G04 #@! TD*
G04 #@! TO.C,C7*
X131203000Y-106680000D03*
X132703000Y-106680000D03*
G04 #@! TD*
D26*
G04 #@! TO.C,R33*
X39685000Y-116681250D03*
X37785000Y-116681250D03*
G04 #@! TD*
D40*
G04 #@! TO.C,J3*
X42227500Y-40735250D03*
X40957500Y-40735250D03*
X37147500Y-40735250D03*
X38417500Y-40735250D03*
X39687500Y-40735250D03*
G04 #@! TD*
G04 #@! TO.C,J5*
X135096250Y-31210250D03*
X133826250Y-31210250D03*
X130016250Y-31210250D03*
X131286250Y-31210250D03*
X132556250Y-31210250D03*
G04 #@! TD*
G04 #@! TO.C,J6*
X39687500Y-125158500D03*
X40957500Y-125158500D03*
X42227500Y-125158500D03*
X38417500Y-125158500D03*
X37147500Y-125158500D03*
G04 #@! TD*
G04 #@! TO.C,J9*
X99377500Y-31210250D03*
X98107500Y-31210250D03*
X94297500Y-31210250D03*
X95567500Y-31210250D03*
X96837500Y-31210250D03*
G04 #@! TD*
G04 #@! TO.C,J10*
X115887500Y-123571000D03*
X117157500Y-123571000D03*
X118427500Y-123571000D03*
X114617500Y-123571000D03*
X113347500Y-123571000D03*
G04 #@! TD*
D38*
G04 #@! TO.C,C8*
X237172500Y-107200000D03*
X237172500Y-108700000D03*
G04 #@! TD*
G04 #@! TO.C,C9*
X230314500Y-107200000D03*
X230314500Y-108700000D03*
G04 #@! TD*
D39*
G04 #@! TO.C,C10*
X225564000Y-114808000D03*
X227064000Y-114808000D03*
G04 #@! TD*
G04 #@! TO.C,C11*
X238240000Y-122301000D03*
X236740000Y-122301000D03*
G04 #@! TD*
D38*
G04 #@! TO.C,C12*
X227838000Y-109803500D03*
X227838000Y-111303500D03*
G04 #@! TD*
G04 #@! TO.C,C13*
X240125250Y-112891000D03*
X240125250Y-111391000D03*
G04 #@! TD*
D39*
G04 #@! TO.C,C14*
X229286500Y-120650000D03*
X227786500Y-120650000D03*
G04 #@! TD*
D12*
G04 #@! TO.C,D36*
X202406250Y-41212500D03*
X202406250Y-44512500D03*
G04 #@! TD*
G04 #@! TO.C,D37*
X235743750Y-42131250D03*
X235743750Y-38831250D03*
G04 #@! TD*
G04 #@! TO.C,D38*
X254793750Y-36450000D03*
X254793750Y-39750000D03*
G04 #@! TD*
G04 #@! TO.C,D39*
X273843750Y-42131250D03*
X273843750Y-38831250D03*
G04 #@! TD*
G04 #@! TO.C,D40*
X292893750Y-46893750D03*
X292893750Y-43593750D03*
G04 #@! TD*
G04 #@! TO.C,D41*
X311943750Y-41212500D03*
X311943750Y-44512500D03*
G04 #@! TD*
G04 #@! TO.C,D42*
X315531500Y-54831250D03*
X315531500Y-51531250D03*
G04 #@! TD*
G04 #@! TO.C,D43*
X216693750Y-60262500D03*
X216693750Y-63562500D03*
G04 #@! TD*
G04 #@! TO.C,D44*
X235743750Y-61181250D03*
X235743750Y-57881250D03*
G04 #@! TD*
G04 #@! TO.C,D45*
X254793750Y-55500000D03*
X254793750Y-58800000D03*
G04 #@! TD*
G04 #@! TO.C,D46*
X273843750Y-61181250D03*
X273843750Y-57881250D03*
G04 #@! TD*
G04 #@! TO.C,D47*
X292893750Y-65943750D03*
X292893750Y-62643750D03*
G04 #@! TD*
G04 #@! TO.C,D48*
X311943750Y-62643750D03*
X311943750Y-65943750D03*
G04 #@! TD*
G04 #@! TO.C,D50*
X216693750Y-79312500D03*
X216693750Y-82612500D03*
G04 #@! TD*
G04 #@! TO.C,D51*
X235743750Y-80231250D03*
X235743750Y-76931250D03*
G04 #@! TD*
G04 #@! TO.C,D52*
X254793750Y-74550000D03*
X254793750Y-77850000D03*
G04 #@! TD*
G04 #@! TO.C,D53*
X273843750Y-80231250D03*
X273843750Y-76931250D03*
G04 #@! TD*
G04 #@! TO.C,D54*
X292893750Y-81693750D03*
X292893750Y-84993750D03*
G04 #@! TD*
G04 #@! TO.C,D55*
X311943750Y-78518750D03*
X311943750Y-81818750D03*
G04 #@! TD*
G04 #@! TO.C,D56*
X315531500Y-78487000D03*
X315531500Y-81787000D03*
G04 #@! TD*
G04 #@! TO.C,D57*
X216693750Y-101662500D03*
X216693750Y-98362500D03*
G04 #@! TD*
G04 #@! TO.C,D58*
X235870750Y-99281250D03*
X235870750Y-95981250D03*
G04 #@! TD*
G04 #@! TO.C,D59*
X254793750Y-96900000D03*
X254793750Y-93600000D03*
G04 #@! TD*
G04 #@! TO.C,D60*
X273843750Y-95981250D03*
X273843750Y-99281250D03*
G04 #@! TD*
G04 #@! TO.C,D61*
X292893750Y-100743750D03*
X292893750Y-104043750D03*
G04 #@! TD*
G04 #@! TO.C,D62*
X311943750Y-104043750D03*
X311943750Y-100743750D03*
G04 #@! TD*
G04 #@! TO.C,D63*
X314325000Y-94393750D03*
X314325000Y-97693750D03*
G04 #@! TD*
G04 #@! TO.C,D64*
X205549500Y-125729000D03*
X205549500Y-122429000D03*
G04 #@! TD*
G04 #@! TO.C,D65*
X211899500Y-122429000D03*
X211899500Y-125729000D03*
G04 #@! TD*
G04 #@! TO.C,D66*
X254793750Y-112650000D03*
X254793750Y-115950000D03*
G04 #@! TD*
G04 #@! TO.C,D67*
X273843750Y-118331250D03*
X273843750Y-115031250D03*
G04 #@! TD*
G04 #@! TO.C,D68*
X278606250Y-119793750D03*
X278606250Y-123093750D03*
G04 #@! TD*
G04 #@! TO.C,D69*
X311943750Y-123093750D03*
X311943750Y-119793750D03*
G04 #@! TD*
D24*
G04 #@! TO.C,F2*
X215900000Y-48012500D03*
X215900000Y-50412500D03*
G04 #@! TD*
D21*
G04 #@! TO.C,J11*
X195365896Y-110544087D03*
D22*
X195153764Y-110331955D02*
X195578028Y-110756219D01*
D21*
X197487216Y-112665408D03*
D22*
X197275084Y-112453276D02*
X197699348Y-112877540D01*
D21*
X200315644Y-115493835D03*
D22*
X200103512Y-115281703D02*
X200527776Y-115705967D01*
D21*
X204346152Y-113018961D03*
D22*
X204134020Y-112806829D02*
X204558284Y-113231093D01*
D23*
X195860871Y-107786371D03*
X200810618Y-112736118D03*
G04 #@! TD*
D33*
G04 #@! TO.C,J12*
X198267352Y-135595295D03*
X196067648Y-136865295D03*
X199537352Y-137795000D03*
X197337648Y-139065000D03*
X200807352Y-139994705D03*
X198607648Y-141264705D03*
D25*
G36*
X198991975Y-139830378D02*
X200041975Y-141649032D01*
X198223321Y-142699032D01*
X197173321Y-140880378D01*
X198991975Y-139830378D01*
X198991975Y-139830378D01*
G37*
G04 #@! TD*
D40*
G04 #@! TO.C,J13*
X326390000Y-40735250D03*
X325120000Y-40735250D03*
X321310000Y-40735250D03*
X322580000Y-40735250D03*
X323850000Y-40735250D03*
G04 #@! TD*
G04 #@! TO.C,J17*
X234315000Y-31210250D03*
X233045000Y-31210250D03*
X229235000Y-31210250D03*
X230505000Y-31210250D03*
X231775000Y-31210250D03*
G04 #@! TD*
G04 #@! TO.C,J18*
X245110000Y-123571000D03*
X246380000Y-123571000D03*
X250190000Y-123571000D03*
X248920000Y-123571000D03*
X247650000Y-123571000D03*
G04 #@! TD*
G04 #@! TO.C,J19*
X266700000Y-31210250D03*
X265430000Y-31210250D03*
X264160000Y-31210250D03*
X267970000Y-31210250D03*
X269240000Y-31210250D03*
G04 #@! TD*
G04 #@! TO.C,J20*
X323850000Y-125158500D03*
X325120000Y-125158500D03*
X326390000Y-125158500D03*
X322580000Y-125158500D03*
X321310000Y-125158500D03*
G04 #@! TD*
D13*
G04 #@! TO.C,MX35*
X214630000Y-42862500D03*
X204470000Y-42862500D03*
D14*
X210820000Y-47942500D03*
D15*
X208280000Y-47942500D03*
D16*
X207050000Y-38862500D03*
D17*
X209550000Y-42862500D03*
D16*
X206395001Y-39592500D03*
D18*
X205740000Y-40322500D02*
X207050002Y-38862500D01*
D16*
X212090000Y-37782500D03*
X212070000Y-38072500D03*
D18*
X212050000Y-38362500D02*
X212090000Y-37782500D01*
G04 #@! TD*
D16*
G04 #@! TO.C,MX37*
X250170000Y-33310000D03*
D18*
X250150000Y-33600000D02*
X250190000Y-33020000D01*
D16*
X250190000Y-33020000D03*
X244495001Y-34830000D03*
D18*
X243840000Y-35560000D02*
X245150002Y-34100000D01*
D17*
X247650000Y-38100000D03*
D16*
X245150000Y-34100000D03*
D15*
X246380000Y-43180000D03*
D14*
X248920000Y-43180000D03*
D13*
X242570000Y-38100000D03*
X252730000Y-38100000D03*
G04 #@! TD*
G04 #@! TO.C,MX38*
X271780000Y-40481250D03*
X261620000Y-40481250D03*
D14*
X267970000Y-45561250D03*
D15*
X265430000Y-45561250D03*
D16*
X264200000Y-36481250D03*
D17*
X266700000Y-40481250D03*
D16*
X263545001Y-37211250D03*
D18*
X262890000Y-37941250D02*
X264200002Y-36481250D01*
D16*
X269240000Y-35401250D03*
X269220000Y-35691250D03*
D18*
X269200000Y-35981250D02*
X269240000Y-35401250D01*
G04 #@! TD*
D13*
G04 #@! TO.C,MX39*
X290830000Y-45243750D03*
X280670000Y-45243750D03*
D14*
X287020000Y-50323750D03*
D15*
X284480000Y-50323750D03*
D16*
X283250000Y-41243750D03*
D17*
X285750000Y-45243750D03*
D16*
X282595001Y-41973750D03*
D18*
X281940000Y-42703750D02*
X283250002Y-41243750D01*
D16*
X288290000Y-40163750D03*
X288270000Y-40453750D03*
D18*
X288250000Y-40743750D02*
X288290000Y-40163750D01*
G04 #@! TD*
D16*
G04 #@! TO.C,MX40*
X307320000Y-40453750D03*
D18*
X307300000Y-40743750D02*
X307340000Y-40163750D01*
D16*
X307340000Y-40163750D03*
X301645001Y-41973750D03*
D18*
X300990000Y-42703750D02*
X302300002Y-41243750D01*
D17*
X304800000Y-45243750D03*
D16*
X302300000Y-41243750D03*
D15*
X303530000Y-50323750D03*
D14*
X306070000Y-50323750D03*
D13*
X299720000Y-45243750D03*
X309880000Y-45243750D03*
G04 #@! TD*
G04 #@! TO.C,MX41*
X328930000Y-50006250D03*
X318770000Y-50006250D03*
D14*
X325120000Y-55086250D03*
D15*
X322580000Y-55086250D03*
D16*
X321350000Y-46006250D03*
D17*
X323850000Y-50006250D03*
D16*
X320695001Y-46736250D03*
D18*
X320040000Y-47466250D02*
X321350002Y-46006250D01*
D16*
X326390000Y-44926250D03*
X326370000Y-45216250D03*
D18*
X326350000Y-45506250D02*
X326390000Y-44926250D01*
G04 #@! TD*
D16*
G04 #@! TO.C,MX42*
X212070000Y-57122500D03*
D18*
X212050000Y-57412500D02*
X212090000Y-56832500D01*
D16*
X212090000Y-56832500D03*
X206395001Y-58642500D03*
D18*
X205740000Y-59372500D02*
X207050002Y-57912500D01*
D17*
X209550000Y-61912500D03*
D16*
X207050000Y-57912500D03*
D15*
X208280000Y-66992500D03*
D14*
X210820000Y-66992500D03*
D13*
X204470000Y-61912500D03*
X214630000Y-61912500D03*
G04 #@! TD*
G04 #@! TO.C,MX43*
X233680000Y-59531250D03*
X223520000Y-59531250D03*
D14*
X229870000Y-64611250D03*
D15*
X227330000Y-64611250D03*
D16*
X226100000Y-55531250D03*
D17*
X228600000Y-59531250D03*
D16*
X225445001Y-56261250D03*
D18*
X224790000Y-56991250D02*
X226100002Y-55531250D01*
D16*
X231140000Y-54451250D03*
X231120000Y-54741250D03*
D18*
X231100000Y-55031250D02*
X231140000Y-54451250D01*
G04 #@! TD*
D13*
G04 #@! TO.C,MX44*
X252730000Y-57150000D03*
X242570000Y-57150000D03*
D14*
X248920000Y-62230000D03*
D15*
X246380000Y-62230000D03*
D16*
X245150000Y-53150000D03*
D17*
X247650000Y-57150000D03*
D16*
X244495001Y-53880000D03*
D18*
X243840000Y-54610000D02*
X245150002Y-53150000D01*
D16*
X250190000Y-52070000D03*
X250170000Y-52360000D03*
D18*
X250150000Y-52650000D02*
X250190000Y-52070000D01*
G04 #@! TD*
D16*
G04 #@! TO.C,MX45*
X269220000Y-54741250D03*
D18*
X269200000Y-55031250D02*
X269240000Y-54451250D01*
D16*
X269240000Y-54451250D03*
X263545001Y-56261250D03*
D18*
X262890000Y-56991250D02*
X264200002Y-55531250D01*
D17*
X266700000Y-59531250D03*
D16*
X264200000Y-55531250D03*
D15*
X265430000Y-64611250D03*
D14*
X267970000Y-64611250D03*
D13*
X261620000Y-59531250D03*
X271780000Y-59531250D03*
G04 #@! TD*
G04 #@! TO.C,MX46*
X290830000Y-64293750D03*
X280670000Y-64293750D03*
D14*
X287020000Y-69373750D03*
D15*
X284480000Y-69373750D03*
D16*
X283250000Y-60293750D03*
D17*
X285750000Y-64293750D03*
D16*
X282595001Y-61023750D03*
D18*
X281940000Y-61753750D02*
X283250002Y-60293750D01*
D16*
X288290000Y-59213750D03*
X288270000Y-59503750D03*
D18*
X288250000Y-59793750D02*
X288290000Y-59213750D01*
G04 #@! TD*
D16*
G04 #@! TO.C,MX47*
X307320000Y-59503750D03*
D18*
X307300000Y-59793750D02*
X307340000Y-59213750D01*
D16*
X307340000Y-59213750D03*
X301645001Y-61023750D03*
D18*
X300990000Y-61753750D02*
X302300002Y-60293750D01*
D17*
X304800000Y-64293750D03*
D16*
X302300000Y-60293750D03*
D15*
X303530000Y-69373750D03*
D14*
X306070000Y-69373750D03*
D13*
X299720000Y-64293750D03*
X309880000Y-64293750D03*
G04 #@! TD*
G04 #@! TO.C,MX48*
X328930000Y-69056250D03*
X318770000Y-69056250D03*
D14*
X325120000Y-74136250D03*
D15*
X322580000Y-74136250D03*
D16*
X321350000Y-65056250D03*
D17*
X323850000Y-69056250D03*
D16*
X320695001Y-65786250D03*
D18*
X320040000Y-66516250D02*
X321350002Y-65056250D01*
D16*
X326390000Y-63976250D03*
X326370000Y-64266250D03*
D18*
X326350000Y-64556250D02*
X326390000Y-63976250D01*
G04 #@! TD*
D16*
G04 #@! TO.C,MX49*
X212070000Y-76172500D03*
D18*
X212050000Y-76462500D02*
X212090000Y-75882500D01*
D16*
X212090000Y-75882500D03*
X206395001Y-77692500D03*
D18*
X205740000Y-78422500D02*
X207050002Y-76962500D01*
D17*
X209550000Y-80962500D03*
D16*
X207050000Y-76962500D03*
D15*
X208280000Y-86042500D03*
D14*
X210820000Y-86042500D03*
D13*
X204470000Y-80962500D03*
X214630000Y-80962500D03*
G04 #@! TD*
D16*
G04 #@! TO.C,MX50*
X231120000Y-73791250D03*
D18*
X231100000Y-74081250D02*
X231140000Y-73501250D01*
D16*
X231140000Y-73501250D03*
X225445001Y-75311250D03*
D18*
X224790000Y-76041250D02*
X226100002Y-74581250D01*
D17*
X228600000Y-78581250D03*
D16*
X226100000Y-74581250D03*
D15*
X227330000Y-83661250D03*
D14*
X229870000Y-83661250D03*
D13*
X223520000Y-78581250D03*
X233680000Y-78581250D03*
G04 #@! TD*
G04 #@! TO.C,MX51*
X252730000Y-76200000D03*
X242570000Y-76200000D03*
D14*
X248920000Y-81280000D03*
D15*
X246380000Y-81280000D03*
D16*
X245150000Y-72200000D03*
D17*
X247650000Y-76200000D03*
D16*
X244495001Y-72930000D03*
D18*
X243840000Y-73660000D02*
X245150002Y-72200000D01*
D16*
X250190000Y-71120000D03*
X250170000Y-71410000D03*
D18*
X250150000Y-71700000D02*
X250190000Y-71120000D01*
G04 #@! TD*
D16*
G04 #@! TO.C,MX52*
X269220000Y-73791250D03*
D18*
X269200000Y-74081250D02*
X269240000Y-73501250D01*
D16*
X269240000Y-73501250D03*
X263545001Y-75311250D03*
D18*
X262890000Y-76041250D02*
X264200002Y-74581250D01*
D17*
X266700000Y-78581250D03*
D16*
X264200000Y-74581250D03*
D15*
X265430000Y-83661250D03*
D14*
X267970000Y-83661250D03*
D13*
X261620000Y-78581250D03*
X271780000Y-78581250D03*
G04 #@! TD*
D16*
G04 #@! TO.C,MX53*
X288270000Y-78553750D03*
D18*
X288250000Y-78843750D02*
X288290000Y-78263750D01*
D16*
X288290000Y-78263750D03*
X282595001Y-80073750D03*
D18*
X281940000Y-80803750D02*
X283250002Y-79343750D01*
D17*
X285750000Y-83343750D03*
D16*
X283250000Y-79343750D03*
D15*
X284480000Y-88423750D03*
D14*
X287020000Y-88423750D03*
D13*
X280670000Y-83343750D03*
X290830000Y-83343750D03*
G04 #@! TD*
G04 #@! TO.C,MX54*
X309880000Y-83343750D03*
X299720000Y-83343750D03*
D14*
X306070000Y-88423750D03*
D15*
X303530000Y-88423750D03*
D16*
X302300000Y-79343750D03*
D17*
X304800000Y-83343750D03*
D16*
X301645001Y-80073750D03*
D18*
X300990000Y-80803750D02*
X302300002Y-79343750D01*
D16*
X307340000Y-78263750D03*
X307320000Y-78553750D03*
D18*
X307300000Y-78843750D02*
X307340000Y-78263750D01*
G04 #@! TD*
D16*
G04 #@! TO.C,MX55*
X326370000Y-83316250D03*
D18*
X326350000Y-83606250D02*
X326390000Y-83026250D01*
D16*
X326390000Y-83026250D03*
X320695001Y-84836250D03*
D18*
X320040000Y-85566250D02*
X321350002Y-84106250D01*
D17*
X323850000Y-88106250D03*
D16*
X321350000Y-84106250D03*
D15*
X322580000Y-93186250D03*
D14*
X325120000Y-93186250D03*
D13*
X318770000Y-88106250D03*
X328930000Y-88106250D03*
G04 #@! TD*
G04 #@! TO.C,MX56*
X214630000Y-100012500D03*
X204470000Y-100012500D03*
D14*
X210820000Y-105092500D03*
D15*
X208280000Y-105092500D03*
D16*
X207050000Y-96012500D03*
D17*
X209550000Y-100012500D03*
D16*
X206395001Y-96742500D03*
D18*
X205740000Y-97472500D02*
X207050002Y-96012500D01*
D16*
X212090000Y-94932500D03*
X212070000Y-95222500D03*
D18*
X212050000Y-95512500D02*
X212090000Y-94932500D01*
G04 #@! TD*
D16*
G04 #@! TO.C,MX57*
X231120000Y-92841250D03*
D18*
X231100000Y-93131250D02*
X231140000Y-92551250D01*
D16*
X231140000Y-92551250D03*
X225445001Y-94361250D03*
D18*
X224790000Y-95091250D02*
X226100002Y-93631250D01*
D17*
X228600000Y-97631250D03*
D16*
X226100000Y-93631250D03*
D15*
X227330000Y-102711250D03*
D14*
X229870000Y-102711250D03*
D13*
X223520000Y-97631250D03*
X233680000Y-97631250D03*
G04 #@! TD*
G04 #@! TO.C,MX58*
X252730000Y-95250000D03*
X242570000Y-95250000D03*
D14*
X248920000Y-100330000D03*
D15*
X246380000Y-100330000D03*
D16*
X245150000Y-91250000D03*
D17*
X247650000Y-95250000D03*
D16*
X244495001Y-91980000D03*
D18*
X243840000Y-92710000D02*
X245150002Y-91250000D01*
D16*
X250190000Y-90170000D03*
X250170000Y-90460000D03*
D18*
X250150000Y-90750000D02*
X250190000Y-90170000D01*
G04 #@! TD*
D16*
G04 #@! TO.C,MX59*
X269220000Y-92841250D03*
D18*
X269200000Y-93131250D02*
X269240000Y-92551250D01*
D16*
X269240000Y-92551250D03*
X263545001Y-94361250D03*
D18*
X262890000Y-95091250D02*
X264200002Y-93631250D01*
D17*
X266700000Y-97631250D03*
D16*
X264200000Y-93631250D03*
D15*
X265430000Y-102711250D03*
D14*
X267970000Y-102711250D03*
D13*
X261620000Y-97631250D03*
X271780000Y-97631250D03*
G04 #@! TD*
G04 #@! TO.C,MX60*
X290830000Y-102393750D03*
X280670000Y-102393750D03*
D14*
X287020000Y-107473750D03*
D15*
X284480000Y-107473750D03*
D16*
X283250000Y-98393750D03*
D17*
X285750000Y-102393750D03*
D16*
X282595001Y-99123750D03*
D18*
X281940000Y-99853750D02*
X283250002Y-98393750D01*
D16*
X288290000Y-97313750D03*
X288270000Y-97603750D03*
D18*
X288250000Y-97893750D02*
X288290000Y-97313750D01*
G04 #@! TD*
D16*
G04 #@! TO.C,MX61*
X307320000Y-97603750D03*
D18*
X307300000Y-97893750D02*
X307340000Y-97313750D01*
D16*
X307340000Y-97313750D03*
X301645001Y-99123750D03*
D18*
X300990000Y-99853750D02*
X302300002Y-98393750D01*
D17*
X304800000Y-102393750D03*
D16*
X302300000Y-98393750D03*
D15*
X303530000Y-107473750D03*
D14*
X306070000Y-107473750D03*
D13*
X299720000Y-102393750D03*
X309880000Y-102393750D03*
G04 #@! TD*
G04 #@! TO.C,MX62*
X328930000Y-107156250D03*
X318770000Y-107156250D03*
D14*
X325120000Y-112236250D03*
D15*
X322580000Y-112236250D03*
D16*
X321350000Y-103156250D03*
D17*
X323850000Y-107156250D03*
D16*
X320695001Y-103886250D03*
D18*
X320040000Y-104616250D02*
X321350002Y-103156250D01*
D16*
X326390000Y-102076250D03*
X326370000Y-102366250D03*
D18*
X326350000Y-102656250D02*
X326390000Y-102076250D01*
G04 #@! TD*
D13*
G04 #@! TO.C,MX64*
X223842867Y-118064194D03*
X214180133Y-121203806D03*
D15*
X221789148Y-124072916D03*
D25*
G36*
X221049197Y-125525151D02*
X220336913Y-123332965D01*
X222529099Y-122620681D01*
X223241383Y-124812867D01*
X221049197Y-125525151D01*
X221049197Y-125525151D01*
G37*
D15*
X219373465Y-124857819D03*
D16*
X215397791Y-116602316D03*
D17*
X219011500Y-119634000D03*
D16*
X215000432Y-117498994D03*
D18*
X214603072Y-118395671D02*
X215397792Y-116602317D01*
D16*
X219857377Y-114017730D03*
X219927971Y-114299716D03*
D18*
X219998565Y-114581703D02*
X219857377Y-114017729D01*
G04 #@! TD*
D13*
G04 #@! TO.C,MX65*
X252730000Y-114300000D03*
X242570000Y-114300000D03*
D14*
X248920000Y-119380000D03*
D15*
X246380000Y-119380000D03*
D16*
X245150000Y-110300000D03*
D17*
X247650000Y-114300000D03*
D16*
X244495001Y-111030000D03*
D18*
X243840000Y-111760000D02*
X245150002Y-110300000D01*
D16*
X250190000Y-109220000D03*
X250170000Y-109510000D03*
D18*
X250150000Y-109800000D02*
X250190000Y-109220000D01*
G04 #@! TD*
D16*
G04 #@! TO.C,MX66*
X269220000Y-111891250D03*
D18*
X269200000Y-112181250D02*
X269240000Y-111601250D01*
D16*
X269240000Y-111601250D03*
X263545001Y-113411250D03*
D18*
X262890000Y-114141250D02*
X264200002Y-112681250D01*
D17*
X266700000Y-116681250D03*
D16*
X264200000Y-112681250D03*
D15*
X265430000Y-121761250D03*
D14*
X267970000Y-121761250D03*
D13*
X261620000Y-116681250D03*
X271780000Y-116681250D03*
G04 #@! TD*
D16*
G04 #@! TO.C,MX67*
X288270000Y-116653750D03*
D18*
X288250000Y-116943750D02*
X288290000Y-116363750D01*
D16*
X288290000Y-116363750D03*
X282595001Y-118173750D03*
D18*
X281940000Y-118903750D02*
X283250002Y-117443750D01*
D17*
X285750000Y-121443750D03*
D16*
X283250000Y-117443750D03*
D15*
X284480000Y-126523750D03*
D14*
X287020000Y-126523750D03*
D13*
X280670000Y-121443750D03*
X290830000Y-121443750D03*
G04 #@! TD*
D34*
G04 #@! TO.C,Q2*
X207962500Y-109109000D03*
X207012500Y-111109000D03*
X208912500Y-111109000D03*
G04 #@! TD*
D27*
G04 #@! TO.C,R45*
X224250250Y-109603500D03*
X224250250Y-111503500D03*
G04 #@! TD*
G04 #@! TO.C,R46*
X202406250Y-49368750D03*
X202406250Y-47468750D03*
G04 #@! TD*
G04 #@! TO.C,R47*
X235743750Y-46987500D03*
X235743750Y-45087500D03*
G04 #@! TD*
G04 #@! TO.C,R48*
X254793750Y-42706250D03*
X254793750Y-44606250D03*
G04 #@! TD*
G04 #@! TO.C,R49*
X273843750Y-46987500D03*
X273843750Y-45087500D03*
G04 #@! TD*
G04 #@! TO.C,R50*
X292893750Y-49850000D03*
X292893750Y-51750000D03*
G04 #@! TD*
G04 #@! TO.C,R51*
X310324500Y-51374000D03*
X310324500Y-53274000D03*
G04 #@! TD*
G04 #@! TO.C,R52*
X311943750Y-57787500D03*
X311943750Y-59687500D03*
G04 #@! TD*
G04 #@! TO.C,R53*
X216693750Y-68418750D03*
X216693750Y-66518750D03*
G04 #@! TD*
G04 #@! TO.C,R54*
X235743750Y-64137500D03*
X235743750Y-66037500D03*
G04 #@! TD*
G04 #@! TO.C,R55*
X254793750Y-63656250D03*
X254793750Y-61756250D03*
G04 #@! TD*
G04 #@! TO.C,R56*
X273843750Y-64137500D03*
X273843750Y-66037500D03*
G04 #@! TD*
G04 #@! TO.C,R57*
X292893750Y-70800000D03*
X292893750Y-68900000D03*
G04 #@! TD*
G04 #@! TO.C,R58*
X304006250Y-74768750D03*
X304006250Y-72868750D03*
G04 #@! TD*
G04 #@! TO.C,R59*
X310073000Y-72868750D03*
X310073000Y-74768750D03*
G04 #@! TD*
G04 #@! TO.C,R60*
X216693750Y-85568750D03*
X216693750Y-87468750D03*
G04 #@! TD*
G04 #@! TO.C,R61*
X235743750Y-85087500D03*
X235743750Y-83187500D03*
G04 #@! TD*
G04 #@! TO.C,R62*
X254793750Y-80806250D03*
X254793750Y-82706250D03*
G04 #@! TD*
G04 #@! TO.C,R63*
X273843750Y-85087500D03*
X273843750Y-83187500D03*
G04 #@! TD*
G04 #@! TO.C,R64*
X292893750Y-87950000D03*
X292893750Y-89850000D03*
G04 #@! TD*
G04 #@! TO.C,R65*
X311943750Y-91437500D03*
X311943750Y-89537500D03*
G04 #@! TD*
G04 #@! TO.C,R66*
X315118750Y-89537500D03*
X315118750Y-91437500D03*
G04 #@! TD*
G04 #@! TO.C,R67*
X240919000Y-122235000D03*
X240919000Y-120335000D03*
G04 #@! TD*
G04 #@! TO.C,R68*
X216693750Y-104618750D03*
X216693750Y-106518750D03*
G04 #@! TD*
G04 #@! TO.C,R69*
X235870750Y-104137500D03*
X235870750Y-102237500D03*
G04 #@! TD*
G04 #@! TO.C,R70*
X254793750Y-99856250D03*
X254793750Y-101756250D03*
G04 #@! TD*
G04 #@! TO.C,R71*
X273843750Y-104137500D03*
X273843750Y-102237500D03*
G04 #@! TD*
G04 #@! TO.C,R72*
X292893750Y-107000000D03*
X292893750Y-108900000D03*
G04 #@! TD*
G04 #@! TO.C,R73*
X315118750Y-105725000D03*
X315118750Y-103825000D03*
G04 #@! TD*
G04 #@! TO.C,R74*
X315912500Y-113350000D03*
X315912500Y-115250000D03*
G04 #@! TD*
G04 #@! TO.C,R75*
X207168750Y-130331250D03*
X207168750Y-128431250D03*
G04 #@! TD*
G04 #@! TO.C,R76*
X211931250Y-130331250D03*
X211931250Y-128431250D03*
G04 #@! TD*
G04 #@! TO.C,R77*
X254793750Y-120806250D03*
X254793750Y-118906250D03*
G04 #@! TD*
G04 #@! TO.C,R78*
X273843750Y-121287500D03*
X273843750Y-123187500D03*
G04 #@! TD*
G04 #@! TO.C,R79*
X278606250Y-127950000D03*
X278606250Y-126050000D03*
G04 #@! TD*
G04 #@! TO.C,R80*
X311943750Y-126050000D03*
X311943750Y-127950000D03*
G04 #@! TD*
G04 #@! TO.C,R81*
X212026500Y-111059000D03*
X212026500Y-109159000D03*
G04 #@! TD*
D26*
G04 #@! TO.C,R82*
X323916000Y-116713000D03*
X325816000Y-116713000D03*
G04 #@! TD*
D27*
G04 #@! TO.C,R83*
X220662500Y-44606250D03*
X220662500Y-42706250D03*
G04 #@! TD*
G04 #@! TO.C,R84*
X217487500Y-42706250D03*
X217487500Y-44606250D03*
G04 #@! TD*
G04 #@! TO.C,R85*
X235743750Y-33975000D03*
X235743750Y-35875000D03*
G04 #@! TD*
D26*
G04 #@! TO.C,R86*
X207012500Y-34925000D03*
X208912500Y-34925000D03*
G04 #@! TD*
D37*
G04 #@! TO.C,U3*
X230557000Y-118459750D03*
X230557000Y-117959750D03*
X230557000Y-117459750D03*
X230557000Y-116959750D03*
X230557000Y-116459750D03*
X230557000Y-115959750D03*
X230557000Y-115459750D03*
X230557000Y-114959750D03*
X230557000Y-114459750D03*
X230557000Y-113959750D03*
X230557000Y-113459750D03*
D36*
X231457000Y-112559750D03*
X231957000Y-112559750D03*
X232457000Y-112559750D03*
X232957000Y-112559750D03*
X233457000Y-112559750D03*
X233957000Y-112559750D03*
X234457000Y-112559750D03*
X234957000Y-112559750D03*
X235457000Y-112559750D03*
X235957000Y-112559750D03*
X236457000Y-112559750D03*
D37*
X237357000Y-113459750D03*
X237357000Y-113959750D03*
X237357000Y-114459750D03*
X237357000Y-114959750D03*
X237357000Y-115459750D03*
X237357000Y-115959750D03*
X237357000Y-116459750D03*
X237357000Y-116959750D03*
X237357000Y-117459750D03*
X237357000Y-117959750D03*
X237357000Y-118459750D03*
D36*
X236457000Y-119359750D03*
X235957000Y-119359750D03*
X235457000Y-119359750D03*
X234957000Y-119359750D03*
X234457000Y-119359750D03*
X233957000Y-119359750D03*
X233457000Y-119359750D03*
X232957000Y-119359750D03*
X232457000Y-119359750D03*
X231957000Y-119359750D03*
X231457000Y-119359750D03*
D35*
X235888250Y-114028500D03*
X235888250Y-115316000D03*
X235888250Y-116603500D03*
X235888250Y-117891000D03*
X234600750Y-114028500D03*
X234600750Y-115316000D03*
X234600750Y-116603500D03*
X234600750Y-117891000D03*
X233313250Y-114028500D03*
X233313250Y-115316000D03*
X233313250Y-116603500D03*
X233313250Y-117891000D03*
X232025750Y-114028500D03*
X232025750Y-115316000D03*
X232025750Y-116603500D03*
X232025750Y-117891000D03*
G04 #@! TD*
D28*
G04 #@! TO.C,USB2*
X223395000Y-29587500D03*
X214755000Y-29587500D03*
D29*
X223395000Y-33767500D03*
X214755000Y-33767500D03*
D30*
X216185000Y-33237500D03*
X221965000Y-33237500D03*
D31*
X218825000Y-34682500D03*
X219325000Y-34682500D03*
X219825000Y-34682500D03*
X218325000Y-34682500D03*
X220325000Y-34682500D03*
X217825000Y-34682500D03*
X220825000Y-34682500D03*
X217325000Y-34682500D03*
D32*
X216625000Y-34682500D03*
X221525000Y-34682500D03*
X215850000Y-34682500D03*
X222300000Y-34682500D03*
G04 #@! TD*
D16*
G04 #@! TO.C,MX68*
X307320000Y-116653750D03*
D18*
X307300000Y-116943750D02*
X307340000Y-116363750D01*
D16*
X307340000Y-116363750D03*
X301645001Y-118173750D03*
D18*
X300990000Y-118903750D02*
X302300002Y-117443750D01*
D17*
X304800000Y-121443750D03*
D16*
X302300000Y-117443750D03*
D15*
X303530000Y-126523750D03*
D14*
X306070000Y-126523750D03*
D13*
X299720000Y-121443750D03*
X309880000Y-121443750D03*
G04 #@! TD*
D41*
G04 #@! TO.C,Y1*
X127141000Y-121223000D03*
X128891000Y-121223000D03*
X128891000Y-119823000D03*
X127141000Y-119823000D03*
G04 #@! TD*
G04 #@! TO.C,Y2*
X234586750Y-107250000D03*
X232836750Y-107250000D03*
X232836750Y-108650000D03*
X234586750Y-108650000D03*
G04 #@! TD*
D38*
G04 #@! TO.C,C1*
X124587000Y-119773000D03*
X124587000Y-121273000D03*
G04 #@! TD*
D42*
G04 #@! TO.C,MH1*
X106362500Y-69056250D03*
G04 #@! TD*
G04 #@! TO.C,MH2*
X257175000Y-69056250D03*
G04 #@! TD*
D27*
G04 #@! TO.C,R87*
X120904000Y-120462000D03*
X120904000Y-122362000D03*
G04 #@! TD*
D26*
G04 #@! TO.C,R88*
X243266000Y-106426000D03*
X241366000Y-106426000D03*
G04 #@! TD*
D40*
G04 #@! TO.C,J7*
X39687500Y-31210250D03*
X38417500Y-31210250D03*
X37147500Y-31210250D03*
X40957500Y-31210250D03*
X42227500Y-31210250D03*
G04 #@! TD*
G04 #@! TO.C,J14*
X326390000Y-31210250D03*
X325120000Y-31210250D03*
X321310000Y-31210250D03*
X322580000Y-31210250D03*
X323850000Y-31210250D03*
G04 #@! TD*
D17*
G04 #@! TO.C,MXE-1*
X47942500Y-47593250D03*
X47942500Y-71469250D03*
D43*
X32702500Y-47593250D03*
X32702500Y-71469250D03*
D13*
X39687500Y-54451250D03*
X39687500Y-64611250D03*
D14*
X44767500Y-58261250D03*
D15*
X44767500Y-60801250D03*
D16*
X35687500Y-62031250D03*
D17*
X39687500Y-59531250D03*
D16*
X36417500Y-62686249D03*
D18*
X37147500Y-63341250D02*
X35687500Y-62031248D01*
D16*
X34607500Y-56991250D03*
X34897500Y-57011250D03*
D18*
X35187500Y-57031250D02*
X34607500Y-56991250D01*
G04 #@! TD*
D16*
G04 #@! TO.C,MXE-2*
X34897500Y-95111250D03*
D18*
X35187500Y-95131250D02*
X34607500Y-95091250D01*
D16*
X34607500Y-95091250D03*
X36417500Y-100786249D03*
D18*
X37147500Y-101441250D02*
X35687500Y-100131248D01*
D17*
X39687500Y-97631250D03*
D16*
X35687500Y-100131250D03*
D15*
X44767500Y-98901250D03*
D14*
X44767500Y-96361250D03*
D13*
X39687500Y-102711250D03*
X39687500Y-92551250D03*
D43*
X32702500Y-109569250D03*
X32702500Y-85693250D03*
D17*
X47942500Y-109569250D03*
X47942500Y-85693250D03*
G04 #@! TD*
D16*
G04 #@! TO.C,MXE-3*
X70782500Y-116653750D03*
D18*
X70762500Y-116943750D02*
X70802500Y-116363750D01*
D16*
X70802500Y-116363750D03*
X65107501Y-118173750D03*
D18*
X64452500Y-118903750D02*
X65762502Y-117443750D01*
D17*
X68262500Y-121443750D03*
D16*
X65762500Y-117443750D03*
D15*
X66992500Y-126523750D03*
D14*
X69532500Y-126523750D03*
D13*
X63182500Y-121443750D03*
X73342500Y-121443750D03*
D43*
X56324500Y-128428750D03*
X80200500Y-128428750D03*
D17*
X56324500Y-113188750D03*
X80200500Y-113188750D03*
G04 #@! TD*
D16*
G04 #@! TO.C,MXE-4*
X319060000Y-57011250D03*
D18*
X319350000Y-57031250D02*
X318770000Y-56991250D01*
D16*
X318770000Y-56991250D03*
X320580000Y-62686249D03*
D18*
X321310000Y-63341250D02*
X319850000Y-62031248D01*
D17*
X323850000Y-59531250D03*
D16*
X319850000Y-62031250D03*
D15*
X328930000Y-60801250D03*
D14*
X328930000Y-58261250D03*
D13*
X323850000Y-64611250D03*
X323850000Y-54451250D03*
D43*
X330835000Y-71469250D03*
X330835000Y-47593250D03*
D17*
X315595000Y-71469250D03*
X315595000Y-47593250D03*
G04 #@! TD*
G04 #@! TO.C,MXE-5*
X315595000Y-85693250D03*
X315595000Y-109569250D03*
D43*
X330835000Y-85693250D03*
X330835000Y-109569250D03*
D13*
X323850000Y-92551250D03*
X323850000Y-102711250D03*
D14*
X328930000Y-96361250D03*
D15*
X328930000Y-98901250D03*
D16*
X319850000Y-100131250D03*
D17*
X323850000Y-97631250D03*
D16*
X320580000Y-100786249D03*
D18*
X321310000Y-101441250D02*
X319850000Y-100131248D01*
D16*
X318770000Y-95091250D03*
X319060000Y-95111250D03*
D18*
X319350000Y-95131250D02*
X318770000Y-95091250D01*
G04 #@! TD*
D16*
G04 #@! TO.C,MXE-6*
X297795000Y-116653750D03*
D18*
X297775000Y-116943750D02*
X297815000Y-116363750D01*
D16*
X297815000Y-116363750D03*
X292120001Y-118173750D03*
D18*
X291465000Y-118903750D02*
X292775002Y-117443750D01*
D17*
X295275000Y-121443750D03*
D16*
X292775000Y-117443750D03*
D15*
X294005000Y-126523750D03*
D14*
X296545000Y-126523750D03*
D13*
X290195000Y-121443750D03*
X300355000Y-121443750D03*
D43*
X283337000Y-128428750D03*
X307213000Y-128428750D03*
D17*
X283337000Y-113188750D03*
X307213000Y-113188750D03*
G04 #@! TD*
D16*
G04 #@! TO.C,MXA1*
X169306102Y-126453936D03*
X167239114Y-131034064D03*
G04 #@! TD*
G04 #@! TO.C,MXA2*
X193798387Y-126703936D03*
X196731398Y-130784064D03*
G04 #@! TD*
G04 #@! TO.C,MX34*
X169331705Y-123489591D03*
D17*
X164592000Y-126619000D03*
D16*
X162562443Y-122514295D03*
D15*
X160952148Y-130383409D03*
X163151852Y-131653409D03*
D25*
G36*
X161577508Y-132075253D02*
X162730008Y-130079065D01*
X164726196Y-131231565D01*
X163573696Y-133227753D01*
X161577508Y-132075253D01*
X161577508Y-132075253D01*
G37*
D13*
X160192591Y-124079000D03*
X168991409Y-129159000D03*
G04 #@! TD*
G04 #@! TO.C,MX63*
X203344909Y-124079000D03*
X194546091Y-129159000D03*
D15*
X202585352Y-130383409D03*
D25*
G36*
X202163508Y-131957753D02*
X201011008Y-129961565D01*
X203007196Y-128809065D01*
X204159696Y-130805253D01*
X202163508Y-131957753D01*
X202163508Y-131957753D01*
G37*
D15*
X200385648Y-131653409D03*
D16*
X194375943Y-126324295D03*
D17*
X198945500Y-126619000D03*
D16*
X198605205Y-120949591D03*
G04 #@! TD*
D26*
G04 #@! TO.C,R89*
X42738000Y-116681250D03*
X44638000Y-116681250D03*
G04 #@! TD*
G04 #@! TO.C,R90*
X34732000Y-116681250D03*
X32832000Y-116681250D03*
G04 #@! TD*
G04 #@! TO.C,R91*
X318931250Y-116713000D03*
X320831250Y-116713000D03*
G04 #@! TD*
G04 #@! TO.C,R92*
X330769000Y-116713000D03*
X328869000Y-116713000D03*
G04 #@! TD*
D44*
G04 #@! TO.C,SW1*
X175241679Y-122786147D03*
D25*
G36*
X176569307Y-122686628D02*
X175819307Y-123985666D01*
X173914051Y-122885666D01*
X174664051Y-121586628D01*
X176569307Y-122686628D01*
X176569307Y-122686628D01*
G37*
D44*
X171722321Y-116481853D03*
D25*
G36*
X173049949Y-116382334D02*
X172299949Y-117681372D01*
X170394693Y-116581372D01*
X171144693Y-115282334D01*
X173049949Y-116382334D01*
X173049949Y-116382334D01*
G37*
D44*
X177091679Y-119581853D03*
D25*
G36*
X178419307Y-119482334D02*
X177669307Y-120781372D01*
X175764051Y-119681372D01*
X176514051Y-118382334D01*
X178419307Y-119482334D01*
X178419307Y-119482334D01*
G37*
D44*
X169872321Y-119686147D03*
D25*
G36*
X171199949Y-119586628D02*
X170449949Y-120885666D01*
X168544693Y-119785666D01*
X169294693Y-118486628D01*
X171199949Y-119586628D01*
X171199949Y-119586628D01*
G37*
G04 #@! TD*
D44*
G04 #@! TO.C,SW2*
X192259679Y-116608853D03*
D25*
G36*
X191682051Y-117808372D02*
X190932051Y-116509334D01*
X192837307Y-115409334D01*
X193587307Y-116708372D01*
X191682051Y-117808372D01*
X191682051Y-117808372D01*
G37*
D44*
X188740321Y-122913147D03*
D25*
G36*
X188162693Y-124112666D02*
X187412693Y-122813628D01*
X189317949Y-121713628D01*
X190067949Y-123012666D01*
X188162693Y-124112666D01*
X188162693Y-124112666D01*
G37*
D44*
X194109679Y-119813147D03*
D25*
G36*
X193532051Y-121012666D02*
X192782051Y-119713628D01*
X194687307Y-118613628D01*
X195437307Y-119912666D01*
X193532051Y-121012666D01*
X193532051Y-121012666D01*
G37*
D44*
X186890321Y-119708853D03*
D25*
G36*
X186312693Y-120908372D02*
X185562693Y-119609334D01*
X187467949Y-118509334D01*
X188217949Y-119808372D01*
X186312693Y-120908372D01*
X186312693Y-120908372D01*
G37*
G04 #@! TD*
M02*
