M48
;DRILL file {KiCad (5.0.0)} date 09/10/18 00:18:15
;FORMAT={-:-/ absolute / inch / decimal}
FMAT,2
INCH,TZ
T1C0.0157
T2C0.0236
T3C0.0354
T4C0.0394
T5C0.0409
T6C0.0579
%
G90
G05
M72
T1
X1.295Y-2.925
X1.3Y-3.615
X1.305Y-2.08
X1.37Y-4.49
X1.47Y-2.785
X1.565Y-4.53
X1.94Y-1.695
X1.995Y-3.855
X2.005Y-3.655
X2.02Y-2.855
X2.04Y-3.855
X2.09Y-2.085
X2.11Y-2.965
X2.165Y-4.305
X2.425Y-4.46
X2.475Y-1.98
X2.69Y-4.675
X2.9Y-5.12
X2.92Y-4.425
X3.23Y-1.98
X3.38Y-5.12
X3.67Y-4.195
X3.98Y-1.795
X3.99Y-4.05
X4.045Y-4.45
X4.09Y-4.28
X4.17Y-4.025
X4.315Y-4.58
X4.33Y-4.68
X4.35Y-3.92
X4.35Y-3.965
X4.42Y-4.145
X4.695Y-4.51
X4.695Y-4.815
X4.705Y-4.595
X4.705Y-4.64
X4.725Y-4.405
X4.73Y-1.7
X4.765Y-3.965
X4.765Y-4.405
X4.785Y-3.545
X4.785Y-3.59
X4.835Y-1.835
X4.84Y-4.125
X4.905Y-4.12
X4.905Y-4.625
X4.95Y-4.625
X4.965Y-4.12
X5.Y-1.4375
X5.Y-1.595
X5.Y-2.335
X5.Y-3.865
X5.Y-4.09
X5.02Y-3.085
X5.03Y-4.06
X5.04Y-3.515
X5.06Y-4.03
X5.085Y-3.515
X5.09Y-4.18
X5.18Y-4.275
X5.185Y-4.595
X5.275Y-4.2
X5.34Y-4.38
X5.355Y-4.515
X5.37Y-4.14
X5.38Y-4.66
X5.405Y-4.61
X5.41Y-4.795
X5.415Y-1.295
X5.46Y-4.825
X5.465Y-4.56
X5.49Y-1.68
X5.49Y-1.73
X5.495Y-4.215
X5.53Y-4.25
X5.58Y-1.475
X5.615Y-4.32
X5.63Y-1.435
X5.66Y-4.275
X5.66Y-4.32
X5.665Y-1.82
X5.71Y-1.82
X5.73Y-4.195
X5.745Y-1.435
X5.785Y-4.035
X5.79Y-1.465
X5.8Y-2.005
X5.825Y-4.05
X5.875Y-2.85
X5.875Y-3.585
X5.875Y-4.87
X5.88Y-5.
X5.9Y-1.435
X5.91Y-5.085
X5.93Y-1.73
X5.93Y-1.78
X5.97Y-4.78
X6.145Y-4.95
X6.2188Y-5.0563
X6.27Y-2.615
X6.27Y-3.365
X6.27Y-4.115
X6.325Y-5.295
X6.37Y-5.4
X6.385Y-5.34
X6.58Y-5.28
X6.615Y-4.65
X6.625Y-5.28
X6.91Y-4.67
X7.6375Y-5.22
X7.805Y-4.635
X7.83Y-4.345
X7.85Y-4.635
X7.8575Y-5.09
X7.865Y-4.38
X7.9325Y-2.145
X7.9375Y-5.31
X7.98Y-4.26
X8.0075Y-2.02
X8.0275Y-5.285
X8.0275Y-5.415
X8.0375Y-2.71
X8.0375Y-3.49
X8.0475Y-4.085
X8.085Y-4.605
X8.0875Y-5.045
X8.1625Y-4.89
X8.1625Y-4.95
X8.2075Y-4.48
X8.3425Y-1.77
X8.3575Y-4.68
X8.3775Y-1.375
X8.4175Y-5.055
X8.42Y-4.89
X8.4225Y-1.825
X8.4275Y-4.985
X8.43Y-3.405
X8.4425Y-4.265
X8.4475Y-4.01
X8.4475Y-4.095
X8.49Y-4.805
X8.4975Y-4.96
X8.5225Y-1.475
X8.525Y-5.115
X8.5325Y-2.44
X8.5325Y-4.89
X8.5525Y-3.19
X8.5725Y-1.435
X8.5725Y-3.94
X8.575Y-3.565
X8.59Y-4.595
X8.6025Y-1.82
X8.635Y-4.595
X8.6475Y-1.82
X8.6825Y-1.435
X8.7225Y-1.465
X8.73Y-4.63
X8.765Y-4.6
X8.775Y-1.82
X8.82Y-4.53
X8.8275Y-4.26
X8.8675Y-1.685
X8.8675Y-1.73
X8.8725Y-4.115
X8.89Y-4.23
X8.9075Y-1.295
X8.9075Y-4.595
X8.915Y-4.935
X8.9175Y-4.795
X8.95Y-4.595
X8.965Y-4.655
X8.9681Y-1.3294
X8.9775Y-2.03
X8.9975Y-4.51
X9.025Y-4.675
X9.0675Y-4.425
X9.115Y-4.78
X9.16Y-4.76
X9.2675Y-4.365
X9.28Y-4.855
X9.3125Y-4.365
X9.3325Y-1.72
X9.3325Y-2.47
X9.3325Y-3.22
X9.3325Y-3.97
X9.355Y-4.365
X9.39Y-4.755
X9.395Y-4.425
X9.4725Y-1.67
X9.4725Y-4.58
X9.5025Y-4.415
X9.5025Y-4.61
X9.555Y-4.82
X9.59Y-4.61
X9.7475Y-4.26
X9.9175Y-1.7
X9.9375Y-4.64
X9.96Y-4.43
X9.965Y-4.115
X10.085Y-4.625
X10.1175Y-4.68
X10.1275Y-3.255
X10.1325Y-3.99
X10.6675Y-1.8
X10.6725Y-4.915
X10.7725Y-4.39
X10.8775Y-4.895
X10.9525Y-4.605
X11.0275Y-4.605
X11.2825Y-4.455
X11.4175Y-1.985
X11.4425Y-5.105
X11.6175Y-4.47
X11.64Y-4.235
X11.67Y-3.67
X11.69Y-4.3
X12.2275Y-4.415
X12.2775Y-1.685
X12.2975Y-2.205
X12.3425Y-1.965
X12.3525Y-2.275
X12.355Y-4.405
X12.4075Y-4.025
X12.7525Y-2.61
X12.9875Y-3.095
T3
X1.5241Y-4.7199
X1.5241Y-4.8199
X1.3273Y-4.7199
X1.3273Y-4.8199
X1.721Y-4.7199
X1.721Y-4.8199
X12.9852Y-4.7199
X12.9852Y-4.8199
X12.7884Y-4.7199
X12.7884Y-4.8199
X12.5915Y-4.7199
X12.5915Y-4.8199
T4
X7.7192Y-5.3884
X7.7692Y-5.475
X7.8058Y-5.3384
X7.8192Y-5.5616
X7.8558Y-5.425
X7.9058Y-5.5116
X6.4117Y-5.5116
X6.4617Y-5.425
X6.4983Y-5.5616
X6.5117Y-5.3384
X6.5483Y-5.475
X6.5983Y-5.3884
T5
X5.2625Y-1.7937
X5.3625Y-1.7937
X4.5125Y-1.7
X4.6125Y-1.7
X4.5125Y-3.2
X4.6125Y-3.2
X5.5806Y-4.8848
X5.6757Y-4.9157
X4.5125Y-2.45
X4.6125Y-2.45
X9.7Y-2.45
X9.8Y-2.45
X11.2Y-2.7312
X11.3Y-2.7312
X11.2Y-1.9812
X11.3Y-1.9812
X10.45Y-4.7938
X10.55Y-4.7938
X8.95Y-4.0438
X9.05Y-4.0438
X11.2Y-4.2313
X11.3Y-4.2313
X1.5125Y-2.9187
X1.6125Y-2.9187
X3.7625Y-1.7937
X3.8625Y-1.7937
X4.5125Y-4.7
X4.6125Y-4.7
X1.5125Y-4.4188
X1.6125Y-4.4188
X2.2625Y-1.9812
X2.3625Y-1.9812
X2.2625Y-4.9813
X2.3625Y-4.9813
X6.0125Y-2.6375
X6.1125Y-2.6375
X12.95Y-2.2937
X12.95Y-2.3937
X12.7Y-4.4188
X12.8Y-4.4188
X8.95Y-3.2937
X9.05Y-3.2937
X10.45Y-1.7937
X10.55Y-1.7937
X12.7Y-2.9187
X12.8Y-2.9187
X11.2Y-3.4812
X11.3Y-3.4812
X11.95Y-4.9813
X12.05Y-4.9813
X2.2625Y-2.7312
X2.3625Y-2.7312
X5.2625Y-3.2937
X5.3625Y-3.2937
X5.2625Y-4.0438
X5.3625Y-4.0438
X5.2625Y-2.5437
X5.3625Y-2.5437
X12.95Y-3.7937
X12.95Y-3.8937
X9.7Y-4.7
X9.8Y-4.7
X11.95Y-4.2313
X12.05Y-4.2313
X3.0125Y-4.2313
X3.1125Y-4.2313
X3.0125Y-1.9812
X3.1125Y-1.9812
X3.7625Y-3.2937
X3.8625Y-3.2937
X3.7625Y-4.7938
X3.8625Y-4.7938
X3.7625Y-2.5437
X3.8625Y-2.5437
X8.95Y-1.7937
X9.05Y-1.7937
X12.7Y-3.6687
X12.8Y-3.6687
X1.7625Y-2.2937
X1.7625Y-2.3937
X11.2Y-4.9813
X11.3Y-4.9813
X8.95Y-2.5437
X9.05Y-2.5437
X9.7Y-1.7
X9.8Y-1.7
X8.2Y-4.1375
X8.3Y-4.1375
X3.0125Y-2.7312
X3.1125Y-2.7312
X6.0125Y-4.1375
X6.1125Y-4.1375
X3.0125Y-3.4812
X3.1125Y-3.4812
X3.0125Y-4.9813
X3.1125Y-4.9813
X11.575Y-4.9813
X11.675Y-4.9813
X10.45Y-2.5437
X10.55Y-2.5437
X1.7625Y-3.7937
X1.7625Y-3.8937
X8.6368Y-4.9157
X8.7319Y-4.8848
X12.7Y-2.1687
X12.8Y-2.1687
X2.2625Y-4.2313
X2.3625Y-4.2313
X1.5125Y-2.1687
X1.6125Y-2.1687
X7.8892Y-5.1832
X7.9758Y-5.1332
X2.2625Y-3.4812
X2.3625Y-3.4812
X11.95Y-2.7312
X12.05Y-2.7312
X8.2Y-2.6375
X8.3Y-2.6375
X9.7Y-3.2
X9.8Y-3.2
X8.2Y-1.8875
X8.3Y-1.8875
X10.45Y-3.2937
X10.55Y-3.2937
X10.45Y-4.0438
X10.55Y-4.0438
X3.7625Y-4.0438
X3.8625Y-4.0438
X6.0125Y-3.3875
X6.1125Y-3.3875
X1.5125Y-3.6687
X1.6125Y-3.6687
X4.5125Y-3.95
X4.6125Y-3.95
X6.3367Y-5.1332
X6.4233Y-5.1832
X6.0125Y-1.8875
X6.1125Y-1.8875
X2.6375Y-4.9813
X2.7375Y-4.9813
X11.95Y-3.4812
X12.05Y-3.4812
X11.95Y-1.9812
X12.05Y-1.9812
X8.2Y-3.3875
X8.3Y-3.3875
X9.7Y-3.95
X9.8Y-3.95
T6
X11.85Y-4.6812
X11.9016Y-4.6238
X12.0984Y-4.6041
X12.1Y-4.5812
X2.1625Y-2.4312
X2.2141Y-2.3738
X2.4109Y-2.3541
X2.4125Y-2.3312
X5.1625Y-2.9937
X5.2141Y-2.9363
X5.4109Y-2.9166
X5.4125Y-2.8937
X5.1625Y-3.7437
X5.2141Y-3.6863
X5.4109Y-3.6666
X5.4125Y-3.6437
X5.1625Y-2.2437
X5.2141Y-2.1863
X5.4109Y-2.1666
X5.4125Y-2.1437
X12.55Y-3.7437
X12.5728Y-3.7453
X12.5925Y-3.9422
X12.65Y-3.9937
X9.6Y-4.4
X9.6516Y-4.3425
X9.8484Y-4.3228
X9.85Y-4.3
X11.85Y-3.9312
X11.9016Y-3.8738
X12.0984Y-3.8541
X12.1Y-3.8312
X2.9125Y-3.9312
X2.9641Y-3.8738
X3.1609Y-3.8541
X3.1625Y-3.8312
X2.9125Y-1.6812
X2.9641Y-1.6238
X3.1609Y-1.6041
X3.1625Y-1.5813
X3.6625Y-2.9937
X3.7141Y-2.9363
X3.9109Y-2.9166
X3.9125Y-2.8937
X3.6625Y-4.4937
X3.7141Y-4.4363
X3.9109Y-4.4166
X3.9125Y-4.3937
X3.6625Y-2.2437
X3.7141Y-2.1863
X3.9109Y-2.1666
X3.9125Y-2.1437
X8.85Y-1.4937
X8.9016Y-1.4363
X9.0984Y-1.4166
X9.1Y-1.3938
X12.6Y-3.3687
X12.6516Y-3.3113
X12.8484Y-3.2916
X12.85Y-3.2687
X1.3625Y-2.2437
X1.3853Y-2.2453
X1.405Y-2.4422
X1.4625Y-2.4937
X11.1Y-4.6812
X11.1516Y-4.6238
X11.3484Y-4.6041
X11.35Y-4.5812
X8.85Y-2.2437
X8.9016Y-2.1863
X9.0984Y-2.1666
X9.1Y-2.1437
X9.6Y-1.4
X9.6516Y-1.3425
X9.8484Y-1.3228
X9.85Y-1.3
X8.1Y-3.8375
X8.1516Y-3.78
X8.3484Y-3.7603
X8.35Y-3.7375
X2.9125Y-2.4312
X2.9641Y-2.3738
X3.1609Y-2.3541
X3.1625Y-2.3312
X5.9125Y-3.8375
X5.9641Y-3.78
X6.1609Y-3.7603
X6.1625Y-3.7375
X2.9125Y-3.1812
X2.9641Y-3.1238
X3.1609Y-3.1041
X3.1625Y-3.0812
X2.9125Y-4.6812
X2.9641Y-4.6238
X3.1609Y-4.6041
X3.1625Y-4.5812
X11.475Y-4.6812
X11.5266Y-4.6238
X11.7234Y-4.6041
X11.725Y-4.5812
X10.35Y-2.2437
X10.4016Y-2.1863
X10.5984Y-2.1666
X10.6Y-2.1437
X1.3625Y-3.7437
X1.3853Y-3.7453
X1.405Y-3.9422
X1.4625Y-3.9937
X8.4489Y-4.6612
X8.4802Y-4.5906
X8.6558Y-4.4889
X8.6614Y-4.5111
X12.6Y-1.8687
X12.6516Y-1.8113
X12.8484Y-1.7916
X12.85Y-1.7688
X2.1625Y-3.9312
X2.2141Y-3.8738
X2.4109Y-3.8541
X2.4125Y-3.8312
X1.4125Y-1.8687
X1.4641Y-1.8113
X1.6609Y-1.7916
X1.6625Y-1.7688
X7.6526Y-4.9734
X7.8191Y-4.7618
X2.1625Y-3.1812
X2.2141Y-3.1238
X2.4109Y-3.1041
X2.4125Y-3.0812
X11.85Y-2.4312
X11.9016Y-2.3738
X12.0984Y-2.3541
X12.1Y-2.3312
X8.1Y-2.3375
X8.1516Y-2.28
X8.3484Y-2.2603
X8.35Y-2.2375
X9.6Y-2.9
X9.6516Y-2.8425
X9.8484Y-2.8228
X9.85Y-2.8
X8.1Y-1.5875
X8.1516Y-1.53
X8.3484Y-1.5103
X8.35Y-1.4875
X10.35Y-2.9937
X10.4016Y-2.9363
X10.5984Y-2.9166
X10.6Y-2.8937
X10.35Y-3.7437
X10.4016Y-3.6863
X10.5984Y-3.6666
X10.6Y-3.6437
X3.6625Y-3.7437
X3.7141Y-3.6863
X3.9109Y-3.6666
X3.9125Y-3.6437
X5.9125Y-3.0875
X5.9641Y-3.03
X6.1609Y-3.0103
X6.1625Y-2.9875
X6.5842Y-5.1588
X6.6656Y-4.9785
X1.4125Y-3.3687
X1.4641Y-3.3113
X1.6609Y-3.2916
X1.6625Y-3.2687
X4.4125Y-3.65
X4.4641Y-3.5925
X4.6609Y-3.5728
X4.6625Y-3.55
X6.4001Y-4.8234
X6.6666Y-4.8618
X5.9125Y-1.5875
X5.9641Y-1.53
X6.1609Y-1.5103
X6.1625Y-1.4875
X2.5375Y-4.6812
X2.5891Y-4.6238
X2.7859Y-4.6041
X2.7875Y-4.5812
X11.85Y-3.1812
X11.9016Y-3.1238
X12.0984Y-3.1041
X12.1Y-3.0812
X11.85Y-1.6812
X11.9016Y-1.6238
X12.0984Y-1.6041
X12.1Y-1.5813
X8.1Y-3.0875
X8.1516Y-3.03
X8.3484Y-3.0103
X8.35Y-2.9875
X9.6Y-3.65
X9.6516Y-3.5925
X9.8484Y-3.5728
X9.85Y-3.55
X5.1625Y-1.4937
X5.2141Y-1.4363
X5.4109Y-1.4166
X5.4125Y-1.3938
X4.4125Y-1.4
X4.4641Y-1.3425
X4.6609Y-1.3228
X4.6625Y-1.3
X4.4125Y-2.9
X4.4641Y-2.8425
X4.6609Y-2.8228
X4.6625Y-2.8
X5.5782Y-4.5685
X5.6451Y-4.5298
X5.8384Y-4.5719
X5.8469Y-4.5507
X4.4125Y-2.15
X4.4641Y-2.0925
X4.6609Y-2.0728
X4.6625Y-2.05
X9.6Y-2.15
X9.6516Y-2.0925
X9.8484Y-2.0728
X9.85Y-2.05
X11.1Y-2.4312
X11.1516Y-2.3738
X11.3484Y-2.3541
X11.35Y-2.3312
X11.1Y-1.6812
X11.1516Y-1.6238
X11.3484Y-1.6041
X11.35Y-1.5813
X10.35Y-4.4937
X10.4016Y-4.4363
X10.5984Y-4.4166
X10.6Y-4.3937
X8.85Y-3.7437
X8.9016Y-3.6863
X9.0984Y-3.6666
X9.1Y-3.6437
X11.1Y-3.9312
X11.1516Y-3.8738
X11.3484Y-3.8541
X11.35Y-3.8312
X1.4125Y-2.6187
X1.4641Y-2.5613
X1.6609Y-2.5416
X1.6625Y-2.5187
X3.6625Y-1.4937
X3.7141Y-1.4363
X3.9109Y-1.4166
X3.9125Y-1.3938
X4.4125Y-4.4
X4.4641Y-4.3425
X4.6609Y-4.3228
X4.6625Y-4.3
X1.4125Y-4.1187
X1.4641Y-4.0613
X1.6609Y-4.0416
X1.6625Y-4.0187
X2.1625Y-1.6812
X2.2141Y-1.6238
X2.4109Y-1.6041
X2.4125Y-1.5813
X2.1625Y-4.6812
X2.2141Y-4.6238
X2.4109Y-4.6041
X2.4125Y-4.5812
X5.9125Y-2.3375
X5.9641Y-2.28
X6.1609Y-2.2603
X6.1625Y-2.2375
X12.55Y-2.2437
X12.5728Y-2.2453
X12.5925Y-2.4422
X12.65Y-2.4937
X12.6Y-4.1187
X12.6516Y-4.0613
X12.8484Y-4.0416
X12.85Y-4.0187
X7.6299Y-4.9883
X7.7453Y-5.149
X8.85Y-2.9937
X8.9016Y-2.9363
X9.0984Y-2.9166
X9.1Y-2.8937
X10.35Y-1.4937
X10.4016Y-1.4363
X10.5984Y-1.4166
X10.6Y-1.3938
X12.6Y-2.6187
X12.6516Y-2.5613
X12.8484Y-2.5416
X12.85Y-2.5187
X11.1Y-3.1812
X11.1516Y-3.1238
X11.3484Y-3.1041
X11.35Y-3.0812
T2
X6.3064Y-4.4106G85X6.2896Y-4.4273
G05
X6.4038Y-4.5693G85X6.3871Y-4.586
G05
X6.4177Y-4.2992G85X6.401Y-4.3159
G05
X6.5012Y-4.2157G85X6.4845Y-4.2324
G05
X5.5174Y-1.1531G85X5.5174Y-1.1767
G05
X5.5174Y-1.3078G85X5.5174Y-1.3511
G05
X5.8576Y-1.1531G85X5.8576Y-1.1767
G05
X5.8576Y-1.3078G85X5.8576Y-1.3511
G05
X8.4549Y-1.1531G85X8.4549Y-1.1767
G05
X8.4549Y-1.3078G85X8.4549Y-1.3511
G05
X8.7951Y-1.1531G85X8.7951Y-1.1767
G05
X8.7951Y-1.3078G85X8.7951Y-1.3511
G05
X7.6832Y-4.3438G85X7.6999Y-4.3605
G05
X7.7667Y-4.4273G85X7.7834Y-4.444
G05
X7.8781Y-4.5386G85X7.8948Y-4.5554
G05
X8.0368Y-4.4412G85X8.0535Y-4.4579
G05
T0
M30
