G04 #@! TF.GenerationSoftware,KiCad,Pcbnew,(5.0.0)*
G04 #@! TF.CreationDate,2018-09-10T21:13:58+09:00*
G04 #@! TF.ProjectId,Orbit,4F726269742E6B696361645F70636200,rev?*
G04 #@! TF.SameCoordinates,Original*
G04 #@! TF.FileFunction,Soldermask,Top*
G04 #@! TF.FilePolarity,Negative*
%FSLAX46Y46*%
G04 Gerber Fmt 4.6, Leading zero omitted, Abs format (unit mm)*
G04 Created by KiCad (PCBNEW (5.0.0)) date 09/10/18 21:13:58*
%MOMM*%
%LPD*%
G01*
G04 APERTURE LIST*
%ADD10C,0.010000*%
%ADD11C,2.150000*%
%ADD12C,4.387800*%
%ADD13C,1.600000*%
%ADD14C,1.600000*%
%ADD15C,1.900000*%
%ADD16O,1.400000X2.000000*%
%ADD17O,1.400000X2.500000*%
%ADD18C,1.050000*%
%ADD19C,1.187400*%
%ADD20C,5.400000*%
%ADD21C,3.448000*%
%ADD22C,2.540000*%
G04 APERTURE END LIST*
D10*
G04 #@! TO.C,G\002A\002A\002A*
G36*
X49364900Y-115817650D02*
X49041050Y-115817650D01*
X49041050Y-115493800D01*
X49364900Y-115493800D01*
X49364900Y-115817650D01*
X49364900Y-115817650D01*
G37*
X49364900Y-115817650D02*
X49041050Y-115817650D01*
X49041050Y-115493800D01*
X49364900Y-115493800D01*
X49364900Y-115817650D01*
G36*
X49688750Y-116446300D02*
X49364900Y-116446300D01*
X49364900Y-116141500D01*
X49688750Y-116141500D01*
X49688750Y-116446300D01*
X49688750Y-116446300D01*
G37*
X49688750Y-116446300D02*
X49364900Y-116446300D01*
X49364900Y-116141500D01*
X49688750Y-116141500D01*
X49688750Y-116446300D01*
G36*
X49041050Y-116446300D02*
X48736250Y-116446300D01*
X48736250Y-116141500D01*
X49041050Y-116141500D01*
X49041050Y-116446300D01*
X49041050Y-116446300D01*
G37*
X49041050Y-116446300D02*
X48736250Y-116446300D01*
X48736250Y-116141500D01*
X49041050Y-116141500D01*
X49041050Y-116446300D01*
G36*
X49993550Y-117094000D02*
X49688750Y-117094000D01*
X49688750Y-116770150D01*
X49993550Y-116770150D01*
X49993550Y-117094000D01*
X49993550Y-117094000D01*
G37*
X49993550Y-117094000D02*
X49688750Y-117094000D01*
X49688750Y-116770150D01*
X49993550Y-116770150D01*
X49993550Y-117094000D01*
G36*
X49364900Y-117094000D02*
X49041050Y-117094000D01*
X49041050Y-116770150D01*
X49364900Y-116770150D01*
X49364900Y-117094000D01*
X49364900Y-117094000D01*
G37*
X49364900Y-117094000D02*
X49041050Y-117094000D01*
X49041050Y-116770150D01*
X49364900Y-116770150D01*
X49364900Y-117094000D01*
G36*
X48736250Y-117094000D02*
X48412400Y-117094000D01*
X48412400Y-116770150D01*
X48736250Y-116770150D01*
X48736250Y-117094000D01*
X48736250Y-117094000D01*
G37*
X48736250Y-117094000D02*
X48412400Y-117094000D01*
X48412400Y-116770150D01*
X48736250Y-116770150D01*
X48736250Y-117094000D01*
G36*
X50317400Y-117722650D02*
X49993550Y-117722650D01*
X49993550Y-117398800D01*
X50317400Y-117398800D01*
X50317400Y-117722650D01*
X50317400Y-117722650D01*
G37*
X50317400Y-117722650D02*
X49993550Y-117722650D01*
X49993550Y-117398800D01*
X50317400Y-117398800D01*
X50317400Y-117722650D01*
G36*
X48412400Y-117722650D02*
X48088550Y-117722650D01*
X48088550Y-117398800D01*
X48412400Y-117398800D01*
X48412400Y-117722650D01*
X48412400Y-117722650D01*
G37*
X48412400Y-117722650D02*
X48088550Y-117722650D01*
X48088550Y-117398800D01*
X48412400Y-117398800D01*
X48412400Y-117722650D01*
G36*
X49215675Y-114303685D02*
X49314969Y-114304782D01*
X49404339Y-114308107D01*
X49486413Y-114313985D01*
X49563824Y-114322737D01*
X49639202Y-114334688D01*
X49715177Y-114350159D01*
X49794381Y-114369474D01*
X49830603Y-114379184D01*
X49997441Y-114431375D01*
X50159111Y-114494843D01*
X50315002Y-114569272D01*
X50464499Y-114654344D01*
X50606991Y-114749742D01*
X50728707Y-114844143D01*
X50854842Y-114956723D01*
X50972711Y-115077879D01*
X51081768Y-115206757D01*
X51181466Y-115342503D01*
X51271257Y-115484263D01*
X51350595Y-115631182D01*
X51418933Y-115782407D01*
X51475724Y-115937084D01*
X51514727Y-116071492D01*
X51541183Y-116183481D01*
X51561471Y-116289029D01*
X51576185Y-116392447D01*
X51585920Y-116498044D01*
X51591268Y-116610129D01*
X51591791Y-116630450D01*
X51589615Y-116805087D01*
X51575060Y-116976914D01*
X51548128Y-117145906D01*
X51508825Y-117312040D01*
X51457155Y-117475293D01*
X51405797Y-117606439D01*
X51383331Y-117658651D01*
X51364081Y-117701977D01*
X51346586Y-117739340D01*
X51329385Y-117773660D01*
X51311016Y-117807860D01*
X51290020Y-117844862D01*
X51266720Y-117884575D01*
X51171345Y-118033591D01*
X51067261Y-118173372D01*
X50954363Y-118304021D01*
X50832543Y-118425647D01*
X50701697Y-118538353D01*
X50561719Y-118642248D01*
X50415825Y-118735470D01*
X50373561Y-118760245D01*
X50336830Y-118781026D01*
X50302711Y-118799274D01*
X50268282Y-118816450D01*
X50230620Y-118834015D01*
X50186805Y-118853430D01*
X50137689Y-118874547D01*
X50060702Y-118906185D01*
X49989728Y-118932616D01*
X49920037Y-118955406D01*
X49846898Y-118976121D01*
X49780825Y-118992707D01*
X49649211Y-119021151D01*
X49523536Y-119041692D01*
X49400153Y-119054764D01*
X49275419Y-119060798D01*
X49202975Y-119061260D01*
X49162000Y-119060848D01*
X49123503Y-119060284D01*
X49089998Y-119059617D01*
X49064002Y-119058900D01*
X49048027Y-119058182D01*
X49047400Y-119058136D01*
X48874460Y-119038975D01*
X48704255Y-119007786D01*
X48537470Y-118964823D01*
X48374794Y-118910340D01*
X48216912Y-118844591D01*
X48064514Y-118767830D01*
X47918285Y-118680311D01*
X47797521Y-118596286D01*
X47659178Y-118485609D01*
X47530632Y-118366920D01*
X47412060Y-118240481D01*
X47303642Y-118106555D01*
X47205559Y-117965404D01*
X47117988Y-117817291D01*
X47041110Y-117662478D01*
X46975104Y-117501227D01*
X46920150Y-117333800D01*
X46910434Y-117299353D01*
X46889341Y-117217918D01*
X46872233Y-117140858D01*
X46858787Y-117065543D01*
X46848679Y-116989343D01*
X46841588Y-116909626D01*
X46837189Y-116823761D01*
X46835160Y-116729119D01*
X46834935Y-116684425D01*
X46835475Y-116640136D01*
X47261135Y-116640136D01*
X47261217Y-116704246D01*
X47262550Y-116767978D01*
X47265107Y-116828079D01*
X47268864Y-116881297D01*
X47271840Y-116909850D01*
X47297339Y-117067688D01*
X47334661Y-117220980D01*
X47383660Y-117369427D01*
X47444195Y-117512728D01*
X47516121Y-117650585D01*
X47599294Y-117782697D01*
X47693572Y-117908764D01*
X47798810Y-118028487D01*
X47816679Y-118047058D01*
X47924066Y-118148717D01*
X48040628Y-118243066D01*
X48164204Y-118328521D01*
X48292635Y-118403503D01*
X48329266Y-118422452D01*
X48388792Y-118451772D01*
X48440985Y-118475947D01*
X48489383Y-118496401D01*
X48537522Y-118514557D01*
X48588940Y-118531836D01*
X48641000Y-118547831D01*
X48792370Y-118587362D01*
X48940971Y-118614922D01*
X49087961Y-118630621D01*
X49234502Y-118634563D01*
X49381751Y-118626858D01*
X49434984Y-118621274D01*
X49584850Y-118598119D01*
X49728515Y-118564672D01*
X49867985Y-118520332D01*
X50005266Y-118464501D01*
X50082832Y-118427542D01*
X50219338Y-118352807D01*
X50346871Y-118269819D01*
X50466037Y-118178029D01*
X50577443Y-118076889D01*
X50681695Y-117965853D01*
X50779399Y-117844372D01*
X50866013Y-117719857D01*
X50886114Y-117686904D01*
X50909572Y-117645201D01*
X50934932Y-117597647D01*
X50960738Y-117547135D01*
X50985534Y-117496561D01*
X51007864Y-117448823D01*
X51026271Y-117406815D01*
X51037022Y-117379750D01*
X51087316Y-117226517D01*
X51125232Y-117072326D01*
X51150739Y-116917609D01*
X51163804Y-116762801D01*
X51164394Y-116608335D01*
X51152477Y-116454643D01*
X51128021Y-116302159D01*
X51120178Y-116265325D01*
X51093259Y-116156290D01*
X51062613Y-116055344D01*
X51026663Y-115958055D01*
X50983830Y-115859995D01*
X50953702Y-115798016D01*
X50878739Y-115662937D01*
X50793279Y-115534588D01*
X50697938Y-115413544D01*
X50593329Y-115300381D01*
X50480068Y-115195675D01*
X50358767Y-115100001D01*
X50230041Y-115013937D01*
X50094505Y-114938058D01*
X49979160Y-114884033D01*
X49841857Y-114830917D01*
X49703814Y-114789319D01*
X49563424Y-114758912D01*
X49419080Y-114739370D01*
X49269176Y-114730367D01*
X49218850Y-114729655D01*
X49060374Y-114734751D01*
X48907072Y-114751267D01*
X48758324Y-114779388D01*
X48613511Y-114819303D01*
X48472014Y-114871198D01*
X48333215Y-114935260D01*
X48196493Y-115011677D01*
X48115935Y-115063045D01*
X48004389Y-115144267D01*
X47897030Y-115235872D01*
X47795172Y-115336321D01*
X47700128Y-115444074D01*
X47613209Y-115557594D01*
X47535728Y-115675342D01*
X47468997Y-115795778D01*
X47441161Y-115854114D01*
X47392038Y-115970001D01*
X47351853Y-116081392D01*
X47319648Y-116191750D01*
X47294464Y-116304541D01*
X47275344Y-116423226D01*
X47268623Y-116478050D01*
X47264813Y-116523786D01*
X47262325Y-116578898D01*
X47261135Y-116640136D01*
X46835475Y-116640136D01*
X46836331Y-116570028D01*
X46841030Y-116465335D01*
X46849490Y-116367669D01*
X46862168Y-116274358D01*
X46879521Y-116182725D01*
X46902009Y-116090097D01*
X46930088Y-115993799D01*
X46964217Y-115891156D01*
X46976772Y-115855750D01*
X47039480Y-115699974D01*
X47113753Y-115549307D01*
X47199437Y-115403958D01*
X47296381Y-115264136D01*
X47404433Y-115130052D01*
X47523439Y-115001916D01*
X47653246Y-114879937D01*
X47738716Y-114807793D01*
X47807379Y-114755398D01*
X47885410Y-114701538D01*
X47969898Y-114647979D01*
X48057928Y-114596494D01*
X48146590Y-114548849D01*
X48232971Y-114506816D01*
X48237775Y-114504621D01*
X48293743Y-114480723D01*
X48358688Y-114455614D01*
X48429113Y-114430479D01*
X48501523Y-114406499D01*
X48572421Y-114384858D01*
X48638311Y-114366741D01*
X48663819Y-114360426D01*
X48738399Y-114343812D01*
X48809578Y-114330484D01*
X48879982Y-114320171D01*
X48952235Y-114312605D01*
X49028962Y-114307515D01*
X49112787Y-114304632D01*
X49206336Y-114303684D01*
X49215675Y-114303685D01*
X49215675Y-114303685D01*
G37*
X49215675Y-114303685D02*
X49314969Y-114304782D01*
X49404339Y-114308107D01*
X49486413Y-114313985D01*
X49563824Y-114322737D01*
X49639202Y-114334688D01*
X49715177Y-114350159D01*
X49794381Y-114369474D01*
X49830603Y-114379184D01*
X49997441Y-114431375D01*
X50159111Y-114494843D01*
X50315002Y-114569272D01*
X50464499Y-114654344D01*
X50606991Y-114749742D01*
X50728707Y-114844143D01*
X50854842Y-114956723D01*
X50972711Y-115077879D01*
X51081768Y-115206757D01*
X51181466Y-115342503D01*
X51271257Y-115484263D01*
X51350595Y-115631182D01*
X51418933Y-115782407D01*
X51475724Y-115937084D01*
X51514727Y-116071492D01*
X51541183Y-116183481D01*
X51561471Y-116289029D01*
X51576185Y-116392447D01*
X51585920Y-116498044D01*
X51591268Y-116610129D01*
X51591791Y-116630450D01*
X51589615Y-116805087D01*
X51575060Y-116976914D01*
X51548128Y-117145906D01*
X51508825Y-117312040D01*
X51457155Y-117475293D01*
X51405797Y-117606439D01*
X51383331Y-117658651D01*
X51364081Y-117701977D01*
X51346586Y-117739340D01*
X51329385Y-117773660D01*
X51311016Y-117807860D01*
X51290020Y-117844862D01*
X51266720Y-117884575D01*
X51171345Y-118033591D01*
X51067261Y-118173372D01*
X50954363Y-118304021D01*
X50832543Y-118425647D01*
X50701697Y-118538353D01*
X50561719Y-118642248D01*
X50415825Y-118735470D01*
X50373561Y-118760245D01*
X50336830Y-118781026D01*
X50302711Y-118799274D01*
X50268282Y-118816450D01*
X50230620Y-118834015D01*
X50186805Y-118853430D01*
X50137689Y-118874547D01*
X50060702Y-118906185D01*
X49989728Y-118932616D01*
X49920037Y-118955406D01*
X49846898Y-118976121D01*
X49780825Y-118992707D01*
X49649211Y-119021151D01*
X49523536Y-119041692D01*
X49400153Y-119054764D01*
X49275419Y-119060798D01*
X49202975Y-119061260D01*
X49162000Y-119060848D01*
X49123503Y-119060284D01*
X49089998Y-119059617D01*
X49064002Y-119058900D01*
X49048027Y-119058182D01*
X49047400Y-119058136D01*
X48874460Y-119038975D01*
X48704255Y-119007786D01*
X48537470Y-118964823D01*
X48374794Y-118910340D01*
X48216912Y-118844591D01*
X48064514Y-118767830D01*
X47918285Y-118680311D01*
X47797521Y-118596286D01*
X47659178Y-118485609D01*
X47530632Y-118366920D01*
X47412060Y-118240481D01*
X47303642Y-118106555D01*
X47205559Y-117965404D01*
X47117988Y-117817291D01*
X47041110Y-117662478D01*
X46975104Y-117501227D01*
X46920150Y-117333800D01*
X46910434Y-117299353D01*
X46889341Y-117217918D01*
X46872233Y-117140858D01*
X46858787Y-117065543D01*
X46848679Y-116989343D01*
X46841588Y-116909626D01*
X46837189Y-116823761D01*
X46835160Y-116729119D01*
X46834935Y-116684425D01*
X46835475Y-116640136D01*
X47261135Y-116640136D01*
X47261217Y-116704246D01*
X47262550Y-116767978D01*
X47265107Y-116828079D01*
X47268864Y-116881297D01*
X47271840Y-116909850D01*
X47297339Y-117067688D01*
X47334661Y-117220980D01*
X47383660Y-117369427D01*
X47444195Y-117512728D01*
X47516121Y-117650585D01*
X47599294Y-117782697D01*
X47693572Y-117908764D01*
X47798810Y-118028487D01*
X47816679Y-118047058D01*
X47924066Y-118148717D01*
X48040628Y-118243066D01*
X48164204Y-118328521D01*
X48292635Y-118403503D01*
X48329266Y-118422452D01*
X48388792Y-118451772D01*
X48440985Y-118475947D01*
X48489383Y-118496401D01*
X48537522Y-118514557D01*
X48588940Y-118531836D01*
X48641000Y-118547831D01*
X48792370Y-118587362D01*
X48940971Y-118614922D01*
X49087961Y-118630621D01*
X49234502Y-118634563D01*
X49381751Y-118626858D01*
X49434984Y-118621274D01*
X49584850Y-118598119D01*
X49728515Y-118564672D01*
X49867985Y-118520332D01*
X50005266Y-118464501D01*
X50082832Y-118427542D01*
X50219338Y-118352807D01*
X50346871Y-118269819D01*
X50466037Y-118178029D01*
X50577443Y-118076889D01*
X50681695Y-117965853D01*
X50779399Y-117844372D01*
X50866013Y-117719857D01*
X50886114Y-117686904D01*
X50909572Y-117645201D01*
X50934932Y-117597647D01*
X50960738Y-117547135D01*
X50985534Y-117496561D01*
X51007864Y-117448823D01*
X51026271Y-117406815D01*
X51037022Y-117379750D01*
X51087316Y-117226517D01*
X51125232Y-117072326D01*
X51150739Y-116917609D01*
X51163804Y-116762801D01*
X51164394Y-116608335D01*
X51152477Y-116454643D01*
X51128021Y-116302159D01*
X51120178Y-116265325D01*
X51093259Y-116156290D01*
X51062613Y-116055344D01*
X51026663Y-115958055D01*
X50983830Y-115859995D01*
X50953702Y-115798016D01*
X50878739Y-115662937D01*
X50793279Y-115534588D01*
X50697938Y-115413544D01*
X50593329Y-115300381D01*
X50480068Y-115195675D01*
X50358767Y-115100001D01*
X50230041Y-115013937D01*
X50094505Y-114938058D01*
X49979160Y-114884033D01*
X49841857Y-114830917D01*
X49703814Y-114789319D01*
X49563424Y-114758912D01*
X49419080Y-114739370D01*
X49269176Y-114730367D01*
X49218850Y-114729655D01*
X49060374Y-114734751D01*
X48907072Y-114751267D01*
X48758324Y-114779388D01*
X48613511Y-114819303D01*
X48472014Y-114871198D01*
X48333215Y-114935260D01*
X48196493Y-115011677D01*
X48115935Y-115063045D01*
X48004389Y-115144267D01*
X47897030Y-115235872D01*
X47795172Y-115336321D01*
X47700128Y-115444074D01*
X47613209Y-115557594D01*
X47535728Y-115675342D01*
X47468997Y-115795778D01*
X47441161Y-115854114D01*
X47392038Y-115970001D01*
X47351853Y-116081392D01*
X47319648Y-116191750D01*
X47294464Y-116304541D01*
X47275344Y-116423226D01*
X47268623Y-116478050D01*
X47264813Y-116523786D01*
X47262325Y-116578898D01*
X47261135Y-116640136D01*
X46835475Y-116640136D01*
X46836331Y-116570028D01*
X46841030Y-116465335D01*
X46849490Y-116367669D01*
X46862168Y-116274358D01*
X46879521Y-116182725D01*
X46902009Y-116090097D01*
X46930088Y-115993799D01*
X46964217Y-115891156D01*
X46976772Y-115855750D01*
X47039480Y-115699974D01*
X47113753Y-115549307D01*
X47199437Y-115403958D01*
X47296381Y-115264136D01*
X47404433Y-115130052D01*
X47523439Y-115001916D01*
X47653246Y-114879937D01*
X47738716Y-114807793D01*
X47807379Y-114755398D01*
X47885410Y-114701538D01*
X47969898Y-114647979D01*
X48057928Y-114596494D01*
X48146590Y-114548849D01*
X48232971Y-114506816D01*
X48237775Y-114504621D01*
X48293743Y-114480723D01*
X48358688Y-114455614D01*
X48429113Y-114430479D01*
X48501523Y-114406499D01*
X48572421Y-114384858D01*
X48638311Y-114366741D01*
X48663819Y-114360426D01*
X48738399Y-114343812D01*
X48809578Y-114330484D01*
X48879982Y-114320171D01*
X48952235Y-114312605D01*
X49028962Y-114307515D01*
X49112787Y-114304632D01*
X49206336Y-114303684D01*
X49215675Y-114303685D01*
G36*
X314477400Y-115817650D02*
X314153550Y-115817650D01*
X314153550Y-115493800D01*
X314477400Y-115493800D01*
X314477400Y-115817650D01*
X314477400Y-115817650D01*
G37*
X314477400Y-115817650D02*
X314153550Y-115817650D01*
X314153550Y-115493800D01*
X314477400Y-115493800D01*
X314477400Y-115817650D01*
G36*
X314801250Y-116446300D02*
X314477400Y-116446300D01*
X314477400Y-116141500D01*
X314801250Y-116141500D01*
X314801250Y-116446300D01*
X314801250Y-116446300D01*
G37*
X314801250Y-116446300D02*
X314477400Y-116446300D01*
X314477400Y-116141500D01*
X314801250Y-116141500D01*
X314801250Y-116446300D01*
G36*
X314153550Y-116446300D02*
X313848750Y-116446300D01*
X313848750Y-116141500D01*
X314153550Y-116141500D01*
X314153550Y-116446300D01*
X314153550Y-116446300D01*
G37*
X314153550Y-116446300D02*
X313848750Y-116446300D01*
X313848750Y-116141500D01*
X314153550Y-116141500D01*
X314153550Y-116446300D01*
G36*
X315106050Y-117094000D02*
X314801250Y-117094000D01*
X314801250Y-116770150D01*
X315106050Y-116770150D01*
X315106050Y-117094000D01*
X315106050Y-117094000D01*
G37*
X315106050Y-117094000D02*
X314801250Y-117094000D01*
X314801250Y-116770150D01*
X315106050Y-116770150D01*
X315106050Y-117094000D01*
G36*
X314477400Y-117094000D02*
X314153550Y-117094000D01*
X314153550Y-116770150D01*
X314477400Y-116770150D01*
X314477400Y-117094000D01*
X314477400Y-117094000D01*
G37*
X314477400Y-117094000D02*
X314153550Y-117094000D01*
X314153550Y-116770150D01*
X314477400Y-116770150D01*
X314477400Y-117094000D01*
G36*
X313848750Y-117094000D02*
X313524900Y-117094000D01*
X313524900Y-116770150D01*
X313848750Y-116770150D01*
X313848750Y-117094000D01*
X313848750Y-117094000D01*
G37*
X313848750Y-117094000D02*
X313524900Y-117094000D01*
X313524900Y-116770150D01*
X313848750Y-116770150D01*
X313848750Y-117094000D01*
G36*
X315429900Y-117722650D02*
X315106050Y-117722650D01*
X315106050Y-117398800D01*
X315429900Y-117398800D01*
X315429900Y-117722650D01*
X315429900Y-117722650D01*
G37*
X315429900Y-117722650D02*
X315106050Y-117722650D01*
X315106050Y-117398800D01*
X315429900Y-117398800D01*
X315429900Y-117722650D01*
G36*
X313524900Y-117722650D02*
X313201050Y-117722650D01*
X313201050Y-117398800D01*
X313524900Y-117398800D01*
X313524900Y-117722650D01*
X313524900Y-117722650D01*
G37*
X313524900Y-117722650D02*
X313201050Y-117722650D01*
X313201050Y-117398800D01*
X313524900Y-117398800D01*
X313524900Y-117722650D01*
G36*
X314328175Y-114303685D02*
X314427469Y-114304782D01*
X314516839Y-114308107D01*
X314598913Y-114313985D01*
X314676324Y-114322737D01*
X314751702Y-114334688D01*
X314827677Y-114350159D01*
X314906881Y-114369474D01*
X314943103Y-114379184D01*
X315109941Y-114431375D01*
X315271611Y-114494843D01*
X315427502Y-114569272D01*
X315576999Y-114654344D01*
X315719491Y-114749742D01*
X315841207Y-114844143D01*
X315967342Y-114956723D01*
X316085211Y-115077879D01*
X316194268Y-115206757D01*
X316293966Y-115342503D01*
X316383757Y-115484263D01*
X316463095Y-115631182D01*
X316531433Y-115782407D01*
X316588224Y-115937084D01*
X316627227Y-116071492D01*
X316653683Y-116183481D01*
X316673971Y-116289029D01*
X316688685Y-116392447D01*
X316698420Y-116498044D01*
X316703768Y-116610129D01*
X316704291Y-116630450D01*
X316702115Y-116805087D01*
X316687560Y-116976914D01*
X316660628Y-117145906D01*
X316621325Y-117312040D01*
X316569655Y-117475293D01*
X316518297Y-117606439D01*
X316495831Y-117658651D01*
X316476581Y-117701977D01*
X316459086Y-117739340D01*
X316441885Y-117773660D01*
X316423516Y-117807860D01*
X316402520Y-117844862D01*
X316379220Y-117884575D01*
X316283845Y-118033591D01*
X316179761Y-118173372D01*
X316066863Y-118304021D01*
X315945043Y-118425647D01*
X315814197Y-118538353D01*
X315674219Y-118642248D01*
X315528325Y-118735470D01*
X315486061Y-118760245D01*
X315449330Y-118781026D01*
X315415211Y-118799274D01*
X315380782Y-118816450D01*
X315343120Y-118834015D01*
X315299305Y-118853430D01*
X315250189Y-118874547D01*
X315173202Y-118906185D01*
X315102228Y-118932616D01*
X315032537Y-118955406D01*
X314959398Y-118976121D01*
X314893325Y-118992707D01*
X314761711Y-119021151D01*
X314636036Y-119041692D01*
X314512653Y-119054764D01*
X314387919Y-119060798D01*
X314315475Y-119061260D01*
X314274500Y-119060848D01*
X314236003Y-119060284D01*
X314202498Y-119059617D01*
X314176502Y-119058900D01*
X314160527Y-119058182D01*
X314159900Y-119058136D01*
X313986960Y-119038975D01*
X313816755Y-119007786D01*
X313649970Y-118964823D01*
X313487294Y-118910340D01*
X313329412Y-118844591D01*
X313177014Y-118767830D01*
X313030785Y-118680311D01*
X312910021Y-118596286D01*
X312771678Y-118485609D01*
X312643132Y-118366920D01*
X312524560Y-118240481D01*
X312416142Y-118106555D01*
X312318059Y-117965404D01*
X312230488Y-117817291D01*
X312153610Y-117662478D01*
X312087604Y-117501227D01*
X312032650Y-117333800D01*
X312022934Y-117299353D01*
X312001841Y-117217918D01*
X311984733Y-117140858D01*
X311971287Y-117065543D01*
X311961179Y-116989343D01*
X311954088Y-116909626D01*
X311949689Y-116823761D01*
X311947660Y-116729119D01*
X311947435Y-116684425D01*
X311947975Y-116640136D01*
X312373635Y-116640136D01*
X312373717Y-116704246D01*
X312375050Y-116767978D01*
X312377607Y-116828079D01*
X312381364Y-116881297D01*
X312384340Y-116909850D01*
X312409839Y-117067688D01*
X312447161Y-117220980D01*
X312496160Y-117369427D01*
X312556695Y-117512728D01*
X312628621Y-117650585D01*
X312711794Y-117782697D01*
X312806072Y-117908764D01*
X312911310Y-118028487D01*
X312929179Y-118047058D01*
X313036566Y-118148717D01*
X313153128Y-118243066D01*
X313276704Y-118328521D01*
X313405135Y-118403503D01*
X313441766Y-118422452D01*
X313501292Y-118451772D01*
X313553485Y-118475947D01*
X313601883Y-118496401D01*
X313650022Y-118514557D01*
X313701440Y-118531836D01*
X313753500Y-118547831D01*
X313904870Y-118587362D01*
X314053471Y-118614922D01*
X314200461Y-118630621D01*
X314347002Y-118634563D01*
X314494251Y-118626858D01*
X314547484Y-118621274D01*
X314697350Y-118598119D01*
X314841015Y-118564672D01*
X314980485Y-118520332D01*
X315117766Y-118464501D01*
X315195332Y-118427542D01*
X315331838Y-118352807D01*
X315459371Y-118269819D01*
X315578537Y-118178029D01*
X315689943Y-118076889D01*
X315794195Y-117965853D01*
X315891899Y-117844372D01*
X315978513Y-117719857D01*
X315998614Y-117686904D01*
X316022072Y-117645201D01*
X316047432Y-117597647D01*
X316073238Y-117547135D01*
X316098034Y-117496561D01*
X316120364Y-117448823D01*
X316138771Y-117406815D01*
X316149522Y-117379750D01*
X316199816Y-117226517D01*
X316237732Y-117072326D01*
X316263239Y-116917609D01*
X316276304Y-116762801D01*
X316276894Y-116608335D01*
X316264977Y-116454643D01*
X316240521Y-116302159D01*
X316232678Y-116265325D01*
X316205759Y-116156290D01*
X316175113Y-116055344D01*
X316139163Y-115958055D01*
X316096330Y-115859995D01*
X316066202Y-115798016D01*
X315991239Y-115662937D01*
X315905779Y-115534588D01*
X315810438Y-115413544D01*
X315705829Y-115300381D01*
X315592568Y-115195675D01*
X315471267Y-115100001D01*
X315342541Y-115013937D01*
X315207005Y-114938058D01*
X315091660Y-114884033D01*
X314954357Y-114830917D01*
X314816314Y-114789319D01*
X314675924Y-114758912D01*
X314531580Y-114739370D01*
X314381676Y-114730367D01*
X314331350Y-114729655D01*
X314172874Y-114734751D01*
X314019572Y-114751267D01*
X313870824Y-114779388D01*
X313726011Y-114819303D01*
X313584514Y-114871198D01*
X313445715Y-114935260D01*
X313308993Y-115011677D01*
X313228435Y-115063045D01*
X313116889Y-115144267D01*
X313009530Y-115235872D01*
X312907672Y-115336321D01*
X312812628Y-115444074D01*
X312725709Y-115557594D01*
X312648228Y-115675342D01*
X312581497Y-115795778D01*
X312553661Y-115854114D01*
X312504538Y-115970001D01*
X312464353Y-116081392D01*
X312432148Y-116191750D01*
X312406964Y-116304541D01*
X312387844Y-116423226D01*
X312381123Y-116478050D01*
X312377313Y-116523786D01*
X312374825Y-116578898D01*
X312373635Y-116640136D01*
X311947975Y-116640136D01*
X311948831Y-116570028D01*
X311953530Y-116465335D01*
X311961990Y-116367669D01*
X311974668Y-116274358D01*
X311992021Y-116182725D01*
X312014509Y-116090097D01*
X312042588Y-115993799D01*
X312076717Y-115891156D01*
X312089272Y-115855750D01*
X312151980Y-115699974D01*
X312226253Y-115549307D01*
X312311937Y-115403958D01*
X312408881Y-115264136D01*
X312516933Y-115130052D01*
X312635939Y-115001916D01*
X312765746Y-114879937D01*
X312851216Y-114807793D01*
X312919879Y-114755398D01*
X312997910Y-114701538D01*
X313082398Y-114647979D01*
X313170428Y-114596494D01*
X313259090Y-114548849D01*
X313345471Y-114506816D01*
X313350275Y-114504621D01*
X313406243Y-114480723D01*
X313471188Y-114455614D01*
X313541613Y-114430479D01*
X313614023Y-114406499D01*
X313684921Y-114384858D01*
X313750811Y-114366741D01*
X313776319Y-114360426D01*
X313850899Y-114343812D01*
X313922078Y-114330484D01*
X313992482Y-114320171D01*
X314064735Y-114312605D01*
X314141462Y-114307515D01*
X314225287Y-114304632D01*
X314318836Y-114303684D01*
X314328175Y-114303685D01*
X314328175Y-114303685D01*
G37*
X314328175Y-114303685D02*
X314427469Y-114304782D01*
X314516839Y-114308107D01*
X314598913Y-114313985D01*
X314676324Y-114322737D01*
X314751702Y-114334688D01*
X314827677Y-114350159D01*
X314906881Y-114369474D01*
X314943103Y-114379184D01*
X315109941Y-114431375D01*
X315271611Y-114494843D01*
X315427502Y-114569272D01*
X315576999Y-114654344D01*
X315719491Y-114749742D01*
X315841207Y-114844143D01*
X315967342Y-114956723D01*
X316085211Y-115077879D01*
X316194268Y-115206757D01*
X316293966Y-115342503D01*
X316383757Y-115484263D01*
X316463095Y-115631182D01*
X316531433Y-115782407D01*
X316588224Y-115937084D01*
X316627227Y-116071492D01*
X316653683Y-116183481D01*
X316673971Y-116289029D01*
X316688685Y-116392447D01*
X316698420Y-116498044D01*
X316703768Y-116610129D01*
X316704291Y-116630450D01*
X316702115Y-116805087D01*
X316687560Y-116976914D01*
X316660628Y-117145906D01*
X316621325Y-117312040D01*
X316569655Y-117475293D01*
X316518297Y-117606439D01*
X316495831Y-117658651D01*
X316476581Y-117701977D01*
X316459086Y-117739340D01*
X316441885Y-117773660D01*
X316423516Y-117807860D01*
X316402520Y-117844862D01*
X316379220Y-117884575D01*
X316283845Y-118033591D01*
X316179761Y-118173372D01*
X316066863Y-118304021D01*
X315945043Y-118425647D01*
X315814197Y-118538353D01*
X315674219Y-118642248D01*
X315528325Y-118735470D01*
X315486061Y-118760245D01*
X315449330Y-118781026D01*
X315415211Y-118799274D01*
X315380782Y-118816450D01*
X315343120Y-118834015D01*
X315299305Y-118853430D01*
X315250189Y-118874547D01*
X315173202Y-118906185D01*
X315102228Y-118932616D01*
X315032537Y-118955406D01*
X314959398Y-118976121D01*
X314893325Y-118992707D01*
X314761711Y-119021151D01*
X314636036Y-119041692D01*
X314512653Y-119054764D01*
X314387919Y-119060798D01*
X314315475Y-119061260D01*
X314274500Y-119060848D01*
X314236003Y-119060284D01*
X314202498Y-119059617D01*
X314176502Y-119058900D01*
X314160527Y-119058182D01*
X314159900Y-119058136D01*
X313986960Y-119038975D01*
X313816755Y-119007786D01*
X313649970Y-118964823D01*
X313487294Y-118910340D01*
X313329412Y-118844591D01*
X313177014Y-118767830D01*
X313030785Y-118680311D01*
X312910021Y-118596286D01*
X312771678Y-118485609D01*
X312643132Y-118366920D01*
X312524560Y-118240481D01*
X312416142Y-118106555D01*
X312318059Y-117965404D01*
X312230488Y-117817291D01*
X312153610Y-117662478D01*
X312087604Y-117501227D01*
X312032650Y-117333800D01*
X312022934Y-117299353D01*
X312001841Y-117217918D01*
X311984733Y-117140858D01*
X311971287Y-117065543D01*
X311961179Y-116989343D01*
X311954088Y-116909626D01*
X311949689Y-116823761D01*
X311947660Y-116729119D01*
X311947435Y-116684425D01*
X311947975Y-116640136D01*
X312373635Y-116640136D01*
X312373717Y-116704246D01*
X312375050Y-116767978D01*
X312377607Y-116828079D01*
X312381364Y-116881297D01*
X312384340Y-116909850D01*
X312409839Y-117067688D01*
X312447161Y-117220980D01*
X312496160Y-117369427D01*
X312556695Y-117512728D01*
X312628621Y-117650585D01*
X312711794Y-117782697D01*
X312806072Y-117908764D01*
X312911310Y-118028487D01*
X312929179Y-118047058D01*
X313036566Y-118148717D01*
X313153128Y-118243066D01*
X313276704Y-118328521D01*
X313405135Y-118403503D01*
X313441766Y-118422452D01*
X313501292Y-118451772D01*
X313553485Y-118475947D01*
X313601883Y-118496401D01*
X313650022Y-118514557D01*
X313701440Y-118531836D01*
X313753500Y-118547831D01*
X313904870Y-118587362D01*
X314053471Y-118614922D01*
X314200461Y-118630621D01*
X314347002Y-118634563D01*
X314494251Y-118626858D01*
X314547484Y-118621274D01*
X314697350Y-118598119D01*
X314841015Y-118564672D01*
X314980485Y-118520332D01*
X315117766Y-118464501D01*
X315195332Y-118427542D01*
X315331838Y-118352807D01*
X315459371Y-118269819D01*
X315578537Y-118178029D01*
X315689943Y-118076889D01*
X315794195Y-117965853D01*
X315891899Y-117844372D01*
X315978513Y-117719857D01*
X315998614Y-117686904D01*
X316022072Y-117645201D01*
X316047432Y-117597647D01*
X316073238Y-117547135D01*
X316098034Y-117496561D01*
X316120364Y-117448823D01*
X316138771Y-117406815D01*
X316149522Y-117379750D01*
X316199816Y-117226517D01*
X316237732Y-117072326D01*
X316263239Y-116917609D01*
X316276304Y-116762801D01*
X316276894Y-116608335D01*
X316264977Y-116454643D01*
X316240521Y-116302159D01*
X316232678Y-116265325D01*
X316205759Y-116156290D01*
X316175113Y-116055344D01*
X316139163Y-115958055D01*
X316096330Y-115859995D01*
X316066202Y-115798016D01*
X315991239Y-115662937D01*
X315905779Y-115534588D01*
X315810438Y-115413544D01*
X315705829Y-115300381D01*
X315592568Y-115195675D01*
X315471267Y-115100001D01*
X315342541Y-115013937D01*
X315207005Y-114938058D01*
X315091660Y-114884033D01*
X314954357Y-114830917D01*
X314816314Y-114789319D01*
X314675924Y-114758912D01*
X314531580Y-114739370D01*
X314381676Y-114730367D01*
X314331350Y-114729655D01*
X314172874Y-114734751D01*
X314019572Y-114751267D01*
X313870824Y-114779388D01*
X313726011Y-114819303D01*
X313584514Y-114871198D01*
X313445715Y-114935260D01*
X313308993Y-115011677D01*
X313228435Y-115063045D01*
X313116889Y-115144267D01*
X313009530Y-115235872D01*
X312907672Y-115336321D01*
X312812628Y-115444074D01*
X312725709Y-115557594D01*
X312648228Y-115675342D01*
X312581497Y-115795778D01*
X312553661Y-115854114D01*
X312504538Y-115970001D01*
X312464353Y-116081392D01*
X312432148Y-116191750D01*
X312406964Y-116304541D01*
X312387844Y-116423226D01*
X312381123Y-116478050D01*
X312377313Y-116523786D01*
X312374825Y-116578898D01*
X312373635Y-116640136D01*
X311947975Y-116640136D01*
X311948831Y-116570028D01*
X311953530Y-116465335D01*
X311961990Y-116367669D01*
X311974668Y-116274358D01*
X311992021Y-116182725D01*
X312014509Y-116090097D01*
X312042588Y-115993799D01*
X312076717Y-115891156D01*
X312089272Y-115855750D01*
X312151980Y-115699974D01*
X312226253Y-115549307D01*
X312311937Y-115403958D01*
X312408881Y-115264136D01*
X312516933Y-115130052D01*
X312635939Y-115001916D01*
X312765746Y-114879937D01*
X312851216Y-114807793D01*
X312919879Y-114755398D01*
X312997910Y-114701538D01*
X313082398Y-114647979D01*
X313170428Y-114596494D01*
X313259090Y-114548849D01*
X313345471Y-114506816D01*
X313350275Y-114504621D01*
X313406243Y-114480723D01*
X313471188Y-114455614D01*
X313541613Y-114430479D01*
X313614023Y-114406499D01*
X313684921Y-114384858D01*
X313750811Y-114366741D01*
X313776319Y-114360426D01*
X313850899Y-114343812D01*
X313922078Y-114330484D01*
X313992482Y-114320171D01*
X314064735Y-114312605D01*
X314141462Y-114307515D01*
X314225287Y-114304632D01*
X314318836Y-114303684D01*
X314328175Y-114303685D01*
G04 #@! TD*
D11*
G04 #@! TO.C,MX7*
X159067500Y-42862500D03*
X148907500Y-42862500D03*
D12*
X153987500Y-42862500D03*
G04 #@! TD*
G04 #@! TO.C,MX36*
X228600000Y-40481250D03*
D11*
X223520000Y-40481250D03*
X233680000Y-40481250D03*
G04 #@! TD*
D13*
G04 #@! TO.C,J1*
X164918913Y-107291396D03*
D14*
X165131045Y-107079264D02*
X164706781Y-107503528D01*
D13*
X162797593Y-109412717D03*
D14*
X163009725Y-109200585D02*
X162585461Y-109624849D01*
D13*
X159969165Y-112241144D03*
D14*
X160181297Y-112029012D02*
X159757033Y-112453276D01*
D13*
X162444039Y-116271652D03*
D14*
X162656171Y-116059520D02*
X162231907Y-116483784D01*
D15*
X167676629Y-107786371D03*
X162726882Y-112736118D03*
G04 #@! TD*
D12*
G04 #@! TO.C,MX1*
X39687500Y-50006250D03*
D11*
X34607500Y-50006250D03*
X44767500Y-50006250D03*
G04 #@! TD*
G04 #@! TO.C,MX2*
X63817500Y-45243750D03*
X53657500Y-45243750D03*
D12*
X58737500Y-45243750D03*
G04 #@! TD*
G04 #@! TO.C,MX3*
X77787500Y-45243750D03*
D11*
X72707500Y-45243750D03*
X82867500Y-45243750D03*
G04 #@! TD*
D12*
G04 #@! TO.C,MX4*
X96837500Y-40481250D03*
D11*
X91757500Y-40481250D03*
X101917500Y-40481250D03*
G04 #@! TD*
G04 #@! TO.C,MX5*
X120967500Y-38100000D03*
X110807500Y-38100000D03*
D12*
X115887500Y-38100000D03*
G04 #@! TD*
D11*
G04 #@! TO.C,MX6*
X140017500Y-40481250D03*
X129857500Y-40481250D03*
D12*
X134937500Y-40481250D03*
G04 #@! TD*
G04 #@! TO.C,MX8*
X39687500Y-69056250D03*
D11*
X34607500Y-69056250D03*
X44767500Y-69056250D03*
G04 #@! TD*
G04 #@! TO.C,MX9*
X63817500Y-64293750D03*
X53657500Y-64293750D03*
D12*
X58737500Y-64293750D03*
G04 #@! TD*
G04 #@! TO.C,MX10*
X77787500Y-64293750D03*
D11*
X72707500Y-64293750D03*
X82867500Y-64293750D03*
G04 #@! TD*
G04 #@! TO.C,MX11*
X101917500Y-59531250D03*
X91757500Y-59531250D03*
D12*
X96837500Y-59531250D03*
G04 #@! TD*
G04 #@! TO.C,MX12*
X115887500Y-57150000D03*
D11*
X110807500Y-57150000D03*
X120967500Y-57150000D03*
G04 #@! TD*
D12*
G04 #@! TO.C,MX13*
X134937500Y-59531250D03*
D11*
X129857500Y-59531250D03*
X140017500Y-59531250D03*
G04 #@! TD*
G04 #@! TO.C,MX14*
X159067500Y-61912500D03*
X148907500Y-61912500D03*
D12*
X153987500Y-61912500D03*
G04 #@! TD*
D11*
G04 #@! TO.C,MX15*
X44767500Y-88106250D03*
X34607500Y-88106250D03*
D12*
X39687500Y-88106250D03*
G04 #@! TD*
G04 #@! TO.C,MX16*
X58737500Y-83343750D03*
D11*
X53657500Y-83343750D03*
X63817500Y-83343750D03*
G04 #@! TD*
D12*
G04 #@! TO.C,MX17*
X77787500Y-83343750D03*
D11*
X72707500Y-83343750D03*
X82867500Y-83343750D03*
G04 #@! TD*
D12*
G04 #@! TO.C,MX18*
X96837500Y-78581250D03*
D11*
X91757500Y-78581250D03*
X101917500Y-78581250D03*
G04 #@! TD*
G04 #@! TO.C,MX19*
X120967500Y-76200000D03*
X110807500Y-76200000D03*
D12*
X115887500Y-76200000D03*
G04 #@! TD*
D11*
G04 #@! TO.C,MX20*
X140017500Y-78581250D03*
X129857500Y-78581250D03*
D12*
X134937500Y-78581250D03*
G04 #@! TD*
G04 #@! TO.C,MX21*
X153987500Y-80962500D03*
D11*
X148907500Y-80962500D03*
X159067500Y-80962500D03*
G04 #@! TD*
D12*
G04 #@! TO.C,MX22*
X39687500Y-107156250D03*
D11*
X34607500Y-107156250D03*
X44767500Y-107156250D03*
G04 #@! TD*
D12*
G04 #@! TO.C,MX23*
X58737500Y-102393750D03*
D11*
X53657500Y-102393750D03*
X63817500Y-102393750D03*
G04 #@! TD*
D12*
G04 #@! TO.C,MX24*
X77787500Y-102393750D03*
D11*
X72707500Y-102393750D03*
X82867500Y-102393750D03*
G04 #@! TD*
G04 #@! TO.C,MX25*
X101917500Y-97631250D03*
X91757500Y-97631250D03*
D12*
X96837500Y-97631250D03*
G04 #@! TD*
G04 #@! TO.C,MX26*
X115887500Y-95250000D03*
D11*
X110807500Y-95250000D03*
X120967500Y-95250000D03*
G04 #@! TD*
G04 #@! TO.C,MX27*
X140017500Y-97631250D03*
X129857500Y-97631250D03*
D12*
X134937500Y-97631250D03*
G04 #@! TD*
D11*
G04 #@! TO.C,MX28*
X159067500Y-100012500D03*
X148907500Y-100012500D03*
D12*
X153987500Y-100012500D03*
G04 #@! TD*
G04 #@! TO.C,MX29*
X58737500Y-121443750D03*
D11*
X53657500Y-121443750D03*
X63817500Y-121443750D03*
G04 #@! TD*
G04 #@! TO.C,MX30*
X82867500Y-121443750D03*
X72707500Y-121443750D03*
D12*
X77787500Y-121443750D03*
G04 #@! TD*
G04 #@! TO.C,MX31*
X96837500Y-116681250D03*
D11*
X91757500Y-116681250D03*
X101917500Y-116681250D03*
G04 #@! TD*
G04 #@! TO.C,MX32*
X120967500Y-114300000D03*
X110807500Y-114300000D03*
D12*
X115887500Y-114300000D03*
G04 #@! TD*
D11*
G04 #@! TO.C,MX33*
X149357367Y-121203806D03*
X139694633Y-118064194D03*
D12*
X144526000Y-119634000D03*
G04 #@! TD*
D16*
G04 #@! TO.C,USB1*
X148782500Y-29587500D03*
X140142500Y-29587500D03*
D17*
X148782500Y-33767500D03*
X140142500Y-33767500D03*
D18*
X141572500Y-33237500D03*
X147352500Y-33237500D03*
G04 #@! TD*
D19*
G04 #@! TO.C,J3*
X42227500Y-40735250D03*
X40957500Y-40735250D03*
X37147500Y-40735250D03*
X38417500Y-40735250D03*
X39687500Y-40735250D03*
G04 #@! TD*
G04 #@! TO.C,J5*
X135096250Y-31210250D03*
X133826250Y-31210250D03*
X130016250Y-31210250D03*
X131286250Y-31210250D03*
X132556250Y-31210250D03*
G04 #@! TD*
G04 #@! TO.C,J6*
X39687500Y-125158500D03*
X40957500Y-125158500D03*
X42227500Y-125158500D03*
X38417500Y-125158500D03*
X37147500Y-125158500D03*
G04 #@! TD*
G04 #@! TO.C,J9*
X99377500Y-31210250D03*
X98107500Y-31210250D03*
X94297500Y-31210250D03*
X95567500Y-31210250D03*
X96837500Y-31210250D03*
G04 #@! TD*
G04 #@! TO.C,J10*
X115887500Y-123571000D03*
X117157500Y-123571000D03*
X118427500Y-123571000D03*
X114617500Y-123571000D03*
X113347500Y-123571000D03*
G04 #@! TD*
D13*
G04 #@! TO.C,J11*
X195365896Y-110544087D03*
D14*
X195153764Y-110331955D02*
X195578028Y-110756219D01*
D13*
X197487216Y-112665408D03*
D14*
X197275084Y-112453276D02*
X197699348Y-112877540D01*
D13*
X200315644Y-115493835D03*
D14*
X200103512Y-115281703D02*
X200527776Y-115705967D01*
D13*
X204346152Y-113018961D03*
D14*
X204134020Y-112806829D02*
X204558284Y-113231093D01*
D15*
X195860871Y-107786371D03*
X200810618Y-112736118D03*
G04 #@! TD*
D19*
G04 #@! TO.C,J13*
X326390000Y-40735250D03*
X325120000Y-40735250D03*
X321310000Y-40735250D03*
X322580000Y-40735250D03*
X323850000Y-40735250D03*
G04 #@! TD*
G04 #@! TO.C,J17*
X234315000Y-31210250D03*
X233045000Y-31210250D03*
X229235000Y-31210250D03*
X230505000Y-31210250D03*
X231775000Y-31210250D03*
G04 #@! TD*
G04 #@! TO.C,J18*
X245110000Y-123571000D03*
X246380000Y-123571000D03*
X250190000Y-123571000D03*
X248920000Y-123571000D03*
X247650000Y-123571000D03*
G04 #@! TD*
G04 #@! TO.C,J19*
X266700000Y-31210250D03*
X265430000Y-31210250D03*
X264160000Y-31210250D03*
X267970000Y-31210250D03*
X269240000Y-31210250D03*
G04 #@! TD*
G04 #@! TO.C,J20*
X323850000Y-125158500D03*
X325120000Y-125158500D03*
X326390000Y-125158500D03*
X322580000Y-125158500D03*
X321310000Y-125158500D03*
G04 #@! TD*
D11*
G04 #@! TO.C,MX35*
X214630000Y-42862500D03*
X204470000Y-42862500D03*
D12*
X209550000Y-42862500D03*
G04 #@! TD*
G04 #@! TO.C,MX37*
X247650000Y-38100000D03*
D11*
X242570000Y-38100000D03*
X252730000Y-38100000D03*
G04 #@! TD*
G04 #@! TO.C,MX38*
X271780000Y-40481250D03*
X261620000Y-40481250D03*
D12*
X266700000Y-40481250D03*
G04 #@! TD*
D11*
G04 #@! TO.C,MX39*
X290830000Y-45243750D03*
X280670000Y-45243750D03*
D12*
X285750000Y-45243750D03*
G04 #@! TD*
G04 #@! TO.C,MX40*
X304800000Y-45243750D03*
D11*
X299720000Y-45243750D03*
X309880000Y-45243750D03*
G04 #@! TD*
G04 #@! TO.C,MX41*
X328930000Y-50006250D03*
X318770000Y-50006250D03*
D12*
X323850000Y-50006250D03*
G04 #@! TD*
G04 #@! TO.C,MX42*
X209550000Y-61912500D03*
D11*
X204470000Y-61912500D03*
X214630000Y-61912500D03*
G04 #@! TD*
G04 #@! TO.C,MX43*
X233680000Y-59531250D03*
X223520000Y-59531250D03*
D12*
X228600000Y-59531250D03*
G04 #@! TD*
D11*
G04 #@! TO.C,MX44*
X252730000Y-57150000D03*
X242570000Y-57150000D03*
D12*
X247650000Y-57150000D03*
G04 #@! TD*
G04 #@! TO.C,MX45*
X266700000Y-59531250D03*
D11*
X261620000Y-59531250D03*
X271780000Y-59531250D03*
G04 #@! TD*
G04 #@! TO.C,MX46*
X290830000Y-64293750D03*
X280670000Y-64293750D03*
D12*
X285750000Y-64293750D03*
G04 #@! TD*
G04 #@! TO.C,MX47*
X304800000Y-64293750D03*
D11*
X299720000Y-64293750D03*
X309880000Y-64293750D03*
G04 #@! TD*
G04 #@! TO.C,MX48*
X328930000Y-69056250D03*
X318770000Y-69056250D03*
D12*
X323850000Y-69056250D03*
G04 #@! TD*
G04 #@! TO.C,MX49*
X209550000Y-80962500D03*
D11*
X204470000Y-80962500D03*
X214630000Y-80962500D03*
G04 #@! TD*
D12*
G04 #@! TO.C,MX50*
X228600000Y-78581250D03*
D11*
X223520000Y-78581250D03*
X233680000Y-78581250D03*
G04 #@! TD*
G04 #@! TO.C,MX51*
X252730000Y-76200000D03*
X242570000Y-76200000D03*
D12*
X247650000Y-76200000D03*
G04 #@! TD*
G04 #@! TO.C,MX52*
X266700000Y-78581250D03*
D11*
X261620000Y-78581250D03*
X271780000Y-78581250D03*
G04 #@! TD*
D12*
G04 #@! TO.C,MX53*
X285750000Y-83343750D03*
D11*
X280670000Y-83343750D03*
X290830000Y-83343750D03*
G04 #@! TD*
G04 #@! TO.C,MX54*
X309880000Y-83343750D03*
X299720000Y-83343750D03*
D12*
X304800000Y-83343750D03*
G04 #@! TD*
G04 #@! TO.C,MX55*
X323850000Y-88106250D03*
D11*
X318770000Y-88106250D03*
X328930000Y-88106250D03*
G04 #@! TD*
G04 #@! TO.C,MX56*
X214630000Y-100012500D03*
X204470000Y-100012500D03*
D12*
X209550000Y-100012500D03*
G04 #@! TD*
G04 #@! TO.C,MX57*
X228600000Y-97631250D03*
D11*
X223520000Y-97631250D03*
X233680000Y-97631250D03*
G04 #@! TD*
G04 #@! TO.C,MX58*
X252730000Y-95250000D03*
X242570000Y-95250000D03*
D12*
X247650000Y-95250000D03*
G04 #@! TD*
G04 #@! TO.C,MX59*
X266700000Y-97631250D03*
D11*
X261620000Y-97631250D03*
X271780000Y-97631250D03*
G04 #@! TD*
G04 #@! TO.C,MX60*
X290830000Y-102393750D03*
X280670000Y-102393750D03*
D12*
X285750000Y-102393750D03*
G04 #@! TD*
G04 #@! TO.C,MX61*
X304800000Y-102393750D03*
D11*
X299720000Y-102393750D03*
X309880000Y-102393750D03*
G04 #@! TD*
G04 #@! TO.C,MX62*
X328930000Y-107156250D03*
X318770000Y-107156250D03*
D12*
X323850000Y-107156250D03*
G04 #@! TD*
D11*
G04 #@! TO.C,MX64*
X223842867Y-118064194D03*
X214180133Y-121203806D03*
D12*
X219011500Y-119634000D03*
G04 #@! TD*
D11*
G04 #@! TO.C,MX65*
X252730000Y-114300000D03*
X242570000Y-114300000D03*
D12*
X247650000Y-114300000D03*
G04 #@! TD*
G04 #@! TO.C,MX66*
X266700000Y-116681250D03*
D11*
X261620000Y-116681250D03*
X271780000Y-116681250D03*
G04 #@! TD*
D12*
G04 #@! TO.C,MX67*
X285750000Y-121443750D03*
D11*
X280670000Y-121443750D03*
X290830000Y-121443750D03*
G04 #@! TD*
D16*
G04 #@! TO.C,USB2*
X223395000Y-29587500D03*
X214755000Y-29587500D03*
D17*
X223395000Y-33767500D03*
X214755000Y-33767500D03*
D18*
X216185000Y-33237500D03*
X221965000Y-33237500D03*
G04 #@! TD*
D12*
G04 #@! TO.C,MX68*
X304800000Y-121443750D03*
D11*
X299720000Y-121443750D03*
X309880000Y-121443750D03*
G04 #@! TD*
D20*
G04 #@! TO.C,MH1*
X106362500Y-69056250D03*
G04 #@! TD*
G04 #@! TO.C,MH2*
X257175000Y-69056250D03*
G04 #@! TD*
D19*
G04 #@! TO.C,J7*
X39687500Y-31210250D03*
X38417500Y-31210250D03*
X37147500Y-31210250D03*
X40957500Y-31210250D03*
X42227500Y-31210250D03*
G04 #@! TD*
G04 #@! TO.C,J14*
X326390000Y-31210250D03*
X325120000Y-31210250D03*
X321310000Y-31210250D03*
X322580000Y-31210250D03*
X323850000Y-31210250D03*
G04 #@! TD*
D12*
G04 #@! TO.C,MXE-1*
X47942500Y-47593250D03*
X47942500Y-71469250D03*
D21*
X32702500Y-47593250D03*
X32702500Y-71469250D03*
D11*
X39687500Y-54451250D03*
X39687500Y-64611250D03*
D12*
X39687500Y-59531250D03*
G04 #@! TD*
G04 #@! TO.C,MXE-2*
X39687500Y-97631250D03*
D11*
X39687500Y-102711250D03*
X39687500Y-92551250D03*
D21*
X32702500Y-109569250D03*
X32702500Y-85693250D03*
D12*
X47942500Y-109569250D03*
X47942500Y-85693250D03*
G04 #@! TD*
G04 #@! TO.C,MXE-3*
X68262500Y-121443750D03*
D11*
X63182500Y-121443750D03*
X73342500Y-121443750D03*
D21*
X56324500Y-128428750D03*
X80200500Y-128428750D03*
D12*
X56324500Y-113188750D03*
X80200500Y-113188750D03*
G04 #@! TD*
G04 #@! TO.C,MXE-4*
X323850000Y-59531250D03*
D11*
X323850000Y-64611250D03*
X323850000Y-54451250D03*
D21*
X330835000Y-71469250D03*
X330835000Y-47593250D03*
D12*
X315595000Y-71469250D03*
X315595000Y-47593250D03*
G04 #@! TD*
G04 #@! TO.C,MXE-5*
X315595000Y-85693250D03*
X315595000Y-109569250D03*
D21*
X330835000Y-85693250D03*
X330835000Y-109569250D03*
D11*
X323850000Y-92551250D03*
X323850000Y-102711250D03*
D12*
X323850000Y-97631250D03*
G04 #@! TD*
G04 #@! TO.C,MXE-6*
X295275000Y-121443750D03*
D11*
X290195000Y-121443750D03*
X300355000Y-121443750D03*
D21*
X283337000Y-128428750D03*
X307213000Y-128428750D03*
D12*
X283337000Y-113188750D03*
X307213000Y-113188750D03*
G04 #@! TD*
G04 #@! TO.C,MX34*
X164592000Y-126619000D03*
D11*
X160192591Y-124079000D03*
X168991409Y-129159000D03*
G04 #@! TD*
G04 #@! TO.C,MX63*
X203344909Y-124079000D03*
X194546091Y-129159000D03*
D12*
X198945500Y-126619000D03*
G04 #@! TD*
D22*
G04 #@! TO.C,FID1*
X32543750Y-15875000D03*
G04 #@! TD*
G04 #@! TO.C,FID2*
X330993750Y-15875000D03*
G04 #@! TD*
G04 #@! TO.C,FID3*
X32543750Y-156368750D03*
G04 #@! TD*
M02*
