M48
; DRILL file {KiCad (5.1.2)-1} date 6/25/2019 9:43:10 PM
; FORMAT={-:-/ absolute / inch / decimal}
; #@! TF.CreationDate,2019-06-25T21:43:10+09:00
; #@! TF.GenerationSoftware,Kicad,Pcbnew,(5.1.2)-1
; #@! TF.FileFunction,NonPlated,1,2,NPTH
FMAT,2
INCH
T1C0.0256
T2C0.0310
T3C0.0591
T4C0.0689
T5C0.1570
%
G90
G05
T1
X10.3933Y-1.3466
X10.6174Y-1.3861
X2.1951Y-1.3861
X2.4192Y-1.3466
T2
X2.9625Y-1.385
X3.0125Y-1.385
X3.0625Y-1.385
X3.1125Y-1.385
X3.1625Y-1.385
X4.4625Y-1.385
X4.5125Y-1.385
X4.5625Y-1.385
X4.6125Y-1.385
X4.6625Y-1.385
X10.775Y-4.4275
X10.825Y-4.4275
X10.875Y-4.4275
X10.925Y-4.4275
X10.975Y-4.4275
X8.15Y-1.385
X8.2Y-1.385
X8.25Y-1.385
X8.3Y-1.385
X8.35Y-1.385
X3.7125Y-4.4275
X3.7625Y-4.4275
X3.8125Y-4.4275
X3.8625Y-4.4275
X3.9125Y-4.4275
X8.9Y-4.4275
X8.95Y-4.4275
X9.0Y-4.4275
X9.05Y-4.4275
X9.1Y-4.4275
X8.9Y-4.1463
X8.95Y-4.1463
X9.0Y-4.1463
X9.05Y-4.1463
X9.1Y-4.1463
X3.7125Y-4.1463
X3.7625Y-4.1463
X3.8125Y-4.1463
X3.8625Y-4.1463
X3.9125Y-4.1463
X1.8375Y-4.4275
X1.8875Y-4.4275
X1.9375Y-4.4275
X1.9875Y-4.4275
X2.0375Y-4.4275
X9.65Y-1.385
X9.7Y-1.385
X9.75Y-1.385
X9.8Y-1.385
X9.85Y-1.385
T3
X4.1875Y-1.1683
X4.1875Y-1.4439
X8.625Y-1.1683
X8.625Y-1.4439
T4
X4.3625Y-3.1875
X4.7625Y-3.1875
X3.6125Y-3.8438
X4.0125Y-3.8438
X1.3625Y-2.625
X1.7625Y-2.625
X5.1125Y-3.2812
X5.5125Y-3.2812
X2.8625Y-3.1875
X3.2625Y-3.1875
X5.631Y-4.5041
X5.831Y-4.1577
X2.8625Y-3.9375
X3.2625Y-3.9375
X9.55Y-3.9375
X9.95Y-3.9375
X2.8625Y-2.4375
X3.2625Y-2.4375
X11.05Y-2.625
X11.45Y-2.625
X4.3625Y-2.4375
X4.7625Y-2.4375
X2.1125Y-2.625
X2.5125Y-2.625
X2.8625Y-1.6875
X3.2625Y-1.6875
X7.3Y-1.7812
X7.7Y-1.7812
X2.1125Y-1.875
X2.5125Y-1.875
X10.3Y-4.125
X10.7Y-4.125
X9.55Y-1.6875
X9.95Y-1.6875
X1.3625Y-4.125
X1.7625Y-4.125
X5.1125Y-2.5312
X5.5125Y-2.5312
X1.3625Y-3.375
X1.7625Y-3.375
X8.05Y-3.1875
X8.45Y-3.1875
X11.05Y-3.375
X11.45Y-3.375
X8.8Y-1.5938
X9.2Y-1.5938
X5.1125Y-1.7812
X5.5125Y-1.7812
X10.3Y-2.625
X10.7Y-2.625
X8.05Y-1.6875
X8.45Y-1.6875
X11.05Y-4.125
X11.45Y-4.125
X4.3625Y-1.6875
X4.7625Y-1.6875
X6.9815Y-4.1577
X7.1815Y-4.5041
X3.6125Y-1.5938
X4.0125Y-1.5938
X8.05Y-2.4375
X8.45Y-2.4375
X10.3Y-3.375
X10.7Y-3.375
X3.6125Y-3.0938
X4.0125Y-3.0938
X11.05Y-1.875
X11.45Y-1.875
X1.3625Y-1.875
X1.7625Y-1.875
X9.55Y-2.4375
X9.95Y-2.4375
X9.55Y-3.1875
X9.95Y-3.1875
X8.8Y-2.3438
X9.2Y-2.3438
X8.8Y-3.8438
X9.2Y-3.8438
X2.1125Y-4.125
X2.5125Y-4.125
X7.3Y-3.2812
X7.7Y-3.2812
X10.3Y-1.875
X10.7Y-1.875
X7.6857Y-4.0952
X8.0721Y-3.9917
X8.8Y-3.0938
X9.2Y-3.0938
X2.1125Y-3.375
X2.5125Y-3.375
X4.7404Y-3.9917
X5.1268Y-4.0952
X3.6125Y-2.3438
X4.0125Y-2.3438
X7.3Y-2.5312
X7.7Y-2.5312
T5
X7.5Y-1.7812
X2.3125Y-1.875
X10.5Y-4.125
X9.75Y-1.6875
X1.5625Y-4.125
X5.3125Y-2.5312
X1.5625Y-3.375
X8.25Y-3.1875
X11.25Y-3.375
X9.0Y-1.5938
X5.3125Y-1.7812
X10.5Y-2.625
X8.25Y-1.6875
X11.25Y-4.125
X4.5625Y-1.6875
X7.0815Y-4.3309
X3.8125Y-1.5938
X8.25Y-2.4375
X10.5Y-3.375
X3.8125Y-3.0938
X11.25Y-1.875
X1.5625Y-1.875
X9.75Y-2.4375
X9.75Y-3.1875
X9.0Y-2.3438
X9.0Y-3.8438
X2.3125Y-4.125
X7.5Y-3.2812
X10.5Y-1.875
X7.8789Y-4.0434
X9.0Y-3.0938
X2.3125Y-3.375
X4.9336Y-4.0434
X3.8125Y-2.3438
X7.5Y-2.5312
X4.5625Y-3.1875
X3.8125Y-3.8438
X1.5625Y-2.625
X5.3125Y-3.2812
X3.0625Y-3.1875
X5.731Y-4.3309
X3.0625Y-3.9375
X9.75Y-3.9375
X3.0625Y-2.4375
X11.25Y-2.625
X4.5625Y-2.4375
X2.3125Y-2.625
X3.0625Y-1.6875
T0
M30
