M48
; DRILL file {KiCad (5.1.2)-1} date 6/25/2019 9:43:10 PM
; FORMAT={-:-/ absolute / inch / decimal}
; #@! TF.CreationDate,2019-06-25T21:43:10+09:00
; #@! TF.GenerationSoftware,Kicad,Pcbnew,(5.1.2)-1
; #@! TF.FileFunction,Plated,1,2,PTH
FMAT,2
INCH
T1C0.0157
T2C0.0236
T3C0.0394
T4C0.0579
%
G90
G05
T1
X1.85Y-1.75
X2.055Y-1.745
X2.195Y-1.94
X2.25Y-1.54
X2.276Y-1.5
X2.38Y-1.49
X2.415Y-1.52
X2.515Y-2.0
X2.71Y-2.69
X2.86Y-2.54
X2.875Y-1.765
X3.42Y-3.75
X3.46Y-3.75
X3.5Y-3.75
X3.66Y-3.365
X3.66Y-3.5
X3.66Y-4.015
X3.795Y-3.585
X3.87Y-3.505
X3.9Y-3.22
X3.915Y-1.815
X3.945Y-3.47
X4.0Y-3.28
X4.01Y-3.775
X4.035Y-3.695
X4.075Y-3.675
X4.095Y-3.51
X4.1Y-1.72
X4.115Y-3.61
X4.115Y-3.655
X4.175Y-3.75
X4.175Y-3.875
X4.19Y-1.72
X4.195Y-3.615
X4.22Y-3.975
X4.235Y-3.615
X4.24Y-1.78
X4.325Y-3.99
X4.345Y-4.03
X4.385Y-4.03
X4.405Y-3.99
X4.4125Y-2.8625
X4.445Y-2.685
X4.5Y-2.865
X4.515Y-2.615
X4.565Y-3.98
X4.57Y-3.545
X4.625Y-2.865
X4.68Y-3.655
X4.68Y-3.72
X4.745Y-3.605
X4.935Y-3.3
X4.94Y-3.73
X4.97Y-3.655
X4.98Y-3.745
X4.985Y-1.87
X5.03Y-2.63
X5.035Y-1.905
X5.09Y-3.53
X5.145Y-3.775
X7.56Y-3.94
X7.755Y-2.87
X7.885Y-3.675
X7.885Y-3.72
X7.9Y-2.625
X7.93Y-1.87
X7.93Y-3.67
X8.005Y-3.385
X8.005Y-3.53
X8.085Y-3.535
X8.095Y-3.87
X8.1Y-3.72
X8.215Y-3.425
X8.295Y-3.84
X8.33Y-3.81
X8.35Y-3.33
X8.5Y-3.065
X8.5Y-3.115
X8.545Y-3.785
X8.6Y-3.535
X8.6Y-3.66
X8.615Y-3.375
X8.615Y-3.47
X8.655Y-1.755
X8.68Y-3.865
X8.725Y-1.755
X8.75Y-2.505
X8.77Y-3.37
X8.82Y-3.175
X8.82Y-3.22
X9.1Y-3.77
X9.16Y-3.74
X9.2Y-3.19
X9.26Y-1.785
X9.39Y-2.53
X9.39Y-2.75
X9.435Y-2.53
X9.44Y-2.75
X9.54Y-2.55
X9.54Y-2.785
X9.58Y-2.57
X9.9Y-2.0
X9.9Y-2.045
X10.185Y-2.045
X10.3Y-2.0
X10.33Y-2.785
X10.405Y-1.53
X10.43Y-1.495
X10.535Y-1.52
X10.535Y-1.565
X10.755Y-1.75
X10.965Y-1.75
X11.08Y-2.815
T3
X9.325Y-3.3687
X9.325Y-3.4688
X9.325Y-3.5688
X9.425Y-3.3687
X9.425Y-3.4688
X9.425Y-3.5688
X3.3875Y-3.3687
X3.3875Y-3.4688
X3.3875Y-3.5688
X3.4875Y-3.3687
X3.4875Y-3.4688
X3.4875Y-3.5688
T4
X5.1625Y-3.1812
X5.2141Y-3.1238
X5.4109Y-3.1041
X5.4125Y-3.0812
X2.9125Y-3.0875
X2.9641Y-3.03
X3.1609Y-3.0103
X3.1625Y-2.9875
X5.5454Y-4.3374
X5.5694Y-4.4108
X5.6078Y-4.1443
X5.6268Y-4.1571
X2.9125Y-3.8375
X2.9641Y-3.78
X3.1609Y-3.7603
X3.1625Y-3.7375
X9.6Y-3.8375
X9.6516Y-3.78
X9.8484Y-3.7603
X9.85Y-3.7375
X2.9125Y-2.3375
X2.9641Y-2.28
X3.1609Y-2.2603
X3.1625Y-2.2375
X11.1Y-2.525
X11.1516Y-2.4675
X11.3484Y-2.4478
X11.35Y-2.425
X4.4125Y-2.3375
X4.4641Y-2.28
X4.6609Y-2.2603
X4.6625Y-2.2375
X2.1625Y-2.525
X2.2141Y-2.4675
X2.4109Y-2.4478
X2.4125Y-2.425
X2.9125Y-1.5875
X2.9641Y-1.53
X3.1609Y-1.5103
X3.1625Y-1.4875
X7.35Y-1.6812
X7.4016Y-1.6238
X7.5984Y-1.6041
X7.6Y-1.5813
X2.1625Y-1.775
X2.2141Y-1.7175
X2.4109Y-1.6978
X2.4125Y-1.675
X10.35Y-4.025
X10.4016Y-3.9675
X10.5984Y-3.9478
X10.6Y-3.925
X9.6Y-1.5875
X9.6516Y-1.53
X9.8484Y-1.5103
X9.85Y-1.4875
X1.4125Y-4.025
X1.4641Y-3.9675
X1.6609Y-3.9478
X1.6625Y-3.925
X5.1625Y-2.4312
X5.2141Y-2.3738
X5.4109Y-2.3541
X5.4125Y-2.3312
X1.4125Y-3.275
X1.4641Y-3.2175
X1.6609Y-3.1978
X1.6625Y-3.175
X8.1Y-3.0875
X8.1516Y-3.03
X8.3484Y-3.0103
X8.35Y-2.9875
X11.1Y-3.275
X11.1516Y-3.2175
X11.3484Y-3.1978
X11.35Y-3.175
X8.85Y-1.4937
X8.9016Y-1.4363
X9.0984Y-1.4166
X9.1Y-1.3938
X5.1625Y-1.6812
X5.2141Y-1.6238
X5.4109Y-1.6041
X5.4125Y-1.5813
X10.35Y-2.525
X10.4016Y-2.4675
X10.5984Y-2.4478
X10.6Y-2.425
X8.1Y-1.5875
X8.1516Y-1.53
X8.3484Y-1.5103
X8.35Y-1.4875
X11.1Y-4.025
X11.1516Y-3.9675
X11.3484Y-3.9478
X11.35Y-3.925
X4.4125Y-1.5875
X4.4641Y-1.53
X4.6609Y-1.5103
X4.6625Y-1.4875
X7.0931Y-4.151
X7.1687Y-4.1669
X7.2841Y-4.3275
X7.3047Y-4.3175
X3.6625Y-1.4937
X3.7141Y-1.4363
X3.9109Y-1.4166
X3.9125Y-1.3938
X8.1Y-2.3375
X8.1516Y-2.28
X8.3484Y-2.2603
X8.35Y-2.2375
X10.35Y-3.275
X10.4016Y-3.2175
X10.5984Y-3.1978
X10.6Y-3.175
X3.6625Y-2.9937
X3.7141Y-2.9363
X3.9109Y-2.9166
X3.9125Y-2.8937
X11.1Y-1.775
X11.1516Y-1.7175
X11.3484Y-1.6978
X11.35Y-1.675
X1.4125Y-1.775
X1.4641Y-1.7175
X1.6609Y-1.6978
X1.6625Y-1.675
X9.6Y-2.3375
X9.6516Y-2.28
X9.8484Y-2.2603
X9.85Y-2.2375
X9.6Y-3.0875
X9.6516Y-3.03
X9.8484Y-3.0103
X9.85Y-2.9875
X8.85Y-2.2437
X8.9016Y-2.1863
X9.0984Y-2.1666
X9.1Y-2.1437
X8.85Y-3.7437
X8.9016Y-3.6863
X9.0984Y-3.6666
X9.1Y-3.6437
X2.1625Y-4.025
X2.2141Y-3.9675
X2.4109Y-3.9478
X2.4125Y-3.925
X7.35Y-3.1812
X7.4016Y-3.1238
X7.5984Y-3.1041
X7.6Y-3.0812
X10.35Y-1.775
X10.4016Y-1.7175
X10.5984Y-1.6978
X10.6Y-1.675
X7.7081Y-3.9857
X7.743Y-3.9168
X7.9237Y-3.8244
X7.9281Y-3.8468
X8.85Y-2.9937
X8.9016Y-2.9363
X9.0984Y-2.9166
X9.1Y-2.8937
X2.1625Y-3.275
X2.2141Y-3.2175
X2.4109Y-3.1978
X2.4125Y-3.175
X4.8146Y-3.908
X4.8793Y-3.8659
X5.0746Y-3.8978
X5.082Y-3.8761
X3.6625Y-2.2437
X3.7141Y-2.1863
X3.9109Y-2.1666
X3.9125Y-2.1437
X7.35Y-2.4312
X7.4016Y-2.3738
X7.5984Y-2.3541
X7.6Y-2.3312
X4.4125Y-3.0875
X4.4641Y-3.03
X4.6609Y-3.0103
X4.6625Y-2.9875
X3.6625Y-3.7437
X3.7141Y-3.6863
X3.9109Y-3.6666
X3.9125Y-3.6437
X1.4125Y-2.525
X1.4641Y-2.4675
X1.6609Y-2.4478
X1.6625Y-2.425
T2
G00X2.1126Y-1.2427
M15
G01X2.1167Y-1.266
M16
G05
G00X2.1395Y-1.3951
M15
G01X2.147Y-1.4377
M16
G05
G00X2.4476Y-1.1836
M15
G01X2.4517Y-1.2069
M16
G05
G00X2.4745Y-1.336
M15
G01X2.482Y-1.3787
M16
G05
G00X4.0969Y-1.2195
M15
G01X4.0969Y-1.2431
M16
G05
G00X4.0969Y-1.3376
M15
G01X4.0969Y-1.3612
M16
G05
G00X4.0969Y-1.4951
M15
G01X4.0969Y-1.5187
M16
G05
G00X4.2781Y-1.5384
M15
G01X4.2781Y-1.562
M16
G05
G00X8.5344Y-1.2195
M15
G01X8.5344Y-1.2431
M16
G05
G00X8.5344Y-1.3376
M15
G01X8.5344Y-1.3612
M16
G05
G00X8.5344Y-1.4951
M15
G01X8.5344Y-1.5187
M16
G05
G00X8.7156Y-1.5384
M15
G01X8.7156Y-1.562
M16
G05
G00X10.338Y-1.336
M15
G01X10.3305Y-1.3787
M16
G05
G00X10.3649Y-1.1836
M15
G01X10.3608Y-1.2069
M16
G05
G00X10.673Y-1.3951
M15
G01X10.6655Y-1.4377
M16
G05
G00X10.6999Y-1.2427
M15
G01X10.6958Y-1.266
M16
G05
T0
M30
