G04 #@! TF.GenerationSoftware,KiCad,Pcbnew,(5.1.2)-1*
G04 #@! TF.CreationDate,2019-06-25T19:13:37+09:00*
G04 #@! TF.ProjectId,Orbit,4f726269-742e-46b6-9963-61645f706362,rev?*
G04 #@! TF.SameCoordinates,Original*
G04 #@! TF.FileFunction,Copper,L1,Top*
G04 #@! TF.FilePolarity,Positive*
%FSLAX46Y46*%
G04 Gerber Fmt 4.6, Leading zero omitted, Abs format (unit mm)*
G04 Created by KiCad (PCBNEW (5.1.2)-1) date 2019-06-25 19:13:37*
%MOMM*%
%LPD*%
G04 APERTURE LIST*
%ADD10C,0.010000*%
%ADD11C,2.250000*%
%ADD12C,2.250000*%
%ADD13C,1.700000*%
%ADD14R,1.700000X1.700000*%
%ADD15C,1.000000*%
%ADD16C,1.000000*%
%ADD17O,1.200000X1.800000*%
%ADD18C,0.800000*%
%ADD19C,0.381000*%
%ADD20C,0.254000*%
G04 APERTURE END LIST*
D10*
G36*
X289077400Y-129311400D02*
G01*
X288753550Y-129311400D01*
X288753550Y-128987550D01*
X289077400Y-128987550D01*
X289077400Y-129311400D01*
X289077400Y-129311400D01*
G37*
X289077400Y-129311400D02*
X288753550Y-129311400D01*
X288753550Y-128987550D01*
X289077400Y-128987550D01*
X289077400Y-129311400D01*
G36*
X289401250Y-129940050D02*
G01*
X289077400Y-129940050D01*
X289077400Y-129635250D01*
X289401250Y-129635250D01*
X289401250Y-129940050D01*
X289401250Y-129940050D01*
G37*
X289401250Y-129940050D02*
X289077400Y-129940050D01*
X289077400Y-129635250D01*
X289401250Y-129635250D01*
X289401250Y-129940050D01*
G36*
X288753550Y-129940050D02*
G01*
X288448750Y-129940050D01*
X288448750Y-129635250D01*
X288753550Y-129635250D01*
X288753550Y-129940050D01*
X288753550Y-129940050D01*
G37*
X288753550Y-129940050D02*
X288448750Y-129940050D01*
X288448750Y-129635250D01*
X288753550Y-129635250D01*
X288753550Y-129940050D01*
G36*
X289706050Y-130587750D02*
G01*
X289401250Y-130587750D01*
X289401250Y-130263900D01*
X289706050Y-130263900D01*
X289706050Y-130587750D01*
X289706050Y-130587750D01*
G37*
X289706050Y-130587750D02*
X289401250Y-130587750D01*
X289401250Y-130263900D01*
X289706050Y-130263900D01*
X289706050Y-130587750D01*
G36*
X289077400Y-130587750D02*
G01*
X288753550Y-130587750D01*
X288753550Y-130263900D01*
X289077400Y-130263900D01*
X289077400Y-130587750D01*
X289077400Y-130587750D01*
G37*
X289077400Y-130587750D02*
X288753550Y-130587750D01*
X288753550Y-130263900D01*
X289077400Y-130263900D01*
X289077400Y-130587750D01*
G36*
X288448750Y-130587750D02*
G01*
X288124900Y-130587750D01*
X288124900Y-130263900D01*
X288448750Y-130263900D01*
X288448750Y-130587750D01*
X288448750Y-130587750D01*
G37*
X288448750Y-130587750D02*
X288124900Y-130587750D01*
X288124900Y-130263900D01*
X288448750Y-130263900D01*
X288448750Y-130587750D01*
G36*
X290029900Y-131216400D02*
G01*
X289706050Y-131216400D01*
X289706050Y-130892550D01*
X290029900Y-130892550D01*
X290029900Y-131216400D01*
X290029900Y-131216400D01*
G37*
X290029900Y-131216400D02*
X289706050Y-131216400D01*
X289706050Y-130892550D01*
X290029900Y-130892550D01*
X290029900Y-131216400D01*
G36*
X288124900Y-131216400D02*
G01*
X287801050Y-131216400D01*
X287801050Y-130892550D01*
X288124900Y-130892550D01*
X288124900Y-131216400D01*
X288124900Y-131216400D01*
G37*
X288124900Y-131216400D02*
X287801050Y-131216400D01*
X287801050Y-130892550D01*
X288124900Y-130892550D01*
X288124900Y-131216400D01*
G36*
X288928175Y-127797435D02*
G01*
X289027469Y-127798532D01*
X289116839Y-127801857D01*
X289198913Y-127807735D01*
X289276324Y-127816487D01*
X289351702Y-127828438D01*
X289427677Y-127843909D01*
X289506881Y-127863224D01*
X289543103Y-127872934D01*
X289709941Y-127925125D01*
X289871611Y-127988593D01*
X290027502Y-128063022D01*
X290176999Y-128148094D01*
X290319491Y-128243492D01*
X290441207Y-128337893D01*
X290567342Y-128450473D01*
X290685211Y-128571629D01*
X290794268Y-128700507D01*
X290893966Y-128836253D01*
X290983757Y-128978013D01*
X291063095Y-129124932D01*
X291131433Y-129276157D01*
X291188224Y-129430834D01*
X291227227Y-129565242D01*
X291253683Y-129677231D01*
X291273971Y-129782779D01*
X291288685Y-129886197D01*
X291298420Y-129991794D01*
X291303768Y-130103879D01*
X291304291Y-130124200D01*
X291302115Y-130298837D01*
X291287560Y-130470664D01*
X291260628Y-130639656D01*
X291221325Y-130805790D01*
X291169655Y-130969043D01*
X291118297Y-131100189D01*
X291095831Y-131152401D01*
X291076581Y-131195727D01*
X291059086Y-131233090D01*
X291041885Y-131267410D01*
X291023516Y-131301610D01*
X291002520Y-131338612D01*
X290979220Y-131378325D01*
X290883845Y-131527341D01*
X290779761Y-131667122D01*
X290666863Y-131797771D01*
X290545043Y-131919397D01*
X290414197Y-132032103D01*
X290274219Y-132135998D01*
X290128325Y-132229220D01*
X290086061Y-132253995D01*
X290049330Y-132274776D01*
X290015211Y-132293024D01*
X289980782Y-132310200D01*
X289943120Y-132327765D01*
X289899305Y-132347180D01*
X289850189Y-132368297D01*
X289773202Y-132399935D01*
X289702228Y-132426366D01*
X289632537Y-132449156D01*
X289559398Y-132469871D01*
X289493325Y-132486457D01*
X289361711Y-132514901D01*
X289236036Y-132535442D01*
X289112653Y-132548514D01*
X288987919Y-132554548D01*
X288915475Y-132555010D01*
X288874500Y-132554598D01*
X288836003Y-132554034D01*
X288802498Y-132553367D01*
X288776502Y-132552650D01*
X288760527Y-132551932D01*
X288759900Y-132551886D01*
X288586960Y-132532725D01*
X288416755Y-132501536D01*
X288249970Y-132458573D01*
X288087294Y-132404090D01*
X287929412Y-132338341D01*
X287777014Y-132261580D01*
X287630785Y-132174061D01*
X287510021Y-132090036D01*
X287371678Y-131979359D01*
X287243132Y-131860670D01*
X287124560Y-131734231D01*
X287016142Y-131600305D01*
X286918059Y-131459154D01*
X286830488Y-131311041D01*
X286753610Y-131156228D01*
X286687604Y-130994977D01*
X286632650Y-130827550D01*
X286622934Y-130793103D01*
X286601841Y-130711668D01*
X286584733Y-130634608D01*
X286571287Y-130559293D01*
X286561179Y-130483093D01*
X286554088Y-130403376D01*
X286549689Y-130317511D01*
X286547660Y-130222869D01*
X286547435Y-130178175D01*
X286547975Y-130133886D01*
X286973635Y-130133886D01*
X286973717Y-130197996D01*
X286975050Y-130261728D01*
X286977607Y-130321829D01*
X286981364Y-130375047D01*
X286984340Y-130403600D01*
X287009839Y-130561438D01*
X287047161Y-130714730D01*
X287096160Y-130863177D01*
X287156695Y-131006478D01*
X287228621Y-131144335D01*
X287311794Y-131276447D01*
X287406072Y-131402514D01*
X287511310Y-131522237D01*
X287529179Y-131540808D01*
X287636566Y-131642467D01*
X287753128Y-131736816D01*
X287876704Y-131822271D01*
X288005135Y-131897253D01*
X288041766Y-131916202D01*
X288101292Y-131945522D01*
X288153485Y-131969697D01*
X288201883Y-131990151D01*
X288250022Y-132008307D01*
X288301440Y-132025586D01*
X288353500Y-132041581D01*
X288504870Y-132081112D01*
X288653471Y-132108672D01*
X288800461Y-132124371D01*
X288947002Y-132128313D01*
X289094251Y-132120608D01*
X289147484Y-132115024D01*
X289297350Y-132091869D01*
X289441015Y-132058422D01*
X289580485Y-132014082D01*
X289717766Y-131958251D01*
X289795332Y-131921292D01*
X289931838Y-131846557D01*
X290059371Y-131763569D01*
X290178537Y-131671779D01*
X290289943Y-131570639D01*
X290394195Y-131459603D01*
X290491899Y-131338122D01*
X290578513Y-131213607D01*
X290598614Y-131180654D01*
X290622072Y-131138951D01*
X290647432Y-131091397D01*
X290673238Y-131040885D01*
X290698034Y-130990311D01*
X290720364Y-130942573D01*
X290738771Y-130900565D01*
X290749522Y-130873500D01*
X290799816Y-130720267D01*
X290837732Y-130566076D01*
X290863239Y-130411359D01*
X290876304Y-130256551D01*
X290876894Y-130102085D01*
X290864977Y-129948393D01*
X290840521Y-129795909D01*
X290832678Y-129759075D01*
X290805759Y-129650040D01*
X290775113Y-129549094D01*
X290739163Y-129451805D01*
X290696330Y-129353745D01*
X290666202Y-129291766D01*
X290591239Y-129156687D01*
X290505779Y-129028338D01*
X290410438Y-128907294D01*
X290305829Y-128794131D01*
X290192568Y-128689425D01*
X290071267Y-128593751D01*
X289942541Y-128507687D01*
X289807005Y-128431808D01*
X289691660Y-128377783D01*
X289554357Y-128324667D01*
X289416314Y-128283069D01*
X289275924Y-128252662D01*
X289131580Y-128233120D01*
X288981676Y-128224117D01*
X288931350Y-128223405D01*
X288772874Y-128228501D01*
X288619572Y-128245017D01*
X288470824Y-128273138D01*
X288326011Y-128313053D01*
X288184514Y-128364948D01*
X288045715Y-128429010D01*
X287908993Y-128505427D01*
X287828435Y-128556795D01*
X287716889Y-128638017D01*
X287609530Y-128729622D01*
X287507672Y-128830071D01*
X287412628Y-128937824D01*
X287325709Y-129051344D01*
X287248228Y-129169092D01*
X287181497Y-129289528D01*
X287153661Y-129347864D01*
X287104538Y-129463751D01*
X287064353Y-129575142D01*
X287032148Y-129685500D01*
X287006964Y-129798291D01*
X286987844Y-129916976D01*
X286981123Y-129971800D01*
X286977313Y-130017536D01*
X286974825Y-130072648D01*
X286973635Y-130133886D01*
X286547975Y-130133886D01*
X286548831Y-130063778D01*
X286553530Y-129959085D01*
X286561990Y-129861419D01*
X286574668Y-129768108D01*
X286592021Y-129676475D01*
X286614509Y-129583847D01*
X286642588Y-129487549D01*
X286676717Y-129384906D01*
X286689272Y-129349500D01*
X286751980Y-129193724D01*
X286826253Y-129043057D01*
X286911937Y-128897708D01*
X287008881Y-128757886D01*
X287116933Y-128623802D01*
X287235939Y-128495666D01*
X287365746Y-128373687D01*
X287451216Y-128301543D01*
X287519879Y-128249148D01*
X287597910Y-128195288D01*
X287682398Y-128141729D01*
X287770428Y-128090244D01*
X287859090Y-128042599D01*
X287945471Y-128000566D01*
X287950275Y-127998371D01*
X288006243Y-127974473D01*
X288071188Y-127949364D01*
X288141613Y-127924229D01*
X288214023Y-127900249D01*
X288284921Y-127878608D01*
X288350811Y-127860491D01*
X288376319Y-127854176D01*
X288450899Y-127837562D01*
X288522078Y-127824234D01*
X288592482Y-127813921D01*
X288664735Y-127806355D01*
X288741462Y-127801265D01*
X288825287Y-127798382D01*
X288918836Y-127797434D01*
X288928175Y-127797435D01*
X288928175Y-127797435D01*
G37*
X288928175Y-127797435D02*
X289027469Y-127798532D01*
X289116839Y-127801857D01*
X289198913Y-127807735D01*
X289276324Y-127816487D01*
X289351702Y-127828438D01*
X289427677Y-127843909D01*
X289506881Y-127863224D01*
X289543103Y-127872934D01*
X289709941Y-127925125D01*
X289871611Y-127988593D01*
X290027502Y-128063022D01*
X290176999Y-128148094D01*
X290319491Y-128243492D01*
X290441207Y-128337893D01*
X290567342Y-128450473D01*
X290685211Y-128571629D01*
X290794268Y-128700507D01*
X290893966Y-128836253D01*
X290983757Y-128978013D01*
X291063095Y-129124932D01*
X291131433Y-129276157D01*
X291188224Y-129430834D01*
X291227227Y-129565242D01*
X291253683Y-129677231D01*
X291273971Y-129782779D01*
X291288685Y-129886197D01*
X291298420Y-129991794D01*
X291303768Y-130103879D01*
X291304291Y-130124200D01*
X291302115Y-130298837D01*
X291287560Y-130470664D01*
X291260628Y-130639656D01*
X291221325Y-130805790D01*
X291169655Y-130969043D01*
X291118297Y-131100189D01*
X291095831Y-131152401D01*
X291076581Y-131195727D01*
X291059086Y-131233090D01*
X291041885Y-131267410D01*
X291023516Y-131301610D01*
X291002520Y-131338612D01*
X290979220Y-131378325D01*
X290883845Y-131527341D01*
X290779761Y-131667122D01*
X290666863Y-131797771D01*
X290545043Y-131919397D01*
X290414197Y-132032103D01*
X290274219Y-132135998D01*
X290128325Y-132229220D01*
X290086061Y-132253995D01*
X290049330Y-132274776D01*
X290015211Y-132293024D01*
X289980782Y-132310200D01*
X289943120Y-132327765D01*
X289899305Y-132347180D01*
X289850189Y-132368297D01*
X289773202Y-132399935D01*
X289702228Y-132426366D01*
X289632537Y-132449156D01*
X289559398Y-132469871D01*
X289493325Y-132486457D01*
X289361711Y-132514901D01*
X289236036Y-132535442D01*
X289112653Y-132548514D01*
X288987919Y-132554548D01*
X288915475Y-132555010D01*
X288874500Y-132554598D01*
X288836003Y-132554034D01*
X288802498Y-132553367D01*
X288776502Y-132552650D01*
X288760527Y-132551932D01*
X288759900Y-132551886D01*
X288586960Y-132532725D01*
X288416755Y-132501536D01*
X288249970Y-132458573D01*
X288087294Y-132404090D01*
X287929412Y-132338341D01*
X287777014Y-132261580D01*
X287630785Y-132174061D01*
X287510021Y-132090036D01*
X287371678Y-131979359D01*
X287243132Y-131860670D01*
X287124560Y-131734231D01*
X287016142Y-131600305D01*
X286918059Y-131459154D01*
X286830488Y-131311041D01*
X286753610Y-131156228D01*
X286687604Y-130994977D01*
X286632650Y-130827550D01*
X286622934Y-130793103D01*
X286601841Y-130711668D01*
X286584733Y-130634608D01*
X286571287Y-130559293D01*
X286561179Y-130483093D01*
X286554088Y-130403376D01*
X286549689Y-130317511D01*
X286547660Y-130222869D01*
X286547435Y-130178175D01*
X286547975Y-130133886D01*
X286973635Y-130133886D01*
X286973717Y-130197996D01*
X286975050Y-130261728D01*
X286977607Y-130321829D01*
X286981364Y-130375047D01*
X286984340Y-130403600D01*
X287009839Y-130561438D01*
X287047161Y-130714730D01*
X287096160Y-130863177D01*
X287156695Y-131006478D01*
X287228621Y-131144335D01*
X287311794Y-131276447D01*
X287406072Y-131402514D01*
X287511310Y-131522237D01*
X287529179Y-131540808D01*
X287636566Y-131642467D01*
X287753128Y-131736816D01*
X287876704Y-131822271D01*
X288005135Y-131897253D01*
X288041766Y-131916202D01*
X288101292Y-131945522D01*
X288153485Y-131969697D01*
X288201883Y-131990151D01*
X288250022Y-132008307D01*
X288301440Y-132025586D01*
X288353500Y-132041581D01*
X288504870Y-132081112D01*
X288653471Y-132108672D01*
X288800461Y-132124371D01*
X288947002Y-132128313D01*
X289094251Y-132120608D01*
X289147484Y-132115024D01*
X289297350Y-132091869D01*
X289441015Y-132058422D01*
X289580485Y-132014082D01*
X289717766Y-131958251D01*
X289795332Y-131921292D01*
X289931838Y-131846557D01*
X290059371Y-131763569D01*
X290178537Y-131671779D01*
X290289943Y-131570639D01*
X290394195Y-131459603D01*
X290491899Y-131338122D01*
X290578513Y-131213607D01*
X290598614Y-131180654D01*
X290622072Y-131138951D01*
X290647432Y-131091397D01*
X290673238Y-131040885D01*
X290698034Y-130990311D01*
X290720364Y-130942573D01*
X290738771Y-130900565D01*
X290749522Y-130873500D01*
X290799816Y-130720267D01*
X290837732Y-130566076D01*
X290863239Y-130411359D01*
X290876304Y-130256551D01*
X290876894Y-130102085D01*
X290864977Y-129948393D01*
X290840521Y-129795909D01*
X290832678Y-129759075D01*
X290805759Y-129650040D01*
X290775113Y-129549094D01*
X290739163Y-129451805D01*
X290696330Y-129353745D01*
X290666202Y-129291766D01*
X290591239Y-129156687D01*
X290505779Y-129028338D01*
X290410438Y-128907294D01*
X290305829Y-128794131D01*
X290192568Y-128689425D01*
X290071267Y-128593751D01*
X289942541Y-128507687D01*
X289807005Y-128431808D01*
X289691660Y-128377783D01*
X289554357Y-128324667D01*
X289416314Y-128283069D01*
X289275924Y-128252662D01*
X289131580Y-128233120D01*
X288981676Y-128224117D01*
X288931350Y-128223405D01*
X288772874Y-128228501D01*
X288619572Y-128245017D01*
X288470824Y-128273138D01*
X288326011Y-128313053D01*
X288184514Y-128364948D01*
X288045715Y-128429010D01*
X287908993Y-128505427D01*
X287828435Y-128556795D01*
X287716889Y-128638017D01*
X287609530Y-128729622D01*
X287507672Y-128830071D01*
X287412628Y-128937824D01*
X287325709Y-129051344D01*
X287248228Y-129169092D01*
X287181497Y-129289528D01*
X287153661Y-129347864D01*
X287104538Y-129463751D01*
X287064353Y-129575142D01*
X287032148Y-129685500D01*
X287006964Y-129798291D01*
X286987844Y-129916976D01*
X286981123Y-129971800D01*
X286977313Y-130017536D01*
X286974825Y-130072648D01*
X286973635Y-130133886D01*
X286547975Y-130133886D01*
X286548831Y-130063778D01*
X286553530Y-129959085D01*
X286561990Y-129861419D01*
X286574668Y-129768108D01*
X286592021Y-129676475D01*
X286614509Y-129583847D01*
X286642588Y-129487549D01*
X286676717Y-129384906D01*
X286689272Y-129349500D01*
X286751980Y-129193724D01*
X286826253Y-129043057D01*
X286911937Y-128897708D01*
X287008881Y-128757886D01*
X287116933Y-128623802D01*
X287235939Y-128495666D01*
X287365746Y-128373687D01*
X287451216Y-128301543D01*
X287519879Y-128249148D01*
X287597910Y-128195288D01*
X287682398Y-128141729D01*
X287770428Y-128090244D01*
X287859090Y-128042599D01*
X287945471Y-128000566D01*
X287950275Y-127998371D01*
X288006243Y-127974473D01*
X288071188Y-127949364D01*
X288141613Y-127924229D01*
X288214023Y-127900249D01*
X288284921Y-127878608D01*
X288350811Y-127860491D01*
X288376319Y-127854176D01*
X288450899Y-127837562D01*
X288522078Y-127824234D01*
X288592482Y-127813921D01*
X288664735Y-127806355D01*
X288741462Y-127801265D01*
X288825287Y-127798382D01*
X288918836Y-127797434D01*
X288928175Y-127797435D01*
G36*
X48624132Y-130445394D02*
G01*
X48791747Y-130449915D01*
X48907879Y-130457751D01*
X48976635Y-130469148D01*
X48999215Y-130479800D01*
X49031993Y-130547077D01*
X49025158Y-130622969D01*
X48981761Y-130679371D01*
X48977273Y-130681949D01*
X48927028Y-130692944D01*
X48826788Y-130702029D01*
X48686308Y-130708670D01*
X48515341Y-130712332D01*
X48412819Y-130712882D01*
X48224324Y-130712257D01*
X48086042Y-130709761D01*
X47988427Y-130704462D01*
X47921935Y-130695427D01*
X47877020Y-130681726D01*
X47844137Y-130662425D01*
X47836694Y-130656628D01*
X47790017Y-130609178D01*
X47787195Y-130561883D01*
X47802860Y-130522157D01*
X47838498Y-130443941D01*
X48400927Y-130443941D01*
X48624132Y-130445394D01*
X48624132Y-130445394D01*
G37*
X48624132Y-130445394D02*
X48791747Y-130449915D01*
X48907879Y-130457751D01*
X48976635Y-130469148D01*
X48999215Y-130479800D01*
X49031993Y-130547077D01*
X49025158Y-130622969D01*
X48981761Y-130679371D01*
X48977273Y-130681949D01*
X48927028Y-130692944D01*
X48826788Y-130702029D01*
X48686308Y-130708670D01*
X48515341Y-130712332D01*
X48412819Y-130712882D01*
X48224324Y-130712257D01*
X48086042Y-130709761D01*
X47988427Y-130704462D01*
X47921935Y-130695427D01*
X47877020Y-130681726D01*
X47844137Y-130662425D01*
X47836694Y-130656628D01*
X47790017Y-130609178D01*
X47787195Y-130561883D01*
X47802860Y-130522157D01*
X47838498Y-130443941D01*
X48400927Y-130443941D01*
X48624132Y-130445394D01*
G36*
X51545158Y-128712064D02*
G01*
X51574591Y-128761028D01*
X51575073Y-128769938D01*
X51559784Y-128809781D01*
X51516644Y-128892996D01*
X51449747Y-129012444D01*
X51363188Y-129160985D01*
X51261060Y-129331480D01*
X51147456Y-129516788D01*
X51139279Y-129529970D01*
X50703486Y-130231969D01*
X51142239Y-130936222D01*
X51257576Y-131122443D01*
X51362583Y-131294071D01*
X51453028Y-131444020D01*
X51524676Y-131565203D01*
X51573295Y-131650535D01*
X51594652Y-131692928D01*
X51595052Y-131694237D01*
X51585764Y-131755153D01*
X51559749Y-131788965D01*
X51518923Y-131812143D01*
X51466743Y-131811002D01*
X51385848Y-131786878D01*
X51345582Y-131771199D01*
X51309346Y-131750202D01*
X51272327Y-131717431D01*
X51229712Y-131666430D01*
X51176687Y-131590744D01*
X51108441Y-131483917D01*
X51020159Y-131339493D01*
X50907030Y-131151016D01*
X50887779Y-131118812D01*
X50783079Y-130945782D01*
X50687266Y-130791534D01*
X50604855Y-130663006D01*
X50540358Y-130567134D01*
X50498288Y-130510855D01*
X50484367Y-130498752D01*
X50461276Y-130524862D01*
X50412883Y-130595363D01*
X50343839Y-130702925D01*
X50258795Y-130840220D01*
X50162401Y-130999922D01*
X50106686Y-131093881D01*
X49968885Y-131323624D01*
X49856177Y-131502366D01*
X49766906Y-131632550D01*
X49699417Y-131716619D01*
X49661502Y-131751294D01*
X49557817Y-131807153D01*
X49478323Y-131812504D01*
X49429520Y-131782671D01*
X49397567Y-131727736D01*
X49393662Y-131704843D01*
X49408918Y-131669297D01*
X49451958Y-131590173D01*
X49518690Y-131474445D01*
X49605021Y-131329087D01*
X49706859Y-131161075D01*
X49820111Y-130977384D01*
X49826956Y-130966376D01*
X49940739Y-130782015D01*
X50043347Y-130612954D01*
X50130689Y-130466165D01*
X50198672Y-130348616D01*
X50243205Y-130267277D01*
X50260196Y-130229118D01*
X50260250Y-130228371D01*
X50244956Y-130192453D01*
X50201966Y-130113474D01*
X50135617Y-129998827D01*
X50050246Y-129855904D01*
X49950191Y-129692099D01*
X49868732Y-129560966D01*
X49732724Y-129343484D01*
X49625331Y-129170986D01*
X49543568Y-129037724D01*
X49484453Y-128937953D01*
X49445003Y-128865925D01*
X49422234Y-128815895D01*
X49413163Y-128782117D01*
X49414807Y-128758843D01*
X49424184Y-128740328D01*
X49434982Y-128725443D01*
X49493379Y-128691022D01*
X49578099Y-128691043D01*
X49669215Y-128722096D01*
X49744693Y-128778458D01*
X49778923Y-128824347D01*
X49837633Y-128912556D01*
X49914977Y-129033902D01*
X50005112Y-129179206D01*
X50102193Y-129339283D01*
X50110553Y-129353235D01*
X50207035Y-129514168D01*
X50295618Y-129661469D01*
X50370741Y-129785927D01*
X50426842Y-129878330D01*
X50458360Y-129929464D01*
X50459800Y-129931726D01*
X50475267Y-129952771D01*
X50491635Y-129961022D01*
X50513100Y-129951030D01*
X50543856Y-129917347D01*
X50588098Y-129854525D01*
X50650023Y-129757118D01*
X50733825Y-129619676D01*
X50843700Y-129436752D01*
X50853248Y-129420814D01*
X50955912Y-129250310D01*
X51050505Y-129094848D01*
X51132003Y-128962554D01*
X51195384Y-128861551D01*
X51235624Y-128799964D01*
X51245139Y-128786916D01*
X51315547Y-128729240D01*
X51399666Y-128696991D01*
X51481527Y-128690992D01*
X51545158Y-128712064D01*
X51545158Y-128712064D01*
G37*
X51545158Y-128712064D02*
X51574591Y-128761028D01*
X51575073Y-128769938D01*
X51559784Y-128809781D01*
X51516644Y-128892996D01*
X51449747Y-129012444D01*
X51363188Y-129160985D01*
X51261060Y-129331480D01*
X51147456Y-129516788D01*
X51139279Y-129529970D01*
X50703486Y-130231969D01*
X51142239Y-130936222D01*
X51257576Y-131122443D01*
X51362583Y-131294071D01*
X51453028Y-131444020D01*
X51524676Y-131565203D01*
X51573295Y-131650535D01*
X51594652Y-131692928D01*
X51595052Y-131694237D01*
X51585764Y-131755153D01*
X51559749Y-131788965D01*
X51518923Y-131812143D01*
X51466743Y-131811002D01*
X51385848Y-131786878D01*
X51345582Y-131771199D01*
X51309346Y-131750202D01*
X51272327Y-131717431D01*
X51229712Y-131666430D01*
X51176687Y-131590744D01*
X51108441Y-131483917D01*
X51020159Y-131339493D01*
X50907030Y-131151016D01*
X50887779Y-131118812D01*
X50783079Y-130945782D01*
X50687266Y-130791534D01*
X50604855Y-130663006D01*
X50540358Y-130567134D01*
X50498288Y-130510855D01*
X50484367Y-130498752D01*
X50461276Y-130524862D01*
X50412883Y-130595363D01*
X50343839Y-130702925D01*
X50258795Y-130840220D01*
X50162401Y-130999922D01*
X50106686Y-131093881D01*
X49968885Y-131323624D01*
X49856177Y-131502366D01*
X49766906Y-131632550D01*
X49699417Y-131716619D01*
X49661502Y-131751294D01*
X49557817Y-131807153D01*
X49478323Y-131812504D01*
X49429520Y-131782671D01*
X49397567Y-131727736D01*
X49393662Y-131704843D01*
X49408918Y-131669297D01*
X49451958Y-131590173D01*
X49518690Y-131474445D01*
X49605021Y-131329087D01*
X49706859Y-131161075D01*
X49820111Y-130977384D01*
X49826956Y-130966376D01*
X49940739Y-130782015D01*
X50043347Y-130612954D01*
X50130689Y-130466165D01*
X50198672Y-130348616D01*
X50243205Y-130267277D01*
X50260196Y-130229118D01*
X50260250Y-130228371D01*
X50244956Y-130192453D01*
X50201966Y-130113474D01*
X50135617Y-129998827D01*
X50050246Y-129855904D01*
X49950191Y-129692099D01*
X49868732Y-129560966D01*
X49732724Y-129343484D01*
X49625331Y-129170986D01*
X49543568Y-129037724D01*
X49484453Y-128937953D01*
X49445003Y-128865925D01*
X49422234Y-128815895D01*
X49413163Y-128782117D01*
X49414807Y-128758843D01*
X49424184Y-128740328D01*
X49434982Y-128725443D01*
X49493379Y-128691022D01*
X49578099Y-128691043D01*
X49669215Y-128722096D01*
X49744693Y-128778458D01*
X49778923Y-128824347D01*
X49837633Y-128912556D01*
X49914977Y-129033902D01*
X50005112Y-129179206D01*
X50102193Y-129339283D01*
X50110553Y-129353235D01*
X50207035Y-129514168D01*
X50295618Y-129661469D01*
X50370741Y-129785927D01*
X50426842Y-129878330D01*
X50458360Y-129929464D01*
X50459800Y-129931726D01*
X50475267Y-129952771D01*
X50491635Y-129961022D01*
X50513100Y-129951030D01*
X50543856Y-129917347D01*
X50588098Y-129854525D01*
X50650023Y-129757118D01*
X50733825Y-129619676D01*
X50843700Y-129436752D01*
X50853248Y-129420814D01*
X50955912Y-129250310D01*
X51050505Y-129094848D01*
X51132003Y-128962554D01*
X51195384Y-128861551D01*
X51235624Y-128799964D01*
X51245139Y-128786916D01*
X51315547Y-128729240D01*
X51399666Y-128696991D01*
X51481527Y-128690992D01*
X51545158Y-128712064D01*
G36*
X46699975Y-128680978D02*
G01*
X46925420Y-128681492D01*
X47103186Y-128682762D01*
X47239316Y-128685128D01*
X47339852Y-128688928D01*
X47410836Y-128694501D01*
X47458313Y-128702186D01*
X47488323Y-128712322D01*
X47506911Y-128725248D01*
X47520118Y-128741302D01*
X47521017Y-128742580D01*
X47550664Y-128826669D01*
X47527291Y-128902678D01*
X47460220Y-128952116D01*
X47403930Y-128962418D01*
X47301585Y-128970971D01*
X47166888Y-128976979D01*
X47013541Y-128979643D01*
X46986187Y-128979706D01*
X46584720Y-128979706D01*
X46584720Y-130339353D01*
X46584642Y-130659885D01*
X46584257Y-130925995D01*
X46583339Y-131143028D01*
X46581665Y-131316328D01*
X46579009Y-131451236D01*
X46575147Y-131553099D01*
X46569852Y-131627258D01*
X46562901Y-131679057D01*
X46554067Y-131713841D01*
X46543127Y-131736952D01*
X46529855Y-131753735D01*
X46524956Y-131758765D01*
X46455796Y-131809543D01*
X46388702Y-131808966D01*
X46322428Y-131772011D01*
X46256015Y-131725493D01*
X46256015Y-128979706D01*
X45845132Y-128979265D01*
X45643551Y-128976247D01*
X45494247Y-128966503D01*
X45389939Y-128948263D01*
X45323343Y-128919754D01*
X45287180Y-128879205D01*
X45275777Y-128840741D01*
X45288450Y-128770080D01*
X45315265Y-128729431D01*
X45333660Y-128716461D01*
X45364193Y-128705995D01*
X45412808Y-128697771D01*
X45485450Y-128691527D01*
X45588063Y-128687003D01*
X45726591Y-128683937D01*
X45906979Y-128682069D01*
X46135171Y-128681138D01*
X46417111Y-128680882D01*
X46420807Y-128680882D01*
X46699975Y-128680978D01*
X46699975Y-128680978D01*
G37*
X46699975Y-128680978D02*
X46925420Y-128681492D01*
X47103186Y-128682762D01*
X47239316Y-128685128D01*
X47339852Y-128688928D01*
X47410836Y-128694501D01*
X47458313Y-128702186D01*
X47488323Y-128712322D01*
X47506911Y-128725248D01*
X47520118Y-128741302D01*
X47521017Y-128742580D01*
X47550664Y-128826669D01*
X47527291Y-128902678D01*
X47460220Y-128952116D01*
X47403930Y-128962418D01*
X47301585Y-128970971D01*
X47166888Y-128976979D01*
X47013541Y-128979643D01*
X46986187Y-128979706D01*
X46584720Y-128979706D01*
X46584720Y-130339353D01*
X46584642Y-130659885D01*
X46584257Y-130925995D01*
X46583339Y-131143028D01*
X46581665Y-131316328D01*
X46579009Y-131451236D01*
X46575147Y-131553099D01*
X46569852Y-131627258D01*
X46562901Y-131679057D01*
X46554067Y-131713841D01*
X46543127Y-131736952D01*
X46529855Y-131753735D01*
X46524956Y-131758765D01*
X46455796Y-131809543D01*
X46388702Y-131808966D01*
X46322428Y-131772011D01*
X46256015Y-131725493D01*
X46256015Y-128979706D01*
X45845132Y-128979265D01*
X45643551Y-128976247D01*
X45494247Y-128966503D01*
X45389939Y-128948263D01*
X45323343Y-128919754D01*
X45287180Y-128879205D01*
X45275777Y-128840741D01*
X45288450Y-128770080D01*
X45315265Y-128729431D01*
X45333660Y-128716461D01*
X45364193Y-128705995D01*
X45412808Y-128697771D01*
X45485450Y-128691527D01*
X45588063Y-128687003D01*
X45726591Y-128683937D01*
X45906979Y-128682069D01*
X46135171Y-128681138D01*
X46417111Y-128680882D01*
X46420807Y-128680882D01*
X46699975Y-128680978D01*
G36*
X44443501Y-128735529D02*
G01*
X44454840Y-128752530D01*
X44464320Y-128779654D01*
X44472104Y-128821937D01*
X44478355Y-128884414D01*
X44483238Y-128972121D01*
X44486916Y-129090092D01*
X44489552Y-129243362D01*
X44491311Y-129436968D01*
X44492354Y-129675945D01*
X44492847Y-129965327D01*
X44492956Y-130257835D01*
X44492956Y-131725493D01*
X44426542Y-131772011D01*
X44351670Y-131812061D01*
X44288381Y-131806760D01*
X44219854Y-131761405D01*
X44149309Y-131704280D01*
X44149309Y-130255483D01*
X44149400Y-129923311D01*
X44149804Y-129645734D01*
X44150715Y-129417584D01*
X44152329Y-129233693D01*
X44154838Y-129088892D01*
X44158439Y-128978013D01*
X44163326Y-128895887D01*
X44169693Y-128837344D01*
X44177735Y-128797218D01*
X44187647Y-128770338D01*
X44199624Y-128751537D01*
X44206234Y-128743784D01*
X44286963Y-128690206D01*
X44373590Y-128689687D01*
X44443501Y-128735529D01*
X44443501Y-128735529D01*
G37*
X44443501Y-128735529D02*
X44454840Y-128752530D01*
X44464320Y-128779654D01*
X44472104Y-128821937D01*
X44478355Y-128884414D01*
X44483238Y-128972121D01*
X44486916Y-129090092D01*
X44489552Y-129243362D01*
X44491311Y-129436968D01*
X44492354Y-129675945D01*
X44492847Y-129965327D01*
X44492956Y-130257835D01*
X44492956Y-131725493D01*
X44426542Y-131772011D01*
X44351670Y-131812061D01*
X44288381Y-131806760D01*
X44219854Y-131761405D01*
X44149309Y-131704280D01*
X44149309Y-130255483D01*
X44149400Y-129923311D01*
X44149804Y-129645734D01*
X44150715Y-129417584D01*
X44152329Y-129233693D01*
X44154838Y-129088892D01*
X44158439Y-128978013D01*
X44163326Y-128895887D01*
X44169693Y-128837344D01*
X44177735Y-128797218D01*
X44187647Y-128770338D01*
X44199624Y-128751537D01*
X44206234Y-128743784D01*
X44286963Y-128690206D01*
X44373590Y-128689687D01*
X44443501Y-128735529D01*
G36*
X39643128Y-128656423D02*
G01*
X39691427Y-128657990D01*
X39924286Y-128670685D01*
X40110660Y-128693363D01*
X40263471Y-128729449D01*
X40395637Y-128782366D01*
X40520078Y-128855541D01*
X40570131Y-128890916D01*
X40698441Y-129020920D01*
X40787878Y-129187837D01*
X40835578Y-129380883D01*
X40838679Y-129589273D01*
X40803832Y-129771377D01*
X40758288Y-129892736D01*
X40691828Y-129995179D01*
X40604307Y-130089194D01*
X40526707Y-130161627D01*
X40464684Y-130213759D01*
X40431200Y-130234728D01*
X40430613Y-130234765D01*
X40389761Y-130245417D01*
X40317908Y-130271943D01*
X40294416Y-130281543D01*
X40182461Y-130328321D01*
X40257280Y-130408543D01*
X40320298Y-130485175D01*
X40388452Y-130580967D01*
X40409503Y-130613734D01*
X40444865Y-130679547D01*
X40494901Y-130784208D01*
X40555046Y-130916912D01*
X40620731Y-131066858D01*
X40687392Y-131223242D01*
X40750460Y-131375262D01*
X40805369Y-131512115D01*
X40847552Y-131622998D01*
X40872444Y-131697107D01*
X40877191Y-131720089D01*
X40851934Y-131771010D01*
X40788896Y-131798795D01*
X40707179Y-131798645D01*
X40646497Y-131778031D01*
X40611887Y-131754871D01*
X40578150Y-131717861D01*
X40541078Y-131659161D01*
X40496466Y-131570934D01*
X40440108Y-131445342D01*
X40367797Y-131274546D01*
X40338620Y-131204278D01*
X40245317Y-130983472D01*
X40167188Y-130812277D01*
X40099180Y-130684067D01*
X40036237Y-130592215D01*
X39973307Y-130530096D01*
X39905336Y-130491083D01*
X39827269Y-130468550D01*
X39770841Y-130459859D01*
X39650524Y-130450661D01*
X39506354Y-130447265D01*
X39398015Y-130449393D01*
X39188838Y-130458882D01*
X39173897Y-131096349D01*
X39168560Y-131308480D01*
X39163266Y-131468794D01*
X39157161Y-131585230D01*
X39149394Y-131665728D01*
X39139113Y-131718230D01*
X39125465Y-131750674D01*
X39107600Y-131771001D01*
X39100950Y-131776172D01*
X39031823Y-131813348D01*
X38969112Y-131806160D01*
X38911605Y-131772011D01*
X38845191Y-131725493D01*
X38845191Y-129397317D01*
X39173395Y-129397317D01*
X39173897Y-129582302D01*
X39173897Y-130182796D01*
X39569838Y-130168742D01*
X39746517Y-130160758D01*
X39877650Y-130149890D01*
X39977451Y-130134020D01*
X40060131Y-130111032D01*
X40122879Y-130086365D01*
X40295434Y-129983520D01*
X40420202Y-129848171D01*
X40494244Y-129685065D01*
X40514622Y-129498949D01*
X40511874Y-129458075D01*
X40472585Y-129289393D01*
X40387709Y-129155237D01*
X40252495Y-129048979D01*
X40197575Y-129019667D01*
X40117686Y-128983543D01*
X40042487Y-128958882D01*
X39956351Y-128942908D01*
X39843651Y-128932841D01*
X39688760Y-128925904D01*
X39665735Y-128925121D01*
X39506753Y-128919037D01*
X39386158Y-128917464D01*
X39298676Y-128927446D01*
X39239033Y-128956031D01*
X39201957Y-129010265D01*
X39182174Y-129097193D01*
X39174411Y-129223862D01*
X39173395Y-129397317D01*
X38845191Y-129397317D01*
X38845191Y-128838444D01*
X38922537Y-128761098D01*
X38976460Y-128718114D01*
X39045454Y-128686874D01*
X39138069Y-128666232D01*
X39262853Y-128655040D01*
X39428356Y-128652152D01*
X39643128Y-128656423D01*
X39643128Y-128656423D01*
G37*
X39643128Y-128656423D02*
X39691427Y-128657990D01*
X39924286Y-128670685D01*
X40110660Y-128693363D01*
X40263471Y-128729449D01*
X40395637Y-128782366D01*
X40520078Y-128855541D01*
X40570131Y-128890916D01*
X40698441Y-129020920D01*
X40787878Y-129187837D01*
X40835578Y-129380883D01*
X40838679Y-129589273D01*
X40803832Y-129771377D01*
X40758288Y-129892736D01*
X40691828Y-129995179D01*
X40604307Y-130089194D01*
X40526707Y-130161627D01*
X40464684Y-130213759D01*
X40431200Y-130234728D01*
X40430613Y-130234765D01*
X40389761Y-130245417D01*
X40317908Y-130271943D01*
X40294416Y-130281543D01*
X40182461Y-130328321D01*
X40257280Y-130408543D01*
X40320298Y-130485175D01*
X40388452Y-130580967D01*
X40409503Y-130613734D01*
X40444865Y-130679547D01*
X40494901Y-130784208D01*
X40555046Y-130916912D01*
X40620731Y-131066858D01*
X40687392Y-131223242D01*
X40750460Y-131375262D01*
X40805369Y-131512115D01*
X40847552Y-131622998D01*
X40872444Y-131697107D01*
X40877191Y-131720089D01*
X40851934Y-131771010D01*
X40788896Y-131798795D01*
X40707179Y-131798645D01*
X40646497Y-131778031D01*
X40611887Y-131754871D01*
X40578150Y-131717861D01*
X40541078Y-131659161D01*
X40496466Y-131570934D01*
X40440108Y-131445342D01*
X40367797Y-131274546D01*
X40338620Y-131204278D01*
X40245317Y-130983472D01*
X40167188Y-130812277D01*
X40099180Y-130684067D01*
X40036237Y-130592215D01*
X39973307Y-130530096D01*
X39905336Y-130491083D01*
X39827269Y-130468550D01*
X39770841Y-130459859D01*
X39650524Y-130450661D01*
X39506354Y-130447265D01*
X39398015Y-130449393D01*
X39188838Y-130458882D01*
X39173897Y-131096349D01*
X39168560Y-131308480D01*
X39163266Y-131468794D01*
X39157161Y-131585230D01*
X39149394Y-131665728D01*
X39139113Y-131718230D01*
X39125465Y-131750674D01*
X39107600Y-131771001D01*
X39100950Y-131776172D01*
X39031823Y-131813348D01*
X38969112Y-131806160D01*
X38911605Y-131772011D01*
X38845191Y-131725493D01*
X38845191Y-129397317D01*
X39173395Y-129397317D01*
X39173897Y-129582302D01*
X39173897Y-130182796D01*
X39569838Y-130168742D01*
X39746517Y-130160758D01*
X39877650Y-130149890D01*
X39977451Y-130134020D01*
X40060131Y-130111032D01*
X40122879Y-130086365D01*
X40295434Y-129983520D01*
X40420202Y-129848171D01*
X40494244Y-129685065D01*
X40514622Y-129498949D01*
X40511874Y-129458075D01*
X40472585Y-129289393D01*
X40387709Y-129155237D01*
X40252495Y-129048979D01*
X40197575Y-129019667D01*
X40117686Y-128983543D01*
X40042487Y-128958882D01*
X39956351Y-128942908D01*
X39843651Y-128932841D01*
X39688760Y-128925904D01*
X39665735Y-128925121D01*
X39506753Y-128919037D01*
X39386158Y-128917464D01*
X39298676Y-128927446D01*
X39239033Y-128956031D01*
X39201957Y-129010265D01*
X39182174Y-129097193D01*
X39174411Y-129223862D01*
X39173395Y-129397317D01*
X38845191Y-129397317D01*
X38845191Y-128838444D01*
X38922537Y-128761098D01*
X38976460Y-128718114D01*
X39045454Y-128686874D01*
X39138069Y-128666232D01*
X39262853Y-128655040D01*
X39428356Y-128652152D01*
X39643128Y-128656423D01*
G36*
X42367390Y-128668906D02*
G01*
X42512129Y-128672391D01*
X42620130Y-128679134D01*
X42702902Y-128690278D01*
X42771953Y-128706964D01*
X42838794Y-128730334D01*
X42849426Y-128734521D01*
X43040988Y-128835058D01*
X43181438Y-128965328D01*
X43273146Y-129128391D01*
X43318484Y-129327309D01*
X43319925Y-129342030D01*
X43324628Y-129455884D01*
X43310048Y-129547466D01*
X43270059Y-129648816D01*
X43255430Y-129679318D01*
X43144480Y-129843974D01*
X42994884Y-129974445D01*
X42820691Y-130058607D01*
X42813341Y-130060860D01*
X42742484Y-130091556D01*
X42719912Y-130121347D01*
X42748179Y-130141413D01*
X42788948Y-130145118D01*
X42875477Y-130162338D01*
X42987479Y-130207183D01*
X43104174Y-130269429D01*
X43204782Y-130338851D01*
X43233045Y-130363616D01*
X43357939Y-130513811D01*
X43431087Y-130681480D01*
X43458000Y-130879543D01*
X43458247Y-130891500D01*
X43447312Y-131101764D01*
X43403552Y-131274135D01*
X43321445Y-131423883D01*
X43224714Y-131537374D01*
X43119203Y-131635113D01*
X43012834Y-131709097D01*
X42894819Y-131762645D01*
X42754372Y-131799077D01*
X42580705Y-131821711D01*
X42363031Y-131833865D01*
X42251779Y-131836725D01*
X42082580Y-131838214D01*
X41926648Y-131836281D01*
X41797413Y-131831332D01*
X41708303Y-131823776D01*
X41684487Y-131819537D01*
X41591566Y-131778212D01*
X41513264Y-131715312D01*
X41512664Y-131714618D01*
X41444956Y-131635903D01*
X41444956Y-130264647D01*
X41773662Y-130264647D01*
X41773662Y-130893139D01*
X41773820Y-131101976D01*
X41774831Y-131258899D01*
X41777501Y-131371758D01*
X41782635Y-131448404D01*
X41791037Y-131496687D01*
X41803514Y-131524458D01*
X41820870Y-131539568D01*
X41840897Y-131548657D01*
X41912861Y-131563815D01*
X42027559Y-131573127D01*
X42168247Y-131576631D01*
X42318186Y-131574368D01*
X42460634Y-131566377D01*
X42578848Y-131552698D01*
X42610181Y-131546837D01*
X42798779Y-131478737D01*
X42949784Y-131366751D01*
X43058209Y-131216984D01*
X43119063Y-131035541D01*
X43130713Y-130909914D01*
X43111305Y-130728822D01*
X43048318Y-130579232D01*
X42939921Y-130460034D01*
X42784284Y-130370117D01*
X42579576Y-130308371D01*
X42323966Y-130273684D01*
X42066997Y-130264647D01*
X41773662Y-130264647D01*
X41444956Y-130264647D01*
X41444956Y-130264387D01*
X41445597Y-129890856D01*
X41447544Y-129575571D01*
X41450830Y-129317029D01*
X41451506Y-129287518D01*
X41773409Y-129287518D01*
X41773662Y-129468836D01*
X41774827Y-129633723D01*
X41778048Y-129777218D01*
X41782914Y-129888864D01*
X41789014Y-129958205D01*
X41793583Y-129975784D01*
X41835790Y-129987785D01*
X41922658Y-129994087D01*
X42039383Y-129994963D01*
X42171159Y-129990685D01*
X42303183Y-129981527D01*
X42420650Y-129967761D01*
X42445192Y-129963774D01*
X42655653Y-129907009D01*
X42817021Y-129819132D01*
X42928178Y-129701191D01*
X42988004Y-129554233D01*
X42998838Y-129445468D01*
X42978520Y-129276561D01*
X42914596Y-129145227D01*
X42802609Y-129043887D01*
X42742793Y-129009763D01*
X42668276Y-128976008D01*
X42592944Y-128953169D01*
X42501222Y-128938564D01*
X42377534Y-128929509D01*
X42248020Y-128924549D01*
X42081957Y-128919198D01*
X41959892Y-128920013D01*
X41875079Y-128934734D01*
X41820771Y-128971104D01*
X41790222Y-129036863D01*
X41776683Y-129139754D01*
X41773409Y-129287518D01*
X41451506Y-129287518D01*
X41455492Y-129113725D01*
X41461563Y-128964154D01*
X41469077Y-128866812D01*
X41478070Y-128820195D01*
X41478139Y-128820042D01*
X41508011Y-128767745D01*
X41548941Y-128728659D01*
X41609240Y-128700963D01*
X41697219Y-128682837D01*
X41821191Y-128672461D01*
X41989466Y-128668014D01*
X42174403Y-128667538D01*
X42367390Y-128668906D01*
X42367390Y-128668906D01*
G37*
X42367390Y-128668906D02*
X42512129Y-128672391D01*
X42620130Y-128679134D01*
X42702902Y-128690278D01*
X42771953Y-128706964D01*
X42838794Y-128730334D01*
X42849426Y-128734521D01*
X43040988Y-128835058D01*
X43181438Y-128965328D01*
X43273146Y-129128391D01*
X43318484Y-129327309D01*
X43319925Y-129342030D01*
X43324628Y-129455884D01*
X43310048Y-129547466D01*
X43270059Y-129648816D01*
X43255430Y-129679318D01*
X43144480Y-129843974D01*
X42994884Y-129974445D01*
X42820691Y-130058607D01*
X42813341Y-130060860D01*
X42742484Y-130091556D01*
X42719912Y-130121347D01*
X42748179Y-130141413D01*
X42788948Y-130145118D01*
X42875477Y-130162338D01*
X42987479Y-130207183D01*
X43104174Y-130269429D01*
X43204782Y-130338851D01*
X43233045Y-130363616D01*
X43357939Y-130513811D01*
X43431087Y-130681480D01*
X43458000Y-130879543D01*
X43458247Y-130891500D01*
X43447312Y-131101764D01*
X43403552Y-131274135D01*
X43321445Y-131423883D01*
X43224714Y-131537374D01*
X43119203Y-131635113D01*
X43012834Y-131709097D01*
X42894819Y-131762645D01*
X42754372Y-131799077D01*
X42580705Y-131821711D01*
X42363031Y-131833865D01*
X42251779Y-131836725D01*
X42082580Y-131838214D01*
X41926648Y-131836281D01*
X41797413Y-131831332D01*
X41708303Y-131823776D01*
X41684487Y-131819537D01*
X41591566Y-131778212D01*
X41513264Y-131715312D01*
X41512664Y-131714618D01*
X41444956Y-131635903D01*
X41444956Y-130264647D01*
X41773662Y-130264647D01*
X41773662Y-130893139D01*
X41773820Y-131101976D01*
X41774831Y-131258899D01*
X41777501Y-131371758D01*
X41782635Y-131448404D01*
X41791037Y-131496687D01*
X41803514Y-131524458D01*
X41820870Y-131539568D01*
X41840897Y-131548657D01*
X41912861Y-131563815D01*
X42027559Y-131573127D01*
X42168247Y-131576631D01*
X42318186Y-131574368D01*
X42460634Y-131566377D01*
X42578848Y-131552698D01*
X42610181Y-131546837D01*
X42798779Y-131478737D01*
X42949784Y-131366751D01*
X43058209Y-131216984D01*
X43119063Y-131035541D01*
X43130713Y-130909914D01*
X43111305Y-130728822D01*
X43048318Y-130579232D01*
X42939921Y-130460034D01*
X42784284Y-130370117D01*
X42579576Y-130308371D01*
X42323966Y-130273684D01*
X42066997Y-130264647D01*
X41773662Y-130264647D01*
X41444956Y-130264647D01*
X41444956Y-130264387D01*
X41445597Y-129890856D01*
X41447544Y-129575571D01*
X41450830Y-129317029D01*
X41451506Y-129287518D01*
X41773409Y-129287518D01*
X41773662Y-129468836D01*
X41774827Y-129633723D01*
X41778048Y-129777218D01*
X41782914Y-129888864D01*
X41789014Y-129958205D01*
X41793583Y-129975784D01*
X41835790Y-129987785D01*
X41922658Y-129994087D01*
X42039383Y-129994963D01*
X42171159Y-129990685D01*
X42303183Y-129981527D01*
X42420650Y-129967761D01*
X42445192Y-129963774D01*
X42655653Y-129907009D01*
X42817021Y-129819132D01*
X42928178Y-129701191D01*
X42988004Y-129554233D01*
X42998838Y-129445468D01*
X42978520Y-129276561D01*
X42914596Y-129145227D01*
X42802609Y-129043887D01*
X42742793Y-129009763D01*
X42668276Y-128976008D01*
X42592944Y-128953169D01*
X42501222Y-128938564D01*
X42377534Y-128929509D01*
X42248020Y-128924549D01*
X42081957Y-128919198D01*
X41959892Y-128920013D01*
X41875079Y-128934734D01*
X41820771Y-128971104D01*
X41790222Y-129036863D01*
X41776683Y-129139754D01*
X41773409Y-129287518D01*
X41451506Y-129287518D01*
X41455492Y-129113725D01*
X41461563Y-128964154D01*
X41469077Y-128866812D01*
X41478070Y-128820195D01*
X41478139Y-128820042D01*
X41508011Y-128767745D01*
X41548941Y-128728659D01*
X41609240Y-128700963D01*
X41697219Y-128682837D01*
X41821191Y-128672461D01*
X41989466Y-128668014D01*
X42174403Y-128667538D01*
X42367390Y-128668906D01*
G36*
X37044354Y-128669967D02*
G01*
X37306546Y-128728992D01*
X37538036Y-128831259D01*
X37746988Y-128979955D01*
X37858457Y-129085999D01*
X38024953Y-129288156D01*
X38146478Y-129504828D01*
X38225875Y-129744688D01*
X38265987Y-130016411D01*
X38269655Y-130328671D01*
X38269206Y-130339353D01*
X38248814Y-130600484D01*
X38209251Y-130817288D01*
X38145338Y-131003543D01*
X38051894Y-131173026D01*
X37923740Y-131339514D01*
X37871124Y-131398119D01*
X37683798Y-131563387D01*
X37462369Y-131698317D01*
X37226765Y-131791822D01*
X37115406Y-131818566D01*
X36928875Y-131840213D01*
X36717556Y-131844344D01*
X36508823Y-131831538D01*
X36330049Y-131802372D01*
X36328280Y-131801945D01*
X36064336Y-131710169D01*
X35831241Y-131568671D01*
X35678741Y-131434053D01*
X35495992Y-131207566D01*
X35359727Y-130947609D01*
X35271402Y-130660011D01*
X35232907Y-130354037D01*
X35580351Y-130354037D01*
X35613699Y-130622743D01*
X35685449Y-130867231D01*
X35723464Y-130951941D01*
X35852140Y-131151657D01*
X36018450Y-131322437D01*
X36210552Y-131454687D01*
X36416604Y-131538816D01*
X36461252Y-131549622D01*
X36652261Y-131571559D01*
X36863038Y-131565656D01*
X37068913Y-131534238D01*
X37245214Y-131479629D01*
X37256379Y-131474742D01*
X37439971Y-131364427D01*
X37609569Y-131210606D01*
X37749270Y-131029507D01*
X37817933Y-130901656D01*
X37858950Y-130786488D01*
X37897064Y-130641209D01*
X37924659Y-130495288D01*
X37926666Y-130480902D01*
X37942919Y-130179912D01*
X37910871Y-129897322D01*
X37833064Y-129638777D01*
X37712039Y-129409922D01*
X37550339Y-129216402D01*
X37350507Y-129063862D01*
X37268538Y-129019487D01*
X37186136Y-128981846D01*
X37112779Y-128957461D01*
X37031501Y-128943480D01*
X36925338Y-128937052D01*
X36777323Y-128935325D01*
X36767739Y-128935310D01*
X36619532Y-128936196D01*
X36513573Y-128941465D01*
X36432358Y-128954349D01*
X36358380Y-128978082D01*
X36274135Y-129015897D01*
X36239275Y-129032914D01*
X36056456Y-129147263D01*
X35892736Y-129295610D01*
X35763817Y-129462279D01*
X35712003Y-129559290D01*
X35629374Y-129806643D01*
X35585533Y-130076781D01*
X35580351Y-130354037D01*
X35232907Y-130354037D01*
X35232474Y-130350601D01*
X35244398Y-130025207D01*
X35276594Y-129824597D01*
X35364552Y-129532211D01*
X35498073Y-129276767D01*
X35673680Y-129061048D01*
X35887894Y-128887836D01*
X36137240Y-128759913D01*
X36418239Y-128680062D01*
X36727415Y-128651065D01*
X36743292Y-128651000D01*
X37044354Y-128669967D01*
X37044354Y-128669967D01*
G37*
X37044354Y-128669967D02*
X37306546Y-128728992D01*
X37538036Y-128831259D01*
X37746988Y-128979955D01*
X37858457Y-129085999D01*
X38024953Y-129288156D01*
X38146478Y-129504828D01*
X38225875Y-129744688D01*
X38265987Y-130016411D01*
X38269655Y-130328671D01*
X38269206Y-130339353D01*
X38248814Y-130600484D01*
X38209251Y-130817288D01*
X38145338Y-131003543D01*
X38051894Y-131173026D01*
X37923740Y-131339514D01*
X37871124Y-131398119D01*
X37683798Y-131563387D01*
X37462369Y-131698317D01*
X37226765Y-131791822D01*
X37115406Y-131818566D01*
X36928875Y-131840213D01*
X36717556Y-131844344D01*
X36508823Y-131831538D01*
X36330049Y-131802372D01*
X36328280Y-131801945D01*
X36064336Y-131710169D01*
X35831241Y-131568671D01*
X35678741Y-131434053D01*
X35495992Y-131207566D01*
X35359727Y-130947609D01*
X35271402Y-130660011D01*
X35232907Y-130354037D01*
X35580351Y-130354037D01*
X35613699Y-130622743D01*
X35685449Y-130867231D01*
X35723464Y-130951941D01*
X35852140Y-131151657D01*
X36018450Y-131322437D01*
X36210552Y-131454687D01*
X36416604Y-131538816D01*
X36461252Y-131549622D01*
X36652261Y-131571559D01*
X36863038Y-131565656D01*
X37068913Y-131534238D01*
X37245214Y-131479629D01*
X37256379Y-131474742D01*
X37439971Y-131364427D01*
X37609569Y-131210606D01*
X37749270Y-131029507D01*
X37817933Y-130901656D01*
X37858950Y-130786488D01*
X37897064Y-130641209D01*
X37924659Y-130495288D01*
X37926666Y-130480902D01*
X37942919Y-130179912D01*
X37910871Y-129897322D01*
X37833064Y-129638777D01*
X37712039Y-129409922D01*
X37550339Y-129216402D01*
X37350507Y-129063862D01*
X37268538Y-129019487D01*
X37186136Y-128981846D01*
X37112779Y-128957461D01*
X37031501Y-128943480D01*
X36925338Y-128937052D01*
X36777323Y-128935325D01*
X36767739Y-128935310D01*
X36619532Y-128936196D01*
X36513573Y-128941465D01*
X36432358Y-128954349D01*
X36358380Y-128978082D01*
X36274135Y-129015897D01*
X36239275Y-129032914D01*
X36056456Y-129147263D01*
X35892736Y-129295610D01*
X35763817Y-129462279D01*
X35712003Y-129559290D01*
X35629374Y-129806643D01*
X35585533Y-130076781D01*
X35580351Y-130354037D01*
X35232907Y-130354037D01*
X35232474Y-130350601D01*
X35244398Y-130025207D01*
X35276594Y-129824597D01*
X35364552Y-129532211D01*
X35498073Y-129276767D01*
X35673680Y-129061048D01*
X35887894Y-128887836D01*
X36137240Y-128759913D01*
X36418239Y-128680062D01*
X36727415Y-128651065D01*
X36743292Y-128651000D01*
X37044354Y-128669967D01*
G36*
X181127400Y-117405150D02*
G01*
X180803550Y-117405150D01*
X180803550Y-117081300D01*
X181127400Y-117081300D01*
X181127400Y-117405150D01*
X181127400Y-117405150D01*
G37*
X181127400Y-117405150D02*
X180803550Y-117405150D01*
X180803550Y-117081300D01*
X181127400Y-117081300D01*
X181127400Y-117405150D01*
G36*
X181451250Y-118033800D02*
G01*
X181127400Y-118033800D01*
X181127400Y-117729000D01*
X181451250Y-117729000D01*
X181451250Y-118033800D01*
X181451250Y-118033800D01*
G37*
X181451250Y-118033800D02*
X181127400Y-118033800D01*
X181127400Y-117729000D01*
X181451250Y-117729000D01*
X181451250Y-118033800D01*
G36*
X180803550Y-118033800D02*
G01*
X180498750Y-118033800D01*
X180498750Y-117729000D01*
X180803550Y-117729000D01*
X180803550Y-118033800D01*
X180803550Y-118033800D01*
G37*
X180803550Y-118033800D02*
X180498750Y-118033800D01*
X180498750Y-117729000D01*
X180803550Y-117729000D01*
X180803550Y-118033800D01*
G36*
X181756050Y-118681500D02*
G01*
X181451250Y-118681500D01*
X181451250Y-118357650D01*
X181756050Y-118357650D01*
X181756050Y-118681500D01*
X181756050Y-118681500D01*
G37*
X181756050Y-118681500D02*
X181451250Y-118681500D01*
X181451250Y-118357650D01*
X181756050Y-118357650D01*
X181756050Y-118681500D01*
G36*
X181127400Y-118681500D02*
G01*
X180803550Y-118681500D01*
X180803550Y-118357650D01*
X181127400Y-118357650D01*
X181127400Y-118681500D01*
X181127400Y-118681500D01*
G37*
X181127400Y-118681500D02*
X180803550Y-118681500D01*
X180803550Y-118357650D01*
X181127400Y-118357650D01*
X181127400Y-118681500D01*
G36*
X180498750Y-118681500D02*
G01*
X180174900Y-118681500D01*
X180174900Y-118357650D01*
X180498750Y-118357650D01*
X180498750Y-118681500D01*
X180498750Y-118681500D01*
G37*
X180498750Y-118681500D02*
X180174900Y-118681500D01*
X180174900Y-118357650D01*
X180498750Y-118357650D01*
X180498750Y-118681500D01*
G36*
X182079900Y-119310150D02*
G01*
X181756050Y-119310150D01*
X181756050Y-118986300D01*
X182079900Y-118986300D01*
X182079900Y-119310150D01*
X182079900Y-119310150D01*
G37*
X182079900Y-119310150D02*
X181756050Y-119310150D01*
X181756050Y-118986300D01*
X182079900Y-118986300D01*
X182079900Y-119310150D01*
G36*
X180174900Y-119310150D02*
G01*
X179851050Y-119310150D01*
X179851050Y-118986300D01*
X180174900Y-118986300D01*
X180174900Y-119310150D01*
X180174900Y-119310150D01*
G37*
X180174900Y-119310150D02*
X179851050Y-119310150D01*
X179851050Y-118986300D01*
X180174900Y-118986300D01*
X180174900Y-119310150D01*
G36*
X180978175Y-115891185D02*
G01*
X181077469Y-115892282D01*
X181166839Y-115895607D01*
X181248913Y-115901485D01*
X181326324Y-115910237D01*
X181401702Y-115922188D01*
X181477677Y-115937659D01*
X181556881Y-115956974D01*
X181593103Y-115966684D01*
X181759941Y-116018875D01*
X181921611Y-116082343D01*
X182077502Y-116156772D01*
X182226999Y-116241844D01*
X182369491Y-116337242D01*
X182491207Y-116431643D01*
X182617342Y-116544223D01*
X182735211Y-116665379D01*
X182844268Y-116794257D01*
X182943966Y-116930003D01*
X183033757Y-117071763D01*
X183113095Y-117218682D01*
X183181433Y-117369907D01*
X183238224Y-117524584D01*
X183277227Y-117658992D01*
X183303683Y-117770981D01*
X183323971Y-117876529D01*
X183338685Y-117979947D01*
X183348420Y-118085544D01*
X183353768Y-118197629D01*
X183354291Y-118217950D01*
X183352115Y-118392587D01*
X183337560Y-118564414D01*
X183310628Y-118733406D01*
X183271325Y-118899540D01*
X183219655Y-119062793D01*
X183168297Y-119193939D01*
X183145831Y-119246151D01*
X183126581Y-119289477D01*
X183109086Y-119326840D01*
X183091885Y-119361160D01*
X183073516Y-119395360D01*
X183052520Y-119432362D01*
X183029220Y-119472075D01*
X182933845Y-119621091D01*
X182829761Y-119760872D01*
X182716863Y-119891521D01*
X182595043Y-120013147D01*
X182464197Y-120125853D01*
X182324219Y-120229748D01*
X182178325Y-120322970D01*
X182136061Y-120347745D01*
X182099330Y-120368526D01*
X182065211Y-120386774D01*
X182030782Y-120403950D01*
X181993120Y-120421515D01*
X181949305Y-120440930D01*
X181900189Y-120462047D01*
X181823202Y-120493685D01*
X181752228Y-120520116D01*
X181682537Y-120542906D01*
X181609398Y-120563621D01*
X181543325Y-120580207D01*
X181411711Y-120608651D01*
X181286036Y-120629192D01*
X181162653Y-120642264D01*
X181037919Y-120648298D01*
X180965475Y-120648760D01*
X180924500Y-120648348D01*
X180886003Y-120647784D01*
X180852498Y-120647117D01*
X180826502Y-120646400D01*
X180810527Y-120645682D01*
X180809900Y-120645636D01*
X180636960Y-120626475D01*
X180466755Y-120595286D01*
X180299970Y-120552323D01*
X180137294Y-120497840D01*
X179979412Y-120432091D01*
X179827014Y-120355330D01*
X179680785Y-120267811D01*
X179560021Y-120183786D01*
X179421678Y-120073109D01*
X179293132Y-119954420D01*
X179174560Y-119827981D01*
X179066142Y-119694055D01*
X178968059Y-119552904D01*
X178880488Y-119404791D01*
X178803610Y-119249978D01*
X178737604Y-119088727D01*
X178682650Y-118921300D01*
X178672934Y-118886853D01*
X178651841Y-118805418D01*
X178634733Y-118728358D01*
X178621287Y-118653043D01*
X178611179Y-118576843D01*
X178604088Y-118497126D01*
X178599689Y-118411261D01*
X178597660Y-118316619D01*
X178597435Y-118271925D01*
X178597975Y-118227636D01*
X179023635Y-118227636D01*
X179023717Y-118291746D01*
X179025050Y-118355478D01*
X179027607Y-118415579D01*
X179031364Y-118468797D01*
X179034340Y-118497350D01*
X179059839Y-118655188D01*
X179097161Y-118808480D01*
X179146160Y-118956927D01*
X179206695Y-119100228D01*
X179278621Y-119238085D01*
X179361794Y-119370197D01*
X179456072Y-119496264D01*
X179561310Y-119615987D01*
X179579179Y-119634558D01*
X179686566Y-119736217D01*
X179803128Y-119830566D01*
X179926704Y-119916021D01*
X180055135Y-119991003D01*
X180091766Y-120009952D01*
X180151292Y-120039272D01*
X180203485Y-120063447D01*
X180251883Y-120083901D01*
X180300022Y-120102057D01*
X180351440Y-120119336D01*
X180403500Y-120135331D01*
X180554870Y-120174862D01*
X180703471Y-120202422D01*
X180850461Y-120218121D01*
X180997002Y-120222063D01*
X181144251Y-120214358D01*
X181197484Y-120208774D01*
X181347350Y-120185619D01*
X181491015Y-120152172D01*
X181630485Y-120107832D01*
X181767766Y-120052001D01*
X181845332Y-120015042D01*
X181981838Y-119940307D01*
X182109371Y-119857319D01*
X182228537Y-119765529D01*
X182339943Y-119664389D01*
X182444195Y-119553353D01*
X182541899Y-119431872D01*
X182628513Y-119307357D01*
X182648614Y-119274404D01*
X182672072Y-119232701D01*
X182697432Y-119185147D01*
X182723238Y-119134635D01*
X182748034Y-119084061D01*
X182770364Y-119036323D01*
X182788771Y-118994315D01*
X182799522Y-118967250D01*
X182849816Y-118814017D01*
X182887732Y-118659826D01*
X182913239Y-118505109D01*
X182926304Y-118350301D01*
X182926894Y-118195835D01*
X182914977Y-118042143D01*
X182890521Y-117889659D01*
X182882678Y-117852825D01*
X182855759Y-117743790D01*
X182825113Y-117642844D01*
X182789163Y-117545555D01*
X182746330Y-117447495D01*
X182716202Y-117385516D01*
X182641239Y-117250437D01*
X182555779Y-117122088D01*
X182460438Y-117001044D01*
X182355829Y-116887881D01*
X182242568Y-116783175D01*
X182121267Y-116687501D01*
X181992541Y-116601437D01*
X181857005Y-116525558D01*
X181741660Y-116471533D01*
X181604357Y-116418417D01*
X181466314Y-116376819D01*
X181325924Y-116346412D01*
X181181580Y-116326870D01*
X181031676Y-116317867D01*
X180981350Y-116317155D01*
X180822874Y-116322251D01*
X180669572Y-116338767D01*
X180520824Y-116366888D01*
X180376011Y-116406803D01*
X180234514Y-116458698D01*
X180095715Y-116522760D01*
X179958993Y-116599177D01*
X179878435Y-116650545D01*
X179766889Y-116731767D01*
X179659530Y-116823372D01*
X179557672Y-116923821D01*
X179462628Y-117031574D01*
X179375709Y-117145094D01*
X179298228Y-117262842D01*
X179231497Y-117383278D01*
X179203661Y-117441614D01*
X179154538Y-117557501D01*
X179114353Y-117668892D01*
X179082148Y-117779250D01*
X179056964Y-117892041D01*
X179037844Y-118010726D01*
X179031123Y-118065550D01*
X179027313Y-118111286D01*
X179024825Y-118166398D01*
X179023635Y-118227636D01*
X178597975Y-118227636D01*
X178598831Y-118157528D01*
X178603530Y-118052835D01*
X178611990Y-117955169D01*
X178624668Y-117861858D01*
X178642021Y-117770225D01*
X178664509Y-117677597D01*
X178692588Y-117581299D01*
X178726717Y-117478656D01*
X178739272Y-117443250D01*
X178801980Y-117287474D01*
X178876253Y-117136807D01*
X178961937Y-116991458D01*
X179058881Y-116851636D01*
X179166933Y-116717552D01*
X179285939Y-116589416D01*
X179415746Y-116467437D01*
X179501216Y-116395293D01*
X179569879Y-116342898D01*
X179647910Y-116289038D01*
X179732398Y-116235479D01*
X179820428Y-116183994D01*
X179909090Y-116136349D01*
X179995471Y-116094316D01*
X180000275Y-116092121D01*
X180056243Y-116068223D01*
X180121188Y-116043114D01*
X180191613Y-116017979D01*
X180264023Y-115993999D01*
X180334921Y-115972358D01*
X180400811Y-115954241D01*
X180426319Y-115947926D01*
X180500899Y-115931312D01*
X180572078Y-115917984D01*
X180642482Y-115907671D01*
X180714735Y-115900105D01*
X180791462Y-115895015D01*
X180875287Y-115892132D01*
X180968836Y-115891184D01*
X180978175Y-115891185D01*
X180978175Y-115891185D01*
G37*
X180978175Y-115891185D02*
X181077469Y-115892282D01*
X181166839Y-115895607D01*
X181248913Y-115901485D01*
X181326324Y-115910237D01*
X181401702Y-115922188D01*
X181477677Y-115937659D01*
X181556881Y-115956974D01*
X181593103Y-115966684D01*
X181759941Y-116018875D01*
X181921611Y-116082343D01*
X182077502Y-116156772D01*
X182226999Y-116241844D01*
X182369491Y-116337242D01*
X182491207Y-116431643D01*
X182617342Y-116544223D01*
X182735211Y-116665379D01*
X182844268Y-116794257D01*
X182943966Y-116930003D01*
X183033757Y-117071763D01*
X183113095Y-117218682D01*
X183181433Y-117369907D01*
X183238224Y-117524584D01*
X183277227Y-117658992D01*
X183303683Y-117770981D01*
X183323971Y-117876529D01*
X183338685Y-117979947D01*
X183348420Y-118085544D01*
X183353768Y-118197629D01*
X183354291Y-118217950D01*
X183352115Y-118392587D01*
X183337560Y-118564414D01*
X183310628Y-118733406D01*
X183271325Y-118899540D01*
X183219655Y-119062793D01*
X183168297Y-119193939D01*
X183145831Y-119246151D01*
X183126581Y-119289477D01*
X183109086Y-119326840D01*
X183091885Y-119361160D01*
X183073516Y-119395360D01*
X183052520Y-119432362D01*
X183029220Y-119472075D01*
X182933845Y-119621091D01*
X182829761Y-119760872D01*
X182716863Y-119891521D01*
X182595043Y-120013147D01*
X182464197Y-120125853D01*
X182324219Y-120229748D01*
X182178325Y-120322970D01*
X182136061Y-120347745D01*
X182099330Y-120368526D01*
X182065211Y-120386774D01*
X182030782Y-120403950D01*
X181993120Y-120421515D01*
X181949305Y-120440930D01*
X181900189Y-120462047D01*
X181823202Y-120493685D01*
X181752228Y-120520116D01*
X181682537Y-120542906D01*
X181609398Y-120563621D01*
X181543325Y-120580207D01*
X181411711Y-120608651D01*
X181286036Y-120629192D01*
X181162653Y-120642264D01*
X181037919Y-120648298D01*
X180965475Y-120648760D01*
X180924500Y-120648348D01*
X180886003Y-120647784D01*
X180852498Y-120647117D01*
X180826502Y-120646400D01*
X180810527Y-120645682D01*
X180809900Y-120645636D01*
X180636960Y-120626475D01*
X180466755Y-120595286D01*
X180299970Y-120552323D01*
X180137294Y-120497840D01*
X179979412Y-120432091D01*
X179827014Y-120355330D01*
X179680785Y-120267811D01*
X179560021Y-120183786D01*
X179421678Y-120073109D01*
X179293132Y-119954420D01*
X179174560Y-119827981D01*
X179066142Y-119694055D01*
X178968059Y-119552904D01*
X178880488Y-119404791D01*
X178803610Y-119249978D01*
X178737604Y-119088727D01*
X178682650Y-118921300D01*
X178672934Y-118886853D01*
X178651841Y-118805418D01*
X178634733Y-118728358D01*
X178621287Y-118653043D01*
X178611179Y-118576843D01*
X178604088Y-118497126D01*
X178599689Y-118411261D01*
X178597660Y-118316619D01*
X178597435Y-118271925D01*
X178597975Y-118227636D01*
X179023635Y-118227636D01*
X179023717Y-118291746D01*
X179025050Y-118355478D01*
X179027607Y-118415579D01*
X179031364Y-118468797D01*
X179034340Y-118497350D01*
X179059839Y-118655188D01*
X179097161Y-118808480D01*
X179146160Y-118956927D01*
X179206695Y-119100228D01*
X179278621Y-119238085D01*
X179361794Y-119370197D01*
X179456072Y-119496264D01*
X179561310Y-119615987D01*
X179579179Y-119634558D01*
X179686566Y-119736217D01*
X179803128Y-119830566D01*
X179926704Y-119916021D01*
X180055135Y-119991003D01*
X180091766Y-120009952D01*
X180151292Y-120039272D01*
X180203485Y-120063447D01*
X180251883Y-120083901D01*
X180300022Y-120102057D01*
X180351440Y-120119336D01*
X180403500Y-120135331D01*
X180554870Y-120174862D01*
X180703471Y-120202422D01*
X180850461Y-120218121D01*
X180997002Y-120222063D01*
X181144251Y-120214358D01*
X181197484Y-120208774D01*
X181347350Y-120185619D01*
X181491015Y-120152172D01*
X181630485Y-120107832D01*
X181767766Y-120052001D01*
X181845332Y-120015042D01*
X181981838Y-119940307D01*
X182109371Y-119857319D01*
X182228537Y-119765529D01*
X182339943Y-119664389D01*
X182444195Y-119553353D01*
X182541899Y-119431872D01*
X182628513Y-119307357D01*
X182648614Y-119274404D01*
X182672072Y-119232701D01*
X182697432Y-119185147D01*
X182723238Y-119134635D01*
X182748034Y-119084061D01*
X182770364Y-119036323D01*
X182788771Y-118994315D01*
X182799522Y-118967250D01*
X182849816Y-118814017D01*
X182887732Y-118659826D01*
X182913239Y-118505109D01*
X182926304Y-118350301D01*
X182926894Y-118195835D01*
X182914977Y-118042143D01*
X182890521Y-117889659D01*
X182882678Y-117852825D01*
X182855759Y-117743790D01*
X182825113Y-117642844D01*
X182789163Y-117545555D01*
X182746330Y-117447495D01*
X182716202Y-117385516D01*
X182641239Y-117250437D01*
X182555779Y-117122088D01*
X182460438Y-117001044D01*
X182355829Y-116887881D01*
X182242568Y-116783175D01*
X182121267Y-116687501D01*
X181992541Y-116601437D01*
X181857005Y-116525558D01*
X181741660Y-116471533D01*
X181604357Y-116418417D01*
X181466314Y-116376819D01*
X181325924Y-116346412D01*
X181181580Y-116326870D01*
X181031676Y-116317867D01*
X180981350Y-116317155D01*
X180822874Y-116322251D01*
X180669572Y-116338767D01*
X180520824Y-116366888D01*
X180376011Y-116406803D01*
X180234514Y-116458698D01*
X180095715Y-116522760D01*
X179958993Y-116599177D01*
X179878435Y-116650545D01*
X179766889Y-116731767D01*
X179659530Y-116823372D01*
X179557672Y-116923821D01*
X179462628Y-117031574D01*
X179375709Y-117145094D01*
X179298228Y-117262842D01*
X179231497Y-117383278D01*
X179203661Y-117441614D01*
X179154538Y-117557501D01*
X179114353Y-117668892D01*
X179082148Y-117779250D01*
X179056964Y-117892041D01*
X179037844Y-118010726D01*
X179031123Y-118065550D01*
X179027313Y-118111286D01*
X179024825Y-118166398D01*
X179023635Y-118227636D01*
X178597975Y-118227636D01*
X178598831Y-118157528D01*
X178603530Y-118052835D01*
X178611990Y-117955169D01*
X178624668Y-117861858D01*
X178642021Y-117770225D01*
X178664509Y-117677597D01*
X178692588Y-117581299D01*
X178726717Y-117478656D01*
X178739272Y-117443250D01*
X178801980Y-117287474D01*
X178876253Y-117136807D01*
X178961937Y-116991458D01*
X179058881Y-116851636D01*
X179166933Y-116717552D01*
X179285939Y-116589416D01*
X179415746Y-116467437D01*
X179501216Y-116395293D01*
X179569879Y-116342898D01*
X179647910Y-116289038D01*
X179732398Y-116235479D01*
X179820428Y-116183994D01*
X179909090Y-116136349D01*
X179995471Y-116094316D01*
X180000275Y-116092121D01*
X180056243Y-116068223D01*
X180121188Y-116043114D01*
X180191613Y-116017979D01*
X180264023Y-115993999D01*
X180334921Y-115972358D01*
X180400811Y-115954241D01*
X180426319Y-115947926D01*
X180500899Y-115931312D01*
X180572078Y-115917984D01*
X180642482Y-115907671D01*
X180714735Y-115900105D01*
X180791462Y-115895015D01*
X180875287Y-115892132D01*
X180968836Y-115891184D01*
X180978175Y-115891185D01*
G36*
X144614900Y-117405150D02*
G01*
X144291050Y-117405150D01*
X144291050Y-117081300D01*
X144614900Y-117081300D01*
X144614900Y-117405150D01*
X144614900Y-117405150D01*
G37*
X144614900Y-117405150D02*
X144291050Y-117405150D01*
X144291050Y-117081300D01*
X144614900Y-117081300D01*
X144614900Y-117405150D01*
G36*
X144938750Y-118033800D02*
G01*
X144614900Y-118033800D01*
X144614900Y-117729000D01*
X144938750Y-117729000D01*
X144938750Y-118033800D01*
X144938750Y-118033800D01*
G37*
X144938750Y-118033800D02*
X144614900Y-118033800D01*
X144614900Y-117729000D01*
X144938750Y-117729000D01*
X144938750Y-118033800D01*
G36*
X144291050Y-118033800D02*
G01*
X143986250Y-118033800D01*
X143986250Y-117729000D01*
X144291050Y-117729000D01*
X144291050Y-118033800D01*
X144291050Y-118033800D01*
G37*
X144291050Y-118033800D02*
X143986250Y-118033800D01*
X143986250Y-117729000D01*
X144291050Y-117729000D01*
X144291050Y-118033800D01*
G36*
X145243550Y-118681500D02*
G01*
X144938750Y-118681500D01*
X144938750Y-118357650D01*
X145243550Y-118357650D01*
X145243550Y-118681500D01*
X145243550Y-118681500D01*
G37*
X145243550Y-118681500D02*
X144938750Y-118681500D01*
X144938750Y-118357650D01*
X145243550Y-118357650D01*
X145243550Y-118681500D01*
G36*
X144614900Y-118681500D02*
G01*
X144291050Y-118681500D01*
X144291050Y-118357650D01*
X144614900Y-118357650D01*
X144614900Y-118681500D01*
X144614900Y-118681500D01*
G37*
X144614900Y-118681500D02*
X144291050Y-118681500D01*
X144291050Y-118357650D01*
X144614900Y-118357650D01*
X144614900Y-118681500D01*
G36*
X143986250Y-118681500D02*
G01*
X143662400Y-118681500D01*
X143662400Y-118357650D01*
X143986250Y-118357650D01*
X143986250Y-118681500D01*
X143986250Y-118681500D01*
G37*
X143986250Y-118681500D02*
X143662400Y-118681500D01*
X143662400Y-118357650D01*
X143986250Y-118357650D01*
X143986250Y-118681500D01*
G36*
X145567400Y-119310150D02*
G01*
X145243550Y-119310150D01*
X145243550Y-118986300D01*
X145567400Y-118986300D01*
X145567400Y-119310150D01*
X145567400Y-119310150D01*
G37*
X145567400Y-119310150D02*
X145243550Y-119310150D01*
X145243550Y-118986300D01*
X145567400Y-118986300D01*
X145567400Y-119310150D01*
G36*
X143662400Y-119310150D02*
G01*
X143338550Y-119310150D01*
X143338550Y-118986300D01*
X143662400Y-118986300D01*
X143662400Y-119310150D01*
X143662400Y-119310150D01*
G37*
X143662400Y-119310150D02*
X143338550Y-119310150D01*
X143338550Y-118986300D01*
X143662400Y-118986300D01*
X143662400Y-119310150D01*
G36*
X144465675Y-115891185D02*
G01*
X144564969Y-115892282D01*
X144654339Y-115895607D01*
X144736413Y-115901485D01*
X144813824Y-115910237D01*
X144889202Y-115922188D01*
X144965177Y-115937659D01*
X145044381Y-115956974D01*
X145080603Y-115966684D01*
X145247441Y-116018875D01*
X145409111Y-116082343D01*
X145565002Y-116156772D01*
X145714499Y-116241844D01*
X145856991Y-116337242D01*
X145978707Y-116431643D01*
X146104842Y-116544223D01*
X146222711Y-116665379D01*
X146331768Y-116794257D01*
X146431466Y-116930003D01*
X146521257Y-117071763D01*
X146600595Y-117218682D01*
X146668933Y-117369907D01*
X146725724Y-117524584D01*
X146764727Y-117658992D01*
X146791183Y-117770981D01*
X146811471Y-117876529D01*
X146826185Y-117979947D01*
X146835920Y-118085544D01*
X146841268Y-118197629D01*
X146841791Y-118217950D01*
X146839615Y-118392587D01*
X146825060Y-118564414D01*
X146798128Y-118733406D01*
X146758825Y-118899540D01*
X146707155Y-119062793D01*
X146655797Y-119193939D01*
X146633331Y-119246151D01*
X146614081Y-119289477D01*
X146596586Y-119326840D01*
X146579385Y-119361160D01*
X146561016Y-119395360D01*
X146540020Y-119432362D01*
X146516720Y-119472075D01*
X146421345Y-119621091D01*
X146317261Y-119760872D01*
X146204363Y-119891521D01*
X146082543Y-120013147D01*
X145951697Y-120125853D01*
X145811719Y-120229748D01*
X145665825Y-120322970D01*
X145623561Y-120347745D01*
X145586830Y-120368526D01*
X145552711Y-120386774D01*
X145518282Y-120403950D01*
X145480620Y-120421515D01*
X145436805Y-120440930D01*
X145387689Y-120462047D01*
X145310702Y-120493685D01*
X145239728Y-120520116D01*
X145170037Y-120542906D01*
X145096898Y-120563621D01*
X145030825Y-120580207D01*
X144899211Y-120608651D01*
X144773536Y-120629192D01*
X144650153Y-120642264D01*
X144525419Y-120648298D01*
X144452975Y-120648760D01*
X144412000Y-120648348D01*
X144373503Y-120647784D01*
X144339998Y-120647117D01*
X144314002Y-120646400D01*
X144298027Y-120645682D01*
X144297400Y-120645636D01*
X144124460Y-120626475D01*
X143954255Y-120595286D01*
X143787470Y-120552323D01*
X143624794Y-120497840D01*
X143466912Y-120432091D01*
X143314514Y-120355330D01*
X143168285Y-120267811D01*
X143047521Y-120183786D01*
X142909178Y-120073109D01*
X142780632Y-119954420D01*
X142662060Y-119827981D01*
X142553642Y-119694055D01*
X142455559Y-119552904D01*
X142367988Y-119404791D01*
X142291110Y-119249978D01*
X142225104Y-119088727D01*
X142170150Y-118921300D01*
X142160434Y-118886853D01*
X142139341Y-118805418D01*
X142122233Y-118728358D01*
X142108787Y-118653043D01*
X142098679Y-118576843D01*
X142091588Y-118497126D01*
X142087189Y-118411261D01*
X142085160Y-118316619D01*
X142084935Y-118271925D01*
X142085475Y-118227636D01*
X142511135Y-118227636D01*
X142511217Y-118291746D01*
X142512550Y-118355478D01*
X142515107Y-118415579D01*
X142518864Y-118468797D01*
X142521840Y-118497350D01*
X142547339Y-118655188D01*
X142584661Y-118808480D01*
X142633660Y-118956927D01*
X142694195Y-119100228D01*
X142766121Y-119238085D01*
X142849294Y-119370197D01*
X142943572Y-119496264D01*
X143048810Y-119615987D01*
X143066679Y-119634558D01*
X143174066Y-119736217D01*
X143290628Y-119830566D01*
X143414204Y-119916021D01*
X143542635Y-119991003D01*
X143579266Y-120009952D01*
X143638792Y-120039272D01*
X143690985Y-120063447D01*
X143739383Y-120083901D01*
X143787522Y-120102057D01*
X143838940Y-120119336D01*
X143891000Y-120135331D01*
X144042370Y-120174862D01*
X144190971Y-120202422D01*
X144337961Y-120218121D01*
X144484502Y-120222063D01*
X144631751Y-120214358D01*
X144684984Y-120208774D01*
X144834850Y-120185619D01*
X144978515Y-120152172D01*
X145117985Y-120107832D01*
X145255266Y-120052001D01*
X145332832Y-120015042D01*
X145469338Y-119940307D01*
X145596871Y-119857319D01*
X145716037Y-119765529D01*
X145827443Y-119664389D01*
X145931695Y-119553353D01*
X146029399Y-119431872D01*
X146116013Y-119307357D01*
X146136114Y-119274404D01*
X146159572Y-119232701D01*
X146184932Y-119185147D01*
X146210738Y-119134635D01*
X146235534Y-119084061D01*
X146257864Y-119036323D01*
X146276271Y-118994315D01*
X146287022Y-118967250D01*
X146337316Y-118814017D01*
X146375232Y-118659826D01*
X146400739Y-118505109D01*
X146413804Y-118350301D01*
X146414394Y-118195835D01*
X146402477Y-118042143D01*
X146378021Y-117889659D01*
X146370178Y-117852825D01*
X146343259Y-117743790D01*
X146312613Y-117642844D01*
X146276663Y-117545555D01*
X146233830Y-117447495D01*
X146203702Y-117385516D01*
X146128739Y-117250437D01*
X146043279Y-117122088D01*
X145947938Y-117001044D01*
X145843329Y-116887881D01*
X145730068Y-116783175D01*
X145608767Y-116687501D01*
X145480041Y-116601437D01*
X145344505Y-116525558D01*
X145229160Y-116471533D01*
X145091857Y-116418417D01*
X144953814Y-116376819D01*
X144813424Y-116346412D01*
X144669080Y-116326870D01*
X144519176Y-116317867D01*
X144468850Y-116317155D01*
X144310374Y-116322251D01*
X144157072Y-116338767D01*
X144008324Y-116366888D01*
X143863511Y-116406803D01*
X143722014Y-116458698D01*
X143583215Y-116522760D01*
X143446493Y-116599177D01*
X143365935Y-116650545D01*
X143254389Y-116731767D01*
X143147030Y-116823372D01*
X143045172Y-116923821D01*
X142950128Y-117031574D01*
X142863209Y-117145094D01*
X142785728Y-117262842D01*
X142718997Y-117383278D01*
X142691161Y-117441614D01*
X142642038Y-117557501D01*
X142601853Y-117668892D01*
X142569648Y-117779250D01*
X142544464Y-117892041D01*
X142525344Y-118010726D01*
X142518623Y-118065550D01*
X142514813Y-118111286D01*
X142512325Y-118166398D01*
X142511135Y-118227636D01*
X142085475Y-118227636D01*
X142086331Y-118157528D01*
X142091030Y-118052835D01*
X142099490Y-117955169D01*
X142112168Y-117861858D01*
X142129521Y-117770225D01*
X142152009Y-117677597D01*
X142180088Y-117581299D01*
X142214217Y-117478656D01*
X142226772Y-117443250D01*
X142289480Y-117287474D01*
X142363753Y-117136807D01*
X142449437Y-116991458D01*
X142546381Y-116851636D01*
X142654433Y-116717552D01*
X142773439Y-116589416D01*
X142903246Y-116467437D01*
X142988716Y-116395293D01*
X143057379Y-116342898D01*
X143135410Y-116289038D01*
X143219898Y-116235479D01*
X143307928Y-116183994D01*
X143396590Y-116136349D01*
X143482971Y-116094316D01*
X143487775Y-116092121D01*
X143543743Y-116068223D01*
X143608688Y-116043114D01*
X143679113Y-116017979D01*
X143751523Y-115993999D01*
X143822421Y-115972358D01*
X143888311Y-115954241D01*
X143913819Y-115947926D01*
X143988399Y-115931312D01*
X144059578Y-115917984D01*
X144129982Y-115907671D01*
X144202235Y-115900105D01*
X144278962Y-115895015D01*
X144362787Y-115892132D01*
X144456336Y-115891184D01*
X144465675Y-115891185D01*
X144465675Y-115891185D01*
G37*
X144465675Y-115891185D02*
X144564969Y-115892282D01*
X144654339Y-115895607D01*
X144736413Y-115901485D01*
X144813824Y-115910237D01*
X144889202Y-115922188D01*
X144965177Y-115937659D01*
X145044381Y-115956974D01*
X145080603Y-115966684D01*
X145247441Y-116018875D01*
X145409111Y-116082343D01*
X145565002Y-116156772D01*
X145714499Y-116241844D01*
X145856991Y-116337242D01*
X145978707Y-116431643D01*
X146104842Y-116544223D01*
X146222711Y-116665379D01*
X146331768Y-116794257D01*
X146431466Y-116930003D01*
X146521257Y-117071763D01*
X146600595Y-117218682D01*
X146668933Y-117369907D01*
X146725724Y-117524584D01*
X146764727Y-117658992D01*
X146791183Y-117770981D01*
X146811471Y-117876529D01*
X146826185Y-117979947D01*
X146835920Y-118085544D01*
X146841268Y-118197629D01*
X146841791Y-118217950D01*
X146839615Y-118392587D01*
X146825060Y-118564414D01*
X146798128Y-118733406D01*
X146758825Y-118899540D01*
X146707155Y-119062793D01*
X146655797Y-119193939D01*
X146633331Y-119246151D01*
X146614081Y-119289477D01*
X146596586Y-119326840D01*
X146579385Y-119361160D01*
X146561016Y-119395360D01*
X146540020Y-119432362D01*
X146516720Y-119472075D01*
X146421345Y-119621091D01*
X146317261Y-119760872D01*
X146204363Y-119891521D01*
X146082543Y-120013147D01*
X145951697Y-120125853D01*
X145811719Y-120229748D01*
X145665825Y-120322970D01*
X145623561Y-120347745D01*
X145586830Y-120368526D01*
X145552711Y-120386774D01*
X145518282Y-120403950D01*
X145480620Y-120421515D01*
X145436805Y-120440930D01*
X145387689Y-120462047D01*
X145310702Y-120493685D01*
X145239728Y-120520116D01*
X145170037Y-120542906D01*
X145096898Y-120563621D01*
X145030825Y-120580207D01*
X144899211Y-120608651D01*
X144773536Y-120629192D01*
X144650153Y-120642264D01*
X144525419Y-120648298D01*
X144452975Y-120648760D01*
X144412000Y-120648348D01*
X144373503Y-120647784D01*
X144339998Y-120647117D01*
X144314002Y-120646400D01*
X144298027Y-120645682D01*
X144297400Y-120645636D01*
X144124460Y-120626475D01*
X143954255Y-120595286D01*
X143787470Y-120552323D01*
X143624794Y-120497840D01*
X143466912Y-120432091D01*
X143314514Y-120355330D01*
X143168285Y-120267811D01*
X143047521Y-120183786D01*
X142909178Y-120073109D01*
X142780632Y-119954420D01*
X142662060Y-119827981D01*
X142553642Y-119694055D01*
X142455559Y-119552904D01*
X142367988Y-119404791D01*
X142291110Y-119249978D01*
X142225104Y-119088727D01*
X142170150Y-118921300D01*
X142160434Y-118886853D01*
X142139341Y-118805418D01*
X142122233Y-118728358D01*
X142108787Y-118653043D01*
X142098679Y-118576843D01*
X142091588Y-118497126D01*
X142087189Y-118411261D01*
X142085160Y-118316619D01*
X142084935Y-118271925D01*
X142085475Y-118227636D01*
X142511135Y-118227636D01*
X142511217Y-118291746D01*
X142512550Y-118355478D01*
X142515107Y-118415579D01*
X142518864Y-118468797D01*
X142521840Y-118497350D01*
X142547339Y-118655188D01*
X142584661Y-118808480D01*
X142633660Y-118956927D01*
X142694195Y-119100228D01*
X142766121Y-119238085D01*
X142849294Y-119370197D01*
X142943572Y-119496264D01*
X143048810Y-119615987D01*
X143066679Y-119634558D01*
X143174066Y-119736217D01*
X143290628Y-119830566D01*
X143414204Y-119916021D01*
X143542635Y-119991003D01*
X143579266Y-120009952D01*
X143638792Y-120039272D01*
X143690985Y-120063447D01*
X143739383Y-120083901D01*
X143787522Y-120102057D01*
X143838940Y-120119336D01*
X143891000Y-120135331D01*
X144042370Y-120174862D01*
X144190971Y-120202422D01*
X144337961Y-120218121D01*
X144484502Y-120222063D01*
X144631751Y-120214358D01*
X144684984Y-120208774D01*
X144834850Y-120185619D01*
X144978515Y-120152172D01*
X145117985Y-120107832D01*
X145255266Y-120052001D01*
X145332832Y-120015042D01*
X145469338Y-119940307D01*
X145596871Y-119857319D01*
X145716037Y-119765529D01*
X145827443Y-119664389D01*
X145931695Y-119553353D01*
X146029399Y-119431872D01*
X146116013Y-119307357D01*
X146136114Y-119274404D01*
X146159572Y-119232701D01*
X146184932Y-119185147D01*
X146210738Y-119134635D01*
X146235534Y-119084061D01*
X146257864Y-119036323D01*
X146276271Y-118994315D01*
X146287022Y-118967250D01*
X146337316Y-118814017D01*
X146375232Y-118659826D01*
X146400739Y-118505109D01*
X146413804Y-118350301D01*
X146414394Y-118195835D01*
X146402477Y-118042143D01*
X146378021Y-117889659D01*
X146370178Y-117852825D01*
X146343259Y-117743790D01*
X146312613Y-117642844D01*
X146276663Y-117545555D01*
X146233830Y-117447495D01*
X146203702Y-117385516D01*
X146128739Y-117250437D01*
X146043279Y-117122088D01*
X145947938Y-117001044D01*
X145843329Y-116887881D01*
X145730068Y-116783175D01*
X145608767Y-116687501D01*
X145480041Y-116601437D01*
X145344505Y-116525558D01*
X145229160Y-116471533D01*
X145091857Y-116418417D01*
X144953814Y-116376819D01*
X144813424Y-116346412D01*
X144669080Y-116326870D01*
X144519176Y-116317867D01*
X144468850Y-116317155D01*
X144310374Y-116322251D01*
X144157072Y-116338767D01*
X144008324Y-116366888D01*
X143863511Y-116406803D01*
X143722014Y-116458698D01*
X143583215Y-116522760D01*
X143446493Y-116599177D01*
X143365935Y-116650545D01*
X143254389Y-116731767D01*
X143147030Y-116823372D01*
X143045172Y-116923821D01*
X142950128Y-117031574D01*
X142863209Y-117145094D01*
X142785728Y-117262842D01*
X142718997Y-117383278D01*
X142691161Y-117441614D01*
X142642038Y-117557501D01*
X142601853Y-117668892D01*
X142569648Y-117779250D01*
X142544464Y-117892041D01*
X142525344Y-118010726D01*
X142518623Y-118065550D01*
X142514813Y-118111286D01*
X142512325Y-118166398D01*
X142511135Y-118227636D01*
X142085475Y-118227636D01*
X142086331Y-118157528D01*
X142091030Y-118052835D01*
X142099490Y-117955169D01*
X142112168Y-117861858D01*
X142129521Y-117770225D01*
X142152009Y-117677597D01*
X142180088Y-117581299D01*
X142214217Y-117478656D01*
X142226772Y-117443250D01*
X142289480Y-117287474D01*
X142363753Y-117136807D01*
X142449437Y-116991458D01*
X142546381Y-116851636D01*
X142654433Y-116717552D01*
X142773439Y-116589416D01*
X142903246Y-116467437D01*
X142988716Y-116395293D01*
X143057379Y-116342898D01*
X143135410Y-116289038D01*
X143219898Y-116235479D01*
X143307928Y-116183994D01*
X143396590Y-116136349D01*
X143482971Y-116094316D01*
X143487775Y-116092121D01*
X143543743Y-116068223D01*
X143608688Y-116043114D01*
X143679113Y-116017979D01*
X143751523Y-115993999D01*
X143822421Y-115972358D01*
X143888311Y-115954241D01*
X143913819Y-115947926D01*
X143988399Y-115931312D01*
X144059578Y-115917984D01*
X144129982Y-115907671D01*
X144202235Y-115900105D01*
X144278962Y-115895015D01*
X144362787Y-115892132D01*
X144456336Y-115891184D01*
X144465675Y-115891185D01*
G36*
X278017882Y-95520394D02*
G01*
X278185497Y-95524915D01*
X278301629Y-95532751D01*
X278370385Y-95544148D01*
X278392965Y-95554800D01*
X278425743Y-95622077D01*
X278418908Y-95697969D01*
X278375511Y-95754371D01*
X278371023Y-95756949D01*
X278320778Y-95767944D01*
X278220538Y-95777029D01*
X278080058Y-95783670D01*
X277909091Y-95787332D01*
X277806569Y-95787882D01*
X277618074Y-95787257D01*
X277479792Y-95784761D01*
X277382177Y-95779462D01*
X277315685Y-95770427D01*
X277270770Y-95756726D01*
X277237887Y-95737425D01*
X277230444Y-95731628D01*
X277183767Y-95684178D01*
X277180945Y-95636883D01*
X277196610Y-95597157D01*
X277232248Y-95518941D01*
X277794677Y-95518941D01*
X278017882Y-95520394D01*
X278017882Y-95520394D01*
G37*
X278017882Y-95520394D02*
X278185497Y-95524915D01*
X278301629Y-95532751D01*
X278370385Y-95544148D01*
X278392965Y-95554800D01*
X278425743Y-95622077D01*
X278418908Y-95697969D01*
X278375511Y-95754371D01*
X278371023Y-95756949D01*
X278320778Y-95767944D01*
X278220538Y-95777029D01*
X278080058Y-95783670D01*
X277909091Y-95787332D01*
X277806569Y-95787882D01*
X277618074Y-95787257D01*
X277479792Y-95784761D01*
X277382177Y-95779462D01*
X277315685Y-95770427D01*
X277270770Y-95756726D01*
X277237887Y-95737425D01*
X277230444Y-95731628D01*
X277183767Y-95684178D01*
X277180945Y-95636883D01*
X277196610Y-95597157D01*
X277232248Y-95518941D01*
X277794677Y-95518941D01*
X278017882Y-95520394D01*
G36*
X280938908Y-93787064D02*
G01*
X280968341Y-93836028D01*
X280968823Y-93844938D01*
X280953534Y-93884781D01*
X280910394Y-93967996D01*
X280843497Y-94087444D01*
X280756938Y-94235985D01*
X280654810Y-94406480D01*
X280541206Y-94591788D01*
X280533029Y-94604970D01*
X280097236Y-95306969D01*
X280535989Y-96011222D01*
X280651326Y-96197443D01*
X280756333Y-96369071D01*
X280846778Y-96519020D01*
X280918426Y-96640203D01*
X280967045Y-96725535D01*
X280988402Y-96767928D01*
X280988802Y-96769237D01*
X280979514Y-96830153D01*
X280953499Y-96863965D01*
X280912673Y-96887143D01*
X280860493Y-96886002D01*
X280779598Y-96861878D01*
X280739332Y-96846199D01*
X280703096Y-96825202D01*
X280666077Y-96792431D01*
X280623462Y-96741430D01*
X280570437Y-96665744D01*
X280502191Y-96558917D01*
X280413909Y-96414493D01*
X280300780Y-96226016D01*
X280281529Y-96193812D01*
X280176829Y-96020782D01*
X280081016Y-95866534D01*
X279998605Y-95738006D01*
X279934108Y-95642134D01*
X279892038Y-95585855D01*
X279878117Y-95573752D01*
X279855026Y-95599862D01*
X279806633Y-95670363D01*
X279737589Y-95777925D01*
X279652545Y-95915220D01*
X279556151Y-96074922D01*
X279500436Y-96168881D01*
X279362635Y-96398624D01*
X279249927Y-96577366D01*
X279160656Y-96707550D01*
X279093167Y-96791619D01*
X279055252Y-96826294D01*
X278951567Y-96882153D01*
X278872073Y-96887504D01*
X278823270Y-96857671D01*
X278791317Y-96802736D01*
X278787412Y-96779843D01*
X278802668Y-96744297D01*
X278845708Y-96665173D01*
X278912440Y-96549445D01*
X278998771Y-96404087D01*
X279100609Y-96236075D01*
X279213861Y-96052384D01*
X279220706Y-96041376D01*
X279334489Y-95857015D01*
X279437097Y-95687954D01*
X279524439Y-95541165D01*
X279592422Y-95423616D01*
X279636955Y-95342277D01*
X279653946Y-95304118D01*
X279654000Y-95303371D01*
X279638706Y-95267453D01*
X279595716Y-95188474D01*
X279529367Y-95073827D01*
X279443996Y-94930904D01*
X279343941Y-94767099D01*
X279262482Y-94635966D01*
X279126474Y-94418484D01*
X279019081Y-94245986D01*
X278937318Y-94112724D01*
X278878203Y-94012953D01*
X278838753Y-93940925D01*
X278815984Y-93890895D01*
X278806913Y-93857117D01*
X278808557Y-93833843D01*
X278817934Y-93815328D01*
X278828732Y-93800443D01*
X278887129Y-93766022D01*
X278971849Y-93766043D01*
X279062965Y-93797096D01*
X279138443Y-93853458D01*
X279172673Y-93899347D01*
X279231383Y-93987556D01*
X279308727Y-94108902D01*
X279398862Y-94254206D01*
X279495943Y-94414283D01*
X279504303Y-94428235D01*
X279600785Y-94589168D01*
X279689368Y-94736469D01*
X279764491Y-94860927D01*
X279820592Y-94953330D01*
X279852110Y-95004464D01*
X279853550Y-95006726D01*
X279869017Y-95027771D01*
X279885385Y-95036022D01*
X279906850Y-95026030D01*
X279937606Y-94992347D01*
X279981848Y-94929525D01*
X280043773Y-94832118D01*
X280127575Y-94694676D01*
X280237450Y-94511752D01*
X280246998Y-94495814D01*
X280349662Y-94325310D01*
X280444255Y-94169848D01*
X280525753Y-94037554D01*
X280589134Y-93936551D01*
X280629374Y-93874964D01*
X280638889Y-93861916D01*
X280709297Y-93804240D01*
X280793416Y-93771991D01*
X280875277Y-93765992D01*
X280938908Y-93787064D01*
X280938908Y-93787064D01*
G37*
X280938908Y-93787064D02*
X280968341Y-93836028D01*
X280968823Y-93844938D01*
X280953534Y-93884781D01*
X280910394Y-93967996D01*
X280843497Y-94087444D01*
X280756938Y-94235985D01*
X280654810Y-94406480D01*
X280541206Y-94591788D01*
X280533029Y-94604970D01*
X280097236Y-95306969D01*
X280535989Y-96011222D01*
X280651326Y-96197443D01*
X280756333Y-96369071D01*
X280846778Y-96519020D01*
X280918426Y-96640203D01*
X280967045Y-96725535D01*
X280988402Y-96767928D01*
X280988802Y-96769237D01*
X280979514Y-96830153D01*
X280953499Y-96863965D01*
X280912673Y-96887143D01*
X280860493Y-96886002D01*
X280779598Y-96861878D01*
X280739332Y-96846199D01*
X280703096Y-96825202D01*
X280666077Y-96792431D01*
X280623462Y-96741430D01*
X280570437Y-96665744D01*
X280502191Y-96558917D01*
X280413909Y-96414493D01*
X280300780Y-96226016D01*
X280281529Y-96193812D01*
X280176829Y-96020782D01*
X280081016Y-95866534D01*
X279998605Y-95738006D01*
X279934108Y-95642134D01*
X279892038Y-95585855D01*
X279878117Y-95573752D01*
X279855026Y-95599862D01*
X279806633Y-95670363D01*
X279737589Y-95777925D01*
X279652545Y-95915220D01*
X279556151Y-96074922D01*
X279500436Y-96168881D01*
X279362635Y-96398624D01*
X279249927Y-96577366D01*
X279160656Y-96707550D01*
X279093167Y-96791619D01*
X279055252Y-96826294D01*
X278951567Y-96882153D01*
X278872073Y-96887504D01*
X278823270Y-96857671D01*
X278791317Y-96802736D01*
X278787412Y-96779843D01*
X278802668Y-96744297D01*
X278845708Y-96665173D01*
X278912440Y-96549445D01*
X278998771Y-96404087D01*
X279100609Y-96236075D01*
X279213861Y-96052384D01*
X279220706Y-96041376D01*
X279334489Y-95857015D01*
X279437097Y-95687954D01*
X279524439Y-95541165D01*
X279592422Y-95423616D01*
X279636955Y-95342277D01*
X279653946Y-95304118D01*
X279654000Y-95303371D01*
X279638706Y-95267453D01*
X279595716Y-95188474D01*
X279529367Y-95073827D01*
X279443996Y-94930904D01*
X279343941Y-94767099D01*
X279262482Y-94635966D01*
X279126474Y-94418484D01*
X279019081Y-94245986D01*
X278937318Y-94112724D01*
X278878203Y-94012953D01*
X278838753Y-93940925D01*
X278815984Y-93890895D01*
X278806913Y-93857117D01*
X278808557Y-93833843D01*
X278817934Y-93815328D01*
X278828732Y-93800443D01*
X278887129Y-93766022D01*
X278971849Y-93766043D01*
X279062965Y-93797096D01*
X279138443Y-93853458D01*
X279172673Y-93899347D01*
X279231383Y-93987556D01*
X279308727Y-94108902D01*
X279398862Y-94254206D01*
X279495943Y-94414283D01*
X279504303Y-94428235D01*
X279600785Y-94589168D01*
X279689368Y-94736469D01*
X279764491Y-94860927D01*
X279820592Y-94953330D01*
X279852110Y-95004464D01*
X279853550Y-95006726D01*
X279869017Y-95027771D01*
X279885385Y-95036022D01*
X279906850Y-95026030D01*
X279937606Y-94992347D01*
X279981848Y-94929525D01*
X280043773Y-94832118D01*
X280127575Y-94694676D01*
X280237450Y-94511752D01*
X280246998Y-94495814D01*
X280349662Y-94325310D01*
X280444255Y-94169848D01*
X280525753Y-94037554D01*
X280589134Y-93936551D01*
X280629374Y-93874964D01*
X280638889Y-93861916D01*
X280709297Y-93804240D01*
X280793416Y-93771991D01*
X280875277Y-93765992D01*
X280938908Y-93787064D01*
G36*
X276093725Y-93755978D02*
G01*
X276319170Y-93756492D01*
X276496936Y-93757762D01*
X276633066Y-93760128D01*
X276733602Y-93763928D01*
X276804586Y-93769501D01*
X276852063Y-93777186D01*
X276882073Y-93787322D01*
X276900661Y-93800248D01*
X276913868Y-93816302D01*
X276914767Y-93817580D01*
X276944414Y-93901669D01*
X276921041Y-93977678D01*
X276853970Y-94027116D01*
X276797680Y-94037418D01*
X276695335Y-94045971D01*
X276560638Y-94051979D01*
X276407291Y-94054643D01*
X276379937Y-94054706D01*
X275978470Y-94054706D01*
X275978470Y-95414353D01*
X275978392Y-95734885D01*
X275978007Y-96000995D01*
X275977089Y-96218028D01*
X275975415Y-96391328D01*
X275972759Y-96526236D01*
X275968897Y-96628099D01*
X275963602Y-96702258D01*
X275956651Y-96754057D01*
X275947817Y-96788841D01*
X275936877Y-96811952D01*
X275923605Y-96828735D01*
X275918706Y-96833765D01*
X275849546Y-96884543D01*
X275782452Y-96883966D01*
X275716178Y-96847011D01*
X275649765Y-96800493D01*
X275649765Y-94054706D01*
X275238882Y-94054265D01*
X275037301Y-94051247D01*
X274887997Y-94041503D01*
X274783689Y-94023263D01*
X274717093Y-93994754D01*
X274680930Y-93954205D01*
X274669527Y-93915741D01*
X274682200Y-93845080D01*
X274709015Y-93804431D01*
X274727410Y-93791461D01*
X274757943Y-93780995D01*
X274806558Y-93772771D01*
X274879200Y-93766527D01*
X274981813Y-93762003D01*
X275120341Y-93758937D01*
X275300729Y-93757069D01*
X275528921Y-93756138D01*
X275810861Y-93755882D01*
X275814557Y-93755882D01*
X276093725Y-93755978D01*
X276093725Y-93755978D01*
G37*
X276093725Y-93755978D02*
X276319170Y-93756492D01*
X276496936Y-93757762D01*
X276633066Y-93760128D01*
X276733602Y-93763928D01*
X276804586Y-93769501D01*
X276852063Y-93777186D01*
X276882073Y-93787322D01*
X276900661Y-93800248D01*
X276913868Y-93816302D01*
X276914767Y-93817580D01*
X276944414Y-93901669D01*
X276921041Y-93977678D01*
X276853970Y-94027116D01*
X276797680Y-94037418D01*
X276695335Y-94045971D01*
X276560638Y-94051979D01*
X276407291Y-94054643D01*
X276379937Y-94054706D01*
X275978470Y-94054706D01*
X275978470Y-95414353D01*
X275978392Y-95734885D01*
X275978007Y-96000995D01*
X275977089Y-96218028D01*
X275975415Y-96391328D01*
X275972759Y-96526236D01*
X275968897Y-96628099D01*
X275963602Y-96702258D01*
X275956651Y-96754057D01*
X275947817Y-96788841D01*
X275936877Y-96811952D01*
X275923605Y-96828735D01*
X275918706Y-96833765D01*
X275849546Y-96884543D01*
X275782452Y-96883966D01*
X275716178Y-96847011D01*
X275649765Y-96800493D01*
X275649765Y-94054706D01*
X275238882Y-94054265D01*
X275037301Y-94051247D01*
X274887997Y-94041503D01*
X274783689Y-94023263D01*
X274717093Y-93994754D01*
X274680930Y-93954205D01*
X274669527Y-93915741D01*
X274682200Y-93845080D01*
X274709015Y-93804431D01*
X274727410Y-93791461D01*
X274757943Y-93780995D01*
X274806558Y-93772771D01*
X274879200Y-93766527D01*
X274981813Y-93762003D01*
X275120341Y-93758937D01*
X275300729Y-93757069D01*
X275528921Y-93756138D01*
X275810861Y-93755882D01*
X275814557Y-93755882D01*
X276093725Y-93755978D01*
G36*
X273837251Y-93810529D02*
G01*
X273848590Y-93827530D01*
X273858070Y-93854654D01*
X273865854Y-93896937D01*
X273872105Y-93959414D01*
X273876988Y-94047121D01*
X273880666Y-94165092D01*
X273883302Y-94318362D01*
X273885061Y-94511968D01*
X273886104Y-94750945D01*
X273886597Y-95040327D01*
X273886706Y-95332835D01*
X273886706Y-96800493D01*
X273820292Y-96847011D01*
X273745420Y-96887061D01*
X273682131Y-96881760D01*
X273613604Y-96836405D01*
X273543059Y-96779280D01*
X273543059Y-95330483D01*
X273543150Y-94998311D01*
X273543554Y-94720734D01*
X273544465Y-94492584D01*
X273546079Y-94308693D01*
X273548588Y-94163892D01*
X273552189Y-94053013D01*
X273557076Y-93970887D01*
X273563443Y-93912344D01*
X273571485Y-93872218D01*
X273581397Y-93845338D01*
X273593374Y-93826537D01*
X273599984Y-93818784D01*
X273680713Y-93765206D01*
X273767340Y-93764687D01*
X273837251Y-93810529D01*
X273837251Y-93810529D01*
G37*
X273837251Y-93810529D02*
X273848590Y-93827530D01*
X273858070Y-93854654D01*
X273865854Y-93896937D01*
X273872105Y-93959414D01*
X273876988Y-94047121D01*
X273880666Y-94165092D01*
X273883302Y-94318362D01*
X273885061Y-94511968D01*
X273886104Y-94750945D01*
X273886597Y-95040327D01*
X273886706Y-95332835D01*
X273886706Y-96800493D01*
X273820292Y-96847011D01*
X273745420Y-96887061D01*
X273682131Y-96881760D01*
X273613604Y-96836405D01*
X273543059Y-96779280D01*
X273543059Y-95330483D01*
X273543150Y-94998311D01*
X273543554Y-94720734D01*
X273544465Y-94492584D01*
X273546079Y-94308693D01*
X273548588Y-94163892D01*
X273552189Y-94053013D01*
X273557076Y-93970887D01*
X273563443Y-93912344D01*
X273571485Y-93872218D01*
X273581397Y-93845338D01*
X273593374Y-93826537D01*
X273599984Y-93818784D01*
X273680713Y-93765206D01*
X273767340Y-93764687D01*
X273837251Y-93810529D01*
G36*
X269036878Y-93731423D02*
G01*
X269085177Y-93732990D01*
X269318036Y-93745685D01*
X269504410Y-93768363D01*
X269657221Y-93804449D01*
X269789387Y-93857366D01*
X269913828Y-93930541D01*
X269963881Y-93965916D01*
X270092191Y-94095920D01*
X270181628Y-94262837D01*
X270229328Y-94455883D01*
X270232429Y-94664273D01*
X270197582Y-94846377D01*
X270152038Y-94967736D01*
X270085578Y-95070179D01*
X269998057Y-95164194D01*
X269920457Y-95236627D01*
X269858434Y-95288759D01*
X269824950Y-95309728D01*
X269824363Y-95309765D01*
X269783511Y-95320417D01*
X269711658Y-95346943D01*
X269688166Y-95356543D01*
X269576211Y-95403321D01*
X269651030Y-95483543D01*
X269714048Y-95560175D01*
X269782202Y-95655967D01*
X269803253Y-95688734D01*
X269838615Y-95754547D01*
X269888651Y-95859208D01*
X269948796Y-95991912D01*
X270014481Y-96141858D01*
X270081142Y-96298242D01*
X270144210Y-96450262D01*
X270199119Y-96587115D01*
X270241302Y-96697998D01*
X270266194Y-96772107D01*
X270270941Y-96795089D01*
X270245684Y-96846010D01*
X270182646Y-96873795D01*
X270100929Y-96873645D01*
X270040247Y-96853031D01*
X270005637Y-96829871D01*
X269971900Y-96792861D01*
X269934828Y-96734161D01*
X269890216Y-96645934D01*
X269833858Y-96520342D01*
X269761547Y-96349546D01*
X269732370Y-96279278D01*
X269639067Y-96058472D01*
X269560938Y-95887277D01*
X269492930Y-95759067D01*
X269429987Y-95667215D01*
X269367057Y-95605096D01*
X269299086Y-95566083D01*
X269221019Y-95543550D01*
X269164591Y-95534859D01*
X269044274Y-95525661D01*
X268900104Y-95522265D01*
X268791765Y-95524393D01*
X268582588Y-95533882D01*
X268567647Y-96171349D01*
X268562310Y-96383480D01*
X268557016Y-96543794D01*
X268550911Y-96660230D01*
X268543144Y-96740728D01*
X268532863Y-96793230D01*
X268519215Y-96825674D01*
X268501350Y-96846001D01*
X268494700Y-96851172D01*
X268425573Y-96888348D01*
X268362862Y-96881160D01*
X268305355Y-96847011D01*
X268238941Y-96800493D01*
X268238941Y-94472317D01*
X268567145Y-94472317D01*
X268567647Y-94657302D01*
X268567647Y-95257796D01*
X268963588Y-95243742D01*
X269140267Y-95235758D01*
X269271400Y-95224890D01*
X269371201Y-95209020D01*
X269453881Y-95186032D01*
X269516629Y-95161365D01*
X269689184Y-95058520D01*
X269813952Y-94923171D01*
X269887994Y-94760065D01*
X269908372Y-94573949D01*
X269905624Y-94533075D01*
X269866335Y-94364393D01*
X269781459Y-94230237D01*
X269646245Y-94123979D01*
X269591325Y-94094667D01*
X269511436Y-94058543D01*
X269436237Y-94033882D01*
X269350101Y-94017908D01*
X269237401Y-94007841D01*
X269082510Y-94000904D01*
X269059485Y-94000121D01*
X268900503Y-93994037D01*
X268779908Y-93992464D01*
X268692426Y-94002446D01*
X268632783Y-94031031D01*
X268595707Y-94085265D01*
X268575924Y-94172193D01*
X268568161Y-94298862D01*
X268567145Y-94472317D01*
X268238941Y-94472317D01*
X268238941Y-93913444D01*
X268316287Y-93836098D01*
X268370210Y-93793114D01*
X268439204Y-93761874D01*
X268531819Y-93741232D01*
X268656603Y-93730040D01*
X268822106Y-93727152D01*
X269036878Y-93731423D01*
X269036878Y-93731423D01*
G37*
X269036878Y-93731423D02*
X269085177Y-93732990D01*
X269318036Y-93745685D01*
X269504410Y-93768363D01*
X269657221Y-93804449D01*
X269789387Y-93857366D01*
X269913828Y-93930541D01*
X269963881Y-93965916D01*
X270092191Y-94095920D01*
X270181628Y-94262837D01*
X270229328Y-94455883D01*
X270232429Y-94664273D01*
X270197582Y-94846377D01*
X270152038Y-94967736D01*
X270085578Y-95070179D01*
X269998057Y-95164194D01*
X269920457Y-95236627D01*
X269858434Y-95288759D01*
X269824950Y-95309728D01*
X269824363Y-95309765D01*
X269783511Y-95320417D01*
X269711658Y-95346943D01*
X269688166Y-95356543D01*
X269576211Y-95403321D01*
X269651030Y-95483543D01*
X269714048Y-95560175D01*
X269782202Y-95655967D01*
X269803253Y-95688734D01*
X269838615Y-95754547D01*
X269888651Y-95859208D01*
X269948796Y-95991912D01*
X270014481Y-96141858D01*
X270081142Y-96298242D01*
X270144210Y-96450262D01*
X270199119Y-96587115D01*
X270241302Y-96697998D01*
X270266194Y-96772107D01*
X270270941Y-96795089D01*
X270245684Y-96846010D01*
X270182646Y-96873795D01*
X270100929Y-96873645D01*
X270040247Y-96853031D01*
X270005637Y-96829871D01*
X269971900Y-96792861D01*
X269934828Y-96734161D01*
X269890216Y-96645934D01*
X269833858Y-96520342D01*
X269761547Y-96349546D01*
X269732370Y-96279278D01*
X269639067Y-96058472D01*
X269560938Y-95887277D01*
X269492930Y-95759067D01*
X269429987Y-95667215D01*
X269367057Y-95605096D01*
X269299086Y-95566083D01*
X269221019Y-95543550D01*
X269164591Y-95534859D01*
X269044274Y-95525661D01*
X268900104Y-95522265D01*
X268791765Y-95524393D01*
X268582588Y-95533882D01*
X268567647Y-96171349D01*
X268562310Y-96383480D01*
X268557016Y-96543794D01*
X268550911Y-96660230D01*
X268543144Y-96740728D01*
X268532863Y-96793230D01*
X268519215Y-96825674D01*
X268501350Y-96846001D01*
X268494700Y-96851172D01*
X268425573Y-96888348D01*
X268362862Y-96881160D01*
X268305355Y-96847011D01*
X268238941Y-96800493D01*
X268238941Y-94472317D01*
X268567145Y-94472317D01*
X268567647Y-94657302D01*
X268567647Y-95257796D01*
X268963588Y-95243742D01*
X269140267Y-95235758D01*
X269271400Y-95224890D01*
X269371201Y-95209020D01*
X269453881Y-95186032D01*
X269516629Y-95161365D01*
X269689184Y-95058520D01*
X269813952Y-94923171D01*
X269887994Y-94760065D01*
X269908372Y-94573949D01*
X269905624Y-94533075D01*
X269866335Y-94364393D01*
X269781459Y-94230237D01*
X269646245Y-94123979D01*
X269591325Y-94094667D01*
X269511436Y-94058543D01*
X269436237Y-94033882D01*
X269350101Y-94017908D01*
X269237401Y-94007841D01*
X269082510Y-94000904D01*
X269059485Y-94000121D01*
X268900503Y-93994037D01*
X268779908Y-93992464D01*
X268692426Y-94002446D01*
X268632783Y-94031031D01*
X268595707Y-94085265D01*
X268575924Y-94172193D01*
X268568161Y-94298862D01*
X268567145Y-94472317D01*
X268238941Y-94472317D01*
X268238941Y-93913444D01*
X268316287Y-93836098D01*
X268370210Y-93793114D01*
X268439204Y-93761874D01*
X268531819Y-93741232D01*
X268656603Y-93730040D01*
X268822106Y-93727152D01*
X269036878Y-93731423D01*
G36*
X271761140Y-93743906D02*
G01*
X271905879Y-93747391D01*
X272013880Y-93754134D01*
X272096652Y-93765278D01*
X272165703Y-93781964D01*
X272232544Y-93805334D01*
X272243176Y-93809521D01*
X272434738Y-93910058D01*
X272575188Y-94040328D01*
X272666896Y-94203391D01*
X272712234Y-94402309D01*
X272713675Y-94417030D01*
X272718378Y-94530884D01*
X272703798Y-94622466D01*
X272663809Y-94723816D01*
X272649180Y-94754318D01*
X272538230Y-94918974D01*
X272388634Y-95049445D01*
X272214441Y-95133607D01*
X272207091Y-95135860D01*
X272136234Y-95166556D01*
X272113662Y-95196347D01*
X272141929Y-95216413D01*
X272182698Y-95220118D01*
X272269227Y-95237338D01*
X272381229Y-95282183D01*
X272497924Y-95344429D01*
X272598532Y-95413851D01*
X272626795Y-95438616D01*
X272751689Y-95588811D01*
X272824837Y-95756480D01*
X272851750Y-95954543D01*
X272851997Y-95966500D01*
X272841062Y-96176764D01*
X272797302Y-96349135D01*
X272715195Y-96498883D01*
X272618464Y-96612374D01*
X272512953Y-96710113D01*
X272406584Y-96784097D01*
X272288569Y-96837645D01*
X272148122Y-96874077D01*
X271974455Y-96896711D01*
X271756781Y-96908865D01*
X271645529Y-96911725D01*
X271476330Y-96913214D01*
X271320398Y-96911281D01*
X271191163Y-96906332D01*
X271102053Y-96898776D01*
X271078237Y-96894537D01*
X270985316Y-96853212D01*
X270907014Y-96790312D01*
X270906414Y-96789618D01*
X270838706Y-96710903D01*
X270838706Y-95339647D01*
X271167412Y-95339647D01*
X271167412Y-95968139D01*
X271167570Y-96176976D01*
X271168581Y-96333899D01*
X271171251Y-96446758D01*
X271176385Y-96523404D01*
X271184787Y-96571687D01*
X271197264Y-96599458D01*
X271214620Y-96614568D01*
X271234647Y-96623657D01*
X271306611Y-96638815D01*
X271421309Y-96648127D01*
X271561997Y-96651631D01*
X271711936Y-96649368D01*
X271854384Y-96641377D01*
X271972598Y-96627698D01*
X272003931Y-96621837D01*
X272192529Y-96553737D01*
X272343534Y-96441751D01*
X272451959Y-96291984D01*
X272512813Y-96110541D01*
X272524463Y-95984914D01*
X272505055Y-95803822D01*
X272442068Y-95654232D01*
X272333671Y-95535034D01*
X272178034Y-95445117D01*
X271973326Y-95383371D01*
X271717716Y-95348684D01*
X271460747Y-95339647D01*
X271167412Y-95339647D01*
X270838706Y-95339647D01*
X270838706Y-95339387D01*
X270839347Y-94965856D01*
X270841294Y-94650571D01*
X270844580Y-94392029D01*
X270845256Y-94362518D01*
X271167159Y-94362518D01*
X271167412Y-94543836D01*
X271168577Y-94708723D01*
X271171798Y-94852218D01*
X271176664Y-94963864D01*
X271182764Y-95033205D01*
X271187333Y-95050784D01*
X271229540Y-95062785D01*
X271316408Y-95069087D01*
X271433133Y-95069963D01*
X271564909Y-95065685D01*
X271696933Y-95056527D01*
X271814400Y-95042761D01*
X271838942Y-95038774D01*
X272049403Y-94982009D01*
X272210771Y-94894132D01*
X272321928Y-94776191D01*
X272381754Y-94629233D01*
X272392588Y-94520468D01*
X272372270Y-94351561D01*
X272308346Y-94220227D01*
X272196359Y-94118887D01*
X272136543Y-94084763D01*
X272062026Y-94051008D01*
X271986694Y-94028169D01*
X271894972Y-94013564D01*
X271771284Y-94004509D01*
X271641770Y-93999549D01*
X271475707Y-93994198D01*
X271353642Y-93995013D01*
X271268829Y-94009734D01*
X271214521Y-94046104D01*
X271183972Y-94111863D01*
X271170433Y-94214754D01*
X271167159Y-94362518D01*
X270845256Y-94362518D01*
X270849242Y-94188725D01*
X270855313Y-94039154D01*
X270862827Y-93941812D01*
X270871820Y-93895195D01*
X270871889Y-93895042D01*
X270901761Y-93842745D01*
X270942691Y-93803659D01*
X271002990Y-93775963D01*
X271090969Y-93757837D01*
X271214941Y-93747461D01*
X271383216Y-93743014D01*
X271568153Y-93742538D01*
X271761140Y-93743906D01*
X271761140Y-93743906D01*
G37*
X271761140Y-93743906D02*
X271905879Y-93747391D01*
X272013880Y-93754134D01*
X272096652Y-93765278D01*
X272165703Y-93781964D01*
X272232544Y-93805334D01*
X272243176Y-93809521D01*
X272434738Y-93910058D01*
X272575188Y-94040328D01*
X272666896Y-94203391D01*
X272712234Y-94402309D01*
X272713675Y-94417030D01*
X272718378Y-94530884D01*
X272703798Y-94622466D01*
X272663809Y-94723816D01*
X272649180Y-94754318D01*
X272538230Y-94918974D01*
X272388634Y-95049445D01*
X272214441Y-95133607D01*
X272207091Y-95135860D01*
X272136234Y-95166556D01*
X272113662Y-95196347D01*
X272141929Y-95216413D01*
X272182698Y-95220118D01*
X272269227Y-95237338D01*
X272381229Y-95282183D01*
X272497924Y-95344429D01*
X272598532Y-95413851D01*
X272626795Y-95438616D01*
X272751689Y-95588811D01*
X272824837Y-95756480D01*
X272851750Y-95954543D01*
X272851997Y-95966500D01*
X272841062Y-96176764D01*
X272797302Y-96349135D01*
X272715195Y-96498883D01*
X272618464Y-96612374D01*
X272512953Y-96710113D01*
X272406584Y-96784097D01*
X272288569Y-96837645D01*
X272148122Y-96874077D01*
X271974455Y-96896711D01*
X271756781Y-96908865D01*
X271645529Y-96911725D01*
X271476330Y-96913214D01*
X271320398Y-96911281D01*
X271191163Y-96906332D01*
X271102053Y-96898776D01*
X271078237Y-96894537D01*
X270985316Y-96853212D01*
X270907014Y-96790312D01*
X270906414Y-96789618D01*
X270838706Y-96710903D01*
X270838706Y-95339647D01*
X271167412Y-95339647D01*
X271167412Y-95968139D01*
X271167570Y-96176976D01*
X271168581Y-96333899D01*
X271171251Y-96446758D01*
X271176385Y-96523404D01*
X271184787Y-96571687D01*
X271197264Y-96599458D01*
X271214620Y-96614568D01*
X271234647Y-96623657D01*
X271306611Y-96638815D01*
X271421309Y-96648127D01*
X271561997Y-96651631D01*
X271711936Y-96649368D01*
X271854384Y-96641377D01*
X271972598Y-96627698D01*
X272003931Y-96621837D01*
X272192529Y-96553737D01*
X272343534Y-96441751D01*
X272451959Y-96291984D01*
X272512813Y-96110541D01*
X272524463Y-95984914D01*
X272505055Y-95803822D01*
X272442068Y-95654232D01*
X272333671Y-95535034D01*
X272178034Y-95445117D01*
X271973326Y-95383371D01*
X271717716Y-95348684D01*
X271460747Y-95339647D01*
X271167412Y-95339647D01*
X270838706Y-95339647D01*
X270838706Y-95339387D01*
X270839347Y-94965856D01*
X270841294Y-94650571D01*
X270844580Y-94392029D01*
X270845256Y-94362518D01*
X271167159Y-94362518D01*
X271167412Y-94543836D01*
X271168577Y-94708723D01*
X271171798Y-94852218D01*
X271176664Y-94963864D01*
X271182764Y-95033205D01*
X271187333Y-95050784D01*
X271229540Y-95062785D01*
X271316408Y-95069087D01*
X271433133Y-95069963D01*
X271564909Y-95065685D01*
X271696933Y-95056527D01*
X271814400Y-95042761D01*
X271838942Y-95038774D01*
X272049403Y-94982009D01*
X272210771Y-94894132D01*
X272321928Y-94776191D01*
X272381754Y-94629233D01*
X272392588Y-94520468D01*
X272372270Y-94351561D01*
X272308346Y-94220227D01*
X272196359Y-94118887D01*
X272136543Y-94084763D01*
X272062026Y-94051008D01*
X271986694Y-94028169D01*
X271894972Y-94013564D01*
X271771284Y-94004509D01*
X271641770Y-93999549D01*
X271475707Y-93994198D01*
X271353642Y-93995013D01*
X271268829Y-94009734D01*
X271214521Y-94046104D01*
X271183972Y-94111863D01*
X271170433Y-94214754D01*
X271167159Y-94362518D01*
X270845256Y-94362518D01*
X270849242Y-94188725D01*
X270855313Y-94039154D01*
X270862827Y-93941812D01*
X270871820Y-93895195D01*
X270871889Y-93895042D01*
X270901761Y-93842745D01*
X270942691Y-93803659D01*
X271002990Y-93775963D01*
X271090969Y-93757837D01*
X271214941Y-93747461D01*
X271383216Y-93743014D01*
X271568153Y-93742538D01*
X271761140Y-93743906D01*
G36*
X266438104Y-93744967D02*
G01*
X266700296Y-93803992D01*
X266931786Y-93906259D01*
X267140738Y-94054955D01*
X267252207Y-94160999D01*
X267418703Y-94363156D01*
X267540228Y-94579828D01*
X267619625Y-94819688D01*
X267659737Y-95091411D01*
X267663405Y-95403671D01*
X267662956Y-95414353D01*
X267642564Y-95675484D01*
X267603001Y-95892288D01*
X267539088Y-96078543D01*
X267445644Y-96248026D01*
X267317490Y-96414514D01*
X267264874Y-96473119D01*
X267077548Y-96638387D01*
X266856119Y-96773317D01*
X266620515Y-96866822D01*
X266509156Y-96893566D01*
X266322625Y-96915213D01*
X266111306Y-96919344D01*
X265902573Y-96906538D01*
X265723799Y-96877372D01*
X265722030Y-96876945D01*
X265458086Y-96785169D01*
X265224991Y-96643671D01*
X265072491Y-96509053D01*
X264889742Y-96282566D01*
X264753477Y-96022609D01*
X264665152Y-95735011D01*
X264626657Y-95429037D01*
X264974101Y-95429037D01*
X265007449Y-95697743D01*
X265079199Y-95942231D01*
X265117214Y-96026941D01*
X265245890Y-96226657D01*
X265412200Y-96397437D01*
X265604302Y-96529687D01*
X265810354Y-96613816D01*
X265855002Y-96624622D01*
X266046011Y-96646559D01*
X266256788Y-96640656D01*
X266462663Y-96609238D01*
X266638964Y-96554629D01*
X266650129Y-96549742D01*
X266833721Y-96439427D01*
X267003319Y-96285606D01*
X267143020Y-96104507D01*
X267211683Y-95976656D01*
X267252700Y-95861488D01*
X267290814Y-95716209D01*
X267318409Y-95570288D01*
X267320416Y-95555902D01*
X267336669Y-95254912D01*
X267304621Y-94972322D01*
X267226814Y-94713777D01*
X267105789Y-94484922D01*
X266944089Y-94291402D01*
X266744257Y-94138862D01*
X266662288Y-94094487D01*
X266579886Y-94056846D01*
X266506529Y-94032461D01*
X266425251Y-94018480D01*
X266319088Y-94012052D01*
X266171073Y-94010325D01*
X266161489Y-94010310D01*
X266013282Y-94011196D01*
X265907323Y-94016465D01*
X265826108Y-94029349D01*
X265752130Y-94053082D01*
X265667885Y-94090897D01*
X265633025Y-94107914D01*
X265450206Y-94222263D01*
X265286486Y-94370610D01*
X265157567Y-94537279D01*
X265105753Y-94634290D01*
X265023124Y-94881643D01*
X264979283Y-95151781D01*
X264974101Y-95429037D01*
X264626657Y-95429037D01*
X264626224Y-95425601D01*
X264638148Y-95100207D01*
X264670344Y-94899597D01*
X264758302Y-94607211D01*
X264891823Y-94351767D01*
X265067430Y-94136048D01*
X265281644Y-93962836D01*
X265530990Y-93834913D01*
X265811989Y-93755062D01*
X266121165Y-93726065D01*
X266137042Y-93726000D01*
X266438104Y-93744967D01*
X266438104Y-93744967D01*
G37*
X266438104Y-93744967D02*
X266700296Y-93803992D01*
X266931786Y-93906259D01*
X267140738Y-94054955D01*
X267252207Y-94160999D01*
X267418703Y-94363156D01*
X267540228Y-94579828D01*
X267619625Y-94819688D01*
X267659737Y-95091411D01*
X267663405Y-95403671D01*
X267662956Y-95414353D01*
X267642564Y-95675484D01*
X267603001Y-95892288D01*
X267539088Y-96078543D01*
X267445644Y-96248026D01*
X267317490Y-96414514D01*
X267264874Y-96473119D01*
X267077548Y-96638387D01*
X266856119Y-96773317D01*
X266620515Y-96866822D01*
X266509156Y-96893566D01*
X266322625Y-96915213D01*
X266111306Y-96919344D01*
X265902573Y-96906538D01*
X265723799Y-96877372D01*
X265722030Y-96876945D01*
X265458086Y-96785169D01*
X265224991Y-96643671D01*
X265072491Y-96509053D01*
X264889742Y-96282566D01*
X264753477Y-96022609D01*
X264665152Y-95735011D01*
X264626657Y-95429037D01*
X264974101Y-95429037D01*
X265007449Y-95697743D01*
X265079199Y-95942231D01*
X265117214Y-96026941D01*
X265245890Y-96226657D01*
X265412200Y-96397437D01*
X265604302Y-96529687D01*
X265810354Y-96613816D01*
X265855002Y-96624622D01*
X266046011Y-96646559D01*
X266256788Y-96640656D01*
X266462663Y-96609238D01*
X266638964Y-96554629D01*
X266650129Y-96549742D01*
X266833721Y-96439427D01*
X267003319Y-96285606D01*
X267143020Y-96104507D01*
X267211683Y-95976656D01*
X267252700Y-95861488D01*
X267290814Y-95716209D01*
X267318409Y-95570288D01*
X267320416Y-95555902D01*
X267336669Y-95254912D01*
X267304621Y-94972322D01*
X267226814Y-94713777D01*
X267105789Y-94484922D01*
X266944089Y-94291402D01*
X266744257Y-94138862D01*
X266662288Y-94094487D01*
X266579886Y-94056846D01*
X266506529Y-94032461D01*
X266425251Y-94018480D01*
X266319088Y-94012052D01*
X266171073Y-94010325D01*
X266161489Y-94010310D01*
X266013282Y-94011196D01*
X265907323Y-94016465D01*
X265826108Y-94029349D01*
X265752130Y-94053082D01*
X265667885Y-94090897D01*
X265633025Y-94107914D01*
X265450206Y-94222263D01*
X265286486Y-94370610D01*
X265157567Y-94537279D01*
X265105753Y-94634290D01*
X265023124Y-94881643D01*
X264979283Y-95151781D01*
X264974101Y-95429037D01*
X264626657Y-95429037D01*
X264626224Y-95425601D01*
X264638148Y-95100207D01*
X264670344Y-94899597D01*
X264758302Y-94607211D01*
X264891823Y-94351767D01*
X265067430Y-94136048D01*
X265281644Y-93962836D01*
X265530990Y-93834913D01*
X265811989Y-93755062D01*
X266121165Y-93726065D01*
X266137042Y-93726000D01*
X266438104Y-93744967D01*
G36*
X57355382Y-95520394D02*
G01*
X57522997Y-95524915D01*
X57639129Y-95532751D01*
X57707885Y-95544148D01*
X57730465Y-95554800D01*
X57763243Y-95622077D01*
X57756408Y-95697969D01*
X57713011Y-95754371D01*
X57708523Y-95756949D01*
X57658278Y-95767944D01*
X57558038Y-95777029D01*
X57417558Y-95783670D01*
X57246591Y-95787332D01*
X57144069Y-95787882D01*
X56955574Y-95787257D01*
X56817292Y-95784761D01*
X56719677Y-95779462D01*
X56653185Y-95770427D01*
X56608270Y-95756726D01*
X56575387Y-95737425D01*
X56567944Y-95731628D01*
X56521267Y-95684178D01*
X56518445Y-95636883D01*
X56534110Y-95597157D01*
X56569748Y-95518941D01*
X57132177Y-95518941D01*
X57355382Y-95520394D01*
X57355382Y-95520394D01*
G37*
X57355382Y-95520394D02*
X57522997Y-95524915D01*
X57639129Y-95532751D01*
X57707885Y-95544148D01*
X57730465Y-95554800D01*
X57763243Y-95622077D01*
X57756408Y-95697969D01*
X57713011Y-95754371D01*
X57708523Y-95756949D01*
X57658278Y-95767944D01*
X57558038Y-95777029D01*
X57417558Y-95783670D01*
X57246591Y-95787332D01*
X57144069Y-95787882D01*
X56955574Y-95787257D01*
X56817292Y-95784761D01*
X56719677Y-95779462D01*
X56653185Y-95770427D01*
X56608270Y-95756726D01*
X56575387Y-95737425D01*
X56567944Y-95731628D01*
X56521267Y-95684178D01*
X56518445Y-95636883D01*
X56534110Y-95597157D01*
X56569748Y-95518941D01*
X57132177Y-95518941D01*
X57355382Y-95520394D01*
G36*
X60276408Y-93787064D02*
G01*
X60305841Y-93836028D01*
X60306323Y-93844938D01*
X60291034Y-93884781D01*
X60247894Y-93967996D01*
X60180997Y-94087444D01*
X60094438Y-94235985D01*
X59992310Y-94406480D01*
X59878706Y-94591788D01*
X59870529Y-94604970D01*
X59434736Y-95306969D01*
X59873489Y-96011222D01*
X59988826Y-96197443D01*
X60093833Y-96369071D01*
X60184278Y-96519020D01*
X60255926Y-96640203D01*
X60304545Y-96725535D01*
X60325902Y-96767928D01*
X60326302Y-96769237D01*
X60317014Y-96830153D01*
X60290999Y-96863965D01*
X60250173Y-96887143D01*
X60197993Y-96886002D01*
X60117098Y-96861878D01*
X60076832Y-96846199D01*
X60040596Y-96825202D01*
X60003577Y-96792431D01*
X59960962Y-96741430D01*
X59907937Y-96665744D01*
X59839691Y-96558917D01*
X59751409Y-96414493D01*
X59638280Y-96226016D01*
X59619029Y-96193812D01*
X59514329Y-96020782D01*
X59418516Y-95866534D01*
X59336105Y-95738006D01*
X59271608Y-95642134D01*
X59229538Y-95585855D01*
X59215617Y-95573752D01*
X59192526Y-95599862D01*
X59144133Y-95670363D01*
X59075089Y-95777925D01*
X58990045Y-95915220D01*
X58893651Y-96074922D01*
X58837936Y-96168881D01*
X58700135Y-96398624D01*
X58587427Y-96577366D01*
X58498156Y-96707550D01*
X58430667Y-96791619D01*
X58392752Y-96826294D01*
X58289067Y-96882153D01*
X58209573Y-96887504D01*
X58160770Y-96857671D01*
X58128817Y-96802736D01*
X58124912Y-96779843D01*
X58140168Y-96744297D01*
X58183208Y-96665173D01*
X58249940Y-96549445D01*
X58336271Y-96404087D01*
X58438109Y-96236075D01*
X58551361Y-96052384D01*
X58558206Y-96041376D01*
X58671989Y-95857015D01*
X58774597Y-95687954D01*
X58861939Y-95541165D01*
X58929922Y-95423616D01*
X58974455Y-95342277D01*
X58991446Y-95304118D01*
X58991500Y-95303371D01*
X58976206Y-95267453D01*
X58933216Y-95188474D01*
X58866867Y-95073827D01*
X58781496Y-94930904D01*
X58681441Y-94767099D01*
X58599982Y-94635966D01*
X58463974Y-94418484D01*
X58356581Y-94245986D01*
X58274818Y-94112724D01*
X58215703Y-94012953D01*
X58176253Y-93940925D01*
X58153484Y-93890895D01*
X58144413Y-93857117D01*
X58146057Y-93833843D01*
X58155434Y-93815328D01*
X58166232Y-93800443D01*
X58224629Y-93766022D01*
X58309349Y-93766043D01*
X58400465Y-93797096D01*
X58475943Y-93853458D01*
X58510173Y-93899347D01*
X58568883Y-93987556D01*
X58646227Y-94108902D01*
X58736362Y-94254206D01*
X58833443Y-94414283D01*
X58841803Y-94428235D01*
X58938285Y-94589168D01*
X59026868Y-94736469D01*
X59101991Y-94860927D01*
X59158092Y-94953330D01*
X59189610Y-95004464D01*
X59191050Y-95006726D01*
X59206517Y-95027771D01*
X59222885Y-95036022D01*
X59244350Y-95026030D01*
X59275106Y-94992347D01*
X59319348Y-94929525D01*
X59381273Y-94832118D01*
X59465075Y-94694676D01*
X59574950Y-94511752D01*
X59584498Y-94495814D01*
X59687162Y-94325310D01*
X59781755Y-94169848D01*
X59863253Y-94037554D01*
X59926634Y-93936551D01*
X59966874Y-93874964D01*
X59976389Y-93861916D01*
X60046797Y-93804240D01*
X60130916Y-93771991D01*
X60212777Y-93765992D01*
X60276408Y-93787064D01*
X60276408Y-93787064D01*
G37*
X60276408Y-93787064D02*
X60305841Y-93836028D01*
X60306323Y-93844938D01*
X60291034Y-93884781D01*
X60247894Y-93967996D01*
X60180997Y-94087444D01*
X60094438Y-94235985D01*
X59992310Y-94406480D01*
X59878706Y-94591788D01*
X59870529Y-94604970D01*
X59434736Y-95306969D01*
X59873489Y-96011222D01*
X59988826Y-96197443D01*
X60093833Y-96369071D01*
X60184278Y-96519020D01*
X60255926Y-96640203D01*
X60304545Y-96725535D01*
X60325902Y-96767928D01*
X60326302Y-96769237D01*
X60317014Y-96830153D01*
X60290999Y-96863965D01*
X60250173Y-96887143D01*
X60197993Y-96886002D01*
X60117098Y-96861878D01*
X60076832Y-96846199D01*
X60040596Y-96825202D01*
X60003577Y-96792431D01*
X59960962Y-96741430D01*
X59907937Y-96665744D01*
X59839691Y-96558917D01*
X59751409Y-96414493D01*
X59638280Y-96226016D01*
X59619029Y-96193812D01*
X59514329Y-96020782D01*
X59418516Y-95866534D01*
X59336105Y-95738006D01*
X59271608Y-95642134D01*
X59229538Y-95585855D01*
X59215617Y-95573752D01*
X59192526Y-95599862D01*
X59144133Y-95670363D01*
X59075089Y-95777925D01*
X58990045Y-95915220D01*
X58893651Y-96074922D01*
X58837936Y-96168881D01*
X58700135Y-96398624D01*
X58587427Y-96577366D01*
X58498156Y-96707550D01*
X58430667Y-96791619D01*
X58392752Y-96826294D01*
X58289067Y-96882153D01*
X58209573Y-96887504D01*
X58160770Y-96857671D01*
X58128817Y-96802736D01*
X58124912Y-96779843D01*
X58140168Y-96744297D01*
X58183208Y-96665173D01*
X58249940Y-96549445D01*
X58336271Y-96404087D01*
X58438109Y-96236075D01*
X58551361Y-96052384D01*
X58558206Y-96041376D01*
X58671989Y-95857015D01*
X58774597Y-95687954D01*
X58861939Y-95541165D01*
X58929922Y-95423616D01*
X58974455Y-95342277D01*
X58991446Y-95304118D01*
X58991500Y-95303371D01*
X58976206Y-95267453D01*
X58933216Y-95188474D01*
X58866867Y-95073827D01*
X58781496Y-94930904D01*
X58681441Y-94767099D01*
X58599982Y-94635966D01*
X58463974Y-94418484D01*
X58356581Y-94245986D01*
X58274818Y-94112724D01*
X58215703Y-94012953D01*
X58176253Y-93940925D01*
X58153484Y-93890895D01*
X58144413Y-93857117D01*
X58146057Y-93833843D01*
X58155434Y-93815328D01*
X58166232Y-93800443D01*
X58224629Y-93766022D01*
X58309349Y-93766043D01*
X58400465Y-93797096D01*
X58475943Y-93853458D01*
X58510173Y-93899347D01*
X58568883Y-93987556D01*
X58646227Y-94108902D01*
X58736362Y-94254206D01*
X58833443Y-94414283D01*
X58841803Y-94428235D01*
X58938285Y-94589168D01*
X59026868Y-94736469D01*
X59101991Y-94860927D01*
X59158092Y-94953330D01*
X59189610Y-95004464D01*
X59191050Y-95006726D01*
X59206517Y-95027771D01*
X59222885Y-95036022D01*
X59244350Y-95026030D01*
X59275106Y-94992347D01*
X59319348Y-94929525D01*
X59381273Y-94832118D01*
X59465075Y-94694676D01*
X59574950Y-94511752D01*
X59584498Y-94495814D01*
X59687162Y-94325310D01*
X59781755Y-94169848D01*
X59863253Y-94037554D01*
X59926634Y-93936551D01*
X59966874Y-93874964D01*
X59976389Y-93861916D01*
X60046797Y-93804240D01*
X60130916Y-93771991D01*
X60212777Y-93765992D01*
X60276408Y-93787064D01*
G36*
X55431225Y-93755978D02*
G01*
X55656670Y-93756492D01*
X55834436Y-93757762D01*
X55970566Y-93760128D01*
X56071102Y-93763928D01*
X56142086Y-93769501D01*
X56189563Y-93777186D01*
X56219573Y-93787322D01*
X56238161Y-93800248D01*
X56251368Y-93816302D01*
X56252267Y-93817580D01*
X56281914Y-93901669D01*
X56258541Y-93977678D01*
X56191470Y-94027116D01*
X56135180Y-94037418D01*
X56032835Y-94045971D01*
X55898138Y-94051979D01*
X55744791Y-94054643D01*
X55717437Y-94054706D01*
X55315970Y-94054706D01*
X55315970Y-95414353D01*
X55315892Y-95734885D01*
X55315507Y-96000995D01*
X55314589Y-96218028D01*
X55312915Y-96391328D01*
X55310259Y-96526236D01*
X55306397Y-96628099D01*
X55301102Y-96702258D01*
X55294151Y-96754057D01*
X55285317Y-96788841D01*
X55274377Y-96811952D01*
X55261105Y-96828735D01*
X55256206Y-96833765D01*
X55187046Y-96884543D01*
X55119952Y-96883966D01*
X55053678Y-96847011D01*
X54987265Y-96800493D01*
X54987265Y-94054706D01*
X54576382Y-94054265D01*
X54374801Y-94051247D01*
X54225497Y-94041503D01*
X54121189Y-94023263D01*
X54054593Y-93994754D01*
X54018430Y-93954205D01*
X54007027Y-93915741D01*
X54019700Y-93845080D01*
X54046515Y-93804431D01*
X54064910Y-93791461D01*
X54095443Y-93780995D01*
X54144058Y-93772771D01*
X54216700Y-93766527D01*
X54319313Y-93762003D01*
X54457841Y-93758937D01*
X54638229Y-93757069D01*
X54866421Y-93756138D01*
X55148361Y-93755882D01*
X55152057Y-93755882D01*
X55431225Y-93755978D01*
X55431225Y-93755978D01*
G37*
X55431225Y-93755978D02*
X55656670Y-93756492D01*
X55834436Y-93757762D01*
X55970566Y-93760128D01*
X56071102Y-93763928D01*
X56142086Y-93769501D01*
X56189563Y-93777186D01*
X56219573Y-93787322D01*
X56238161Y-93800248D01*
X56251368Y-93816302D01*
X56252267Y-93817580D01*
X56281914Y-93901669D01*
X56258541Y-93977678D01*
X56191470Y-94027116D01*
X56135180Y-94037418D01*
X56032835Y-94045971D01*
X55898138Y-94051979D01*
X55744791Y-94054643D01*
X55717437Y-94054706D01*
X55315970Y-94054706D01*
X55315970Y-95414353D01*
X55315892Y-95734885D01*
X55315507Y-96000995D01*
X55314589Y-96218028D01*
X55312915Y-96391328D01*
X55310259Y-96526236D01*
X55306397Y-96628099D01*
X55301102Y-96702258D01*
X55294151Y-96754057D01*
X55285317Y-96788841D01*
X55274377Y-96811952D01*
X55261105Y-96828735D01*
X55256206Y-96833765D01*
X55187046Y-96884543D01*
X55119952Y-96883966D01*
X55053678Y-96847011D01*
X54987265Y-96800493D01*
X54987265Y-94054706D01*
X54576382Y-94054265D01*
X54374801Y-94051247D01*
X54225497Y-94041503D01*
X54121189Y-94023263D01*
X54054593Y-93994754D01*
X54018430Y-93954205D01*
X54007027Y-93915741D01*
X54019700Y-93845080D01*
X54046515Y-93804431D01*
X54064910Y-93791461D01*
X54095443Y-93780995D01*
X54144058Y-93772771D01*
X54216700Y-93766527D01*
X54319313Y-93762003D01*
X54457841Y-93758937D01*
X54638229Y-93757069D01*
X54866421Y-93756138D01*
X55148361Y-93755882D01*
X55152057Y-93755882D01*
X55431225Y-93755978D01*
G36*
X53174751Y-93810529D02*
G01*
X53186090Y-93827530D01*
X53195570Y-93854654D01*
X53203354Y-93896937D01*
X53209605Y-93959414D01*
X53214488Y-94047121D01*
X53218166Y-94165092D01*
X53220802Y-94318362D01*
X53222561Y-94511968D01*
X53223604Y-94750945D01*
X53224097Y-95040327D01*
X53224206Y-95332835D01*
X53224206Y-96800493D01*
X53157792Y-96847011D01*
X53082920Y-96887061D01*
X53019631Y-96881760D01*
X52951104Y-96836405D01*
X52880559Y-96779280D01*
X52880559Y-95330483D01*
X52880650Y-94998311D01*
X52881054Y-94720734D01*
X52881965Y-94492584D01*
X52883579Y-94308693D01*
X52886088Y-94163892D01*
X52889689Y-94053013D01*
X52894576Y-93970887D01*
X52900943Y-93912344D01*
X52908985Y-93872218D01*
X52918897Y-93845338D01*
X52930874Y-93826537D01*
X52937484Y-93818784D01*
X53018213Y-93765206D01*
X53104840Y-93764687D01*
X53174751Y-93810529D01*
X53174751Y-93810529D01*
G37*
X53174751Y-93810529D02*
X53186090Y-93827530D01*
X53195570Y-93854654D01*
X53203354Y-93896937D01*
X53209605Y-93959414D01*
X53214488Y-94047121D01*
X53218166Y-94165092D01*
X53220802Y-94318362D01*
X53222561Y-94511968D01*
X53223604Y-94750945D01*
X53224097Y-95040327D01*
X53224206Y-95332835D01*
X53224206Y-96800493D01*
X53157792Y-96847011D01*
X53082920Y-96887061D01*
X53019631Y-96881760D01*
X52951104Y-96836405D01*
X52880559Y-96779280D01*
X52880559Y-95330483D01*
X52880650Y-94998311D01*
X52881054Y-94720734D01*
X52881965Y-94492584D01*
X52883579Y-94308693D01*
X52886088Y-94163892D01*
X52889689Y-94053013D01*
X52894576Y-93970887D01*
X52900943Y-93912344D01*
X52908985Y-93872218D01*
X52918897Y-93845338D01*
X52930874Y-93826537D01*
X52937484Y-93818784D01*
X53018213Y-93765206D01*
X53104840Y-93764687D01*
X53174751Y-93810529D01*
G36*
X48374378Y-93731423D02*
G01*
X48422677Y-93732990D01*
X48655536Y-93745685D01*
X48841910Y-93768363D01*
X48994721Y-93804449D01*
X49126887Y-93857366D01*
X49251328Y-93930541D01*
X49301381Y-93965916D01*
X49429691Y-94095920D01*
X49519128Y-94262837D01*
X49566828Y-94455883D01*
X49569929Y-94664273D01*
X49535082Y-94846377D01*
X49489538Y-94967736D01*
X49423078Y-95070179D01*
X49335557Y-95164194D01*
X49257957Y-95236627D01*
X49195934Y-95288759D01*
X49162450Y-95309728D01*
X49161863Y-95309765D01*
X49121011Y-95320417D01*
X49049158Y-95346943D01*
X49025666Y-95356543D01*
X48913711Y-95403321D01*
X48988530Y-95483543D01*
X49051548Y-95560175D01*
X49119702Y-95655967D01*
X49140753Y-95688734D01*
X49176115Y-95754547D01*
X49226151Y-95859208D01*
X49286296Y-95991912D01*
X49351981Y-96141858D01*
X49418642Y-96298242D01*
X49481710Y-96450262D01*
X49536619Y-96587115D01*
X49578802Y-96697998D01*
X49603694Y-96772107D01*
X49608441Y-96795089D01*
X49583184Y-96846010D01*
X49520146Y-96873795D01*
X49438429Y-96873645D01*
X49377747Y-96853031D01*
X49343137Y-96829871D01*
X49309400Y-96792861D01*
X49272328Y-96734161D01*
X49227716Y-96645934D01*
X49171358Y-96520342D01*
X49099047Y-96349546D01*
X49069870Y-96279278D01*
X48976567Y-96058472D01*
X48898438Y-95887277D01*
X48830430Y-95759067D01*
X48767487Y-95667215D01*
X48704557Y-95605096D01*
X48636586Y-95566083D01*
X48558519Y-95543550D01*
X48502091Y-95534859D01*
X48381774Y-95525661D01*
X48237604Y-95522265D01*
X48129265Y-95524393D01*
X47920088Y-95533882D01*
X47905147Y-96171349D01*
X47899810Y-96383480D01*
X47894516Y-96543794D01*
X47888411Y-96660230D01*
X47880644Y-96740728D01*
X47870363Y-96793230D01*
X47856715Y-96825674D01*
X47838850Y-96846001D01*
X47832200Y-96851172D01*
X47763073Y-96888348D01*
X47700362Y-96881160D01*
X47642855Y-96847011D01*
X47576441Y-96800493D01*
X47576441Y-94472317D01*
X47904645Y-94472317D01*
X47905147Y-94657302D01*
X47905147Y-95257796D01*
X48301088Y-95243742D01*
X48477767Y-95235758D01*
X48608900Y-95224890D01*
X48708701Y-95209020D01*
X48791381Y-95186032D01*
X48854129Y-95161365D01*
X49026684Y-95058520D01*
X49151452Y-94923171D01*
X49225494Y-94760065D01*
X49245872Y-94573949D01*
X49243124Y-94533075D01*
X49203835Y-94364393D01*
X49118959Y-94230237D01*
X48983745Y-94123979D01*
X48928825Y-94094667D01*
X48848936Y-94058543D01*
X48773737Y-94033882D01*
X48687601Y-94017908D01*
X48574901Y-94007841D01*
X48420010Y-94000904D01*
X48396985Y-94000121D01*
X48238003Y-93994037D01*
X48117408Y-93992464D01*
X48029926Y-94002446D01*
X47970283Y-94031031D01*
X47933207Y-94085265D01*
X47913424Y-94172193D01*
X47905661Y-94298862D01*
X47904645Y-94472317D01*
X47576441Y-94472317D01*
X47576441Y-93913444D01*
X47653787Y-93836098D01*
X47707710Y-93793114D01*
X47776704Y-93761874D01*
X47869319Y-93741232D01*
X47994103Y-93730040D01*
X48159606Y-93727152D01*
X48374378Y-93731423D01*
X48374378Y-93731423D01*
G37*
X48374378Y-93731423D02*
X48422677Y-93732990D01*
X48655536Y-93745685D01*
X48841910Y-93768363D01*
X48994721Y-93804449D01*
X49126887Y-93857366D01*
X49251328Y-93930541D01*
X49301381Y-93965916D01*
X49429691Y-94095920D01*
X49519128Y-94262837D01*
X49566828Y-94455883D01*
X49569929Y-94664273D01*
X49535082Y-94846377D01*
X49489538Y-94967736D01*
X49423078Y-95070179D01*
X49335557Y-95164194D01*
X49257957Y-95236627D01*
X49195934Y-95288759D01*
X49162450Y-95309728D01*
X49161863Y-95309765D01*
X49121011Y-95320417D01*
X49049158Y-95346943D01*
X49025666Y-95356543D01*
X48913711Y-95403321D01*
X48988530Y-95483543D01*
X49051548Y-95560175D01*
X49119702Y-95655967D01*
X49140753Y-95688734D01*
X49176115Y-95754547D01*
X49226151Y-95859208D01*
X49286296Y-95991912D01*
X49351981Y-96141858D01*
X49418642Y-96298242D01*
X49481710Y-96450262D01*
X49536619Y-96587115D01*
X49578802Y-96697998D01*
X49603694Y-96772107D01*
X49608441Y-96795089D01*
X49583184Y-96846010D01*
X49520146Y-96873795D01*
X49438429Y-96873645D01*
X49377747Y-96853031D01*
X49343137Y-96829871D01*
X49309400Y-96792861D01*
X49272328Y-96734161D01*
X49227716Y-96645934D01*
X49171358Y-96520342D01*
X49099047Y-96349546D01*
X49069870Y-96279278D01*
X48976567Y-96058472D01*
X48898438Y-95887277D01*
X48830430Y-95759067D01*
X48767487Y-95667215D01*
X48704557Y-95605096D01*
X48636586Y-95566083D01*
X48558519Y-95543550D01*
X48502091Y-95534859D01*
X48381774Y-95525661D01*
X48237604Y-95522265D01*
X48129265Y-95524393D01*
X47920088Y-95533882D01*
X47905147Y-96171349D01*
X47899810Y-96383480D01*
X47894516Y-96543794D01*
X47888411Y-96660230D01*
X47880644Y-96740728D01*
X47870363Y-96793230D01*
X47856715Y-96825674D01*
X47838850Y-96846001D01*
X47832200Y-96851172D01*
X47763073Y-96888348D01*
X47700362Y-96881160D01*
X47642855Y-96847011D01*
X47576441Y-96800493D01*
X47576441Y-94472317D01*
X47904645Y-94472317D01*
X47905147Y-94657302D01*
X47905147Y-95257796D01*
X48301088Y-95243742D01*
X48477767Y-95235758D01*
X48608900Y-95224890D01*
X48708701Y-95209020D01*
X48791381Y-95186032D01*
X48854129Y-95161365D01*
X49026684Y-95058520D01*
X49151452Y-94923171D01*
X49225494Y-94760065D01*
X49245872Y-94573949D01*
X49243124Y-94533075D01*
X49203835Y-94364393D01*
X49118959Y-94230237D01*
X48983745Y-94123979D01*
X48928825Y-94094667D01*
X48848936Y-94058543D01*
X48773737Y-94033882D01*
X48687601Y-94017908D01*
X48574901Y-94007841D01*
X48420010Y-94000904D01*
X48396985Y-94000121D01*
X48238003Y-93994037D01*
X48117408Y-93992464D01*
X48029926Y-94002446D01*
X47970283Y-94031031D01*
X47933207Y-94085265D01*
X47913424Y-94172193D01*
X47905661Y-94298862D01*
X47904645Y-94472317D01*
X47576441Y-94472317D01*
X47576441Y-93913444D01*
X47653787Y-93836098D01*
X47707710Y-93793114D01*
X47776704Y-93761874D01*
X47869319Y-93741232D01*
X47994103Y-93730040D01*
X48159606Y-93727152D01*
X48374378Y-93731423D01*
G36*
X51098640Y-93743906D02*
G01*
X51243379Y-93747391D01*
X51351380Y-93754134D01*
X51434152Y-93765278D01*
X51503203Y-93781964D01*
X51570044Y-93805334D01*
X51580676Y-93809521D01*
X51772238Y-93910058D01*
X51912688Y-94040328D01*
X52004396Y-94203391D01*
X52049734Y-94402309D01*
X52051175Y-94417030D01*
X52055878Y-94530884D01*
X52041298Y-94622466D01*
X52001309Y-94723816D01*
X51986680Y-94754318D01*
X51875730Y-94918974D01*
X51726134Y-95049445D01*
X51551941Y-95133607D01*
X51544591Y-95135860D01*
X51473734Y-95166556D01*
X51451162Y-95196347D01*
X51479429Y-95216413D01*
X51520198Y-95220118D01*
X51606727Y-95237338D01*
X51718729Y-95282183D01*
X51835424Y-95344429D01*
X51936032Y-95413851D01*
X51964295Y-95438616D01*
X52089189Y-95588811D01*
X52162337Y-95756480D01*
X52189250Y-95954543D01*
X52189497Y-95966500D01*
X52178562Y-96176764D01*
X52134802Y-96349135D01*
X52052695Y-96498883D01*
X51955964Y-96612374D01*
X51850453Y-96710113D01*
X51744084Y-96784097D01*
X51626069Y-96837645D01*
X51485622Y-96874077D01*
X51311955Y-96896711D01*
X51094281Y-96908865D01*
X50983029Y-96911725D01*
X50813830Y-96913214D01*
X50657898Y-96911281D01*
X50528663Y-96906332D01*
X50439553Y-96898776D01*
X50415737Y-96894537D01*
X50322816Y-96853212D01*
X50244514Y-96790312D01*
X50243914Y-96789618D01*
X50176206Y-96710903D01*
X50176206Y-95339647D01*
X50504912Y-95339647D01*
X50504912Y-95968139D01*
X50505070Y-96176976D01*
X50506081Y-96333899D01*
X50508751Y-96446758D01*
X50513885Y-96523404D01*
X50522287Y-96571687D01*
X50534764Y-96599458D01*
X50552120Y-96614568D01*
X50572147Y-96623657D01*
X50644111Y-96638815D01*
X50758809Y-96648127D01*
X50899497Y-96651631D01*
X51049436Y-96649368D01*
X51191884Y-96641377D01*
X51310098Y-96627698D01*
X51341431Y-96621837D01*
X51530029Y-96553737D01*
X51681034Y-96441751D01*
X51789459Y-96291984D01*
X51850313Y-96110541D01*
X51861963Y-95984914D01*
X51842555Y-95803822D01*
X51779568Y-95654232D01*
X51671171Y-95535034D01*
X51515534Y-95445117D01*
X51310826Y-95383371D01*
X51055216Y-95348684D01*
X50798247Y-95339647D01*
X50504912Y-95339647D01*
X50176206Y-95339647D01*
X50176206Y-95339387D01*
X50176847Y-94965856D01*
X50178794Y-94650571D01*
X50182080Y-94392029D01*
X50182756Y-94362518D01*
X50504659Y-94362518D01*
X50504912Y-94543836D01*
X50506077Y-94708723D01*
X50509298Y-94852218D01*
X50514164Y-94963864D01*
X50520264Y-95033205D01*
X50524833Y-95050784D01*
X50567040Y-95062785D01*
X50653908Y-95069087D01*
X50770633Y-95069963D01*
X50902409Y-95065685D01*
X51034433Y-95056527D01*
X51151900Y-95042761D01*
X51176442Y-95038774D01*
X51386903Y-94982009D01*
X51548271Y-94894132D01*
X51659428Y-94776191D01*
X51719254Y-94629233D01*
X51730088Y-94520468D01*
X51709770Y-94351561D01*
X51645846Y-94220227D01*
X51533859Y-94118887D01*
X51474043Y-94084763D01*
X51399526Y-94051008D01*
X51324194Y-94028169D01*
X51232472Y-94013564D01*
X51108784Y-94004509D01*
X50979270Y-93999549D01*
X50813207Y-93994198D01*
X50691142Y-93995013D01*
X50606329Y-94009734D01*
X50552021Y-94046104D01*
X50521472Y-94111863D01*
X50507933Y-94214754D01*
X50504659Y-94362518D01*
X50182756Y-94362518D01*
X50186742Y-94188725D01*
X50192813Y-94039154D01*
X50200327Y-93941812D01*
X50209320Y-93895195D01*
X50209389Y-93895042D01*
X50239261Y-93842745D01*
X50280191Y-93803659D01*
X50340490Y-93775963D01*
X50428469Y-93757837D01*
X50552441Y-93747461D01*
X50720716Y-93743014D01*
X50905653Y-93742538D01*
X51098640Y-93743906D01*
X51098640Y-93743906D01*
G37*
X51098640Y-93743906D02*
X51243379Y-93747391D01*
X51351380Y-93754134D01*
X51434152Y-93765278D01*
X51503203Y-93781964D01*
X51570044Y-93805334D01*
X51580676Y-93809521D01*
X51772238Y-93910058D01*
X51912688Y-94040328D01*
X52004396Y-94203391D01*
X52049734Y-94402309D01*
X52051175Y-94417030D01*
X52055878Y-94530884D01*
X52041298Y-94622466D01*
X52001309Y-94723816D01*
X51986680Y-94754318D01*
X51875730Y-94918974D01*
X51726134Y-95049445D01*
X51551941Y-95133607D01*
X51544591Y-95135860D01*
X51473734Y-95166556D01*
X51451162Y-95196347D01*
X51479429Y-95216413D01*
X51520198Y-95220118D01*
X51606727Y-95237338D01*
X51718729Y-95282183D01*
X51835424Y-95344429D01*
X51936032Y-95413851D01*
X51964295Y-95438616D01*
X52089189Y-95588811D01*
X52162337Y-95756480D01*
X52189250Y-95954543D01*
X52189497Y-95966500D01*
X52178562Y-96176764D01*
X52134802Y-96349135D01*
X52052695Y-96498883D01*
X51955964Y-96612374D01*
X51850453Y-96710113D01*
X51744084Y-96784097D01*
X51626069Y-96837645D01*
X51485622Y-96874077D01*
X51311955Y-96896711D01*
X51094281Y-96908865D01*
X50983029Y-96911725D01*
X50813830Y-96913214D01*
X50657898Y-96911281D01*
X50528663Y-96906332D01*
X50439553Y-96898776D01*
X50415737Y-96894537D01*
X50322816Y-96853212D01*
X50244514Y-96790312D01*
X50243914Y-96789618D01*
X50176206Y-96710903D01*
X50176206Y-95339647D01*
X50504912Y-95339647D01*
X50504912Y-95968139D01*
X50505070Y-96176976D01*
X50506081Y-96333899D01*
X50508751Y-96446758D01*
X50513885Y-96523404D01*
X50522287Y-96571687D01*
X50534764Y-96599458D01*
X50552120Y-96614568D01*
X50572147Y-96623657D01*
X50644111Y-96638815D01*
X50758809Y-96648127D01*
X50899497Y-96651631D01*
X51049436Y-96649368D01*
X51191884Y-96641377D01*
X51310098Y-96627698D01*
X51341431Y-96621837D01*
X51530029Y-96553737D01*
X51681034Y-96441751D01*
X51789459Y-96291984D01*
X51850313Y-96110541D01*
X51861963Y-95984914D01*
X51842555Y-95803822D01*
X51779568Y-95654232D01*
X51671171Y-95535034D01*
X51515534Y-95445117D01*
X51310826Y-95383371D01*
X51055216Y-95348684D01*
X50798247Y-95339647D01*
X50504912Y-95339647D01*
X50176206Y-95339647D01*
X50176206Y-95339387D01*
X50176847Y-94965856D01*
X50178794Y-94650571D01*
X50182080Y-94392029D01*
X50182756Y-94362518D01*
X50504659Y-94362518D01*
X50504912Y-94543836D01*
X50506077Y-94708723D01*
X50509298Y-94852218D01*
X50514164Y-94963864D01*
X50520264Y-95033205D01*
X50524833Y-95050784D01*
X50567040Y-95062785D01*
X50653908Y-95069087D01*
X50770633Y-95069963D01*
X50902409Y-95065685D01*
X51034433Y-95056527D01*
X51151900Y-95042761D01*
X51176442Y-95038774D01*
X51386903Y-94982009D01*
X51548271Y-94894132D01*
X51659428Y-94776191D01*
X51719254Y-94629233D01*
X51730088Y-94520468D01*
X51709770Y-94351561D01*
X51645846Y-94220227D01*
X51533859Y-94118887D01*
X51474043Y-94084763D01*
X51399526Y-94051008D01*
X51324194Y-94028169D01*
X51232472Y-94013564D01*
X51108784Y-94004509D01*
X50979270Y-93999549D01*
X50813207Y-93994198D01*
X50691142Y-93995013D01*
X50606329Y-94009734D01*
X50552021Y-94046104D01*
X50521472Y-94111863D01*
X50507933Y-94214754D01*
X50504659Y-94362518D01*
X50182756Y-94362518D01*
X50186742Y-94188725D01*
X50192813Y-94039154D01*
X50200327Y-93941812D01*
X50209320Y-93895195D01*
X50209389Y-93895042D01*
X50239261Y-93842745D01*
X50280191Y-93803659D01*
X50340490Y-93775963D01*
X50428469Y-93757837D01*
X50552441Y-93747461D01*
X50720716Y-93743014D01*
X50905653Y-93742538D01*
X51098640Y-93743906D01*
G36*
X45775604Y-93744967D02*
G01*
X46037796Y-93803992D01*
X46269286Y-93906259D01*
X46478238Y-94054955D01*
X46589707Y-94160999D01*
X46756203Y-94363156D01*
X46877728Y-94579828D01*
X46957125Y-94819688D01*
X46997237Y-95091411D01*
X47000905Y-95403671D01*
X47000456Y-95414353D01*
X46980064Y-95675484D01*
X46940501Y-95892288D01*
X46876588Y-96078543D01*
X46783144Y-96248026D01*
X46654990Y-96414514D01*
X46602374Y-96473119D01*
X46415048Y-96638387D01*
X46193619Y-96773317D01*
X45958015Y-96866822D01*
X45846656Y-96893566D01*
X45660125Y-96915213D01*
X45448806Y-96919344D01*
X45240073Y-96906538D01*
X45061299Y-96877372D01*
X45059530Y-96876945D01*
X44795586Y-96785169D01*
X44562491Y-96643671D01*
X44409991Y-96509053D01*
X44227242Y-96282566D01*
X44090977Y-96022609D01*
X44002652Y-95735011D01*
X43964157Y-95429037D01*
X44311601Y-95429037D01*
X44344949Y-95697743D01*
X44416699Y-95942231D01*
X44454714Y-96026941D01*
X44583390Y-96226657D01*
X44749700Y-96397437D01*
X44941802Y-96529687D01*
X45147854Y-96613816D01*
X45192502Y-96624622D01*
X45383511Y-96646559D01*
X45594288Y-96640656D01*
X45800163Y-96609238D01*
X45976464Y-96554629D01*
X45987629Y-96549742D01*
X46171221Y-96439427D01*
X46340819Y-96285606D01*
X46480520Y-96104507D01*
X46549183Y-95976656D01*
X46590200Y-95861488D01*
X46628314Y-95716209D01*
X46655909Y-95570288D01*
X46657916Y-95555902D01*
X46674169Y-95254912D01*
X46642121Y-94972322D01*
X46564314Y-94713777D01*
X46443289Y-94484922D01*
X46281589Y-94291402D01*
X46081757Y-94138862D01*
X45999788Y-94094487D01*
X45917386Y-94056846D01*
X45844029Y-94032461D01*
X45762751Y-94018480D01*
X45656588Y-94012052D01*
X45508573Y-94010325D01*
X45498989Y-94010310D01*
X45350782Y-94011196D01*
X45244823Y-94016465D01*
X45163608Y-94029349D01*
X45089630Y-94053082D01*
X45005385Y-94090897D01*
X44970525Y-94107914D01*
X44787706Y-94222263D01*
X44623986Y-94370610D01*
X44495067Y-94537279D01*
X44443253Y-94634290D01*
X44360624Y-94881643D01*
X44316783Y-95151781D01*
X44311601Y-95429037D01*
X43964157Y-95429037D01*
X43963724Y-95425601D01*
X43975648Y-95100207D01*
X44007844Y-94899597D01*
X44095802Y-94607211D01*
X44229323Y-94351767D01*
X44404930Y-94136048D01*
X44619144Y-93962836D01*
X44868490Y-93834913D01*
X45149489Y-93755062D01*
X45458665Y-93726065D01*
X45474542Y-93726000D01*
X45775604Y-93744967D01*
X45775604Y-93744967D01*
G37*
X45775604Y-93744967D02*
X46037796Y-93803992D01*
X46269286Y-93906259D01*
X46478238Y-94054955D01*
X46589707Y-94160999D01*
X46756203Y-94363156D01*
X46877728Y-94579828D01*
X46957125Y-94819688D01*
X46997237Y-95091411D01*
X47000905Y-95403671D01*
X47000456Y-95414353D01*
X46980064Y-95675484D01*
X46940501Y-95892288D01*
X46876588Y-96078543D01*
X46783144Y-96248026D01*
X46654990Y-96414514D01*
X46602374Y-96473119D01*
X46415048Y-96638387D01*
X46193619Y-96773317D01*
X45958015Y-96866822D01*
X45846656Y-96893566D01*
X45660125Y-96915213D01*
X45448806Y-96919344D01*
X45240073Y-96906538D01*
X45061299Y-96877372D01*
X45059530Y-96876945D01*
X44795586Y-96785169D01*
X44562491Y-96643671D01*
X44409991Y-96509053D01*
X44227242Y-96282566D01*
X44090977Y-96022609D01*
X44002652Y-95735011D01*
X43964157Y-95429037D01*
X44311601Y-95429037D01*
X44344949Y-95697743D01*
X44416699Y-95942231D01*
X44454714Y-96026941D01*
X44583390Y-96226657D01*
X44749700Y-96397437D01*
X44941802Y-96529687D01*
X45147854Y-96613816D01*
X45192502Y-96624622D01*
X45383511Y-96646559D01*
X45594288Y-96640656D01*
X45800163Y-96609238D01*
X45976464Y-96554629D01*
X45987629Y-96549742D01*
X46171221Y-96439427D01*
X46340819Y-96285606D01*
X46480520Y-96104507D01*
X46549183Y-95976656D01*
X46590200Y-95861488D01*
X46628314Y-95716209D01*
X46655909Y-95570288D01*
X46657916Y-95555902D01*
X46674169Y-95254912D01*
X46642121Y-94972322D01*
X46564314Y-94713777D01*
X46443289Y-94484922D01*
X46281589Y-94291402D01*
X46081757Y-94138862D01*
X45999788Y-94094487D01*
X45917386Y-94056846D01*
X45844029Y-94032461D01*
X45762751Y-94018480D01*
X45656588Y-94012052D01*
X45508573Y-94010325D01*
X45498989Y-94010310D01*
X45350782Y-94011196D01*
X45244823Y-94016465D01*
X45163608Y-94029349D01*
X45089630Y-94053082D01*
X45005385Y-94090897D01*
X44970525Y-94107914D01*
X44787706Y-94222263D01*
X44623986Y-94370610D01*
X44495067Y-94537279D01*
X44443253Y-94634290D01*
X44360624Y-94881643D01*
X44316783Y-95151781D01*
X44311601Y-95429037D01*
X43964157Y-95429037D01*
X43963724Y-95425601D01*
X43975648Y-95100207D01*
X44007844Y-94899597D01*
X44095802Y-94607211D01*
X44229323Y-94351767D01*
X44404930Y-94136048D01*
X44619144Y-93962836D01*
X44868490Y-93834913D01*
X45149489Y-93755062D01*
X45458665Y-93726065D01*
X45474542Y-93726000D01*
X45775604Y-93744967D01*
D11*
X132437500Y-41243750D03*
X131782501Y-41973750D03*
D12*
X131127500Y-42703750D02*
X132437502Y-41243750D01*
D11*
X137477500Y-40163750D03*
X137457500Y-40453750D03*
D12*
X137437500Y-40743750D02*
X137477500Y-40163750D01*
D11*
X56237500Y-81725000D03*
X55582501Y-82455000D03*
D12*
X54927500Y-83185000D02*
X56237502Y-81725000D01*
D11*
X61277500Y-80645000D03*
X61257500Y-80935000D03*
D12*
X61237500Y-81225000D02*
X61277500Y-80645000D01*
D11*
X288270000Y-99985000D03*
D12*
X288250000Y-100275000D02*
X288290000Y-99695000D01*
D11*
X288290000Y-99695000D03*
X282595001Y-101505000D03*
D12*
X281940000Y-102235000D02*
X283250002Y-100775000D01*
D11*
X283250000Y-100775000D03*
X288270000Y-80935000D03*
D12*
X288250000Y-81225000D02*
X288290000Y-80645000D01*
D11*
X288290000Y-80645000D03*
X282595001Y-82455000D03*
D12*
X281940000Y-83185000D02*
X283250002Y-81725000D01*
D11*
X283250000Y-81725000D03*
X288270000Y-61885000D03*
D12*
X288250000Y-62175000D02*
X288290000Y-61595000D01*
D11*
X288290000Y-61595000D03*
X282595001Y-63405000D03*
D12*
X281940000Y-64135000D02*
X283250002Y-62675000D01*
D11*
X283250000Y-62675000D03*
X288270000Y-42835000D03*
D12*
X288250000Y-43125000D02*
X288290000Y-42545000D01*
D11*
X288290000Y-42545000D03*
X282595001Y-44355000D03*
D12*
X281940000Y-45085000D02*
X283250002Y-43625000D01*
D11*
X283250000Y-43625000D03*
X269220000Y-99985000D03*
D12*
X269200000Y-100275000D02*
X269240000Y-99695000D01*
D11*
X269240000Y-99695000D03*
X263545001Y-101505000D03*
D12*
X262890000Y-102235000D02*
X264200002Y-100775000D01*
D11*
X264200000Y-100775000D03*
X269220000Y-80935000D03*
D12*
X269200000Y-81225000D02*
X269240000Y-80645000D01*
D11*
X269240000Y-80645000D03*
X263545001Y-82455000D03*
D12*
X262890000Y-83185000D02*
X264200002Y-81725000D01*
D11*
X264200000Y-81725000D03*
X269220000Y-61885000D03*
D12*
X269200000Y-62175000D02*
X269240000Y-61595000D01*
D11*
X269240000Y-61595000D03*
X263545001Y-63405000D03*
D12*
X262890000Y-64135000D02*
X264200002Y-62675000D01*
D11*
X264200000Y-62675000D03*
X269220000Y-42835000D03*
D12*
X269200000Y-43125000D02*
X269240000Y-42545000D01*
D11*
X269240000Y-42545000D03*
X263545001Y-44355000D03*
D12*
X262890000Y-45085000D02*
X264200002Y-43625000D01*
D11*
X264200000Y-43625000D03*
X140853538Y-110169654D03*
X141158237Y-111101900D03*
D12*
X141462935Y-112034147D02*
X140853539Y-110169653D01*
D11*
X142438231Y-105264885D03*
X142679379Y-105427205D03*
D12*
X142920526Y-105589526D02*
X142438232Y-105264884D01*
D11*
X132437500Y-79343750D03*
X131782501Y-80073750D03*
D12*
X131127500Y-80803750D02*
X132437502Y-79343750D01*
D11*
X137477500Y-78263750D03*
X137457500Y-78553750D03*
D12*
X137437500Y-78843750D02*
X137477500Y-78263750D01*
D11*
X132437500Y-60293750D03*
X131782501Y-61023750D03*
D12*
X131127500Y-61753750D02*
X132437502Y-60293750D01*
D11*
X137477500Y-59213750D03*
X137457500Y-59503750D03*
D12*
X137437500Y-59793750D02*
X137477500Y-59213750D01*
D11*
X250170000Y-95222500D03*
D12*
X250150000Y-95512500D02*
X250190000Y-94932500D01*
D11*
X250190000Y-94932500D03*
X244495001Y-96742500D03*
D12*
X243840000Y-97472500D02*
X245150002Y-96012500D01*
D11*
X245150000Y-96012500D03*
X250170000Y-76172500D03*
D12*
X250150000Y-76462500D02*
X250190000Y-75882500D01*
D11*
X250190000Y-75882500D03*
X244495001Y-77692500D03*
D12*
X243840000Y-78422500D02*
X245150002Y-76962500D01*
D11*
X245150000Y-76962500D03*
X250170000Y-57122500D03*
D12*
X250150000Y-57412500D02*
X250190000Y-56832500D01*
D11*
X250190000Y-56832500D03*
X244495001Y-58642500D03*
D12*
X243840000Y-59372500D02*
X245150002Y-57912500D01*
D11*
X245150000Y-57912500D03*
X250170000Y-38072500D03*
D12*
X250150000Y-38362500D02*
X250190000Y-37782500D01*
D11*
X250190000Y-37782500D03*
X244495001Y-39592500D03*
D12*
X243840000Y-40322500D02*
X245150002Y-38862500D01*
D11*
X245150000Y-38862500D03*
X123934552Y-98192639D03*
X123112933Y-98728239D03*
D12*
X122291313Y-99263838D02*
X123934553Y-98192640D01*
D11*
X129082342Y-98453887D03*
X128987966Y-98728829D03*
D12*
X128893590Y-99003771D02*
X129082342Y-98453887D01*
D11*
X113387500Y-76962500D03*
X112732501Y-77692500D03*
D12*
X112077500Y-78422500D02*
X113387502Y-76962500D01*
D11*
X118427500Y-75882500D03*
X118407500Y-76172500D03*
D12*
X118387500Y-76462500D02*
X118427500Y-75882500D01*
D11*
X113387500Y-57912500D03*
X112732501Y-58642500D03*
D12*
X112077500Y-59372500D02*
X113387502Y-57912500D01*
D11*
X118427500Y-56832500D03*
X118407500Y-57122500D03*
D12*
X118387500Y-57412500D02*
X118427500Y-56832500D01*
D11*
X113387500Y-38862500D03*
X112732501Y-39592500D03*
D12*
X112077500Y-40322500D02*
X113387502Y-38862500D01*
D11*
X118427500Y-37782500D03*
X118407500Y-38072500D03*
D12*
X118387500Y-38362500D02*
X118427500Y-37782500D01*
D11*
X231120000Y-92841250D03*
D12*
X231100000Y-93131250D02*
X231140000Y-92551250D01*
D11*
X231140000Y-92551250D03*
X225445001Y-94361250D03*
D12*
X224790000Y-95091250D02*
X226100002Y-93631250D01*
D11*
X226100000Y-93631250D03*
X231120000Y-73791250D03*
D12*
X231100000Y-74081250D02*
X231140000Y-73501250D01*
D11*
X231140000Y-73501250D03*
X225445001Y-75311250D03*
D12*
X224790000Y-76041250D02*
X226100002Y-74581250D01*
D11*
X226100000Y-74581250D03*
X231120000Y-54741250D03*
D12*
X231100000Y-55031250D02*
X231140000Y-54451250D01*
D11*
X231140000Y-54451250D03*
X225445001Y-56261250D03*
D12*
X224790000Y-56991250D02*
X226100002Y-55531250D01*
D11*
X226100000Y-55531250D03*
X231120000Y-35691250D03*
D12*
X231100000Y-35981250D02*
X231140000Y-35401250D01*
D11*
X231140000Y-35401250D03*
X225445001Y-37211250D03*
D12*
X224790000Y-37941250D02*
X226100002Y-36481250D01*
D11*
X226100000Y-36481250D03*
X94337500Y-93631250D03*
X93682501Y-94361250D03*
D12*
X93027500Y-95091250D02*
X94337502Y-93631250D01*
D11*
X99377500Y-92551250D03*
X99357500Y-92841250D03*
D12*
X99337500Y-93131250D02*
X99377500Y-92551250D01*
D11*
X94337500Y-74581250D03*
X93682501Y-75311250D03*
D12*
X93027500Y-76041250D02*
X94337502Y-74581250D01*
D11*
X99377500Y-73501250D03*
X99357500Y-73791250D03*
D12*
X99337500Y-74081250D02*
X99377500Y-73501250D01*
D11*
X94337500Y-55531250D03*
X93682501Y-56261250D03*
D12*
X93027500Y-56991250D02*
X94337502Y-55531250D01*
D11*
X99377500Y-54451250D03*
X99357500Y-54741250D03*
D12*
X99337500Y-55031250D02*
X99377500Y-54451250D01*
D11*
X94337500Y-36481250D03*
X93682501Y-37211250D03*
D12*
X93027500Y-37941250D02*
X94337502Y-36481250D01*
D11*
X99377500Y-35401250D03*
X99357500Y-35691250D03*
D12*
X99337500Y-35981250D02*
X99377500Y-35401250D01*
D11*
X201317800Y-97424381D03*
D12*
X201373539Y-97709676D02*
X201262061Y-97139086D01*
D11*
X201262061Y-97139086D03*
X196229576Y-100361387D03*
D12*
X195785832Y-101236039D02*
X196673320Y-99486735D01*
D11*
X196673319Y-99486734D03*
X212070000Y-76172500D03*
D12*
X212050000Y-76462500D02*
X212090000Y-75882500D01*
D11*
X212090000Y-75882500D03*
X206395001Y-77692500D03*
D12*
X205740000Y-78422500D02*
X207050002Y-76962500D01*
D11*
X207050000Y-76962500D03*
X212070000Y-57122500D03*
D12*
X212050000Y-57412500D02*
X212090000Y-56832500D01*
D11*
X212090000Y-56832500D03*
X206395001Y-58642500D03*
D12*
X205740000Y-59372500D02*
X207050002Y-57912500D01*
D11*
X207050000Y-57912500D03*
X212070000Y-38072500D03*
D12*
X212050000Y-38362500D02*
X212090000Y-37782500D01*
D11*
X212090000Y-37782500D03*
X206395001Y-39592500D03*
D12*
X205740000Y-40322500D02*
X207050002Y-38862500D01*
D11*
X207050000Y-38862500D03*
X75287500Y-96012500D03*
X74632501Y-96742500D03*
D12*
X73977500Y-97472500D02*
X75287502Y-96012500D01*
D11*
X80327500Y-94932500D03*
X80307500Y-95222500D03*
D12*
X80287500Y-95512500D02*
X80327500Y-94932500D01*
D11*
X75287500Y-76962500D03*
X74632501Y-77692500D03*
D12*
X73977500Y-78422500D02*
X75287502Y-76962500D01*
D11*
X80327500Y-75882500D03*
X80307500Y-76172500D03*
D12*
X80287500Y-76462500D02*
X80327500Y-75882500D01*
D11*
X75287500Y-57912500D03*
X74632501Y-58642500D03*
D12*
X73977500Y-59372500D02*
X75287502Y-57912500D01*
D11*
X80327500Y-56832500D03*
X80307500Y-57122500D03*
D12*
X80287500Y-57412500D02*
X80327500Y-56832500D01*
D11*
X75287500Y-38862500D03*
X74632501Y-39592500D03*
D12*
X73977500Y-40322500D02*
X75287502Y-38862500D01*
D11*
X80327500Y-37782500D03*
X80307500Y-38072500D03*
D12*
X80287500Y-38362500D02*
X80327500Y-37782500D01*
D11*
X185278122Y-109791974D03*
D12*
X185016974Y-109919654D02*
X185539270Y-109664294D01*
D11*
X185539269Y-109664295D03*
X181124264Y-105637280D03*
D12*
X180164565Y-105435033D02*
X182083963Y-105839527D01*
D11*
X182083962Y-105839526D03*
X193020000Y-78553750D03*
D12*
X193000000Y-78843750D02*
X193040000Y-78263750D01*
D11*
X193040000Y-78263750D03*
X187345001Y-80073750D03*
D12*
X186690000Y-80803750D02*
X188000002Y-79343750D01*
D11*
X188000000Y-79343750D03*
X193020000Y-59503750D03*
D12*
X193000000Y-59793750D02*
X193040000Y-59213750D01*
D11*
X193040000Y-59213750D03*
X187345001Y-61023750D03*
D12*
X186690000Y-61753750D02*
X188000002Y-60293750D01*
D11*
X188000000Y-60293750D03*
X193020000Y-40453750D03*
D12*
X193000000Y-40743750D02*
X193040000Y-40163750D01*
D11*
X193040000Y-40163750D03*
X187345001Y-41973750D03*
D12*
X186690000Y-42703750D02*
X188000002Y-41243750D01*
D11*
X188000000Y-41243750D03*
X56237500Y-100775000D03*
X55582501Y-101505000D03*
D12*
X54927500Y-102235000D02*
X56237502Y-100775000D01*
D11*
X61277500Y-99695000D03*
X61257500Y-99985000D03*
D12*
X61237500Y-100275000D02*
X61277500Y-99695000D01*
D11*
X56237500Y-62675000D03*
X55582501Y-63405000D03*
D12*
X54927500Y-64135000D02*
X56237502Y-62675000D01*
D11*
X61277500Y-61595000D03*
X61257500Y-61885000D03*
D12*
X61237500Y-62175000D02*
X61277500Y-61595000D01*
D11*
X56237500Y-43625000D03*
X55582501Y-44355000D03*
D12*
X54927500Y-45085000D02*
X56237502Y-43625000D01*
D11*
X61277500Y-42545000D03*
X61257500Y-42835000D03*
D12*
X61237500Y-43125000D02*
X61277500Y-42545000D01*
D11*
X37187500Y-100775000D03*
X36532501Y-101505000D03*
D12*
X35877500Y-102235000D02*
X37187502Y-100775000D01*
D11*
X42227500Y-99695000D03*
X42207500Y-99985000D03*
D12*
X42187500Y-100275000D02*
X42227500Y-99695000D01*
D11*
X37187500Y-81725000D03*
X36532501Y-82455000D03*
D12*
X35877500Y-83185000D02*
X37187502Y-81725000D01*
D11*
X42227500Y-80645000D03*
X42207500Y-80935000D03*
D12*
X42187500Y-81225000D02*
X42227500Y-80645000D01*
D11*
X37187500Y-62675000D03*
X36532501Y-63405000D03*
D12*
X35877500Y-64135000D02*
X37187502Y-62675000D01*
D11*
X42227500Y-61595000D03*
X42207500Y-61885000D03*
D12*
X42187500Y-62175000D02*
X42227500Y-61595000D01*
D11*
X37187500Y-43625000D03*
X36532501Y-44355000D03*
D12*
X35877500Y-45085000D02*
X37187502Y-43625000D01*
D11*
X42227500Y-42545000D03*
X42207500Y-42835000D03*
D12*
X42187500Y-43125000D02*
X42227500Y-42545000D01*
D13*
X239395000Y-85566250D03*
X236855000Y-85566250D03*
X239395000Y-88106250D03*
X236855000Y-88106250D03*
X239395000Y-90646250D03*
D14*
X236855000Y-90646250D03*
X86042500Y-90646250D03*
D13*
X88582500Y-90646250D03*
X86042500Y-88106250D03*
X88582500Y-88106250D03*
X86042500Y-85566250D03*
X88582500Y-85566250D03*
D15*
X271724724Y-31859910D03*
D16*
X271776818Y-31564468D02*
X271672630Y-32155352D01*
D15*
X263215985Y-30359590D03*
D16*
X263268079Y-30064148D02*
X263163891Y-30655032D01*
D15*
X270998875Y-35976407D03*
D16*
X271094381Y-35434763D02*
X270903369Y-36518051D01*
D15*
X262490136Y-34476086D03*
D16*
X262585642Y-33934442D02*
X262394630Y-35017730D01*
D15*
X54438625Y-35976407D03*
D16*
X54343119Y-35434763D02*
X54534131Y-36518051D01*
D15*
X62947364Y-34476086D03*
D16*
X62851858Y-33934442D02*
X63042870Y-35017730D01*
D15*
X53712776Y-31859910D03*
D16*
X53660682Y-31564468D02*
X53764870Y-32155352D01*
D15*
X62221515Y-30359590D03*
D16*
X62169421Y-30064148D02*
X62273609Y-30655032D01*
D17*
X216775000Y-31275000D03*
X216775000Y-34275000D03*
X216775000Y-38275000D03*
X221375000Y-39375000D03*
X108662500Y-39375000D03*
X104062500Y-38275000D03*
X104062500Y-34275000D03*
X104062500Y-31275000D03*
D18*
X96393000Y-91059000D03*
X101854000Y-95885000D03*
X129286000Y-89662000D03*
X127889000Y-48387000D03*
X107696000Y-45212000D03*
X99441000Y-46101000D03*
X117475000Y-72771000D03*
X114300000Y-72771000D03*
X116078000Y-90043000D03*
X118872000Y-92837000D03*
X107188000Y-100965000D03*
X106553000Y-91821000D03*
X100203000Y-88138000D03*
X104013000Y-89154000D03*
X115951000Y-101092000D03*
X118872000Y-94488000D03*
X126238000Y-92837000D03*
X63881000Y-50800000D03*
X125476000Y-94742000D03*
X126619000Y-47498000D03*
X73025000Y-44831000D03*
X106426000Y-43688000D03*
X104140000Y-43688000D03*
X55753000Y-49276000D03*
X114681000Y-66421000D03*
X112903000Y-68199000D03*
X72644000Y-64516000D03*
X68834000Y-68326000D03*
X126492000Y-95123000D03*
X127762000Y-66802000D03*
X99060000Y-81788000D03*
X125349000Y-83820000D03*
X61341000Y-38608000D03*
X57150000Y-39116000D03*
X109855000Y-101346000D03*
X88900000Y-95250000D03*
X110363000Y-102362000D03*
X87884000Y-95250000D03*
X111379000Y-102362000D03*
X86868000Y-95250000D03*
X111887000Y-101346000D03*
X92964000Y-101981000D03*
X92964000Y-88900000D03*
X92964000Y-85471000D03*
X112077500Y-72707500D03*
X130683000Y-95885000D03*
X107569000Y-91821000D03*
X120523000Y-91567000D03*
X104521000Y-91694000D03*
X98298000Y-89027000D03*
X60452000Y-37846000D03*
X46990000Y-44450000D03*
X57810400Y-38100000D03*
X52197000Y-44323000D03*
X104521000Y-92837000D03*
X103505000Y-93345000D03*
X102489000Y-93853000D03*
X215900000Y-79121000D03*
X221615000Y-44577000D03*
X251460000Y-51943000D03*
X258699000Y-51943000D03*
X235204000Y-45339000D03*
X219837000Y-44577000D03*
X218821000Y-85725000D03*
X208661000Y-86995000D03*
X205740000Y-94488000D03*
X220472000Y-98171000D03*
X222758000Y-85598000D03*
X215900000Y-77851000D03*
X261620000Y-50800000D03*
X251460000Y-50800000D03*
X201422000Y-93218000D03*
X201422000Y-47498000D03*
X239776000Y-69850000D03*
X239649000Y-64262000D03*
X200279000Y-93345000D03*
X200660000Y-66675000D03*
X224028000Y-81788000D03*
X212090000Y-84582000D03*
X192024000Y-100076000D03*
X196977000Y-72898000D03*
X224028000Y-80645000D03*
X233680000Y-81026000D03*
X232664000Y-94996000D03*
X222250000Y-63627000D03*
X200279000Y-94488000D03*
X267589000Y-39751000D03*
X264287000Y-38862000D03*
X210693000Y-97536000D03*
X211582000Y-96774000D03*
X217043000Y-96139000D03*
X231140000Y-95758000D03*
X205613000Y-98298000D03*
X203327000Y-85979000D03*
X203327000Y-89662000D03*
X205359000Y-89789000D03*
X218821000Y-88138000D03*
X243332000Y-65278000D03*
X242316000Y-64770000D03*
X242316000Y-70739000D03*
X262382000Y-70739000D03*
X238506000Y-64262000D03*
X238506000Y-69850000D03*
X281432000Y-71501000D03*
X267589000Y-38608000D03*
X273177000Y-44450000D03*
X264922000Y-37973000D03*
X278511000Y-44450000D03*
X106045000Y-95250000D03*
X106045000Y-98425000D03*
X101600000Y-83312000D03*
X218440000Y-89789000D03*
X218440000Y-92964000D03*
D19*
X96393000Y-91059000D02*
X96393000Y-92964000D01*
X96393000Y-92964000D02*
X99314000Y-95885000D01*
X99314000Y-95885000D02*
X101854000Y-95885000D01*
X104062500Y-32081500D02*
X102743000Y-33401000D01*
X104062500Y-31275000D02*
X104062500Y-32081500D01*
X127635000Y-48641000D02*
X127889000Y-48387000D01*
X128143000Y-88519000D02*
X128143000Y-67691000D01*
X129286000Y-89662000D02*
X128143000Y-88519000D01*
X128651000Y-67183000D02*
X128651000Y-66421000D01*
X128651000Y-66421000D02*
X127635000Y-65405000D01*
X128143000Y-67691000D02*
X128651000Y-67183000D01*
X127635000Y-65405000D02*
X127635000Y-48641000D01*
X99441000Y-45720000D02*
X99441000Y-40767000D01*
X104062500Y-31275000D02*
X104062500Y-31291500D01*
X102743000Y-34290000D02*
X102743000Y-35306000D01*
X102743000Y-33401000D02*
X102743000Y-34290000D01*
X99441000Y-38608000D02*
X102743000Y-35306000D01*
X99441000Y-40767000D02*
X99441000Y-38608000D01*
X107315000Y-44831000D02*
X107696000Y-45212000D01*
X107315000Y-39497000D02*
X107315000Y-44831000D01*
X104648000Y-36830000D02*
X107315000Y-39497000D01*
X104267000Y-36830000D02*
X104648000Y-36830000D01*
X102743000Y-35306000D02*
X104267000Y-36830000D01*
X99441000Y-45720000D02*
X99441000Y-46101000D01*
X102997000Y-88138000D02*
X100203000Y-88138000D01*
X104013000Y-89154000D02*
X102997000Y-88138000D01*
X108077000Y-90043000D02*
X116078000Y-90043000D01*
X106553000Y-91821000D02*
X106553000Y-91567000D01*
X106553000Y-91567000D02*
X108077000Y-90043000D01*
X116078000Y-90043000D02*
X118872000Y-92837000D01*
X118872000Y-98171000D02*
X115951000Y-101092000D01*
X118872000Y-94488000D02*
X118872000Y-98171000D01*
X108662500Y-68883500D02*
X108662500Y-39375000D01*
X99949000Y-77597000D02*
X108662500Y-68883500D01*
X99949000Y-79502000D02*
X99949000Y-77597000D01*
X98171000Y-81280000D02*
X99949000Y-79502000D01*
X100203000Y-88138000D02*
X98171000Y-86106000D01*
X98171000Y-86106000D02*
X98171000Y-81280000D01*
X106553000Y-94234000D02*
X107188000Y-94869000D01*
X106553000Y-91821000D02*
X106553000Y-94234000D01*
X107188000Y-94869000D02*
X107188000Y-100965000D01*
X117475000Y-73279000D02*
X117475000Y-72771000D01*
X117729000Y-73533000D02*
X117475000Y-73279000D01*
X119507000Y-73533000D02*
X117729000Y-73533000D01*
X126238000Y-92837000D02*
X126238000Y-80264000D01*
X126238000Y-80264000D02*
X119507000Y-73533000D01*
X117221000Y-73533000D02*
X117475000Y-73279000D01*
X114300000Y-73279000D02*
X114554000Y-73533000D01*
X114300000Y-72771000D02*
X114300000Y-73279000D01*
X114554000Y-73533000D02*
X117221000Y-73533000D01*
D20*
X125476000Y-94742000D02*
X125603000Y-94742000D01*
X125603000Y-94742000D02*
X127000000Y-93345000D01*
X127000000Y-93345000D02*
X127000000Y-48514000D01*
X127000000Y-47879000D02*
X126619000Y-47498000D01*
X127000000Y-48387000D02*
X127000000Y-47879000D01*
X127000000Y-48514000D02*
X127000000Y-48387000D01*
X63881000Y-50800000D02*
X67056000Y-50800000D01*
X67056000Y-50800000D02*
X73025000Y-44831000D01*
X105410000Y-43688000D02*
X106426000Y-43688000D01*
X104140000Y-43688000D02*
X105410000Y-43688000D01*
X61237500Y-43125000D02*
X59491000Y-43125000D01*
X59491000Y-43125000D02*
X55499000Y-47117000D01*
X55499000Y-47117000D02*
X55499000Y-49022000D01*
X55499000Y-49022000D02*
X55753000Y-49276000D01*
X114681000Y-66421000D02*
X112903000Y-68199000D01*
X72644000Y-64516000D02*
X68834000Y-68326000D01*
X126492000Y-95123000D02*
X126492000Y-94869000D01*
X127508000Y-67056000D02*
X127762000Y-66802000D01*
X127508000Y-93853000D02*
X127508000Y-67056000D01*
X126492000Y-94869000D02*
X127508000Y-93853000D01*
X125603000Y-83566000D02*
X125349000Y-83820000D01*
X125603000Y-80518000D02*
X125603000Y-83566000D01*
X119253000Y-74168000D02*
X125603000Y-80518000D01*
X108458000Y-74168000D02*
X119253000Y-74168000D01*
X99060000Y-81788000D02*
X100838000Y-81788000D01*
X100838000Y-81788000D02*
X108458000Y-74168000D01*
D19*
X61341000Y-38608000D02*
X60833000Y-39116000D01*
X60833000Y-39116000D02*
X57150000Y-39116000D01*
D20*
X35877500Y-45085000D02*
X35877500Y-64135000D01*
X35877500Y-64135000D02*
X35877500Y-83185000D01*
X35877500Y-83185000D02*
X35877500Y-102235000D01*
X109855000Y-101346000D02*
X109347000Y-101854000D01*
X109347000Y-101854000D02*
X106680000Y-101854000D01*
X106680000Y-101854000D02*
X106299000Y-101473000D01*
X106299000Y-101473000D02*
X105029000Y-100203000D01*
X105029000Y-100203000D02*
X92329000Y-100203000D01*
X92329000Y-100203000D02*
X88900000Y-96774000D01*
X88900000Y-96774000D02*
X88900000Y-95250000D01*
X54927500Y-44935000D02*
X56237500Y-43625000D01*
X54927500Y-83185000D02*
X54927500Y-64135000D01*
X54927500Y-64135000D02*
X54927500Y-45085000D01*
X110363000Y-102362000D02*
X106426000Y-102362000D01*
X106426000Y-102362000D02*
X104775000Y-100711000D01*
X104775000Y-100711000D02*
X92075000Y-100711000D01*
X92075000Y-100711000D02*
X87884000Y-96520000D01*
X87884000Y-96520000D02*
X87884000Y-95250000D01*
X54927500Y-83185000D02*
X54927500Y-87693500D01*
X54927500Y-87693500D02*
X60833000Y-93599000D01*
X60833000Y-93599000D02*
X60833000Y-97028000D01*
X55626000Y-102235000D02*
X54927500Y-102235000D01*
X60833000Y-97028000D02*
X55626000Y-102235000D01*
X73977500Y-40322500D02*
X73977500Y-59372500D01*
X73977500Y-59372500D02*
X73977500Y-78422500D01*
X73977500Y-78422500D02*
X73977500Y-97472500D01*
X111379000Y-102362000D02*
X111379000Y-102489000D01*
X111379000Y-102489000D02*
X110744000Y-103124000D01*
X110744000Y-103124000D02*
X109982000Y-103124000D01*
X109982000Y-103124000D02*
X109728000Y-102870000D01*
X109728000Y-102870000D02*
X106172000Y-102870000D01*
X106172000Y-102870000D02*
X104521000Y-101219000D01*
X104521000Y-101219000D02*
X91821000Y-101219000D01*
X91821000Y-101219000D02*
X86868000Y-96266000D01*
X86868000Y-96266000D02*
X86868000Y-95250000D01*
X93027500Y-76041250D02*
X93027500Y-56991250D01*
X93027500Y-37791250D02*
X94337500Y-36481250D01*
X93027500Y-56991250D02*
X93027500Y-37791250D01*
X112141000Y-101600000D02*
X111887000Y-101346000D01*
X112141000Y-102743000D02*
X112141000Y-101600000D01*
X111252000Y-103632000D02*
X112141000Y-102743000D01*
X109728000Y-103632000D02*
X111252000Y-103632000D01*
X104267000Y-101727000D02*
X105918000Y-103378000D01*
X105918000Y-103378000D02*
X109474000Y-103378000D01*
X109474000Y-103378000D02*
X109728000Y-103632000D01*
X93218000Y-101727000D02*
X93599000Y-101727000D01*
X92964000Y-101981000D02*
X93218000Y-101727000D01*
X93599000Y-101727000D02*
X104267000Y-101727000D01*
X93027500Y-95091250D02*
X93027500Y-88963500D01*
X93027500Y-88963500D02*
X92964000Y-88900000D01*
X93027500Y-85407500D02*
X92964000Y-85471000D01*
X93027500Y-76041250D02*
X93027500Y-85407500D01*
X112077500Y-78422500D02*
X120586500Y-78422500D01*
X120586500Y-78422500D02*
X122301000Y-80137000D01*
X122301000Y-99254151D02*
X122291313Y-99263838D01*
X122301000Y-80137000D02*
X122301000Y-99254151D01*
X112077500Y-40322500D02*
X112077500Y-59372500D01*
X112077500Y-59372500D02*
X112077500Y-72707500D01*
X131127500Y-42703750D02*
X131127500Y-61753750D01*
X131127500Y-61753750D02*
X131127500Y-80803750D01*
X131127500Y-100443616D02*
X140853538Y-110169654D01*
X130746500Y-95948500D02*
X131127500Y-95948500D01*
X130683000Y-95885000D02*
X130746500Y-95948500D01*
X131127500Y-80803750D02*
X131127500Y-95948500D01*
X131127500Y-95948500D02*
X131127500Y-100443616D01*
X104521000Y-91694000D02*
X103632000Y-91694000D01*
X103632000Y-91694000D02*
X103251000Y-91694000D01*
X103251000Y-91694000D02*
X102743000Y-91186000D01*
X102743000Y-91186000D02*
X100838000Y-89281000D01*
X108585000Y-90805000D02*
X107569000Y-91821000D01*
X115697000Y-90805000D02*
X108585000Y-90805000D01*
X118491000Y-93599000D02*
X115697000Y-90805000D01*
X119253000Y-93599000D02*
X118491000Y-93599000D01*
X120523000Y-91567000D02*
X120523000Y-92329000D01*
X120523000Y-92329000D02*
X119253000Y-93599000D01*
X98298000Y-89027000D02*
X98552000Y-89281000D01*
X100838000Y-89281000D02*
X98552000Y-89281000D01*
X60452000Y-37846000D02*
X60198000Y-37592000D01*
X60198000Y-37592000D02*
X59944000Y-37338000D01*
X59944000Y-37338000D02*
X56896000Y-37338000D01*
X56896000Y-37338000D02*
X55753000Y-38481000D01*
X55753000Y-38481000D02*
X55753000Y-40767000D01*
X55753000Y-40767000D02*
X53086000Y-43434000D01*
X53086000Y-43434000D02*
X48006000Y-43434000D01*
X48006000Y-43434000D02*
X46990000Y-44450000D01*
X57810400Y-38100000D02*
X56896000Y-38100000D01*
X56896000Y-38100000D02*
X56261000Y-38735000D01*
X56261000Y-38735000D02*
X56261000Y-41021000D01*
X56261000Y-41021000D02*
X53340000Y-43942000D01*
X53340000Y-43942000D02*
X52578000Y-43942000D01*
X52578000Y-43942000D02*
X52197000Y-44323000D01*
X93218000Y-86487000D02*
X89789000Y-86487000D01*
X89789000Y-86487000D02*
X88868250Y-85566250D01*
X104267000Y-92583000D02*
X104521000Y-92837000D01*
X103378000Y-92583000D02*
X104267000Y-92583000D01*
X100584000Y-89789000D02*
X103378000Y-92583000D01*
X97917000Y-89789000D02*
X100584000Y-89789000D01*
X94615000Y-86487000D02*
X94678500Y-86550500D01*
X93218000Y-86487000D02*
X94615000Y-86487000D01*
X94678500Y-86550500D02*
X97917000Y-89789000D01*
X87331550Y-86817200D02*
X86042500Y-88106250D01*
X89357200Y-86817200D02*
X87331550Y-86817200D01*
X89535000Y-86995000D02*
X89357200Y-86817200D01*
X93980000Y-86995000D02*
X89535000Y-86995000D01*
X103378000Y-93345000D02*
X103505000Y-93345000D01*
X100330000Y-90297000D02*
X103378000Y-93345000D01*
X97663000Y-90297000D02*
X100330000Y-90297000D01*
X94361000Y-86995000D02*
X97663000Y-90297000D01*
X93980000Y-86995000D02*
X94361000Y-86995000D01*
X102489000Y-93218000D02*
X102489000Y-93853000D01*
X88931750Y-88106250D02*
X89535000Y-87503000D01*
X89535000Y-87503000D02*
X94107000Y-87503000D01*
X94107000Y-87503000D02*
X97409000Y-90805000D01*
X97409000Y-90805000D02*
X100076000Y-90805000D01*
X88582500Y-88106250D02*
X88931750Y-88106250D01*
X100076000Y-90805000D02*
X102489000Y-93218000D01*
D19*
X216775000Y-31275000D02*
X216775000Y-31355000D01*
X215900000Y-79121000D02*
X216662000Y-78359000D01*
X216662000Y-78359000D02*
X221361000Y-73660000D01*
X221361000Y-73660000D02*
X221361000Y-44831000D01*
X221361000Y-44831000D02*
X221615000Y-44577000D01*
X251460000Y-51943000D02*
X258699000Y-51943000D01*
X236855000Y-90646250D02*
X236823250Y-90646250D01*
X236823250Y-90646250D02*
X235204000Y-89027000D01*
X235204000Y-89027000D02*
X235204000Y-45339000D01*
X220027500Y-44386500D02*
X219837000Y-44577000D01*
X220027500Y-37782500D02*
X220027500Y-44386500D01*
X220027500Y-37782500D02*
X220472000Y-37338000D01*
X216775000Y-32244000D02*
X220472000Y-35941000D01*
X216775000Y-31275000D02*
X216775000Y-32244000D01*
X220472000Y-37338000D02*
X220472000Y-35941000D01*
X209931000Y-85725000D02*
X208661000Y-86995000D01*
X208661000Y-91567000D02*
X205740000Y-94488000D01*
X208661000Y-86995000D02*
X208661000Y-91567000D01*
X222631000Y-85725000D02*
X222758000Y-85598000D01*
X218821000Y-85725000D02*
X222631000Y-85725000D01*
X217551000Y-86995000D02*
X218821000Y-85725000D01*
X220472000Y-98171000D02*
X217551000Y-95250000D01*
X217551000Y-95250000D02*
X217551000Y-86995000D01*
X216281000Y-85725000D02*
X217551000Y-86995000D01*
X215265000Y-85725000D02*
X216281000Y-85725000D01*
X215265000Y-85725000D02*
X209931000Y-85725000D01*
X216154000Y-77851000D02*
X215900000Y-77851000D01*
X220726000Y-73279000D02*
X216154000Y-77851000D01*
X221375000Y-39375000D02*
X220726000Y-40024000D01*
X220726000Y-40024000D02*
X220726000Y-73279000D01*
D20*
X261620000Y-50800000D02*
X255270000Y-50800000D01*
X255270000Y-50800000D02*
X251460000Y-50800000D01*
X201422000Y-93218000D02*
X201422000Y-47498000D01*
X239776000Y-69850000D02*
X239649000Y-69723000D01*
X239649000Y-69723000D02*
X239649000Y-64262000D01*
X200279000Y-93345000D02*
X200279000Y-93218000D01*
X200279000Y-93218000D02*
X200914000Y-92583000D01*
X200914000Y-92583000D02*
X200914000Y-66929000D01*
X200914000Y-66929000D02*
X200660000Y-66675000D01*
X221234000Y-84582000D02*
X222440500Y-83375500D01*
X212090000Y-84582000D02*
X221234000Y-84582000D01*
X224028000Y-81788000D02*
X222440500Y-83375500D01*
X233680000Y-81026000D02*
X233680000Y-81788000D01*
X233680000Y-81788000D02*
X233680000Y-93980000D01*
X233680000Y-93980000D02*
X232664000Y-94996000D01*
X223520000Y-80645000D02*
X224028000Y-80645000D01*
X221996000Y-79121000D02*
X223520000Y-80645000D01*
X222250000Y-63627000D02*
X221996000Y-63881000D01*
X221996000Y-63881000D02*
X221996000Y-68326000D01*
X221996000Y-68326000D02*
X221996000Y-79121000D01*
X196977000Y-92329000D02*
X196977000Y-92456000D01*
X196977000Y-92329000D02*
X196977000Y-72898000D01*
X200279000Y-94488000D02*
X198120000Y-94488000D01*
X196977000Y-93345000D02*
X196977000Y-92456000D01*
X198120000Y-94488000D02*
X196977000Y-93345000D01*
X192532000Y-100076000D02*
X198120000Y-94488000D01*
X192024000Y-100076000D02*
X192532000Y-100076000D01*
D19*
X267589000Y-39751000D02*
X265176000Y-39751000D01*
X265176000Y-39751000D02*
X264287000Y-38862000D01*
D20*
X215646000Y-39243000D02*
X216281000Y-39878000D01*
X216281000Y-74803000D02*
X212090000Y-78994000D01*
X215646000Y-37465000D02*
X215646000Y-39243000D01*
X212090000Y-78994000D02*
X212090000Y-82169000D01*
X212090000Y-82169000D02*
X210820000Y-83439000D01*
X216281000Y-39878000D02*
X216281000Y-74803000D01*
X206629000Y-85852000D02*
X206629000Y-91186000D01*
X209042000Y-83439000D02*
X206629000Y-85852000D01*
X206629000Y-91186000D02*
X204470000Y-93345000D01*
X206502000Y-97282000D02*
X210439000Y-97282000D01*
X210439000Y-97282000D02*
X210693000Y-97536000D01*
X204470000Y-95250000D02*
X206502000Y-97282000D01*
X204470000Y-93345000D02*
X204470000Y-95250000D01*
X210820000Y-83439000D02*
X209042000Y-83439000D01*
X216775000Y-36336000D02*
X215646000Y-37465000D01*
X216775000Y-34275000D02*
X216775000Y-36336000D01*
X216775000Y-74817000D02*
X216775000Y-38275000D01*
X216775000Y-75071000D02*
X216775000Y-74817000D01*
X212598000Y-82423000D02*
X212598000Y-79248000D01*
X211074000Y-83947000D02*
X212598000Y-82423000D01*
X209296000Y-83947000D02*
X211074000Y-83947000D01*
X212598000Y-79248000D02*
X216775000Y-75071000D01*
X211582000Y-96774000D02*
X206756000Y-96774000D01*
X204978000Y-94996000D02*
X204978000Y-93599000D01*
X204978000Y-93599000D02*
X207137000Y-91440000D01*
X206756000Y-96774000D02*
X204978000Y-94996000D01*
X207137000Y-91440000D02*
X207137000Y-86106000D01*
X207137000Y-86106000D02*
X209296000Y-83947000D01*
X239395000Y-90646250D02*
X239395000Y-91059000D01*
X234696000Y-95758000D02*
X234188000Y-95758000D01*
X239395000Y-91059000D02*
X234696000Y-95758000D01*
X231140000Y-95758000D02*
X234188000Y-95758000D01*
X217043000Y-96139000D02*
X213360000Y-96139000D01*
X213360000Y-96139000D02*
X211201000Y-98298000D01*
X211201000Y-98298000D02*
X205613000Y-98298000D01*
X186690000Y-42703750D02*
X186690000Y-61753750D01*
X186690000Y-61753750D02*
X186690000Y-80803750D01*
X186690000Y-101233488D02*
X182083962Y-105839526D01*
X186690000Y-80803750D02*
X186690000Y-101233488D01*
X203327000Y-85979000D02*
X203327000Y-89662000D01*
X195785832Y-100124168D02*
X195785832Y-101236039D01*
X205740000Y-40322500D02*
X205740000Y-59372500D01*
X205740000Y-59372500D02*
X205740000Y-78422500D01*
X196673319Y-99236681D02*
X196673319Y-99486734D01*
X205740000Y-90170000D02*
X196673319Y-99236681D01*
X205359000Y-89789000D02*
X205740000Y-89789000D01*
X205740000Y-78422500D02*
X205740000Y-89789000D01*
X205740000Y-89789000D02*
X205740000Y-90170000D01*
X224790000Y-37941250D02*
X224790000Y-56991250D01*
X224790000Y-56991250D02*
X224790000Y-76041250D01*
X223520000Y-88138000D02*
X224790000Y-89408000D01*
X218821000Y-88138000D02*
X223520000Y-88138000D01*
X224790000Y-89408000D02*
X224790000Y-95091250D01*
X224790000Y-86868000D02*
X223520000Y-88138000D01*
X224790000Y-86741000D02*
X224790000Y-86868000D01*
X224790000Y-76041250D02*
X224790000Y-86741000D01*
X243840000Y-97472500D02*
X243840000Y-78422500D01*
X243840000Y-59372500D02*
X243840000Y-40322500D01*
X243332000Y-65278000D02*
X243840000Y-65278000D01*
X243840000Y-78422500D02*
X243840000Y-65278000D01*
X243840000Y-65278000D02*
X243840000Y-59372500D01*
X262890000Y-45085000D02*
X262890000Y-64135000D01*
X262890000Y-83185000D02*
X262890000Y-102235000D01*
X242316000Y-64770000D02*
X242316000Y-65659000D01*
X242316000Y-65659000D02*
X242316000Y-70739000D01*
X262382000Y-70739000D02*
X262890000Y-70739000D01*
X262890000Y-64135000D02*
X262890000Y-70739000D01*
X262890000Y-70739000D02*
X262890000Y-83185000D01*
X281940000Y-102235000D02*
X281940000Y-83185000D01*
X281940000Y-64135000D02*
X281940000Y-45085000D01*
X238506000Y-64262000D02*
X238506000Y-69596000D01*
X238506000Y-69596000D02*
X238506000Y-69850000D01*
X281432000Y-71501000D02*
X281940000Y-71501000D01*
X281940000Y-83185000D02*
X281940000Y-71501000D01*
X281940000Y-71501000D02*
X281940000Y-64135000D01*
X268097000Y-38608000D02*
X267589000Y-38608000D01*
X273177000Y-44450000D02*
X273177000Y-43688000D01*
X273177000Y-43688000D02*
X268097000Y-38608000D01*
X264922000Y-37973000D02*
X265303000Y-37592000D01*
X265303000Y-37592000D02*
X265557000Y-37846000D01*
X265557000Y-37846000D02*
X268097000Y-37846000D01*
X268097000Y-37846000D02*
X274701000Y-44450000D01*
X274701000Y-44450000D02*
X278511000Y-44450000D01*
D19*
X101600000Y-83312000D02*
X105664000Y-87376000D01*
X105664000Y-87376000D02*
X105664000Y-94869000D01*
X106045000Y-95250000D02*
X105918000Y-95250000D01*
X105918000Y-95250000D02*
X105664000Y-95504000D01*
X105664000Y-98044000D02*
X106045000Y-98425000D01*
X105664000Y-95504000D02*
X105664000Y-98044000D01*
X105791000Y-95250000D02*
X105664000Y-95123000D01*
X106045000Y-95250000D02*
X105791000Y-95250000D01*
X105664000Y-95504000D02*
X105664000Y-95123000D01*
X105664000Y-95123000D02*
X105664000Y-94869000D01*
X218440000Y-92964000D02*
X218440000Y-89789000D01*
M02*
